M48
; DRILL file {KiCad (7.0.0)} date Fri Sep 29 14:09:25 2023
; FORMAT={-:-/ absolute / metric / decimal}
; #@! TF.CreationDate,2023-09-29T14:09:25-04:00
; #@! TF.GenerationSoftware,Kicad,Pcbnew,(7.0.0)
; #@! TF.FileFunction,MixedPlating,1,4
FMAT,2
METRIC
; #@! TA.AperFunction,Plated,PTH,ViaDrill
T1C0.400
; #@! TA.AperFunction,Plated,PTH,ComponentDrill
T2C0.500
; #@! TA.AperFunction,Plated,PTH,ComponentDrill
T3C0.550
; #@! TA.AperFunction,Plated,PTH,ComponentDrill
T4C0.650
; #@! TA.AperFunction,Plated,PTH,ComponentDrill
T5C0.800
; #@! TA.AperFunction,Plated,PTH,ComponentDrill
T6C0.965
; #@! TA.AperFunction,Plated,PTH,ComponentDrill
T7C1.000
; #@! TA.AperFunction,Plated,PTH,ComponentDrill
T8C1.067
; #@! TA.AperFunction,Plated,PTH,ComponentDrill
T9C1.100
; #@! TA.AperFunction,Plated,PTH,ComponentDrill
T10C3.200
%
G90
G05
T1
X105.029Y-127.127
X108.077Y-127.508
X108.585Y-149.606
X108.592Y-150.716
X108.712Y-116.84
X108.839Y-154.051
X108.966Y-126.238
X108.966Y-155.321
X109.056Y-152.091
X109.304Y-122.875
X109.474Y-119.192
X109.728Y-121.031
X109.855Y-116.078
X109.982Y-149.606
X110.109Y-147.034
X110.617Y-128.27
X111.379Y-149.606
X111.76Y-141.859
X111.766Y-152.988
X112.006Y-117.401
X112.776Y-129.064
X113.03Y-115.824
X113.603Y-135.255
X114.173Y-124.729
X114.341Y-120.142
X114.341Y-122.936
X114.681Y-141.224
X114.808Y-121.158
X114.808Y-134.874
X114.899Y-128.271
X114.935Y-117.475
X114.935Y-138.811
X115.062Y-113.429
X115.14Y-139.905
X115.443Y-147.32
X115.443Y-149.987
X115.467Y-146.431
X115.57Y-141.224
X115.763Y-134.874
X115.776Y-132.969
X116.078Y-142.494
X116.647Y-136.906
X116.713Y-118.364
X116.858Y-120.142
X117.094Y-142.494
X117.251Y-128.923
X117.297Y-133.299
X117.348Y-134.874
X117.475Y-130.683
X117.856Y-136.761
X118.11Y-142.494
X118.221Y-138.158
X118.222Y-134.131
X118.237Y-141.351
X118.491Y-124.695
X118.618Y-145.034
X119.192Y-116.694
X119.671Y-145.343
X119.888Y-125.222
X119.888Y-126.365
X120.523Y-153.67
X120.65Y-151.638
X120.837Y-146.582
X121.285Y-145.669
X121.285Y-152.908
X121.774Y-146.749
X121.793Y-147.701
X121.793Y-148.717
X121.92Y-153.67
X122.546Y-135.001
X122.682Y-124.333
X122.936Y-133.731
X123.637Y-143.177
X123.698Y-132.588
X123.952Y-135.763
X124.206Y-145.669
X124.225Y-128.778
X124.714Y-146.558
X125.222Y-145.669
X125.331Y-132.443
X125.857Y-150.114
X126.249Y-146.276
X126.311Y-143.04
X126.492Y-133.604
X126.746Y-137.287
X127.0Y-128.235
X127.508Y-149.479
X127.616Y-146.177
X127.618Y-143.163
X127.635Y-124.841
X127.762Y-150.857
X127.889Y-113.919
X128.143Y-135.89
X128.572Y-143.129
X128.651Y-149.987
X128.923Y-134.729
X129.413Y-127.254
X129.517Y-146.281
X129.794Y-149.479
X130.447Y-156.464
X130.574Y-150.894
X130.701Y-116.713
X130.701Y-142.875
X130.81Y-128.143
X130.937Y-148.971
X131.064Y-118.364
X131.191Y-145.415
X131.381Y-141.705
X131.445Y-126.873
X131.889Y-147.891
X132.207Y-145.415
X132.35Y-115.894
X132.461Y-128.905
X132.461Y-155.321
X132.57Y-129.994
X133.114Y-133.731
X133.223Y-135.509
X133.223Y-145.415
X133.35Y-114.445
X133.368Y-117.094
X135.255Y-156.845
X135.621Y-135.585
X137.287Y-140.97
X137.287Y-142.132
X137.541Y-123.063
X137.541Y-148.717
X137.541Y-152.4
X137.541Y-153.924
X137.795Y-117.094
X137.922Y-126.492
X138.176Y-157.353
X138.303Y-147.701
X139.065Y-122.409
X139.954Y-113.792
X140.589Y-138.811
X142.24Y-148.336
X142.367Y-116.967
X142.367Y-146.304
X142.494Y-151.003
X143.256Y-141.351
X145.614Y-119.398
X145.796Y-122.174
X145.796Y-125.603
X147.32Y-118.618
X147.447Y-121.412
X147.701Y-125.095
T4
X118.349Y-158.496
X119.619Y-158.496
X133.218Y-159.131
X134.488Y-159.131
X135.758Y-159.131
X137.028Y-159.131
X148.59Y-143.764
X148.59Y-145.034
X148.59Y-146.304
X148.59Y-147.574
X148.59Y-149.972
X148.59Y-151.242
X148.717Y-119.141
X148.717Y-120.411
X148.717Y-122.809
X148.717Y-124.079
X148.717Y-126.492
X148.717Y-127.762
X148.717Y-129.032
T5
X122.932Y-156.155
X125.476Y-156.155
X128.032Y-156.155
T6
X122.936Y-117.348
X125.476Y-117.348
X128.016Y-117.348
T7
X103.69Y-130.7
X103.69Y-132.99
X103.69Y-135.28
X103.69Y-137.57
X103.69Y-139.86
X105.67Y-129.555
X105.67Y-131.845
X105.67Y-134.135
X105.67Y-136.425
X105.67Y-138.715
X107.65Y-130.7
X107.65Y-132.99
X107.65Y-135.28
X107.65Y-137.57
X107.65Y-139.86
X119.151Y-122.936
X121.691Y-122.936
X124.231Y-122.936
X126.771Y-122.936
X129.311Y-122.936
X131.851Y-122.936
X148.004Y-132.535
X148.004Y-135.076
X148.004Y-137.615
X148.004Y-140.155
T8
X120.276Y-113.148
X130.676Y-113.148
T9
X122.932Y-158.805
X128.032Y-158.805
T10
X105.0Y-115.0
X105.0Y-156.0
X105.6Y-122.515
X105.6Y-147.515
X146.0Y-115.0
X146.0Y-156.0
T2
X109.419Y-158.933G85X109.419Y-159.583
G05
X116.419Y-158.933G85X116.419Y-159.583
G05
T3
X110.269Y-156.558G85X110.569Y-156.558
G05
X115.269Y-156.558G85X115.569Y-156.558
G05
T0
M30
