%TF.GenerationSoftware,KiCad,Pcbnew,(7.0.0)*%
%TF.CreationDate,2023-09-29T14:09:18-04:00*%
%TF.ProjectId,_HW_ToslinkToDMX,5f48575f-546f-4736-9c69-6e6b546f444d,rev?*%
%TF.SameCoordinates,Original*%
%TF.FileFunction,Copper,L4,Bot*%
%TF.FilePolarity,Positive*%
%FSLAX46Y46*%
G04 Gerber Fmt 4.6, Leading zero omitted, Abs format (unit mm)*
G04 Created by KiCad (PCBNEW (7.0.0)) date 2023-09-29 14:09:18*
%MOMM*%
%LPD*%
G01*
G04 APERTURE LIST*
G04 Aperture macros list*
%AMRoundRect*
0 Rectangle with rounded corners*
0 $1 Rounding radius*
0 $2 $3 $4 $5 $6 $7 $8 $9 X,Y pos of 4 corners*
0 Add a 4 corners polygon primitive as box body*
4,1,4,$2,$3,$4,$5,$6,$7,$8,$9,$2,$3,0*
0 Add four circle primitives for the rounded corners*
1,1,$1+$1,$2,$3*
1,1,$1+$1,$4,$5*
1,1,$1+$1,$6,$7*
1,1,$1+$1,$8,$9*
0 Add four rect primitives between the rounded corners*
20,1,$1+$1,$2,$3,$4,$5,0*
20,1,$1+$1,$4,$5,$6,$7,0*
20,1,$1+$1,$6,$7,$8,$9,0*
20,1,$1+$1,$8,$9,$2,$3,0*%
G04 Aperture macros list end*
%TA.AperFunction,ComponentPad*%
%ADD10C,4.000000*%
%TD*%
%TA.AperFunction,ComponentPad*%
%ADD11R,1.600000X1.600000*%
%TD*%
%TA.AperFunction,ComponentPad*%
%ADD12C,1.600000*%
%TD*%
%TA.AperFunction,ComponentPad*%
%ADD13O,0.890000X1.550000*%
%TD*%
%TA.AperFunction,ComponentPad*%
%ADD14O,1.250000X0.950000*%
%TD*%
%TA.AperFunction,ComponentPad*%
%ADD15C,3.600000*%
%TD*%
%TA.AperFunction,ConnectorPad*%
%ADD16C,5.600000*%
%TD*%
%TA.AperFunction,ComponentPad*%
%ADD17R,1.700000X1.700000*%
%TD*%
%TA.AperFunction,ComponentPad*%
%ADD18O,1.700000X1.700000*%
%TD*%
%TA.AperFunction,ComponentPad*%
%ADD19R,1.000000X1.000000*%
%TD*%
%TA.AperFunction,ComponentPad*%
%ADD20O,1.000000X1.000000*%
%TD*%
%TA.AperFunction,ComponentPad*%
%ADD21C,1.473200*%
%TD*%
%TA.AperFunction,ComponentPad*%
%ADD22C,1.574800*%
%TD*%
%TA.AperFunction,ComponentPad*%
%ADD23R,2.300000X1.500000*%
%TD*%
%TA.AperFunction,ComponentPad*%
%ADD24O,2.300000X1.500000*%
%TD*%
%TA.AperFunction,ComponentPad*%
%ADD25C,1.750000*%
%TD*%
%TA.AperFunction,ComponentPad*%
%ADD26C,1.524000*%
%TD*%
%TA.AperFunction,SMDPad,CuDef*%
%ADD27RoundRect,0.135000X-0.185000X0.135000X-0.185000X-0.135000X0.185000X-0.135000X0.185000X0.135000X0*%
%TD*%
%TA.AperFunction,SMDPad,CuDef*%
%ADD28RoundRect,0.150000X-0.150000X0.512500X-0.150000X-0.512500X0.150000X-0.512500X0.150000X0.512500X0*%
%TD*%
%TA.AperFunction,SMDPad,CuDef*%
%ADD29RoundRect,0.150000X0.587500X0.150000X-0.587500X0.150000X-0.587500X-0.150000X0.587500X-0.150000X0*%
%TD*%
%TA.AperFunction,SMDPad,CuDef*%
%ADD30RoundRect,0.225000X0.250000X-0.225000X0.250000X0.225000X-0.250000X0.225000X-0.250000X-0.225000X0*%
%TD*%
%TA.AperFunction,SMDPad,CuDef*%
%ADD31RoundRect,0.100000X-0.100000X0.130000X-0.100000X-0.130000X0.100000X-0.130000X0.100000X0.130000X0*%
%TD*%
%TA.AperFunction,SMDPad,CuDef*%
%ADD32RoundRect,0.225000X-0.225000X-0.250000X0.225000X-0.250000X0.225000X0.250000X-0.225000X0.250000X0*%
%TD*%
%TA.AperFunction,SMDPad,CuDef*%
%ADD33RoundRect,0.250000X-0.312500X-0.625000X0.312500X-0.625000X0.312500X0.625000X-0.312500X0.625000X0*%
%TD*%
%TA.AperFunction,SMDPad,CuDef*%
%ADD34RoundRect,0.250000X-0.650000X1.000000X-0.650000X-1.000000X0.650000X-1.000000X0.650000X1.000000X0*%
%TD*%
%TA.AperFunction,SMDPad,CuDef*%
%ADD35RoundRect,0.100000X-0.130000X-0.100000X0.130000X-0.100000X0.130000X0.100000X-0.130000X0.100000X0*%
%TD*%
%TA.AperFunction,SMDPad,CuDef*%
%ADD36RoundRect,0.225000X-0.250000X0.225000X-0.250000X-0.225000X0.250000X-0.225000X0.250000X0.225000X0*%
%TD*%
%TA.AperFunction,SMDPad,CuDef*%
%ADD37RoundRect,0.250000X-0.450000X0.262500X-0.450000X-0.262500X0.450000X-0.262500X0.450000X0.262500X0*%
%TD*%
%TA.AperFunction,SMDPad,CuDef*%
%ADD38RoundRect,0.100000X0.130000X0.100000X-0.130000X0.100000X-0.130000X-0.100000X0.130000X-0.100000X0*%
%TD*%
%TA.AperFunction,SMDPad,CuDef*%
%ADD39RoundRect,0.243750X-0.243750X-0.456250X0.243750X-0.456250X0.243750X0.456250X-0.243750X0.456250X0*%
%TD*%
%TA.AperFunction,SMDPad,CuDef*%
%ADD40RoundRect,0.250000X-0.475000X0.250000X-0.475000X-0.250000X0.475000X-0.250000X0.475000X0.250000X0*%
%TD*%
%TA.AperFunction,SMDPad,CuDef*%
%ADD41RoundRect,0.150000X-0.512500X-0.150000X0.512500X-0.150000X0.512500X0.150000X-0.512500X0.150000X0*%
%TD*%
%TA.AperFunction,SMDPad,CuDef*%
%ADD42RoundRect,0.150000X0.150000X-0.850000X0.150000X0.850000X-0.150000X0.850000X-0.150000X-0.850000X0*%
%TD*%
%TA.AperFunction,SMDPad,CuDef*%
%ADD43RoundRect,0.250000X0.262500X0.450000X-0.262500X0.450000X-0.262500X-0.450000X0.262500X-0.450000X0*%
%TD*%
%TA.AperFunction,SMDPad,CuDef*%
%ADD44RoundRect,0.100000X0.100000X-0.130000X0.100000X0.130000X-0.100000X0.130000X-0.100000X-0.130000X0*%
%TD*%
%TA.AperFunction,SMDPad,CuDef*%
%ADD45R,1.803400X0.355600*%
%TD*%
%TA.AperFunction,SMDPad,CuDef*%
%ADD46RoundRect,0.243750X0.456250X-0.243750X0.456250X0.243750X-0.456250X0.243750X-0.456250X-0.243750X0*%
%TD*%
%TA.AperFunction,SMDPad,CuDef*%
%ADD47RoundRect,0.150000X0.512500X0.150000X-0.512500X0.150000X-0.512500X-0.150000X0.512500X-0.150000X0*%
%TD*%
%TA.AperFunction,SMDPad,CuDef*%
%ADD48RoundRect,0.150000X-0.825000X-0.150000X0.825000X-0.150000X0.825000X0.150000X-0.825000X0.150000X0*%
%TD*%
%TA.AperFunction,SMDPad,CuDef*%
%ADD49RoundRect,0.150000X-0.587500X-0.150000X0.587500X-0.150000X0.587500X0.150000X-0.587500X0.150000X0*%
%TD*%
%TA.AperFunction,SMDPad,CuDef*%
%ADD50RoundRect,0.150000X-0.800000X-0.150000X0.800000X-0.150000X0.800000X0.150000X-0.800000X0.150000X0*%
%TD*%
%TA.AperFunction,SMDPad,CuDef*%
%ADD51RoundRect,0.250000X0.450000X-0.262500X0.450000X0.262500X-0.450000X0.262500X-0.450000X-0.262500X0*%
%TD*%
%TA.AperFunction,SMDPad,CuDef*%
%ADD52RoundRect,0.150000X0.150000X-0.512500X0.150000X0.512500X-0.150000X0.512500X-0.150000X-0.512500X0*%
%TD*%
%TA.AperFunction,ViaPad*%
%ADD53C,0.800000*%
%TD*%
%TA.AperFunction,Conductor*%
%ADD54C,0.381000*%
%TD*%
%TA.AperFunction,Conductor*%
%ADD55C,0.203200*%
%TD*%
%TA.AperFunction,Conductor*%
%ADD56C,0.508000*%
%TD*%
%TA.AperFunction,Conductor*%
%ADD57C,0.254000*%
%TD*%
%TA.AperFunction,Conductor*%
%ADD58C,0.762000*%
%TD*%
%TA.AperFunction,Conductor*%
%ADD59C,0.635000*%
%TD*%
%TA.AperFunction,Conductor*%
%ADD60C,1.270000*%
%TD*%
G04 APERTURE END LIST*
D10*
X105600331Y-122515000D03*
X105600331Y-147515000D03*
D11*
X107650330Y-130699999D03*
D12*
X107650331Y-132990000D03*
X107650331Y-135280000D03*
X107650331Y-137570000D03*
X107650331Y-139860000D03*
X105670331Y-129555000D03*
X105670331Y-131845000D03*
X105670331Y-134135000D03*
X105670331Y-136425000D03*
X105670331Y-138715000D03*
X103690331Y-130700000D03*
X103690331Y-132990000D03*
X103690331Y-135280000D03*
X103690331Y-137570000D03*
X103690331Y-139860000D03*
D13*
X109418999Y-159257999D03*
D14*
X110418999Y-156557999D03*
X115418999Y-156557999D03*
D13*
X116418999Y-159257999D03*
D15*
X146000000Y-156000000D03*
D16*
X146000000Y-156000000D03*
D17*
X119150999Y-122935999D03*
D18*
X121690999Y-122935999D03*
X124230999Y-122935999D03*
X126770999Y-122935999D03*
X129310999Y-122935999D03*
X131850999Y-122935999D03*
D19*
X137027999Y-159130999D03*
D20*
X135757999Y-159130999D03*
X134487999Y-159130999D03*
X133217999Y-159130999D03*
D21*
X128016000Y-117348000D03*
X125476000Y-117348000D03*
X122936000Y-117348000D03*
D22*
X120276000Y-113148001D03*
X130676000Y-113148001D03*
D19*
X148716999Y-129031999D03*
D20*
X148716999Y-127761999D03*
X148716999Y-126491999D03*
D23*
X148003499Y-140155499D03*
D24*
X148003499Y-137615499D03*
X148003499Y-135075499D03*
X148003499Y-132535499D03*
D19*
X118348999Y-158495999D03*
D20*
X119618999Y-158495999D03*
D19*
X148716999Y-122808999D03*
D20*
X148716999Y-124078999D03*
D19*
X148589999Y-143763999D03*
D20*
X148589999Y-145033999D03*
X148589999Y-146303999D03*
X148589999Y-147573999D03*
D15*
X105000000Y-115000000D03*
D16*
X105000000Y-115000000D03*
D25*
X128032235Y-156155000D03*
X125476000Y-156155000D03*
X122932235Y-156155000D03*
D26*
X128032235Y-158805000D03*
X122932235Y-158805000D03*
D15*
X146000000Y-115000000D03*
D16*
X146000000Y-115000000D03*
D15*
X105000000Y-156000000D03*
D16*
X105000000Y-156000000D03*
D19*
X148589999Y-149971999D03*
D20*
X148589999Y-151241999D03*
D19*
X148716999Y-120410999D03*
D20*
X148716999Y-119140999D03*
D27*
X139192000Y-116330000D03*
X139192000Y-117350000D03*
D28*
X128336000Y-137546500D03*
X129286000Y-137546500D03*
X130236000Y-137546500D03*
X130236000Y-139821500D03*
X128336000Y-139821500D03*
D29*
X144828500Y-130114000D03*
X144828500Y-132014000D03*
X142953500Y-131064000D03*
D30*
X136779000Y-138316000D03*
X136779000Y-136766000D03*
D31*
X136652000Y-116901000D03*
X136652000Y-117541000D03*
D32*
X116446000Y-144145000D03*
X117996000Y-144145000D03*
D33*
X110678500Y-130683000D03*
X113603500Y-130683000D03*
D34*
X110109000Y-143034000D03*
X110109000Y-147034000D03*
D35*
X113980000Y-142748000D03*
X114620000Y-142748000D03*
D36*
X140589000Y-155943000D03*
X140589000Y-157493000D03*
D37*
X140716000Y-128373500D03*
X140716000Y-130198500D03*
D38*
X128336000Y-133858000D03*
X127696000Y-133858000D03*
D32*
X112702000Y-144165000D03*
X114252000Y-144165000D03*
D39*
X143207500Y-128397000D03*
X145082500Y-128397000D03*
D32*
X116446000Y-150749000D03*
X117996000Y-150749000D03*
D33*
X110678500Y-132969000D03*
X113603500Y-132969000D03*
D28*
X112715000Y-152786500D03*
X113665000Y-152786500D03*
X114615000Y-152786500D03*
X114615000Y-155061500D03*
X112715000Y-155061500D03*
D30*
X138303000Y-138316000D03*
X138303000Y-136766000D03*
D29*
X145971500Y-147894000D03*
X145971500Y-149794000D03*
X144096500Y-148844000D03*
D32*
X112702000Y-150769000D03*
X114252000Y-150769000D03*
D36*
X132588000Y-141592000D03*
X132588000Y-143142000D03*
D40*
X111506000Y-112461000D03*
X111506000Y-114361000D03*
D35*
X127696000Y-132588000D03*
X128336000Y-132588000D03*
D41*
X110821000Y-120142000D03*
X110821000Y-119192000D03*
X110821000Y-118242000D03*
X113096000Y-118242000D03*
X113096000Y-120142000D03*
D42*
X144272000Y-124801000D03*
X143002000Y-124801000D03*
X141732000Y-124801000D03*
X140462000Y-124801000D03*
X139192000Y-124801000D03*
X137922000Y-124801000D03*
X136652000Y-124801000D03*
X135382000Y-124801000D03*
X135382000Y-119801000D03*
X136652000Y-119801000D03*
X137922000Y-119801000D03*
X139192000Y-119801000D03*
X140462000Y-119801000D03*
X141732000Y-119801000D03*
X143002000Y-119801000D03*
X144272000Y-119801000D03*
D43*
X146200500Y-151638000D03*
X144375500Y-151638000D03*
D44*
X136652000Y-127574000D03*
X136652000Y-126934000D03*
D28*
X112715000Y-146309500D03*
X113665000Y-146309500D03*
X114615000Y-146309500D03*
X114615000Y-148584500D03*
X112715000Y-148584500D03*
D45*
X135115299Y-144589499D03*
X135115299Y-143954499D03*
X135115299Y-143319499D03*
X135115299Y-142684499D03*
X135115299Y-142049499D03*
X135115299Y-141414499D03*
X135115299Y-140779499D03*
X135115299Y-140144499D03*
X140220699Y-140144499D03*
X140220699Y-140779499D03*
X140220699Y-141414499D03*
X140220699Y-142049499D03*
X140220699Y-142684499D03*
X140220699Y-143319499D03*
X140220699Y-143954499D03*
X140220699Y-144589499D03*
D46*
X110617000Y-154734500D03*
X110617000Y-152859500D03*
D47*
X117281500Y-114493000D03*
X117281500Y-115443000D03*
X117281500Y-116393000D03*
X115006500Y-116393000D03*
X115006500Y-114493000D03*
D48*
X135574000Y-153924000D03*
X135574000Y-152654000D03*
X135574000Y-151384000D03*
X135574000Y-150114000D03*
X140524000Y-150114000D03*
X140524000Y-151384000D03*
X140524000Y-152654000D03*
X140524000Y-153924000D03*
D36*
X136652000Y-114033000D03*
X136652000Y-115583000D03*
D37*
X109474000Y-112498500D03*
X109474000Y-114323500D03*
D49*
X144096500Y-146304000D03*
X144096500Y-144404000D03*
X145971500Y-145354000D03*
D28*
X116469000Y-146309500D03*
X117419000Y-146309500D03*
X118369000Y-146309500D03*
X118369000Y-148584500D03*
X116469000Y-148584500D03*
D39*
X143207500Y-133985000D03*
X145082500Y-133985000D03*
D30*
X128016000Y-131204000D03*
X128016000Y-129654000D03*
D50*
X130866000Y-133858000D03*
X130866000Y-132588000D03*
X130866000Y-131318000D03*
X130866000Y-130048000D03*
X137866000Y-130048000D03*
X137866000Y-131318000D03*
X137866000Y-132588000D03*
X137866000Y-133858000D03*
D33*
X110678500Y-137541000D03*
X113603500Y-137541000D03*
D51*
X140716000Y-133627500D03*
X140716000Y-131802500D03*
D36*
X145155015Y-137711138D03*
X145155015Y-139261138D03*
X126746000Y-138544000D03*
X126746000Y-140094000D03*
X140716000Y-135369000D03*
X140716000Y-136919000D03*
D41*
X110821000Y-123825000D03*
X110821000Y-122875000D03*
X110821000Y-121925000D03*
X113096000Y-121925000D03*
X113096000Y-123825000D03*
D33*
X110678500Y-135255000D03*
X113603500Y-135255000D03*
X110678500Y-139827000D03*
X113603500Y-139827000D03*
D32*
X125082000Y-135763000D03*
X126632000Y-135763000D03*
D46*
X143256000Y-139621500D03*
X143256000Y-137746500D03*
D52*
X125099615Y-139878088D03*
X124149615Y-139878088D03*
X123199615Y-139878088D03*
X123199615Y-137603088D03*
X125099615Y-137603088D03*
D53*
X137287000Y-140970000D03*
X132461000Y-155321000D03*
X125331405Y-132443405D03*
X135620595Y-135585405D03*
X137541000Y-153924000D03*
X123952000Y-135763000D03*
X117094000Y-142494000D03*
X116078000Y-142494000D03*
X138303000Y-147701000D03*
X143256000Y-141351000D03*
X145796000Y-122174000D03*
X133114500Y-133731000D03*
X114681000Y-141224000D03*
X133350000Y-114444595D03*
X115570000Y-141224000D03*
X139065000Y-122409000D03*
X145796000Y-125603000D03*
X118110000Y-142494000D03*
X137795000Y-117094000D03*
X132461000Y-128905000D03*
X115062000Y-113429500D03*
X121793000Y-148717000D03*
X137541000Y-152400000D03*
X145614167Y-119398500D03*
X109728000Y-121031000D03*
X113603500Y-135255000D03*
X119192000Y-116694500D03*
X127635000Y-124841000D03*
X127889000Y-113919000D03*
X115466900Y-146431000D03*
X137541000Y-148717000D03*
X139954000Y-113792000D03*
X129413000Y-127254000D03*
X131889500Y-147891500D03*
X115763000Y-134874000D03*
X110617000Y-128270000D03*
X132569500Y-129994311D03*
X119888000Y-125222000D03*
X108712000Y-116840000D03*
X122546115Y-135001000D03*
X128143000Y-135890000D03*
X137541000Y-123063000D03*
X115443000Y-149987000D03*
X122936000Y-133731000D03*
X116713000Y-118364000D03*
X115443000Y-147320000D03*
X140589000Y-138811000D03*
X127000000Y-128234810D03*
X108839000Y-154051000D03*
X122682000Y-124333000D03*
X147447000Y-121412000D03*
X128922595Y-134729405D03*
X123698000Y-132588000D03*
X118618000Y-145034000D03*
X128651000Y-149987000D03*
X147320000Y-118618000D03*
X147701000Y-125095000D03*
X112006381Y-117401336D03*
X109056345Y-152090845D03*
X137287000Y-142132000D03*
X130447500Y-156464000D03*
X114808000Y-121158000D03*
X115140227Y-139905227D03*
X142367000Y-116967000D03*
X120650000Y-151638000D03*
X126492000Y-133604000D03*
X114899258Y-128270552D03*
X132349974Y-115893591D03*
X112776000Y-129064100D03*
X118491000Y-124695500D03*
X121920000Y-153670000D03*
X126746000Y-137287000D03*
X129794000Y-149479000D03*
X114173000Y-124729000D03*
X120523000Y-153670000D03*
X121285000Y-152908000D03*
X114808000Y-134874000D03*
X116858500Y-120142000D03*
X124714000Y-146558000D03*
X114341100Y-120142000D03*
X114341100Y-122936000D03*
X111765986Y-152988377D03*
X109982000Y-149606000D03*
X109855000Y-116078000D03*
X130810000Y-128143000D03*
X131445000Y-126873000D03*
X119888000Y-126365000D03*
X127618222Y-143163418D03*
X111379000Y-149606000D03*
X118237000Y-141351000D03*
X117475000Y-130683000D03*
X127508000Y-149479000D03*
X108591517Y-150716239D03*
X108585000Y-149606000D03*
X131064000Y-118364000D03*
X137922000Y-126492000D03*
X109474000Y-119192000D03*
X109304500Y-122875000D03*
X105029000Y-127127000D03*
X125222000Y-145669000D03*
X126248729Y-146276067D03*
X124206000Y-145669000D03*
X123636681Y-143177430D03*
X108966000Y-155321000D03*
X130701500Y-142875000D03*
X130937000Y-148971000D03*
X128572500Y-143129000D03*
X127762000Y-150857500D03*
X129517112Y-146281112D03*
X131380840Y-141705255D03*
X133223000Y-135509000D03*
X125857000Y-150114000D03*
X117856000Y-136760500D03*
X130700595Y-116713000D03*
X118220602Y-138158097D03*
X130573595Y-150893595D03*
X138176000Y-157353000D03*
X114935000Y-117475000D03*
X142367000Y-146304000D03*
X127616500Y-146177000D03*
X142494000Y-151003000D03*
X142240000Y-148336000D03*
X135255000Y-156845000D03*
X121793000Y-147701000D03*
X124225059Y-128777500D03*
X119670655Y-145343155D03*
X118222385Y-134130684D03*
X117251000Y-128923500D03*
X115776500Y-132969000D03*
X114935000Y-138811000D03*
X117348000Y-134874000D03*
X133368500Y-117094000D03*
X108077000Y-127508000D03*
X108966000Y-126238000D03*
X113030000Y-115824000D03*
X117297200Y-133299200D03*
X120836576Y-146582387D03*
X121285000Y-145669000D03*
X121773730Y-146749293D03*
X131191000Y-145415000D03*
X133223000Y-145415000D03*
X132207000Y-145415000D03*
X116647000Y-136906000D03*
X126310722Y-143039533D03*
X111760000Y-141859000D03*
X110109000Y-147034000D03*
D54*
X133114500Y-133731000D02*
X133985000Y-134601500D01*
X130866000Y-131318000D02*
X128130000Y-131318000D01*
D55*
X139573000Y-121539000D02*
X135763000Y-121539000D01*
D54*
X137541000Y-153924000D02*
X135574000Y-153924000D01*
X133985000Y-134601500D02*
X133985000Y-137414000D01*
X132588000Y-138811000D02*
X132588000Y-141592000D01*
X115062000Y-113429500D02*
X115062000Y-114437500D01*
X145614167Y-119398500D02*
X145211667Y-119801000D01*
D56*
X143256000Y-139621500D02*
X143256000Y-141351000D01*
D55*
X135763000Y-121539000D02*
X135382000Y-121158000D01*
D54*
X133985000Y-137414000D02*
X132588000Y-138811000D01*
D55*
X128130000Y-131318000D02*
X128016000Y-131204000D01*
X125082000Y-137585473D02*
X125099615Y-137603088D01*
D57*
X135115300Y-141414500D02*
X132765500Y-141414500D01*
D54*
X126570810Y-131204000D02*
X125331405Y-132443405D01*
X125082000Y-135763000D02*
X125082000Y-137585473D01*
X144994000Y-124801000D02*
X144272000Y-124801000D01*
X145211667Y-119801000D02*
X144272000Y-119801000D01*
X125082000Y-135763000D02*
X123952000Y-135763000D01*
X145796000Y-125603000D02*
X144994000Y-124801000D01*
D55*
X145796000Y-122174000D02*
X140208000Y-122174000D01*
X135382000Y-121158000D02*
X135382000Y-119801000D01*
X115062000Y-114437500D02*
X115006500Y-114493000D01*
X132765500Y-141414500D02*
X132588000Y-141592000D01*
X140208000Y-122174000D02*
X139573000Y-121539000D01*
D54*
X128016000Y-131204000D02*
X126570810Y-131204000D01*
X142113000Y-126492000D02*
X141732000Y-126111000D01*
D55*
X112649000Y-130683000D02*
X111300996Y-129334996D01*
D54*
X122555000Y-135763000D02*
X122555000Y-135009885D01*
D55*
X122555000Y-135009885D02*
X122546115Y-135001000D01*
X113603500Y-130683000D02*
X112649000Y-130683000D01*
D54*
X146304000Y-126492000D02*
X142113000Y-126492000D01*
X111071664Y-117401336D02*
X110821000Y-117652000D01*
X147701000Y-125095000D02*
X146304000Y-126492000D01*
X110821000Y-121298500D02*
X110821000Y-121925000D01*
D58*
X146049377Y-140155500D02*
X148003500Y-140155500D01*
D54*
X141478000Y-138811000D02*
X140589000Y-138811000D01*
X126746000Y-140094000D02*
X125857000Y-139205000D01*
D55*
X112474500Y-136412000D02*
X107301000Y-136412000D01*
D54*
X110821000Y-117652000D02*
X110821000Y-118242000D01*
X139446000Y-137909000D02*
X139446000Y-138557000D01*
X112006381Y-117401336D02*
X111071664Y-117401336D01*
X144780000Y-117983000D02*
X142240000Y-117983000D01*
X139700000Y-138811000D02*
X140589000Y-138811000D01*
X137541000Y-123063000D02*
X135763000Y-123063000D01*
D55*
X105707331Y-134098000D02*
X105670331Y-134135000D01*
X128905000Y-134747000D02*
X128922595Y-134729405D01*
D54*
X130866000Y-130048000D02*
X129540000Y-130048000D01*
X141732000Y-118491000D02*
X141732000Y-119801000D01*
X141859000Y-139954000D02*
X141859000Y-139192000D01*
D55*
X111300996Y-129334996D02*
X105890335Y-129334996D01*
X105890335Y-129334996D02*
X105670331Y-129555000D01*
X112474500Y-138698000D02*
X108812331Y-138698000D01*
X113603500Y-137541000D02*
X112474500Y-136412000D01*
D54*
X122301000Y-139573000D02*
X122606088Y-139878088D01*
X137160000Y-150114000D02*
X135574000Y-150114000D01*
X122606088Y-139878088D02*
X123199615Y-139878088D01*
D55*
X113603500Y-139827000D02*
X112474500Y-138698000D01*
D54*
X111506000Y-115697000D02*
X110363000Y-116840000D01*
X111506000Y-114361000D02*
X111506000Y-115697000D01*
X145415000Y-118618000D02*
X144780000Y-117983000D01*
D55*
X113603500Y-132969000D02*
X112474500Y-131840000D01*
D54*
X142240000Y-117983000D02*
X141732000Y-118491000D01*
X108712000Y-115996552D02*
X108712000Y-116840000D01*
X136734500Y-142684500D02*
X137287000Y-142132000D01*
X135763000Y-123063000D02*
X135382000Y-123444000D01*
X137541000Y-148717000D02*
X137541000Y-149733000D01*
D55*
X108812331Y-138698000D02*
X107650331Y-139860000D01*
D54*
X135115300Y-142684500D02*
X136734500Y-142684500D01*
X141732000Y-126111000D02*
X141732000Y-124801000D01*
X135382000Y-123444000D02*
X135382000Y-124801000D01*
D55*
X112474500Y-131840000D02*
X105675331Y-131840000D01*
D54*
X141859000Y-139192000D02*
X141478000Y-138811000D01*
D55*
X105670331Y-138042669D02*
X105670331Y-138715000D01*
D54*
X147320000Y-118618000D02*
X145415000Y-118618000D01*
X118618000Y-116713000D02*
X119173500Y-116713000D01*
X118298000Y-116393000D02*
X118618000Y-116713000D01*
X110363000Y-116840000D02*
X108712000Y-116840000D01*
X133045500Y-142684500D02*
X132588000Y-143142000D01*
X109474000Y-115234552D02*
X108712000Y-115996552D01*
X137541000Y-149733000D02*
X137160000Y-150114000D01*
X126632000Y-135763000D02*
X128016000Y-135763000D01*
X128016000Y-129654000D02*
X128016000Y-128651000D01*
X128016000Y-128651000D02*
X129413000Y-127254000D01*
X130236000Y-137546500D02*
X130236000Y-136078000D01*
X117281500Y-116393000D02*
X118298000Y-116393000D01*
X109474000Y-114323500D02*
X109474000Y-115234552D01*
D55*
X105675331Y-131840000D02*
X105670331Y-131845000D01*
D58*
X145155015Y-139261138D02*
X146049377Y-140155500D01*
D55*
X112446500Y-134098000D02*
X105707331Y-134098000D01*
X128016000Y-135763000D02*
X128143000Y-135890000D01*
X107301000Y-136412000D02*
X105670331Y-138042669D01*
D54*
X122301000Y-136017000D02*
X122301000Y-139573000D01*
X110553500Y-121031000D02*
X110821000Y-121298500D01*
X141668500Y-140144500D02*
X141859000Y-139954000D01*
D55*
X119173500Y-116713000D02*
X119192000Y-116694500D01*
D54*
X138303000Y-136766000D02*
X139446000Y-137909000D01*
X125857000Y-139205000D02*
X125857000Y-136538000D01*
X139446000Y-138557000D02*
X139700000Y-138811000D01*
X130236000Y-136078000D02*
X128905000Y-134747000D01*
X129146000Y-129654000D02*
X128016000Y-129654000D01*
X122555000Y-135763000D02*
X122301000Y-136017000D01*
X140220700Y-140144500D02*
X141668500Y-140144500D01*
X135115300Y-142684500D02*
X133045500Y-142684500D01*
X125857000Y-136538000D02*
X126632000Y-135763000D01*
D55*
X113603500Y-135255000D02*
X112446500Y-134098000D01*
D54*
X109728000Y-121031000D02*
X110553500Y-121031000D01*
X129540000Y-130048000D02*
X129146000Y-129654000D01*
X127495000Y-138544000D02*
X126746000Y-138544000D01*
X126746000Y-138544000D02*
X126746000Y-137287000D01*
X128336000Y-139385000D02*
X127495000Y-138544000D01*
D55*
X116469000Y-150726000D02*
X116446000Y-150749000D01*
D54*
X128336000Y-139821500D02*
X128336000Y-139385000D01*
D55*
X140589000Y-157493000D02*
X139586000Y-157493000D01*
X147686000Y-149972000D02*
X148590000Y-149972000D01*
X146584342Y-148844000D02*
X146963000Y-149222658D01*
X139586000Y-157493000D02*
X138684000Y-156591000D01*
X147447000Y-145796000D02*
X147447000Y-148829000D01*
X146963000Y-149222658D02*
X146963000Y-149249000D01*
X140524000Y-150114000D02*
X140524000Y-146496000D01*
X144096500Y-148844000D02*
X146584342Y-148844000D01*
X147005000Y-145354000D02*
X147447000Y-145796000D01*
X139192000Y-150114000D02*
X140524000Y-150114000D01*
X147447000Y-148829000D02*
X148590000Y-149972000D01*
X138684000Y-156591000D02*
X138684000Y-150622000D01*
X146963000Y-149249000D02*
X147686000Y-149972000D01*
X140524000Y-146496000D02*
X141666000Y-145354000D01*
X141666000Y-145354000D02*
X145971500Y-145354000D01*
X145971500Y-145354000D02*
X147005000Y-145354000D01*
X138684000Y-150622000D02*
X139192000Y-150114000D01*
X113096000Y-120142000D02*
X114341100Y-120142000D01*
X139941000Y-135369000D02*
X140716000Y-135369000D01*
D54*
X146304000Y-134235000D02*
X148003500Y-132535500D01*
X140716000Y-135369000D02*
X145936000Y-135369000D01*
D55*
X139446000Y-134874000D02*
X139941000Y-135369000D01*
D54*
X146304000Y-135001000D02*
X146304000Y-134235000D01*
D55*
X139065000Y-133858000D02*
X139446000Y-134239000D01*
D54*
X140716000Y-135369000D02*
X140716000Y-133627500D01*
D55*
X139446000Y-134239000D02*
X139446000Y-134874000D01*
D54*
X145936000Y-135369000D02*
X146304000Y-135001000D01*
D55*
X137866000Y-133858000D02*
X139065000Y-133858000D01*
D56*
X141592000Y-136919000D02*
X140716000Y-136919000D01*
X136017000Y-134493000D02*
X136906000Y-135382000D01*
D55*
X146685000Y-130175000D02*
X145796000Y-131064000D01*
D56*
X148003500Y-135075500D02*
X146808000Y-136271000D01*
D55*
X145796000Y-131064000D02*
X142953500Y-131064000D01*
D56*
X137866000Y-130048000D02*
X136017000Y-130048000D01*
X139840000Y-136919000D02*
X140716000Y-136919000D01*
X140716000Y-128373500D02*
X137056500Y-128373500D01*
X146808000Y-136271000D02*
X142240000Y-136271000D01*
X136017000Y-130556000D02*
X136017000Y-134493000D01*
X139573000Y-136652000D02*
X139840000Y-136919000D01*
X138938000Y-135382000D02*
X139573000Y-136017000D01*
X136906000Y-135382000D02*
X138938000Y-135382000D01*
X136017000Y-130048000D02*
X136017000Y-130556000D01*
X139573000Y-136017000D02*
X139573000Y-136652000D01*
X136017000Y-129413000D02*
X136017000Y-130048000D01*
D55*
X146685000Y-128905000D02*
X146685000Y-130175000D01*
X148717000Y-127762000D02*
X147828000Y-127762000D01*
D56*
X137056500Y-128373500D02*
X136017000Y-129413000D01*
X142240000Y-136271000D02*
X141592000Y-136919000D01*
D55*
X147828000Y-127762000D02*
X146685000Y-128905000D01*
X114341100Y-123529900D02*
X114341100Y-122936000D01*
X113096000Y-123825000D02*
X114046000Y-123825000D01*
X114046000Y-123825000D02*
X114341100Y-123529900D01*
X140589000Y-155943000D02*
X140589000Y-153989000D01*
X141745000Y-155943000D02*
X142494000Y-155194000D01*
X142494000Y-153519500D02*
X144375500Y-151638000D01*
X140589000Y-155943000D02*
X141745000Y-155943000D01*
X142494000Y-155194000D02*
X142494000Y-153519500D01*
X140589000Y-153989000D02*
X140524000Y-153924000D01*
D56*
X143387000Y-137615500D02*
X148003500Y-137615500D01*
D55*
X143256000Y-137746500D02*
X143387000Y-137615500D01*
D59*
X110745877Y-152988377D02*
X112767123Y-152988377D01*
D56*
X112715000Y-155061500D02*
X114615000Y-155061500D01*
D55*
X112715000Y-153040500D02*
X112781500Y-152974000D01*
D59*
X112767123Y-152988377D02*
X112781500Y-152974000D01*
X110617000Y-152859500D02*
X110745877Y-152988377D01*
D55*
X112667000Y-152859500D02*
X112781500Y-152974000D01*
D56*
X112715000Y-154807500D02*
X112715000Y-153040500D01*
D55*
X112781500Y-154874000D02*
X112715000Y-154807500D01*
D56*
X115321500Y-152786500D02*
X119619000Y-157084000D01*
X119619000Y-157084000D02*
X119619000Y-158496000D01*
X114615000Y-152786500D02*
X115321500Y-152786500D01*
D55*
X136652000Y-140589000D02*
X136652000Y-138443000D01*
X135115300Y-140779500D02*
X136461500Y-140779500D01*
X136461500Y-140779500D02*
X136652000Y-140589000D01*
X136652000Y-138443000D02*
X136779000Y-138316000D01*
X135877000Y-136766000D02*
X136779000Y-136766000D01*
X134874000Y-135763000D02*
X135877000Y-136766000D01*
X136652000Y-127574000D02*
X135824000Y-127574000D01*
X135824000Y-127574000D02*
X134874000Y-128524000D01*
X134874000Y-128524000D02*
X134874000Y-135763000D01*
D59*
X130676000Y-113148001D02*
X131683001Y-112141000D01*
D60*
X111506000Y-112461000D02*
X107539000Y-112461000D01*
D59*
X129888601Y-112360602D02*
X130676000Y-113148001D01*
X111567000Y-112522000D02*
X112776000Y-112522000D01*
D60*
X116419000Y-157558000D02*
X116419000Y-159258000D01*
X107539000Y-112461000D02*
X105000000Y-115000000D01*
D59*
X113284000Y-112014000D02*
X119141999Y-112014000D01*
D60*
X115419000Y-156558000D02*
X116419000Y-157558000D01*
D59*
X112776000Y-112522000D02*
X113284000Y-112014000D01*
X111506000Y-112461000D02*
X111567000Y-112522000D01*
X119141999Y-112014000D02*
X120276000Y-113148001D01*
X120276000Y-113148001D02*
X121063399Y-112360602D01*
X143141000Y-112141000D02*
X146000000Y-115000000D01*
X121063399Y-112360602D02*
X129888601Y-112360602D01*
X131683001Y-112141000D02*
X143141000Y-112141000D01*
D55*
X133858000Y-133350000D02*
X133858000Y-118872000D01*
X134493000Y-138176000D02*
X134493000Y-133985000D01*
X132588000Y-117602000D02*
X132588000Y-116713000D01*
X134493000Y-133985000D02*
X133858000Y-133350000D01*
X132588000Y-116713000D02*
X135268000Y-114033000D01*
X133477000Y-139827000D02*
X133477000Y-139192000D01*
X133794500Y-140144500D02*
X133477000Y-139827000D01*
X135268000Y-114033000D02*
X136652000Y-114033000D01*
X135115300Y-140144500D02*
X133794500Y-140144500D01*
X133858000Y-118872000D02*
X132588000Y-117602000D01*
X133477000Y-139192000D02*
X134493000Y-138176000D01*
X136652000Y-115583000D02*
X136652000Y-116901000D01*
X138874500Y-140779500D02*
X138303000Y-140208000D01*
X138303000Y-140208000D02*
X138303000Y-138316000D01*
X140220700Y-140779500D02*
X138874500Y-140779500D01*
X137922000Y-126492000D02*
X137922000Y-124801000D01*
X110661500Y-130700000D02*
X107650331Y-130700000D01*
X110678500Y-130683000D02*
X110661500Y-130700000D01*
X110678500Y-132969000D02*
X110657500Y-132990000D01*
X110657500Y-132990000D02*
X107650331Y-132990000D01*
X110653500Y-135280000D02*
X107650331Y-135280000D01*
X110678500Y-135255000D02*
X110653500Y-135280000D01*
X101854000Y-137116331D02*
X101854000Y-140970000D01*
X107442000Y-141732000D02*
X109347000Y-139827000D01*
X109474000Y-119192000D02*
X103820000Y-119192000D01*
X102616000Y-141732000D02*
X107442000Y-141732000D01*
X101854000Y-133443669D02*
X103690331Y-135280000D01*
X103820000Y-119192000D02*
X101854000Y-121158000D01*
X109347000Y-139827000D02*
X110678500Y-139827000D01*
X109474000Y-119192000D02*
X110821000Y-119192000D01*
X101854000Y-121158000D02*
X101854000Y-133443669D01*
X103690331Y-135280000D02*
X101854000Y-137116331D01*
X101854000Y-140970000D02*
X102616000Y-141732000D01*
X109304500Y-122875000D02*
X109281000Y-122875000D01*
X110678500Y-137541000D02*
X109466437Y-137541000D01*
X109466437Y-137541000D02*
X108323437Y-138684000D01*
X108323437Y-138684000D02*
X107315000Y-138684000D01*
X109281000Y-122875000D02*
X105029000Y-127127000D01*
X106172000Y-139827000D02*
X105156000Y-139827000D01*
X103690331Y-137599331D02*
X103690331Y-137570000D01*
X105156000Y-139827000D02*
X104521000Y-139192000D01*
X104521000Y-138430000D02*
X103690331Y-137599331D01*
X107315000Y-138684000D02*
X106172000Y-139827000D01*
X109304500Y-122875000D02*
X110821000Y-122875000D01*
X104521000Y-139192000D02*
X104521000Y-138430000D01*
X139930500Y-132588000D02*
X140716000Y-131802500D01*
X140716000Y-131802500D02*
X141708500Y-131802500D01*
X143207500Y-132509500D02*
X143703000Y-132014000D01*
X143703000Y-132014000D02*
X144828500Y-132014000D01*
X137866000Y-132588000D02*
X139930500Y-132588000D01*
X142113000Y-133604000D02*
X142494000Y-133985000D01*
X143207500Y-133985000D02*
X143207500Y-132509500D01*
X142113000Y-132207000D02*
X142113000Y-133604000D01*
X141708500Y-131802500D02*
X142113000Y-132207000D01*
X142494000Y-133985000D02*
X143207500Y-133985000D01*
X148717000Y-129032000D02*
X146304000Y-131445000D01*
X146304000Y-131445000D02*
X146304000Y-132763500D01*
X146304000Y-132763500D02*
X145082500Y-133985000D01*
X139803500Y-130198500D02*
X139446000Y-130556000D01*
X144828500Y-130114000D02*
X143576000Y-130114000D01*
X140716000Y-130198500D02*
X141708500Y-130198500D01*
X143207500Y-129745500D02*
X143207500Y-128397000D01*
X142240000Y-128397000D02*
X143207500Y-128397000D01*
X141708500Y-130198500D02*
X141986000Y-129921000D01*
X141986000Y-128651000D02*
X142240000Y-128397000D01*
X140716000Y-130198500D02*
X139803500Y-130198500D01*
X139065000Y-131318000D02*
X137866000Y-131318000D01*
X139446000Y-130937000D02*
X139065000Y-131318000D01*
X143576000Y-130114000D02*
X143207500Y-129745500D01*
X139446000Y-130556000D02*
X139446000Y-130937000D01*
X141986000Y-129921000D02*
X141986000Y-128651000D01*
X146050000Y-128397000D02*
X147955000Y-126492000D01*
X145082500Y-128397000D02*
X146050000Y-128397000D01*
X147955000Y-126492000D02*
X148717000Y-126492000D01*
X147882894Y-145034000D02*
X148590000Y-145034000D01*
X147193000Y-151638000D02*
X145971500Y-151638000D01*
X147589000Y-151242000D02*
X147193000Y-151638000D01*
X144096500Y-144404000D02*
X147252894Y-144404000D01*
X148590000Y-151242000D02*
X147589000Y-151242000D01*
X147252894Y-144404000D02*
X147882894Y-145034000D01*
X145971500Y-151638000D02*
X145971500Y-149794000D01*
X123545600Y-147040600D02*
X124206000Y-147701000D01*
X125476000Y-147320000D02*
X125476000Y-145923000D01*
X125095000Y-147701000D02*
X125476000Y-147320000D01*
X123545600Y-144627600D02*
X123545600Y-147040600D01*
X120904000Y-141986000D02*
X123545600Y-144627600D01*
X119151000Y-122936000D02*
X120904000Y-124689000D01*
X120904000Y-124689000D02*
X120904000Y-141986000D01*
X125476000Y-145923000D02*
X125222000Y-145669000D01*
X124206000Y-147701000D02*
X125095000Y-147701000D01*
X125603000Y-148209000D02*
X126248729Y-147563271D01*
X117729000Y-121920000D02*
X117729000Y-125349000D01*
X117729000Y-125349000D02*
X120396000Y-128016000D01*
X118237000Y-121412000D02*
X117729000Y-121920000D01*
X121691000Y-122936000D02*
X120167000Y-121412000D01*
X120396000Y-128016000D02*
X120396000Y-141986000D01*
X120167000Y-121412000D02*
X118237000Y-121412000D01*
X123698000Y-148209000D02*
X125603000Y-148209000D01*
X126248729Y-147563271D02*
X126248729Y-146276067D01*
X120396000Y-141986000D02*
X123190000Y-144780000D01*
X123190000Y-144780000D02*
X123190000Y-147701000D01*
X123190000Y-147701000D02*
X123698000Y-148209000D01*
X124206000Y-144671645D02*
X124206000Y-145669000D01*
X124231000Y-124435000D02*
X121285000Y-127381000D01*
X121285000Y-127381000D02*
X121285000Y-141750645D01*
X124231000Y-122936000D02*
X124231000Y-124435000D01*
X121285000Y-141750645D02*
X124206000Y-144671645D01*
X121793000Y-141333749D02*
X121793000Y-127914000D01*
X121793000Y-127914000D02*
X126771000Y-122936000D01*
X123636681Y-143177430D02*
X121793000Y-141333749D01*
D56*
X109552500Y-154734500D02*
X108966000Y-155321000D01*
X110617000Y-154734500D02*
X109552500Y-154734500D01*
D55*
X130937000Y-148971000D02*
X130937000Y-148082000D01*
X130302000Y-147447000D02*
X130302000Y-144907000D01*
X130302000Y-144907000D02*
X130701500Y-144507500D01*
X130937000Y-148082000D02*
X130302000Y-147447000D01*
X130701500Y-144507500D02*
X130701500Y-142875000D01*
X127743500Y-150876000D02*
X125222000Y-150876000D01*
X128270000Y-144145000D02*
X128572500Y-143842500D01*
X128270000Y-146685000D02*
X128270000Y-144145000D01*
X125222000Y-150876000D02*
X124968000Y-150622000D01*
X127762000Y-150857500D02*
X127743500Y-150876000D01*
X124968000Y-149987000D02*
X128270000Y-146685000D01*
X128572500Y-143842500D02*
X128572500Y-143129000D01*
X124968000Y-150622000D02*
X124968000Y-149987000D01*
X146416000Y-120411000D02*
X145034000Y-121793000D01*
X140462000Y-121412000D02*
X140462000Y-119801000D01*
X148717000Y-120411000D02*
X146416000Y-120411000D01*
X140843000Y-121793000D02*
X140462000Y-121412000D01*
X145034000Y-121793000D02*
X140843000Y-121793000D01*
X143256000Y-121412000D02*
X143002000Y-121158000D01*
X146685000Y-119507000D02*
X144780000Y-121412000D01*
X148717000Y-119141000D02*
X147940000Y-119141000D01*
X143002000Y-121158000D02*
X143002000Y-119801000D01*
X144780000Y-121412000D02*
X143256000Y-121412000D01*
X147940000Y-119141000D02*
X147574000Y-119507000D01*
X147574000Y-119507000D02*
X146685000Y-119507000D01*
X140462000Y-123317000D02*
X140462000Y-124801000D01*
X148698000Y-122828000D02*
X140951000Y-122828000D01*
X148717000Y-122809000D02*
X148698000Y-122828000D01*
X140951000Y-122828000D02*
X140462000Y-123317000D01*
X143002000Y-123571000D02*
X143383000Y-123190000D01*
X143002000Y-124801000D02*
X143002000Y-123571000D01*
X145034000Y-123190000D02*
X145923000Y-124079000D01*
X145923000Y-124079000D02*
X148717000Y-124079000D01*
X143383000Y-123190000D02*
X145034000Y-123190000D01*
X129517112Y-146281112D02*
X129517112Y-144675888D01*
X130048000Y-144145000D02*
X130048000Y-142458104D01*
X130800849Y-141705255D02*
X131380840Y-141705255D01*
X130048000Y-142458104D02*
X130800849Y-141705255D01*
X129517112Y-144675888D02*
X130048000Y-144145000D01*
X129540000Y-143637000D02*
X128778000Y-144399000D01*
X131191000Y-115443000D02*
X117281500Y-115443000D01*
X133350000Y-130937000D02*
X133350000Y-119380000D01*
X132461000Y-131826000D02*
X133350000Y-130937000D01*
X133350000Y-119380000D02*
X131699000Y-117729000D01*
X132461000Y-134747000D02*
X132461000Y-131826000D01*
X133223000Y-136652000D02*
X131572000Y-138303000D01*
X129540000Y-142240000D02*
X129540000Y-143637000D01*
X133223000Y-135509000D02*
X132461000Y-134747000D01*
X131572000Y-140208000D02*
X129540000Y-142240000D01*
X131699000Y-117729000D02*
X131699000Y-115951000D01*
X131699000Y-115951000D02*
X131191000Y-115443000D01*
X128778000Y-144399000D02*
X128778000Y-147193000D01*
X133223000Y-135509000D02*
X133223000Y-136652000D01*
X131572000Y-138303000D02*
X131572000Y-140208000D01*
X128778000Y-147193000D02*
X125857000Y-150114000D01*
X118745000Y-119380000D02*
X116713000Y-121412000D01*
X128033595Y-119380000D02*
X118745000Y-119380000D01*
X119126000Y-128206500D02*
X119126000Y-135490500D01*
X116713000Y-125793500D02*
X119126000Y-128206500D01*
X116713000Y-121412000D02*
X116713000Y-125793500D01*
X130700595Y-116713000D02*
X128033595Y-119380000D01*
X119126000Y-135490500D02*
X117856000Y-136760500D01*
X120015000Y-139952495D02*
X118220602Y-138158097D01*
X122784100Y-144876994D02*
X120015000Y-142107894D01*
X122784100Y-149327100D02*
X122784100Y-144876994D01*
X129956190Y-151511000D02*
X124968000Y-151511000D01*
X124968000Y-151511000D02*
X122784100Y-149327100D01*
X130573595Y-150893595D02*
X129956190Y-151511000D01*
X120015000Y-142107894D02*
X120015000Y-139952495D01*
X138176000Y-157353000D02*
X136906000Y-156083000D01*
X133731000Y-153098500D02*
X134175500Y-152654000D01*
X133731000Y-155067000D02*
X133731000Y-153098500D01*
X136906000Y-156083000D02*
X134747000Y-156083000D01*
X134747000Y-156083000D02*
X133731000Y-155067000D01*
X134175500Y-152654000D02*
X135574000Y-152654000D01*
X114935000Y-116464500D02*
X115006500Y-116393000D01*
X114935000Y-117475000D02*
X114935000Y-116464500D01*
X140524000Y-152654000D02*
X142113000Y-152654000D01*
X142113000Y-152654000D02*
X143256000Y-151511000D01*
X143256000Y-151511000D02*
X143256000Y-150495000D01*
X143256000Y-150495000D02*
X141351000Y-148590000D01*
X141986000Y-146304000D02*
X142367000Y-146304000D01*
X142367000Y-146304000D02*
X143908500Y-146304000D01*
X141351000Y-146939000D02*
X141986000Y-146304000D01*
X141351000Y-148590000D02*
X141351000Y-146939000D01*
X127616500Y-146177000D02*
X126964222Y-145524722D01*
X126964222Y-142402778D02*
X127762000Y-141605000D01*
X130236000Y-140845500D02*
X130236000Y-139821500D01*
X126964222Y-145524722D02*
X126964222Y-142402778D01*
X127762000Y-141605000D02*
X129476500Y-141605000D01*
X129476500Y-141605000D02*
X130236000Y-140845500D01*
X142682000Y-147894000D02*
X145971500Y-147894000D01*
X142240000Y-148336000D02*
X142682000Y-147894000D01*
X142113000Y-151384000D02*
X140524000Y-151384000D01*
X142494000Y-151003000D02*
X142113000Y-151384000D01*
X134239000Y-151384000D02*
X135574000Y-151384000D01*
X133223000Y-152400000D02*
X134239000Y-151384000D01*
X134239000Y-156845000D02*
X133223000Y-155829000D01*
X133223000Y-155829000D02*
X133223000Y-152400000D01*
X135255000Y-156845000D02*
X134239000Y-156845000D01*
X114615000Y-145989000D02*
X114615000Y-146309500D01*
X115316000Y-143444000D02*
X115316000Y-145288000D01*
X115316000Y-145288000D02*
X114615000Y-145989000D01*
X114620000Y-142748000D02*
X115316000Y-143444000D01*
X128016000Y-123444000D02*
X124225059Y-127234941D01*
X117221000Y-121666000D02*
X118110000Y-120777000D01*
X118618000Y-137414000D02*
X119761000Y-136271000D01*
X117221000Y-137795000D02*
X117602000Y-137414000D01*
X121793000Y-147701000D02*
X122428500Y-147065500D01*
X119761000Y-128079500D02*
X117221000Y-125539500D01*
X119507000Y-140589000D02*
X117221000Y-138303000D01*
X124225059Y-127234941D02*
X124225059Y-128777500D01*
X119761000Y-136271000D02*
X119761000Y-128079500D01*
X122428500Y-147065500D02*
X122428500Y-145034500D01*
X118110000Y-120777000D02*
X126873000Y-120777000D01*
X122428500Y-145034500D02*
X119507000Y-142113000D01*
X117221000Y-138303000D02*
X117221000Y-137795000D01*
X119507000Y-142113000D02*
X119507000Y-140589000D01*
X126873000Y-120777000D02*
X128016000Y-121920000D01*
X128016000Y-121920000D02*
X128016000Y-123444000D01*
X117602000Y-137414000D02*
X118618000Y-137414000D01*
X117221000Y-125539500D02*
X117221000Y-121666000D01*
X119670655Y-145343155D02*
X119670655Y-145378345D01*
X119670655Y-145378345D02*
X119253000Y-145796000D01*
X119253000Y-145796000D02*
X119253000Y-146050000D01*
X118993500Y-146309500D02*
X118369000Y-146309500D01*
X119253000Y-146050000D02*
X118993500Y-146309500D01*
X118237000Y-134116069D02*
X118237000Y-128143000D01*
X114350552Y-118242000D02*
X113096000Y-118242000D01*
X116078000Y-119969448D02*
X114350552Y-118242000D01*
X118222385Y-134130684D02*
X118237000Y-134116069D01*
X116078000Y-125984000D02*
X116078000Y-119969448D01*
X118237000Y-128143000D02*
X116078000Y-125984000D01*
X115316000Y-122428000D02*
X114813000Y-121925000D01*
X117251000Y-128046000D02*
X115316000Y-126111000D01*
X115316000Y-126111000D02*
X115316000Y-122428000D01*
X114813000Y-121925000D02*
X113096000Y-121925000D01*
X117251000Y-128923500D02*
X117251000Y-128046000D01*
X128336000Y-133858000D02*
X130866000Y-133858000D01*
X129286000Y-137546500D02*
X129286000Y-136017000D01*
X129286000Y-136017000D02*
X127696000Y-134427000D01*
X127696000Y-134427000D02*
X127696000Y-133858000D01*
X123681104Y-135109000D02*
X123717000Y-135109000D01*
X123199615Y-135590489D02*
X123681104Y-135109000D01*
X123199615Y-137603088D02*
X123199615Y-135590489D01*
X126238000Y-132588000D02*
X127696000Y-132588000D01*
X123717000Y-135109000D02*
X126238000Y-132588000D01*
X114935000Y-137287000D02*
X114935000Y-138811000D01*
X116459000Y-134493000D02*
X116459000Y-135763000D01*
X115776500Y-133810500D02*
X116459000Y-134493000D01*
X115776500Y-132969000D02*
X115776500Y-133810500D01*
X116459000Y-135763000D02*
X114935000Y-137287000D01*
X115570000Y-130302000D02*
X115570000Y-131318000D01*
X134467600Y-118193100D02*
X134467600Y-121640600D01*
X137886104Y-122174000D02*
X139192000Y-123479896D01*
X117348000Y-134302500D02*
X117348000Y-134874000D01*
X116459000Y-132207000D02*
X116459000Y-133413500D01*
X108077000Y-127508000D02*
X112776000Y-127508000D01*
X139192000Y-123479896D02*
X139192000Y-124801000D01*
X116459000Y-133413500D02*
X117348000Y-134302500D01*
X112776000Y-127508000D02*
X115570000Y-130302000D01*
X134467600Y-121640600D02*
X135001000Y-122174000D01*
X115570000Y-131318000D02*
X116459000Y-132207000D01*
X135001000Y-122174000D02*
X137886104Y-122174000D01*
X133368500Y-117094000D02*
X134467600Y-118193100D01*
X114554000Y-126492000D02*
X116332000Y-128270000D01*
X117348000Y-132016500D02*
X117348000Y-133248400D01*
X139192000Y-114173000D02*
X139192000Y-116330000D01*
X131191000Y-114681000D02*
X132842000Y-113030000D01*
X113030000Y-113665000D02*
X113919000Y-112776000D01*
X113030000Y-115824000D02*
X113030000Y-113665000D01*
X118110000Y-112776000D02*
X120015000Y-114681000D01*
X138049000Y-113030000D02*
X139192000Y-114173000D01*
X113919000Y-112776000D02*
X118110000Y-112776000D01*
X116332000Y-128270000D02*
X116332000Y-131000500D01*
X109220000Y-126492000D02*
X114554000Y-126492000D01*
X116332000Y-131000500D02*
X117348000Y-132016500D01*
X120015000Y-114681000D02*
X131191000Y-114681000D01*
X132842000Y-113030000D02*
X138049000Y-113030000D01*
X108966000Y-126238000D02*
X109220000Y-126492000D01*
X117348000Y-133248400D02*
X117297200Y-133299200D01*
X130866000Y-132588000D02*
X128336000Y-132588000D01*
X139192000Y-117350000D02*
X139192000Y-119801000D01*
X134747000Y-146939000D02*
X136525000Y-146939000D01*
X138747500Y-143319500D02*
X140220700Y-143319500D01*
X132207000Y-149479000D02*
X134747000Y-146939000D01*
X137668000Y-144399000D02*
X138747500Y-143319500D01*
X120396000Y-148971000D02*
X124333000Y-152908000D01*
X120836576Y-146582387D02*
X120396000Y-147022963D01*
X136525000Y-146939000D02*
X137668000Y-145796000D01*
X137668000Y-145796000D02*
X137668000Y-144399000D01*
X120396000Y-147022963D02*
X120396000Y-148971000D01*
X124333000Y-152908000D02*
X130429000Y-152908000D01*
X132207000Y-151130000D02*
X132207000Y-149479000D01*
X130429000Y-152908000D02*
X132207000Y-151130000D01*
X120777000Y-145669000D02*
X119888000Y-146558000D01*
X132715000Y-151384000D02*
X132715000Y-149860000D01*
X130556000Y-153543000D02*
X132715000Y-151384000D01*
X132715000Y-149860000D02*
X135128000Y-147447000D01*
X139001500Y-143954500D02*
X140220700Y-143954500D01*
X119888000Y-149098000D02*
X124333000Y-153543000D01*
X119888000Y-146558000D02*
X119888000Y-149098000D01*
X135128000Y-147447000D02*
X136652000Y-147447000D01*
X138049000Y-146050000D02*
X138049000Y-144907000D01*
X121285000Y-145669000D02*
X120777000Y-145669000D01*
X124333000Y-153543000D02*
X130556000Y-153543000D01*
X136652000Y-147447000D02*
X138049000Y-146050000D01*
X138049000Y-144907000D02*
X139001500Y-143954500D01*
X136652000Y-126934000D02*
X136652000Y-124801000D01*
X131572000Y-151003000D02*
X131572000Y-149352000D01*
X124333000Y-152273000D02*
X130302000Y-152273000D01*
X134493000Y-146431000D02*
X136144000Y-146431000D01*
X137287000Y-143764000D02*
X138366500Y-142684500D01*
X121031000Y-148971000D02*
X124333000Y-152273000D01*
X121773730Y-146749293D02*
X121031000Y-147492023D01*
X137287000Y-145288000D02*
X137287000Y-143764000D01*
X131572000Y-149352000D02*
X134493000Y-146431000D01*
X130302000Y-152273000D02*
X131572000Y-151003000D01*
X138366500Y-142684500D02*
X140220700Y-142684500D01*
X136144000Y-146431000D02*
X137287000Y-145288000D01*
X121031000Y-147492023D02*
X121031000Y-148971000D01*
X136652000Y-117541000D02*
X136652000Y-119801000D01*
X132461000Y-144145000D02*
X131191000Y-145415000D01*
X132969000Y-144145000D02*
X132461000Y-144145000D01*
X135115300Y-143319500D02*
X133794500Y-143319500D01*
X133794500Y-143319500D02*
X132969000Y-144145000D01*
X136779000Y-145034000D02*
X136398000Y-145415000D01*
X136779000Y-144399000D02*
X136779000Y-145034000D01*
X136334500Y-143954500D02*
X136779000Y-144399000D01*
X135115300Y-143954500D02*
X136334500Y-143954500D01*
X136398000Y-145415000D02*
X133223000Y-145415000D01*
X133032500Y-144589500D02*
X132207000Y-145415000D01*
X135115300Y-144589500D02*
X133032500Y-144589500D01*
X139001500Y-144589500D02*
X138557000Y-145034000D01*
X136906000Y-147955000D02*
X135636000Y-147955000D01*
X119532400Y-149377400D02*
X119532400Y-146405600D01*
X130683000Y-154178000D02*
X124333000Y-154178000D01*
X133223000Y-150368000D02*
X133223000Y-151638000D01*
X140220700Y-144589500D02*
X139001500Y-144589500D01*
X119532400Y-146405600D02*
X120523000Y-145415000D01*
X135636000Y-147955000D02*
X133223000Y-150368000D01*
X138557000Y-146304000D02*
X136906000Y-147955000D01*
X133223000Y-151638000D02*
X130683000Y-154178000D01*
X124333000Y-154178000D02*
X119532400Y-149377400D01*
X120523000Y-143891000D02*
X119126000Y-142494000D01*
X138557000Y-145034000D02*
X138557000Y-146304000D01*
X116647000Y-138618000D02*
X116647000Y-136906000D01*
X120523000Y-145415000D02*
X120523000Y-143891000D01*
X119126000Y-141097000D02*
X116647000Y-138618000D01*
X119126000Y-142494000D02*
X119126000Y-141097000D01*
X124149615Y-141675615D02*
X125513533Y-143039533D01*
X125513533Y-143039533D02*
X126310722Y-143039533D01*
X124149615Y-139878088D02*
X124149615Y-141675615D01*
D54*
X111760000Y-142748000D02*
X111760000Y-141859000D01*
X111474000Y-143034000D02*
X111760000Y-142748000D01*
X110109000Y-143034000D02*
X111474000Y-143034000D01*
%TA.AperFunction,Conductor*%
G36*
X114873000Y-143526613D02*
G01*
X114918387Y-143572000D01*
X114935000Y-143634000D01*
X114935000Y-144910000D01*
X114918387Y-144972000D01*
X114873000Y-145017387D01*
X114811000Y-145034000D01*
X114173000Y-145034000D01*
X114173000Y-145050326D01*
X114173000Y-145560272D01*
X114160401Y-145614732D01*
X114133115Y-145670547D01*
X114121317Y-145694681D01*
X114119928Y-145704213D01*
X114119928Y-145704214D01*
X114111946Y-145758993D01*
X114111945Y-145759001D01*
X114111300Y-145763431D01*
X114111300Y-145767911D01*
X114111300Y-145767912D01*
X114111300Y-146851080D01*
X114111301Y-146851087D01*
X114111301Y-146855568D01*
X114111946Y-146859998D01*
X114111947Y-146860006D01*
X114119928Y-146914785D01*
X114121317Y-146924319D01*
X114125542Y-146932963D01*
X114125544Y-146932967D01*
X114160401Y-147004268D01*
X114173000Y-147058728D01*
X114173000Y-147193000D01*
X114189326Y-147193000D01*
X115045674Y-147193000D01*
X115062000Y-147193000D01*
X115062000Y-147048500D01*
X115074599Y-146994040D01*
X115076050Y-146991069D01*
X115108683Y-146924319D01*
X115118700Y-146855569D01*
X115118699Y-145968419D01*
X115128138Y-145920967D01*
X115155015Y-145880742D01*
X115494554Y-145541203D01*
X115497398Y-145538728D01*
X115503171Y-145535855D01*
X115534964Y-145500978D01*
X115538878Y-145496879D01*
X115551883Y-145483876D01*
X115555127Y-145479139D01*
X115555899Y-145478210D01*
X115559633Y-145473917D01*
X115576463Y-145455457D01*
X115618012Y-145425565D01*
X115668096Y-145415000D01*
X115827000Y-145415000D01*
X115889000Y-145431613D01*
X115934387Y-145477000D01*
X115951000Y-145539000D01*
X115951000Y-147193000D01*
X115967326Y-147193000D01*
X117077674Y-147193000D01*
X117094000Y-147193000D01*
X117094000Y-144498358D01*
X117096221Y-144477779D01*
X117096984Y-144475600D01*
X117099700Y-144446636D01*
X117099700Y-143843364D01*
X117096984Y-143814400D01*
X117096221Y-143812220D01*
X117094000Y-143791642D01*
X117094000Y-143634000D01*
X117110613Y-143572000D01*
X117156000Y-143526613D01*
X117218000Y-143510000D01*
X119129000Y-143510000D01*
X119191000Y-143526613D01*
X119236387Y-143572000D01*
X119253000Y-143634000D01*
X119253000Y-144853676D01*
X119246419Y-144893534D01*
X119227376Y-144929162D01*
X119148271Y-145032253D01*
X119148268Y-145032256D01*
X119143324Y-145038701D01*
X119140215Y-145046204D01*
X119140214Y-145046208D01*
X119085604Y-145178048D01*
X119085602Y-145178053D01*
X119082494Y-145185558D01*
X119071049Y-145272497D01*
X119066482Y-145307185D01*
X119045118Y-145362123D01*
X119000800Y-145400989D01*
X118943543Y-145415000D01*
X117856000Y-145415000D01*
X117856000Y-149733000D01*
X119404879Y-149733000D01*
X119452332Y-149742439D01*
X119492560Y-149769319D01*
X121502681Y-151779440D01*
X121529561Y-151819668D01*
X121539000Y-151867121D01*
X121539000Y-152022000D01*
X121522387Y-152084000D01*
X121477000Y-152129387D01*
X121415000Y-152146000D01*
X117345000Y-152146000D01*
X117283000Y-152129387D01*
X117237613Y-152084000D01*
X117221000Y-152022000D01*
X117221000Y-147717326D01*
X117221000Y-147701000D01*
X117204674Y-147701000D01*
X115840326Y-147701000D01*
X115824000Y-147701000D01*
X115824000Y-147717326D01*
X115824000Y-150216646D01*
X115823975Y-150219127D01*
X115821898Y-150322912D01*
X115814966Y-150361382D01*
X115797507Y-150411280D01*
X115795016Y-150418400D01*
X115794312Y-150425907D01*
X115794311Y-150425912D01*
X115792570Y-150444478D01*
X115792569Y-150444491D01*
X115792300Y-150447364D01*
X115792300Y-151050636D01*
X115792569Y-151053509D01*
X115792570Y-151053521D01*
X115793904Y-151067742D01*
X115795016Y-151079600D01*
X115797505Y-151086714D01*
X115797507Y-151086722D01*
X115798749Y-151090269D01*
X115805683Y-151133704D01*
X115795487Y-151643480D01*
X115778063Y-151704426D01*
X115732795Y-151748798D01*
X115671512Y-151765000D01*
X114173000Y-151765000D01*
X114173000Y-151781326D01*
X114173000Y-152037272D01*
X114160401Y-152091732D01*
X114125547Y-152163028D01*
X114121317Y-152171681D01*
X114119928Y-152181213D01*
X114119928Y-152181214D01*
X114111946Y-152235993D01*
X114111945Y-152236001D01*
X114111300Y-152240431D01*
X114111300Y-152244911D01*
X114111300Y-152244912D01*
X114111300Y-153328080D01*
X114111300Y-153328093D01*
X114111301Y-153332568D01*
X114121288Y-153401125D01*
X114117610Y-153453768D01*
X114092373Y-153500115D01*
X114050148Y-153531770D01*
X113998584Y-153543000D01*
X113408000Y-153543000D01*
X113346000Y-153526387D01*
X113300613Y-153481000D01*
X113284000Y-153419000D01*
X113284000Y-153144031D01*
X113287526Y-153114669D01*
X113289526Y-153106460D01*
X113292641Y-153098562D01*
X113307293Y-152956038D01*
X113285802Y-152831399D01*
X113284000Y-152810331D01*
X113284000Y-151298021D01*
X113290213Y-151259261D01*
X113301330Y-151237741D01*
X113300442Y-151237272D01*
X113304784Y-151229055D01*
X113310301Y-151221581D01*
X113352984Y-151099600D01*
X113355700Y-151070636D01*
X113355700Y-150467364D01*
X113352984Y-150438400D01*
X113310301Y-150316419D01*
X113304785Y-150308945D01*
X113300442Y-150300728D01*
X113301330Y-150300258D01*
X113290213Y-150278739D01*
X113284000Y-150239979D01*
X113284000Y-149126080D01*
X114111300Y-149126080D01*
X114111301Y-149126087D01*
X114111301Y-149130568D01*
X114111946Y-149134998D01*
X114111947Y-149135006D01*
X114113777Y-149147564D01*
X114121317Y-149199319D01*
X114125542Y-149207963D01*
X114125544Y-149207967D01*
X114158545Y-149275472D01*
X114173161Y-149305369D01*
X114256631Y-149388839D01*
X114362681Y-149440683D01*
X114431431Y-149450700D01*
X114798568Y-149450699D01*
X114867319Y-149440683D01*
X114973369Y-149388839D01*
X115056839Y-149305369D01*
X115108683Y-149199319D01*
X115118700Y-149130569D01*
X115118699Y-148038432D01*
X115108683Y-147969681D01*
X115056839Y-147863631D01*
X114973369Y-147780161D01*
X114867319Y-147728317D01*
X114846727Y-147725316D01*
X114803006Y-147718946D01*
X114802999Y-147718945D01*
X114798569Y-147718300D01*
X114794087Y-147718300D01*
X114435919Y-147718300D01*
X114435905Y-147718300D01*
X114431432Y-147718301D01*
X114427002Y-147718946D01*
X114426993Y-147718947D01*
X114372207Y-147726929D01*
X114372205Y-147726929D01*
X114362681Y-147728317D01*
X114354038Y-147732541D01*
X114354032Y-147732544D01*
X114265860Y-147775649D01*
X114265858Y-147775649D01*
X114256631Y-147780161D01*
X114249368Y-147787423D01*
X114249365Y-147787426D01*
X114180426Y-147856365D01*
X114180423Y-147856368D01*
X114173161Y-147863631D01*
X114121317Y-147969681D01*
X114119928Y-147979213D01*
X114119928Y-147979214D01*
X114111946Y-148033993D01*
X114111945Y-148034001D01*
X114111300Y-148038431D01*
X114111300Y-148042911D01*
X114111300Y-148042912D01*
X114111300Y-149126080D01*
X113284000Y-149126080D01*
X113284000Y-144694021D01*
X113290213Y-144655261D01*
X113301330Y-144633741D01*
X113300442Y-144633272D01*
X113304784Y-144625055D01*
X113310301Y-144617581D01*
X113352984Y-144495600D01*
X113355700Y-144466636D01*
X113355700Y-143863364D01*
X113352984Y-143834400D01*
X113310301Y-143712419D01*
X113304785Y-143704945D01*
X113300442Y-143696728D01*
X113301330Y-143696258D01*
X113290213Y-143674739D01*
X113284000Y-143635979D01*
X113284000Y-143634000D01*
X113300613Y-143572000D01*
X113346000Y-143526613D01*
X113408000Y-143510000D01*
X114811000Y-143510000D01*
X114873000Y-143526613D01*
G37*
%TD.AperFunction*%
%TA.AperFunction,Conductor*%
G36*
X116905000Y-147971613D02*
G01*
X116950387Y-148017000D01*
X116967000Y-148079000D01*
X116967000Y-152400000D01*
X122071879Y-152400000D01*
X122119332Y-152409439D01*
X122159560Y-152436319D01*
X122391681Y-152668440D01*
X122418561Y-152708668D01*
X122428000Y-152756121D01*
X122428000Y-154181000D01*
X122411387Y-154243000D01*
X122366000Y-154288387D01*
X122304000Y-154305000D01*
X117538647Y-154305000D01*
X117491194Y-154295561D01*
X117450966Y-154268681D01*
X116018473Y-152836188D01*
X115991124Y-152794812D01*
X115982179Y-152746028D01*
X116034616Y-150124167D01*
X116035649Y-150110506D01*
X116051909Y-149987000D01*
X116040500Y-149900341D01*
X116039465Y-149881705D01*
X116075570Y-148076520D01*
X116092994Y-148015574D01*
X116138262Y-147971202D01*
X116199545Y-147955000D01*
X116843000Y-147955000D01*
X116905000Y-147971613D01*
G37*
%TD.AperFunction*%
%TA.AperFunction,Conductor*%
G36*
X112835500Y-147844613D02*
G01*
X112880887Y-147890000D01*
X112897500Y-147952000D01*
X112897500Y-149064200D01*
X112897500Y-150239979D01*
X112897693Y-150242410D01*
X112897694Y-150242419D01*
X112902177Y-150298710D01*
X112902178Y-150298722D01*
X112902372Y-150301152D01*
X112902758Y-150303565D01*
X112902760Y-150303575D01*
X112907805Y-150335046D01*
X112908585Y-150339912D01*
X112910124Y-150344589D01*
X112910125Y-150344593D01*
X112945289Y-150451458D01*
X112945292Y-150451465D01*
X112946829Y-150456136D01*
X112949087Y-150460507D01*
X112949090Y-150460514D01*
X112951765Y-150465692D01*
X112958636Y-150481644D01*
X112962200Y-150491828D01*
X112962241Y-150491943D01*
X112969200Y-150532900D01*
X112969200Y-151005100D01*
X112962238Y-151046063D01*
X112958633Y-151056363D01*
X112951769Y-151072302D01*
X112949088Y-151077491D01*
X112949085Y-151077496D01*
X112946826Y-151081871D01*
X112945286Y-151086549D01*
X112945283Y-151086558D01*
X112910125Y-151193406D01*
X112910123Y-151193413D01*
X112908585Y-151198088D01*
X112907805Y-151202950D01*
X112907805Y-151202953D01*
X112902760Y-151234424D01*
X112902758Y-151234437D01*
X112902372Y-151236848D01*
X112902178Y-151239274D01*
X112902177Y-151239289D01*
X112899744Y-151269845D01*
X112880088Y-151327600D01*
X112835269Y-151368992D01*
X112776135Y-151384000D01*
X109423548Y-151384000D01*
X109382593Y-151377042D01*
X109231345Y-151324118D01*
X109224423Y-151323338D01*
X109063268Y-151305180D01*
X109056345Y-151304400D01*
X109049422Y-151305180D01*
X108888266Y-151323338D01*
X108888264Y-151323338D01*
X108881345Y-151324118D01*
X108874776Y-151326416D01*
X108874774Y-151326417D01*
X108730097Y-151377042D01*
X108689142Y-151384000D01*
X108328000Y-151384000D01*
X108266000Y-151367387D01*
X108220613Y-151322000D01*
X108204000Y-151260000D01*
X108204000Y-149349649D01*
X108220721Y-149287462D01*
X108266374Y-149242047D01*
X108328647Y-149225651D01*
X112415000Y-149247000D01*
X112415000Y-147952000D01*
X112431613Y-147890000D01*
X112477000Y-147844613D01*
X112539000Y-147828000D01*
X112773500Y-147828000D01*
X112835500Y-147844613D01*
G37*
%TD.AperFunction*%
%TA.AperFunction,Conductor*%
G36*
X112704169Y-140732290D02*
G01*
X112749464Y-140776880D01*
X112784076Y-140835407D01*
X112784079Y-140835411D01*
X112788051Y-140842127D01*
X112900873Y-140954949D01*
X113038208Y-141036168D01*
X113191426Y-141080682D01*
X113227230Y-141083500D01*
X113977325Y-141083500D01*
X113979770Y-141083500D01*
X114015574Y-141080682D01*
X114168792Y-141036168D01*
X114306127Y-140954949D01*
X114418949Y-140842127D01*
X114433695Y-140817192D01*
X114457536Y-140776880D01*
X114502831Y-140732290D01*
X114564268Y-140716000D01*
X115954000Y-140716000D01*
X116016000Y-140732613D01*
X116061387Y-140778000D01*
X116078000Y-140840000D01*
X116078000Y-141986000D01*
X117742977Y-141986000D01*
X117808949Y-142005006D01*
X117895774Y-142059562D01*
X118062000Y-142117727D01*
X118237000Y-142137445D01*
X118412000Y-142117727D01*
X118432468Y-142110565D01*
X118477946Y-142094652D01*
X118536234Y-142088912D01*
X118590655Y-142110565D01*
X118629067Y-142154780D01*
X118642900Y-142211694D01*
X118642900Y-142428727D01*
X118641509Y-142441655D01*
X118641693Y-142441669D01*
X118641059Y-142450517D01*
X118639175Y-142459182D01*
X118639807Y-142468022D01*
X118639807Y-142468028D01*
X118642584Y-142506843D01*
X118642900Y-142515690D01*
X118642900Y-142528554D01*
X118643529Y-142532934D01*
X118643530Y-142532938D01*
X118644731Y-142541294D01*
X118645676Y-142550084D01*
X118648453Y-142588902D01*
X118649086Y-142597747D01*
X118652183Y-142606051D01*
X118654015Y-142614472D01*
X118656440Y-142622730D01*
X118657702Y-142631505D01*
X118677556Y-142674981D01*
X118680937Y-142683144D01*
X118694151Y-142718573D01*
X118697633Y-142727906D01*
X118702946Y-142735004D01*
X118707071Y-142742558D01*
X118711725Y-142749800D01*
X118715411Y-142757869D01*
X118721220Y-142764573D01*
X118725313Y-142770941D01*
X118739976Y-142803047D01*
X118745000Y-142837984D01*
X118745000Y-142999500D01*
X118728387Y-143061500D01*
X118683000Y-143106887D01*
X118621000Y-143123500D01*
X117218000Y-143123500D01*
X117213983Y-143124028D01*
X117213980Y-143124029D01*
X117121992Y-143136139D01*
X117121977Y-143136141D01*
X117117966Y-143136670D01*
X117114054Y-143137718D01*
X117114045Y-143137720D01*
X117059887Y-143152232D01*
X117059881Y-143152233D01*
X117055966Y-143153283D01*
X117052220Y-143154834D01*
X117052210Y-143154838D01*
X116970262Y-143188782D01*
X116970259Y-143188783D01*
X116962750Y-143191894D01*
X116956304Y-143196839D01*
X116956299Y-143196843D01*
X116885924Y-143250844D01*
X116885919Y-143250847D01*
X116882703Y-143253316D01*
X116879838Y-143256180D01*
X116879830Y-143256188D01*
X116840188Y-143295830D01*
X116840180Y-143295838D01*
X116837316Y-143298703D01*
X116834847Y-143301919D01*
X116834844Y-143301924D01*
X116780843Y-143372299D01*
X116780839Y-143372304D01*
X116775894Y-143378750D01*
X116772783Y-143386259D01*
X116772782Y-143386262D01*
X116738838Y-143468210D01*
X116738834Y-143468220D01*
X116737283Y-143471966D01*
X116736233Y-143475881D01*
X116736232Y-143475887D01*
X116721720Y-143530045D01*
X116721718Y-143530054D01*
X116720670Y-143533966D01*
X116720141Y-143537977D01*
X116720139Y-143537992D01*
X116708029Y-143629980D01*
X116707500Y-143634000D01*
X116707500Y-143791642D01*
X116707587Y-143793264D01*
X116707588Y-143793290D01*
X116709642Y-143831445D01*
X116709732Y-143833116D01*
X116709908Y-143834749D01*
X116709911Y-143834783D01*
X116711953Y-143853694D01*
X116711838Y-143853706D01*
X116713200Y-143870193D01*
X116713200Y-144419801D01*
X116711838Y-144436294D01*
X116711952Y-144436307D01*
X116709909Y-144455231D01*
X116709907Y-144455253D01*
X116709731Y-144456886D01*
X116709643Y-144458520D01*
X116709641Y-144458546D01*
X116707588Y-144496704D01*
X116707587Y-144496739D01*
X116707500Y-144498358D01*
X116707500Y-144500014D01*
X116707500Y-146682500D01*
X116690887Y-146744500D01*
X116645500Y-146789887D01*
X116583500Y-146806500D01*
X116461500Y-146806500D01*
X116399500Y-146789887D01*
X116354113Y-146744500D01*
X116337500Y-146682500D01*
X116337500Y-145543053D01*
X116337500Y-145539000D01*
X116324330Y-145438966D01*
X116307717Y-145376966D01*
X116269106Y-145283750D01*
X116207684Y-145203703D01*
X116162297Y-145158316D01*
X116126513Y-145130858D01*
X116090788Y-145087327D01*
X116078000Y-145032483D01*
X116078000Y-144924405D01*
X116078000Y-144907000D01*
X116062369Y-144899349D01*
X116062367Y-144899348D01*
X115868590Y-144804510D01*
X115817897Y-144758772D01*
X115799100Y-144693134D01*
X115799100Y-143509273D01*
X115800490Y-143496344D01*
X115800307Y-143496331D01*
X115800939Y-143487484D01*
X115802825Y-143478818D01*
X115799415Y-143431156D01*
X115799100Y-143422310D01*
X115799100Y-143413881D01*
X115799100Y-143409446D01*
X115797267Y-143396701D01*
X115796322Y-143387910D01*
X115795667Y-143378750D01*
X115792914Y-143340254D01*
X115789814Y-143331945D01*
X115787986Y-143323538D01*
X115785560Y-143315275D01*
X115784298Y-143306495D01*
X115764451Y-143263038D01*
X115761063Y-143254858D01*
X115752826Y-143232772D01*
X115744368Y-143210094D01*
X115739051Y-143202992D01*
X115734938Y-143195459D01*
X115730275Y-143188203D01*
X115726589Y-143180131D01*
X115695303Y-143144025D01*
X115689748Y-143137131D01*
X115684695Y-143130381D01*
X115682037Y-143126830D01*
X115672931Y-143117724D01*
X115666900Y-143111246D01*
X115641426Y-143081847D01*
X115641425Y-143081846D01*
X115635617Y-143075143D01*
X115628154Y-143070347D01*
X115621453Y-143064540D01*
X115621573Y-143064401D01*
X115611449Y-143056242D01*
X115267818Y-142712611D01*
X115240938Y-142672383D01*
X115231499Y-142624930D01*
X115231499Y-142605261D01*
X115231499Y-142605258D01*
X115231499Y-142601950D01*
X115225334Y-142544597D01*
X115176948Y-142414869D01*
X115093973Y-142304027D01*
X114983131Y-142221052D01*
X114974824Y-142217953D01*
X114974823Y-142217953D01*
X114860665Y-142175374D01*
X114860660Y-142175372D01*
X114853403Y-142172666D01*
X114845699Y-142171837D01*
X114845696Y-142171837D01*
X114799337Y-142166853D01*
X114799331Y-142166852D01*
X114796051Y-142166500D01*
X114792741Y-142166500D01*
X114447261Y-142166500D01*
X114447242Y-142166500D01*
X114443950Y-142166501D01*
X114440673Y-142166853D01*
X114440659Y-142166854D01*
X114394309Y-142171837D01*
X114386597Y-142172666D01*
X114379335Y-142175374D01*
X114379329Y-142175376D01*
X114265176Y-142217953D01*
X114265172Y-142217955D01*
X114256869Y-142221052D01*
X114249771Y-142226365D01*
X114249768Y-142226367D01*
X114153126Y-142298712D01*
X114153122Y-142298715D01*
X114146027Y-142304027D01*
X114140715Y-142311122D01*
X114140712Y-142311126D01*
X114068367Y-142407768D01*
X114068365Y-142407771D01*
X114063052Y-142414869D01*
X114059955Y-142423172D01*
X114059953Y-142423176D01*
X114017374Y-142537334D01*
X114017372Y-142537340D01*
X114014666Y-142544597D01*
X114013837Y-142552298D01*
X114013837Y-142552303D01*
X114008853Y-142598662D01*
X114008500Y-142601949D01*
X114008500Y-142605257D01*
X114008500Y-142605258D01*
X114008500Y-142890738D01*
X114008500Y-142890756D01*
X114008501Y-142894050D01*
X114008853Y-142897322D01*
X114008854Y-142897340D01*
X114013246Y-142938195D01*
X114014666Y-142951403D01*
X114017376Y-142958670D01*
X114019161Y-142966222D01*
X114017654Y-142966577D01*
X114023295Y-143014945D01*
X114002120Y-143070215D01*
X113957738Y-143109374D01*
X113900261Y-143123500D01*
X113408000Y-143123500D01*
X113374282Y-143127939D01*
X113358098Y-143129000D01*
X113157000Y-143129000D01*
X113157000Y-143145319D01*
X113153285Y-143159185D01*
X113136613Y-143195981D01*
X113108998Y-143225465D01*
X113075926Y-143250841D01*
X113075908Y-143250856D01*
X113072703Y-143253316D01*
X113069838Y-143256180D01*
X113069830Y-143256188D01*
X113030188Y-143295830D01*
X113030180Y-143295838D01*
X113027316Y-143298703D01*
X113024847Y-143301919D01*
X113024844Y-143301924D01*
X112970843Y-143372299D01*
X112970839Y-143372304D01*
X112965894Y-143378750D01*
X112962783Y-143386259D01*
X112962782Y-143386262D01*
X112928838Y-143468210D01*
X112928834Y-143468220D01*
X112927283Y-143471966D01*
X112926233Y-143475881D01*
X112926232Y-143475887D01*
X112911720Y-143530045D01*
X112911718Y-143530054D01*
X112910670Y-143533966D01*
X112910141Y-143537977D01*
X112910139Y-143537992D01*
X112898029Y-143629980D01*
X112897500Y-143634000D01*
X112897500Y-143635979D01*
X112897693Y-143638410D01*
X112897694Y-143638419D01*
X112902177Y-143694710D01*
X112902178Y-143694722D01*
X112902372Y-143697152D01*
X112908585Y-143735912D01*
X112910124Y-143740589D01*
X112910125Y-143740593D01*
X112945289Y-143847458D01*
X112945292Y-143847465D01*
X112946829Y-143852136D01*
X112949087Y-143856507D01*
X112949090Y-143856514D01*
X112951765Y-143861692D01*
X112958638Y-143877647D01*
X112962241Y-143887943D01*
X112969200Y-143928900D01*
X112969200Y-144401100D01*
X112962238Y-144442063D01*
X112958633Y-144452363D01*
X112951769Y-144468302D01*
X112949088Y-144473491D01*
X112949085Y-144473496D01*
X112946826Y-144477871D01*
X112945286Y-144482549D01*
X112945283Y-144482558D01*
X112910125Y-144589406D01*
X112910123Y-144589413D01*
X112908585Y-144594088D01*
X112907805Y-144598950D01*
X112907805Y-144598953D01*
X112902760Y-144630424D01*
X112902758Y-144630437D01*
X112902372Y-144632848D01*
X112902178Y-144635274D01*
X112902177Y-144635289D01*
X112899771Y-144665500D01*
X112897500Y-144694021D01*
X112897500Y-144696474D01*
X112897500Y-146942000D01*
X112880887Y-147004000D01*
X112835500Y-147049387D01*
X112773500Y-147066000D01*
X112265000Y-147066000D01*
X112203000Y-147049387D01*
X112157613Y-147004000D01*
X112141000Y-146942000D01*
X112141000Y-143232772D01*
X112150439Y-143185319D01*
X112169346Y-143157022D01*
X112167955Y-143155955D01*
X112229965Y-143075143D01*
X112259641Y-143036468D01*
X112317277Y-142897322D01*
X112325089Y-142837984D01*
X112328619Y-142811172D01*
X112328619Y-142811170D01*
X112332000Y-142785492D01*
X112332001Y-142785478D01*
X112335874Y-142756059D01*
X112336935Y-142748000D01*
X112333061Y-142718573D01*
X112332000Y-142702388D01*
X112332000Y-142443569D01*
X112341439Y-142396116D01*
X112365710Y-142359792D01*
X112365602Y-142359706D01*
X112366624Y-142358423D01*
X112368319Y-142355888D01*
X112368319Y-142355887D01*
X112374867Y-142349340D01*
X112468562Y-142200226D01*
X112526727Y-142034000D01*
X112546445Y-141859000D01*
X112526727Y-141684000D01*
X112468562Y-141517774D01*
X112374867Y-141368660D01*
X112250340Y-141244133D01*
X112244442Y-141240427D01*
X112244437Y-141240423D01*
X112199027Y-141211890D01*
X112156472Y-141166878D01*
X112141000Y-141106897D01*
X112141000Y-140840000D01*
X112157613Y-140778000D01*
X112203000Y-140732613D01*
X112265000Y-140716000D01*
X112642732Y-140716000D01*
X112704169Y-140732290D01*
G37*
%TD.AperFunction*%
M02*
