%TF.GenerationSoftware,KiCad,Pcbnew,(7.0.0)*%
%TF.CreationDate,2023-09-29T14:09:26-04:00*%
%TF.ProjectId,_HW_ToslinkToDMX,5f48575f-546f-4736-9c69-6e6b546f444d,rev?*%
%TF.SameCoordinates,Original*%
%TF.FileFunction,Drillmap*%
%TF.FilePolarity,Positive*%
%FSLAX45Y45*%
G04 Gerber Fmt 4.5, Leading zero omitted, Abs format (unit mm)*
G04 Created by KiCad (PCBNEW (7.0.0)) date 2023-09-29 14:09:26*
%MOMM*%
%LPD*%
G01*
G04 APERTURE LIST*
%ADD10C,0.100000*%
%ADD11C,0.200000*%
%ADD12C,0.040000*%
%ADD13C,0.050000*%
%ADD14C,0.055000*%
%ADD15C,0.065000*%
%ADD16C,0.080000*%
%ADD17C,0.096520*%
%ADD18C,0.106680*%
%ADD19C,0.110000*%
%ADD20C,0.320000*%
G04 APERTURE END LIST*
D10*
X14525320Y-16065700D02*
X10559620Y-16065700D01*
X10059620Y-15565700D02*
G75*
G03*
X10559620Y-16065700I500000J0D01*
G01*
X10059620Y-15565700D02*
X10059620Y-11600000D01*
X14525320Y-16065700D02*
G75*
G03*
X15025320Y-15565700I0J500000D01*
G01*
X10559620Y-11100000D02*
G75*
G03*
X10059620Y-11600000I0J-500000D01*
G01*
X15025320Y-11600000D02*
X15025320Y-15565700D01*
X14525320Y-11100000D02*
X10559620Y-11100000D01*
X15025320Y-11600000D02*
G75*
G03*
X14525320Y-11100000I-500000J0D01*
G01*
D11*
D12*
X10482900Y-12692700D02*
X10522900Y-12732700D01*
X10522900Y-12692700D02*
X10482900Y-12732700D01*
X10787700Y-12730800D02*
X10827700Y-12770800D01*
X10827700Y-12730800D02*
X10787700Y-12770800D01*
X10838500Y-14940600D02*
X10878500Y-14980600D01*
X10878500Y-14940600D02*
X10838500Y-14980600D01*
X10839152Y-15051624D02*
X10879152Y-15091624D01*
X10879152Y-15051624D02*
X10839152Y-15091624D01*
X10851200Y-11664000D02*
X10891200Y-11704000D01*
X10891200Y-11664000D02*
X10851200Y-11704000D01*
X10863900Y-15385100D02*
X10903900Y-15425100D01*
X10903900Y-15385100D02*
X10863900Y-15425100D01*
X10876600Y-12603800D02*
X10916600Y-12643800D01*
X10916600Y-12603800D02*
X10876600Y-12643800D01*
X10876600Y-15512100D02*
X10916600Y-15552100D01*
X10916600Y-15512100D02*
X10876600Y-15552100D01*
X10885635Y-15189084D02*
X10925635Y-15229084D01*
X10925635Y-15189084D02*
X10885635Y-15229084D01*
X10910450Y-12267500D02*
X10950450Y-12307500D01*
X10950450Y-12267500D02*
X10910450Y-12307500D01*
X10927400Y-11899200D02*
X10967400Y-11939200D01*
X10967400Y-11899200D02*
X10927400Y-11939200D01*
X10952800Y-12083100D02*
X10992800Y-12123100D01*
X10992800Y-12083100D02*
X10952800Y-12123100D01*
X10965500Y-11587800D02*
X11005500Y-11627800D01*
X11005500Y-11587800D02*
X10965500Y-11627800D01*
X10978200Y-14940600D02*
X11018200Y-14980600D01*
X11018200Y-14940600D02*
X10978200Y-14980600D01*
X10990900Y-14683400D02*
X11030900Y-14723400D01*
X11030900Y-14683400D02*
X10990900Y-14723400D01*
X11041700Y-12807000D02*
X11081700Y-12847000D01*
X11081700Y-12807000D02*
X11041700Y-12847000D01*
X11117900Y-14940600D02*
X11157900Y-14980600D01*
X11157900Y-14940600D02*
X11117900Y-14980600D01*
X11156000Y-14165900D02*
X11196000Y-14205900D01*
X11196000Y-14165900D02*
X11156000Y-14205900D01*
X11156599Y-15278838D02*
X11196599Y-15318838D01*
X11196599Y-15278838D02*
X11156599Y-15318838D01*
X11180638Y-11720134D02*
X11220638Y-11760134D01*
X11220638Y-11720134D02*
X11180638Y-11760134D01*
X11257600Y-12886410D02*
X11297600Y-12926410D01*
X11297600Y-12886410D02*
X11257600Y-12926410D01*
X11283000Y-11562400D02*
X11323000Y-11602400D01*
X11323000Y-11562400D02*
X11283000Y-11602400D01*
X11340350Y-13505500D02*
X11380350Y-13545500D01*
X11380350Y-13505500D02*
X11340350Y-13545500D01*
X11397300Y-12452900D02*
X11437300Y-12492900D01*
X11437300Y-12452900D02*
X11397300Y-12492900D01*
X11414110Y-11994200D02*
X11454110Y-12034200D01*
X11454110Y-11994200D02*
X11414110Y-12034200D01*
X11414110Y-12273600D02*
X11454110Y-12313600D01*
X11454110Y-12273600D02*
X11414110Y-12313600D01*
X11448100Y-14102400D02*
X11488100Y-14142400D01*
X11488100Y-14102400D02*
X11448100Y-14142400D01*
X11460800Y-12095800D02*
X11500800Y-12135800D01*
X11500800Y-12095800D02*
X11460800Y-12135800D01*
X11460800Y-13467400D02*
X11500800Y-13507400D01*
X11500800Y-13467400D02*
X11460800Y-13507400D01*
X11469926Y-12807055D02*
X11509926Y-12847055D01*
X11509926Y-12807055D02*
X11469926Y-12847055D01*
X11473500Y-11727500D02*
X11513500Y-11767500D01*
X11513500Y-11727500D02*
X11473500Y-11767500D01*
X11473500Y-13861100D02*
X11513500Y-13901100D01*
X11513500Y-13861100D02*
X11473500Y-13901100D01*
X11486200Y-11322950D02*
X11526200Y-11362950D01*
X11526200Y-11322950D02*
X11486200Y-11362950D01*
X11494023Y-13970523D02*
X11534023Y-14010523D01*
X11534023Y-13970523D02*
X11494023Y-14010523D01*
X11524300Y-14712000D02*
X11564300Y-14752000D01*
X11564300Y-14712000D02*
X11524300Y-14752000D01*
X11524300Y-14978700D02*
X11564300Y-15018700D01*
X11564300Y-14978700D02*
X11524300Y-15018700D01*
X11526690Y-14623100D02*
X11566690Y-14663100D01*
X11566690Y-14623100D02*
X11526690Y-14663100D01*
X11537000Y-14102400D02*
X11577000Y-14142400D01*
X11577000Y-14102400D02*
X11537000Y-14142400D01*
X11556300Y-13467400D02*
X11596300Y-13507400D01*
X11596300Y-13467400D02*
X11556300Y-13507400D01*
X11557650Y-13276900D02*
X11597650Y-13316900D01*
X11597650Y-13276900D02*
X11557650Y-13316900D01*
X11587800Y-14229400D02*
X11627800Y-14269400D01*
X11627800Y-14229400D02*
X11587800Y-14269400D01*
X11644700Y-13670600D02*
X11684700Y-13710600D01*
X11684700Y-13670600D02*
X11644700Y-13710600D01*
X11651300Y-11816400D02*
X11691300Y-11856400D01*
X11691300Y-11816400D02*
X11651300Y-11856400D01*
X11665850Y-11994200D02*
X11705850Y-12034200D01*
X11705850Y-11994200D02*
X11665850Y-12034200D01*
X11689400Y-14229400D02*
X11729400Y-14269400D01*
X11729400Y-14229400D02*
X11689400Y-14269400D01*
X11705100Y-12872350D02*
X11745100Y-12912350D01*
X11745100Y-12872350D02*
X11705100Y-12912350D01*
X11709720Y-13309920D02*
X11749720Y-13349920D01*
X11749720Y-13309920D02*
X11709720Y-13349920D01*
X11714800Y-13467400D02*
X11754800Y-13507400D01*
X11754800Y-13467400D02*
X11714800Y-13507400D01*
X11727500Y-13048300D02*
X11767500Y-13088300D01*
X11767500Y-13048300D02*
X11727500Y-13088300D01*
X11765600Y-13656050D02*
X11805600Y-13696050D01*
X11805600Y-13656050D02*
X11765600Y-13696050D01*
X11791000Y-14229400D02*
X11831000Y-14269400D01*
X11831000Y-14229400D02*
X11791000Y-14269400D01*
X11802060Y-13795810D02*
X11842060Y-13835810D01*
X11842060Y-13795810D02*
X11802060Y-13835810D01*
X11802238Y-13393068D02*
X11842238Y-13433068D01*
X11842238Y-13393068D02*
X11802238Y-13433068D01*
X11803700Y-14115100D02*
X11843700Y-14155100D01*
X11843700Y-14115100D02*
X11803700Y-14155100D01*
X11829100Y-12449550D02*
X11869100Y-12489550D01*
X11869100Y-12449550D02*
X11829100Y-12489550D01*
X11841800Y-14483400D02*
X11881800Y-14523400D01*
X11881800Y-14483400D02*
X11841800Y-14523400D01*
X11899200Y-11649450D02*
X11939200Y-11689450D01*
X11939200Y-11649450D02*
X11899200Y-11689450D01*
X11947065Y-14514315D02*
X11987065Y-14554315D01*
X11987065Y-14514315D02*
X11947065Y-14554315D01*
X11968800Y-12502200D02*
X12008800Y-12542200D01*
X12008800Y-12502200D02*
X11968800Y-12542200D01*
X11968800Y-12616500D02*
X12008800Y-12656500D01*
X12008800Y-12616500D02*
X11968800Y-12656500D01*
X12032300Y-15347000D02*
X12072300Y-15387000D01*
X12072300Y-15347000D02*
X12032300Y-15387000D01*
X12045000Y-15143800D02*
X12085000Y-15183800D01*
X12085000Y-15143800D02*
X12045000Y-15183800D01*
X12063658Y-14638239D02*
X12103658Y-14678239D01*
X12103658Y-14638239D02*
X12063658Y-14678239D01*
X12108500Y-14546900D02*
X12148500Y-14586900D01*
X12148500Y-14546900D02*
X12108500Y-14586900D01*
X12108500Y-15270800D02*
X12148500Y-15310800D01*
X12148500Y-15270800D02*
X12108500Y-15310800D01*
X12157373Y-14654929D02*
X12197373Y-14694929D01*
X12197373Y-14654929D02*
X12157373Y-14694929D01*
X12159300Y-14750100D02*
X12199300Y-14790100D01*
X12199300Y-14750100D02*
X12159300Y-14790100D01*
X12159300Y-14851700D02*
X12199300Y-14891700D01*
X12199300Y-14851700D02*
X12159300Y-14891700D01*
X12172000Y-15347000D02*
X12212000Y-15387000D01*
X12212000Y-15347000D02*
X12172000Y-15387000D01*
X12234611Y-13480100D02*
X12274611Y-13520100D01*
X12274611Y-13480100D02*
X12234611Y-13520100D01*
X12248200Y-12413300D02*
X12288200Y-12453300D01*
X12288200Y-12413300D02*
X12248200Y-12453300D01*
X12273600Y-13353100D02*
X12313600Y-13393100D01*
X12313600Y-13353100D02*
X12273600Y-13393100D01*
X12343668Y-14297743D02*
X12383668Y-14337743D01*
X12383668Y-14297743D02*
X12343668Y-14337743D01*
X12349800Y-13238800D02*
X12389800Y-13278800D01*
X12389800Y-13238800D02*
X12349800Y-13278800D01*
X12375200Y-13556300D02*
X12415200Y-13596300D01*
X12415200Y-13556300D02*
X12375200Y-13596300D01*
X12400600Y-14546900D02*
X12440600Y-14586900D01*
X12440600Y-14546900D02*
X12400600Y-14586900D01*
X12402506Y-12857750D02*
X12442506Y-12897750D01*
X12442506Y-12857750D02*
X12402506Y-12897750D01*
X12451400Y-14635800D02*
X12491400Y-14675800D01*
X12491400Y-14635800D02*
X12451400Y-14675800D01*
X12502200Y-14546900D02*
X12542200Y-14586900D01*
X12542200Y-14546900D02*
X12502200Y-14586900D01*
X12513140Y-13224340D02*
X12553140Y-13264340D01*
X12553140Y-13224340D02*
X12513140Y-13264340D01*
X12565700Y-14991400D02*
X12605700Y-15031400D01*
X12605700Y-14991400D02*
X12565700Y-15031400D01*
X12604873Y-14607607D02*
X12644873Y-14647607D01*
X12644873Y-14607607D02*
X12604873Y-14647607D01*
X12611072Y-14283953D02*
X12651072Y-14323953D01*
X12651072Y-14283953D02*
X12611072Y-14323953D01*
X12629200Y-13340400D02*
X12669200Y-13380400D01*
X12669200Y-13340400D02*
X12629200Y-13380400D01*
X12654600Y-13708700D02*
X12694600Y-13748700D01*
X12694600Y-13708700D02*
X12654600Y-13748700D01*
X12680000Y-12803481D02*
X12720000Y-12843481D01*
X12720000Y-12803481D02*
X12680000Y-12843481D01*
X12730800Y-14927900D02*
X12770800Y-14967900D01*
X12770800Y-14927900D02*
X12730800Y-14967900D01*
X12741650Y-14597700D02*
X12781650Y-14637700D01*
X12781650Y-14597700D02*
X12741650Y-14637700D01*
X12741822Y-14296342D02*
X12781822Y-14336342D01*
X12781822Y-14296342D02*
X12741822Y-14336342D01*
X12743500Y-12464100D02*
X12783500Y-12504100D01*
X12783500Y-12464100D02*
X12743500Y-12504100D01*
X12756200Y-15065750D02*
X12796200Y-15105750D01*
X12796200Y-15065750D02*
X12756200Y-15105750D01*
X12768900Y-11371900D02*
X12808900Y-11411900D01*
X12808900Y-11371900D02*
X12768900Y-11411900D01*
X12794300Y-13569000D02*
X12834300Y-13609000D01*
X12834300Y-13569000D02*
X12794300Y-13609000D01*
X12837250Y-14292900D02*
X12877250Y-14332900D01*
X12877250Y-14292900D02*
X12837250Y-14332900D01*
X12845100Y-14978700D02*
X12885100Y-15018700D01*
X12885100Y-14978700D02*
X12845100Y-15018700D01*
X12872259Y-13452940D02*
X12912259Y-13492940D01*
X12912259Y-13452940D02*
X12872259Y-13492940D01*
X12921300Y-12705400D02*
X12961300Y-12745400D01*
X12961300Y-12705400D02*
X12921300Y-12745400D01*
X12931711Y-14608111D02*
X12971711Y-14648111D01*
X12971711Y-14608111D02*
X12931711Y-14648111D01*
X12959400Y-14927900D02*
X12999400Y-14967900D01*
X12999400Y-14927900D02*
X12959400Y-14967900D01*
X13024750Y-15626400D02*
X13064750Y-15666400D01*
X13064750Y-15626400D02*
X13024750Y-15666400D01*
X13037359Y-15069359D02*
X13077359Y-15109359D01*
X13077359Y-15069359D02*
X13037359Y-15109359D01*
X13050059Y-11651300D02*
X13090059Y-11691300D01*
X13090059Y-11651300D02*
X13050059Y-11691300D01*
X13050150Y-14267500D02*
X13090150Y-14307500D01*
X13090150Y-14267500D02*
X13050150Y-14307500D01*
X13061000Y-12794300D02*
X13101000Y-12834300D01*
X13101000Y-12794300D02*
X13061000Y-12834300D01*
X13073700Y-14877100D02*
X13113700Y-14917100D01*
X13113700Y-14877100D02*
X13073700Y-14917100D01*
X13086400Y-11816400D02*
X13126400Y-11856400D01*
X13126400Y-11816400D02*
X13086400Y-11856400D01*
X13099100Y-14521500D02*
X13139100Y-14561500D01*
X13139100Y-14521500D02*
X13099100Y-14561500D01*
X13118084Y-14150525D02*
X13158084Y-14190525D01*
X13158084Y-14150525D02*
X13118084Y-14190525D01*
X13124500Y-12667300D02*
X13164500Y-12707300D01*
X13164500Y-12667300D02*
X13124500Y-12707300D01*
X13168950Y-14769150D02*
X13208950Y-14809150D01*
X13208950Y-14769150D02*
X13168950Y-14809150D01*
X13200700Y-14521500D02*
X13240700Y-14561500D01*
X13240700Y-14521500D02*
X13200700Y-14561500D01*
X13214997Y-11569359D02*
X13254997Y-11609359D01*
X13254997Y-11569359D02*
X13214997Y-11609359D01*
X13226100Y-12870500D02*
X13266100Y-12910500D01*
X13266100Y-12870500D02*
X13226100Y-12910500D01*
X13226100Y-15512100D02*
X13266100Y-15552100D01*
X13266100Y-15512100D02*
X13226100Y-15552100D01*
X13236950Y-12979431D02*
X13276950Y-13019431D01*
X13276950Y-12979431D02*
X13236950Y-13019431D01*
X13291450Y-13353100D02*
X13331450Y-13393100D01*
X13331450Y-13353100D02*
X13291450Y-13393100D01*
X13302300Y-13530900D02*
X13342300Y-13570900D01*
X13342300Y-13530900D02*
X13302300Y-13570900D01*
X13302300Y-14521500D02*
X13342300Y-14561500D01*
X13342300Y-14521500D02*
X13302300Y-14561500D01*
X13315000Y-11424459D02*
X13355000Y-11464459D01*
X13355000Y-11424459D02*
X13315000Y-11464459D01*
X13316850Y-11689400D02*
X13356850Y-11729400D01*
X13356850Y-11689400D02*
X13316850Y-11729400D01*
X13505500Y-15664500D02*
X13545500Y-15704500D01*
X13545500Y-15664500D02*
X13505500Y-15704500D01*
X13542059Y-13538540D02*
X13582059Y-13578540D01*
X13582059Y-13538540D02*
X13542059Y-13578540D01*
X13708700Y-14077000D02*
X13748700Y-14117000D01*
X13748700Y-14077000D02*
X13708700Y-14117000D01*
X13708700Y-14193200D02*
X13748700Y-14233200D01*
X13748700Y-14193200D02*
X13708700Y-14233200D01*
X13734100Y-12286300D02*
X13774100Y-12326300D01*
X13774100Y-12286300D02*
X13734100Y-12326300D01*
X13734100Y-14851700D02*
X13774100Y-14891700D01*
X13774100Y-14851700D02*
X13734100Y-14891700D01*
X13734100Y-15220000D02*
X13774100Y-15260000D01*
X13774100Y-15220000D02*
X13734100Y-15260000D01*
X13734100Y-15372400D02*
X13774100Y-15412400D01*
X13774100Y-15372400D02*
X13734100Y-15412400D01*
X13759500Y-11689400D02*
X13799500Y-11729400D01*
X13799500Y-11689400D02*
X13759500Y-11729400D01*
X13772200Y-12629200D02*
X13812200Y-12669200D01*
X13812200Y-12629200D02*
X13772200Y-12669200D01*
X13797600Y-15715300D02*
X13837600Y-15755300D01*
X13837600Y-15715300D02*
X13797600Y-15755300D01*
X13810300Y-14750100D02*
X13850300Y-14790100D01*
X13850300Y-14750100D02*
X13810300Y-14790100D01*
X13886500Y-12220900D02*
X13926500Y-12260900D01*
X13926500Y-12220900D02*
X13886500Y-12260900D01*
X13975400Y-11359200D02*
X14015400Y-11399200D01*
X14015400Y-11359200D02*
X13975400Y-11399200D01*
X14038900Y-13861100D02*
X14078900Y-13901100D01*
X14078900Y-13861100D02*
X14038900Y-13901100D01*
X14204000Y-14813600D02*
X14244000Y-14853600D01*
X14244000Y-14813600D02*
X14204000Y-14853600D01*
X14216700Y-11676700D02*
X14256700Y-11716700D01*
X14256700Y-11676700D02*
X14216700Y-11716700D01*
X14216700Y-14610400D02*
X14256700Y-14650400D01*
X14256700Y-14610400D02*
X14216700Y-14650400D01*
X14229400Y-15080300D02*
X14269400Y-15120300D01*
X14269400Y-15080300D02*
X14229400Y-15120300D01*
X14305600Y-14115100D02*
X14345600Y-14155100D01*
X14345600Y-14115100D02*
X14305600Y-14155100D01*
X14541417Y-11919850D02*
X14581417Y-11959850D01*
X14581417Y-11919850D02*
X14541417Y-11959850D01*
X14559600Y-12197400D02*
X14599600Y-12237400D01*
X14599600Y-12197400D02*
X14559600Y-12237400D01*
X14559600Y-12540300D02*
X14599600Y-12580300D01*
X14599600Y-12540300D02*
X14559600Y-12580300D01*
X14712000Y-11841800D02*
X14752000Y-11881800D01*
X14752000Y-11841800D02*
X14712000Y-11881800D01*
X14724700Y-12121200D02*
X14764700Y-12161200D01*
X14764700Y-12121200D02*
X14724700Y-12161200D01*
X14750100Y-12489500D02*
X14790100Y-12529500D01*
X14790100Y-12489500D02*
X14750100Y-12529500D01*
D13*
X10966900Y-15925800D02*
G75*
G03*
X10966900Y-15925800I-25000J0D01*
G01*
D11*
X10916900Y-15893300D02*
X10916900Y-15958300D01*
X10916900Y-15958300D02*
G75*
G03*
X10966900Y-15958300I25000J0D01*
G01*
X10966900Y-15958300D02*
X10966900Y-15893300D01*
X10966900Y-15893300D02*
G75*
G03*
X10916900Y-15893300I-25000J0D01*
G01*
D13*
X11666900Y-15925800D02*
G75*
G03*
X11666900Y-15925800I-25000J0D01*
G01*
D11*
X11616900Y-15893300D02*
X11616900Y-15958300D01*
X11616900Y-15958300D02*
G75*
G03*
X11666900Y-15958300I25000J0D01*
G01*
X11666900Y-15958300D02*
X11666900Y-15893300D01*
X11666900Y-15893300D02*
G75*
G03*
X11616900Y-15893300I-25000J0D01*
G01*
D14*
X11041900Y-15628300D02*
X11041900Y-15683300D01*
X11014400Y-15655800D02*
X11069400Y-15655800D01*
D11*
X11026900Y-15683300D02*
X11056900Y-15683300D01*
X11056900Y-15683300D02*
G75*
G03*
X11056900Y-15628300I0J27500D01*
G01*
X11056900Y-15628300D02*
X11026900Y-15628300D01*
X11026900Y-15628300D02*
G75*
G03*
X11026900Y-15683300I0J-27500D01*
G01*
D14*
X11541900Y-15628300D02*
X11541900Y-15683300D01*
X11514400Y-15655800D02*
X11569400Y-15655800D01*
D11*
X11526900Y-15683300D02*
X11556900Y-15683300D01*
X11556900Y-15683300D02*
G75*
G03*
X11556900Y-15628300I0J27500D01*
G01*
X11556900Y-15628300D02*
X11526900Y-15628300D01*
X11526900Y-15628300D02*
G75*
G03*
X11526900Y-15683300I0J-27500D01*
G01*
D15*
X11857881Y-15872581D02*
X11857881Y-15826619D01*
X11811919Y-15826619D01*
X11811919Y-15872581D01*
X11857881Y-15872581D01*
X11984881Y-15872581D02*
X11984881Y-15826619D01*
X11938919Y-15826619D01*
X11938919Y-15872581D01*
X11984881Y-15872581D01*
X13344781Y-15936081D02*
X13344781Y-15890119D01*
X13298819Y-15890119D01*
X13298819Y-15936081D01*
X13344781Y-15936081D01*
X13471781Y-15936081D02*
X13471781Y-15890119D01*
X13425819Y-15890119D01*
X13425819Y-15936081D01*
X13471781Y-15936081D01*
X13598781Y-15936081D02*
X13598781Y-15890119D01*
X13552819Y-15890119D01*
X13552819Y-15936081D01*
X13598781Y-15936081D01*
X13725781Y-15936081D02*
X13725781Y-15890119D01*
X13679819Y-15890119D01*
X13679819Y-15936081D01*
X13725781Y-15936081D01*
X14881981Y-14399381D02*
X14881981Y-14353419D01*
X14836019Y-14353419D01*
X14836019Y-14399381D01*
X14881981Y-14399381D01*
X14881981Y-14526381D02*
X14881981Y-14480419D01*
X14836019Y-14480419D01*
X14836019Y-14526381D01*
X14881981Y-14526381D01*
X14881981Y-14653381D02*
X14881981Y-14607419D01*
X14836019Y-14607419D01*
X14836019Y-14653381D01*
X14881981Y-14653381D01*
X14881981Y-14780381D02*
X14881981Y-14734419D01*
X14836019Y-14734419D01*
X14836019Y-14780381D01*
X14881981Y-14780381D01*
X14881981Y-15020181D02*
X14881981Y-14974219D01*
X14836019Y-14974219D01*
X14836019Y-15020181D01*
X14881981Y-15020181D01*
X14881981Y-15147181D02*
X14881981Y-15101219D01*
X14836019Y-15101219D01*
X14836019Y-15147181D01*
X14881981Y-15147181D01*
X14894681Y-11937081D02*
X14894681Y-11891119D01*
X14848719Y-11891119D01*
X14848719Y-11937081D01*
X14894681Y-11937081D01*
X14894681Y-12064081D02*
X14894681Y-12018119D01*
X14848719Y-12018119D01*
X14848719Y-12064081D01*
X14894681Y-12064081D01*
X14894681Y-12303881D02*
X14894681Y-12257919D01*
X14848719Y-12257919D01*
X14848719Y-12303881D01*
X14894681Y-12303881D01*
X14894681Y-12430881D02*
X14894681Y-12384919D01*
X14848719Y-12384919D01*
X14848719Y-12430881D01*
X14894681Y-12430881D01*
X14894681Y-12672181D02*
X14894681Y-12626219D01*
X14848719Y-12626219D01*
X14848719Y-12672181D01*
X14894681Y-12672181D01*
X14894681Y-12799181D02*
X14894681Y-12753219D01*
X14848719Y-12753219D01*
X14848719Y-12799181D01*
X14894681Y-12799181D01*
X14894681Y-12926181D02*
X14894681Y-12880219D01*
X14848719Y-12880219D01*
X14848719Y-12926181D01*
X14894681Y-12926181D01*
D16*
X12293223Y-15655500D02*
X12333223Y-15615500D01*
X12293223Y-15575500D01*
X12253223Y-15615500D01*
X12293223Y-15655500D01*
X12547600Y-15655500D02*
X12587600Y-15615500D01*
X12547600Y-15575500D01*
X12507600Y-15615500D01*
X12547600Y-15655500D01*
X12803223Y-15655500D02*
X12843223Y-15615500D01*
X12803223Y-15575500D01*
X12763223Y-15615500D01*
X12803223Y-15655500D01*
D17*
X12245340Y-11686540D02*
X12341860Y-11783060D01*
X12341860Y-11686540D02*
X12245340Y-11783060D01*
X12341860Y-11734800D02*
G75*
G03*
X12341860Y-11734800I-48260J0D01*
G01*
X12499340Y-11686540D02*
X12595860Y-11783060D01*
X12595860Y-11686540D02*
X12499340Y-11783060D01*
X12595860Y-11734800D02*
G75*
G03*
X12595860Y-11734800I-48260J0D01*
G01*
X12753340Y-11686540D02*
X12849860Y-11783060D01*
X12849860Y-11686540D02*
X12753340Y-11783060D01*
X12849860Y-11734800D02*
G75*
G03*
X12849860Y-11734800I-48260J0D01*
G01*
D10*
X10319033Y-13020000D02*
X10419033Y-13120000D01*
X10419033Y-13020000D02*
X10319033Y-13120000D01*
X10369033Y-13020000D02*
X10369033Y-13120000D01*
X10319033Y-13070000D02*
X10419033Y-13070000D01*
X10319033Y-13249000D02*
X10419033Y-13349000D01*
X10419033Y-13249000D02*
X10319033Y-13349000D01*
X10369033Y-13249000D02*
X10369033Y-13349000D01*
X10319033Y-13299000D02*
X10419033Y-13299000D01*
X10319033Y-13478000D02*
X10419033Y-13578000D01*
X10419033Y-13478000D02*
X10319033Y-13578000D01*
X10369033Y-13478000D02*
X10369033Y-13578000D01*
X10319033Y-13528000D02*
X10419033Y-13528000D01*
X10319033Y-13707000D02*
X10419033Y-13807000D01*
X10419033Y-13707000D02*
X10319033Y-13807000D01*
X10369033Y-13707000D02*
X10369033Y-13807000D01*
X10319033Y-13757000D02*
X10419033Y-13757000D01*
X10319033Y-13936000D02*
X10419033Y-14036000D01*
X10419033Y-13936000D02*
X10319033Y-14036000D01*
X10369033Y-13936000D02*
X10369033Y-14036000D01*
X10319033Y-13986000D02*
X10419033Y-13986000D01*
X10517033Y-12905500D02*
X10617033Y-13005500D01*
X10617033Y-12905500D02*
X10517033Y-13005500D01*
X10567033Y-12905500D02*
X10567033Y-13005500D01*
X10517033Y-12955500D02*
X10617033Y-12955500D01*
X10517033Y-13134500D02*
X10617033Y-13234500D01*
X10617033Y-13134500D02*
X10517033Y-13234500D01*
X10567033Y-13134500D02*
X10567033Y-13234500D01*
X10517033Y-13184500D02*
X10617033Y-13184500D01*
X10517033Y-13363500D02*
X10617033Y-13463500D01*
X10617033Y-13363500D02*
X10517033Y-13463500D01*
X10567033Y-13363500D02*
X10567033Y-13463500D01*
X10517033Y-13413500D02*
X10617033Y-13413500D01*
X10517033Y-13592500D02*
X10617033Y-13692500D01*
X10617033Y-13592500D02*
X10517033Y-13692500D01*
X10567033Y-13592500D02*
X10567033Y-13692500D01*
X10517033Y-13642500D02*
X10617033Y-13642500D01*
X10517033Y-13821500D02*
X10617033Y-13921500D01*
X10617033Y-13821500D02*
X10517033Y-13921500D01*
X10567033Y-13821500D02*
X10567033Y-13921500D01*
X10517033Y-13871500D02*
X10617033Y-13871500D01*
X10715033Y-13020000D02*
X10815033Y-13120000D01*
X10815033Y-13020000D02*
X10715033Y-13120000D01*
X10765033Y-13020000D02*
X10765033Y-13120000D01*
X10715033Y-13070000D02*
X10815033Y-13070000D01*
X10715033Y-13249000D02*
X10815033Y-13349000D01*
X10815033Y-13249000D02*
X10715033Y-13349000D01*
X10765033Y-13249000D02*
X10765033Y-13349000D01*
X10715033Y-13299000D02*
X10815033Y-13299000D01*
X10715033Y-13478000D02*
X10815033Y-13578000D01*
X10815033Y-13478000D02*
X10715033Y-13578000D01*
X10765033Y-13478000D02*
X10765033Y-13578000D01*
X10715033Y-13528000D02*
X10815033Y-13528000D01*
X10715033Y-13707000D02*
X10815033Y-13807000D01*
X10815033Y-13707000D02*
X10715033Y-13807000D01*
X10765033Y-13707000D02*
X10765033Y-13807000D01*
X10715033Y-13757000D02*
X10815033Y-13757000D01*
X10715033Y-13936000D02*
X10815033Y-14036000D01*
X10815033Y-13936000D02*
X10715033Y-14036000D01*
X10765033Y-13936000D02*
X10765033Y-14036000D01*
X10715033Y-13986000D02*
X10815033Y-13986000D01*
X11865100Y-12243600D02*
X11965100Y-12343600D01*
X11965100Y-12243600D02*
X11865100Y-12343600D01*
X11915100Y-12243600D02*
X11915100Y-12343600D01*
X11865100Y-12293600D02*
X11965100Y-12293600D01*
X12119100Y-12243600D02*
X12219100Y-12343600D01*
X12219100Y-12243600D02*
X12119100Y-12343600D01*
X12169100Y-12243600D02*
X12169100Y-12343600D01*
X12119100Y-12293600D02*
X12219100Y-12293600D01*
X12373100Y-12243600D02*
X12473100Y-12343600D01*
X12473100Y-12243600D02*
X12373100Y-12343600D01*
X12423100Y-12243600D02*
X12423100Y-12343600D01*
X12373100Y-12293600D02*
X12473100Y-12293600D01*
X12627100Y-12243600D02*
X12727100Y-12343600D01*
X12727100Y-12243600D02*
X12627100Y-12343600D01*
X12677100Y-12243600D02*
X12677100Y-12343600D01*
X12627100Y-12293600D02*
X12727100Y-12293600D01*
X12881100Y-12243600D02*
X12981100Y-12343600D01*
X12981100Y-12243600D02*
X12881100Y-12343600D01*
X12931100Y-12243600D02*
X12931100Y-12343600D01*
X12881100Y-12293600D02*
X12981100Y-12293600D01*
X13135100Y-12243600D02*
X13235100Y-12343600D01*
X13235100Y-12243600D02*
X13135100Y-12343600D01*
X13185100Y-12243600D02*
X13185100Y-12343600D01*
X13135100Y-12293600D02*
X13235100Y-12293600D01*
X14750350Y-13203550D02*
X14850350Y-13303550D01*
X14850350Y-13203550D02*
X14750350Y-13303550D01*
X14800350Y-13203550D02*
X14800350Y-13303550D01*
X14750350Y-13253550D02*
X14850350Y-13253550D01*
X14750350Y-13457550D02*
X14850350Y-13557550D01*
X14850350Y-13457550D02*
X14750350Y-13557550D01*
X14800350Y-13457550D02*
X14800350Y-13557550D01*
X14750350Y-13507550D02*
X14850350Y-13507550D01*
X14750350Y-13711550D02*
X14850350Y-13811550D01*
X14850350Y-13711550D02*
X14750350Y-13811550D01*
X14800350Y-13711550D02*
X14800350Y-13811550D01*
X14750350Y-13761550D02*
X14850350Y-13761550D01*
X14750350Y-13965550D02*
X14850350Y-14065550D01*
X14850350Y-13965550D02*
X14750350Y-14065550D01*
X14800350Y-13965550D02*
X14800350Y-14065550D01*
X14750350Y-14015550D02*
X14850350Y-14015550D01*
D18*
X11974260Y-11261460D02*
X12080940Y-11368140D01*
X12080940Y-11261460D02*
X11974260Y-11368140D01*
X12065317Y-11352517D02*
X12065317Y-11277083D01*
X11989883Y-11277083D01*
X11989883Y-11352517D01*
X12065317Y-11352517D01*
X13014260Y-11261460D02*
X13120940Y-11368140D01*
X13120940Y-11261460D02*
X13014260Y-11368140D01*
X13105317Y-11352517D02*
X13105317Y-11277083D01*
X13029883Y-11277083D01*
X13029883Y-11352517D01*
X13105317Y-11352517D01*
D19*
X12238223Y-15825500D02*
X12348223Y-15935500D01*
X12348223Y-15825500D02*
X12238223Y-15935500D01*
X12293223Y-15935500D02*
X12348223Y-15880500D01*
X12293223Y-15825500D01*
X12238223Y-15880500D01*
X12293223Y-15935500D01*
X12748223Y-15825500D02*
X12858223Y-15935500D01*
X12858223Y-15825500D02*
X12748223Y-15935500D01*
X12803223Y-15935500D02*
X12858223Y-15880500D01*
X12803223Y-15825500D01*
X12748223Y-15880500D01*
X12803223Y-15935500D01*
D20*
X10500000Y-11340000D02*
X10500000Y-11660000D01*
X10340000Y-11500000D02*
X10660000Y-11500000D01*
X10660000Y-11500000D02*
G75*
G03*
X10660000Y-11500000I-160000J0D01*
G01*
X10500000Y-15440000D02*
X10500000Y-15760000D01*
X10340000Y-15600000D02*
X10660000Y-15600000D01*
X10660000Y-15600000D02*
G75*
G03*
X10660000Y-15600000I-160000J0D01*
G01*
X10560033Y-12091500D02*
X10560033Y-12411500D01*
X10400033Y-12251500D02*
X10720033Y-12251500D01*
X10720033Y-12251500D02*
G75*
G03*
X10720033Y-12251500I-160000J0D01*
G01*
X10560033Y-14591500D02*
X10560033Y-14911500D01*
X10400033Y-14751500D02*
X10720033Y-14751500D01*
X10720033Y-14751500D02*
G75*
G03*
X10720033Y-14751500I-160000J0D01*
G01*
X14600000Y-11340000D02*
X14600000Y-11660000D01*
X14440000Y-11500000D02*
X14760000Y-11500000D01*
X14760000Y-11500000D02*
G75*
G03*
X14760000Y-11500000I-160000J0D01*
G01*
X14600000Y-15440000D02*
X14600000Y-15760000D01*
X14440000Y-15600000D02*
X14760000Y-15600000D01*
X14760000Y-15600000D02*
G75*
G03*
X14760000Y-15600000I-160000J0D01*
G01*
D11*
X10302239Y-16364176D02*
X10302239Y-16164176D01*
X10302239Y-16164176D02*
X10349858Y-16164176D01*
X10349858Y-16164176D02*
X10378430Y-16173700D01*
X10378430Y-16173700D02*
X10397477Y-16192748D01*
X10397477Y-16192748D02*
X10407001Y-16211795D01*
X10407001Y-16211795D02*
X10416525Y-16249890D01*
X10416525Y-16249890D02*
X10416525Y-16278462D01*
X10416525Y-16278462D02*
X10407001Y-16316557D01*
X10407001Y-16316557D02*
X10397477Y-16335605D01*
X10397477Y-16335605D02*
X10378430Y-16354652D01*
X10378430Y-16354652D02*
X10349858Y-16364176D01*
X10349858Y-16364176D02*
X10302239Y-16364176D01*
X10502239Y-16364176D02*
X10502239Y-16230843D01*
X10502239Y-16268938D02*
X10511763Y-16249890D01*
X10511763Y-16249890D02*
X10521287Y-16240367D01*
X10521287Y-16240367D02*
X10540334Y-16230843D01*
X10540334Y-16230843D02*
X10559382Y-16230843D01*
X10626049Y-16364176D02*
X10626049Y-16230843D01*
X10626049Y-16164176D02*
X10616525Y-16173700D01*
X10616525Y-16173700D02*
X10626049Y-16183224D01*
X10626049Y-16183224D02*
X10635572Y-16173700D01*
X10635572Y-16173700D02*
X10626049Y-16164176D01*
X10626049Y-16164176D02*
X10626049Y-16183224D01*
X10749858Y-16364176D02*
X10730810Y-16354652D01*
X10730810Y-16354652D02*
X10721287Y-16335605D01*
X10721287Y-16335605D02*
X10721287Y-16164176D01*
X10854620Y-16364176D02*
X10835572Y-16354652D01*
X10835572Y-16354652D02*
X10826049Y-16335605D01*
X10826049Y-16335605D02*
X10826049Y-16164176D01*
X11050810Y-16364176D02*
X11050810Y-16164176D01*
X11050810Y-16164176D02*
X11117477Y-16307033D01*
X11117477Y-16307033D02*
X11184144Y-16164176D01*
X11184144Y-16164176D02*
X11184144Y-16364176D01*
X11365096Y-16364176D02*
X11365096Y-16259414D01*
X11365096Y-16259414D02*
X11355572Y-16240367D01*
X11355572Y-16240367D02*
X11336525Y-16230843D01*
X11336525Y-16230843D02*
X11298429Y-16230843D01*
X11298429Y-16230843D02*
X11279382Y-16240367D01*
X11365096Y-16354652D02*
X11346048Y-16364176D01*
X11346048Y-16364176D02*
X11298429Y-16364176D01*
X11298429Y-16364176D02*
X11279382Y-16354652D01*
X11279382Y-16354652D02*
X11269858Y-16335605D01*
X11269858Y-16335605D02*
X11269858Y-16316557D01*
X11269858Y-16316557D02*
X11279382Y-16297509D01*
X11279382Y-16297509D02*
X11298429Y-16287986D01*
X11298429Y-16287986D02*
X11346048Y-16287986D01*
X11346048Y-16287986D02*
X11365096Y-16278462D01*
X11460334Y-16230843D02*
X11460334Y-16430843D01*
X11460334Y-16240367D02*
X11479382Y-16230843D01*
X11479382Y-16230843D02*
X11517477Y-16230843D01*
X11517477Y-16230843D02*
X11536525Y-16240367D01*
X11536525Y-16240367D02*
X11546048Y-16249890D01*
X11546048Y-16249890D02*
X11555572Y-16268938D01*
X11555572Y-16268938D02*
X11555572Y-16326081D01*
X11555572Y-16326081D02*
X11546048Y-16345128D01*
X11546048Y-16345128D02*
X11536525Y-16354652D01*
X11536525Y-16354652D02*
X11517477Y-16364176D01*
X11517477Y-16364176D02*
X11479382Y-16364176D01*
X11479382Y-16364176D02*
X11460334Y-16354652D01*
X11641287Y-16345128D02*
X11650810Y-16354652D01*
X11650810Y-16354652D02*
X11641287Y-16364176D01*
X11641287Y-16364176D02*
X11631763Y-16354652D01*
X11631763Y-16354652D02*
X11641287Y-16345128D01*
X11641287Y-16345128D02*
X11641287Y-16364176D01*
X11641287Y-16240367D02*
X11650810Y-16249890D01*
X11650810Y-16249890D02*
X11641287Y-16259414D01*
X11641287Y-16259414D02*
X11631763Y-16249890D01*
X11631763Y-16249890D02*
X11641287Y-16240367D01*
X11641287Y-16240367D02*
X11641287Y-16259414D01*
D12*
X10014620Y-16690700D02*
X10054620Y-16730700D01*
X10054620Y-16690700D02*
X10014620Y-16730700D01*
D11*
X10340334Y-16584176D02*
X10359382Y-16584176D01*
X10359382Y-16584176D02*
X10378430Y-16593700D01*
X10378430Y-16593700D02*
X10387953Y-16603224D01*
X10387953Y-16603224D02*
X10397477Y-16622271D01*
X10397477Y-16622271D02*
X10407001Y-16660367D01*
X10407001Y-16660367D02*
X10407001Y-16707986D01*
X10407001Y-16707986D02*
X10397477Y-16746081D01*
X10397477Y-16746081D02*
X10387953Y-16765128D01*
X10387953Y-16765128D02*
X10378430Y-16774652D01*
X10378430Y-16774652D02*
X10359382Y-16784176D01*
X10359382Y-16784176D02*
X10340334Y-16784176D01*
X10340334Y-16784176D02*
X10321287Y-16774652D01*
X10321287Y-16774652D02*
X10311763Y-16765128D01*
X10311763Y-16765128D02*
X10302239Y-16746081D01*
X10302239Y-16746081D02*
X10292715Y-16707986D01*
X10292715Y-16707986D02*
X10292715Y-16660367D01*
X10292715Y-16660367D02*
X10302239Y-16622271D01*
X10302239Y-16622271D02*
X10311763Y-16603224D01*
X10311763Y-16603224D02*
X10321287Y-16593700D01*
X10321287Y-16593700D02*
X10340334Y-16584176D01*
X10492715Y-16765128D02*
X10502239Y-16774652D01*
X10502239Y-16774652D02*
X10492715Y-16784176D01*
X10492715Y-16784176D02*
X10483191Y-16774652D01*
X10483191Y-16774652D02*
X10492715Y-16765128D01*
X10492715Y-16765128D02*
X10492715Y-16784176D01*
X10673668Y-16650843D02*
X10673668Y-16784176D01*
X10626049Y-16574652D02*
X10578430Y-16717509D01*
X10578430Y-16717509D02*
X10702239Y-16717509D01*
X10816525Y-16584176D02*
X10835572Y-16584176D01*
X10835572Y-16584176D02*
X10854620Y-16593700D01*
X10854620Y-16593700D02*
X10864144Y-16603224D01*
X10864144Y-16603224D02*
X10873668Y-16622271D01*
X10873668Y-16622271D02*
X10883191Y-16660367D01*
X10883191Y-16660367D02*
X10883191Y-16707986D01*
X10883191Y-16707986D02*
X10873668Y-16746081D01*
X10873668Y-16746081D02*
X10864144Y-16765128D01*
X10864144Y-16765128D02*
X10854620Y-16774652D01*
X10854620Y-16774652D02*
X10835572Y-16784176D01*
X10835572Y-16784176D02*
X10816525Y-16784176D01*
X10816525Y-16784176D02*
X10797477Y-16774652D01*
X10797477Y-16774652D02*
X10787953Y-16765128D01*
X10787953Y-16765128D02*
X10778430Y-16746081D01*
X10778430Y-16746081D02*
X10768906Y-16707986D01*
X10768906Y-16707986D02*
X10768906Y-16660367D01*
X10768906Y-16660367D02*
X10778430Y-16622271D01*
X10778430Y-16622271D02*
X10787953Y-16603224D01*
X10787953Y-16603224D02*
X10797477Y-16593700D01*
X10797477Y-16593700D02*
X10816525Y-16584176D01*
X11007001Y-16584176D02*
X11026049Y-16584176D01*
X11026049Y-16584176D02*
X11045096Y-16593700D01*
X11045096Y-16593700D02*
X11054620Y-16603224D01*
X11054620Y-16603224D02*
X11064144Y-16622271D01*
X11064144Y-16622271D02*
X11073668Y-16660367D01*
X11073668Y-16660367D02*
X11073668Y-16707986D01*
X11073668Y-16707986D02*
X11064144Y-16746081D01*
X11064144Y-16746081D02*
X11054620Y-16765128D01*
X11054620Y-16765128D02*
X11045096Y-16774652D01*
X11045096Y-16774652D02*
X11026049Y-16784176D01*
X11026049Y-16784176D02*
X11007001Y-16784176D01*
X11007001Y-16784176D02*
X10987953Y-16774652D01*
X10987953Y-16774652D02*
X10978430Y-16765128D01*
X10978430Y-16765128D02*
X10968906Y-16746081D01*
X10968906Y-16746081D02*
X10959382Y-16707986D01*
X10959382Y-16707986D02*
X10959382Y-16660367D01*
X10959382Y-16660367D02*
X10968906Y-16622271D01*
X10968906Y-16622271D02*
X10978430Y-16603224D01*
X10978430Y-16603224D02*
X10987953Y-16593700D01*
X10987953Y-16593700D02*
X11007001Y-16584176D01*
X11159382Y-16784176D02*
X11159382Y-16650843D01*
X11159382Y-16669890D02*
X11168906Y-16660367D01*
X11168906Y-16660367D02*
X11187953Y-16650843D01*
X11187953Y-16650843D02*
X11216525Y-16650843D01*
X11216525Y-16650843D02*
X11235572Y-16660367D01*
X11235572Y-16660367D02*
X11245096Y-16679414D01*
X11245096Y-16679414D02*
X11245096Y-16784176D01*
X11245096Y-16679414D02*
X11254620Y-16660367D01*
X11254620Y-16660367D02*
X11273668Y-16650843D01*
X11273668Y-16650843D02*
X11302239Y-16650843D01*
X11302239Y-16650843D02*
X11321287Y-16660367D01*
X11321287Y-16660367D02*
X11330810Y-16679414D01*
X11330810Y-16679414D02*
X11330810Y-16784176D01*
X11426049Y-16784176D02*
X11426049Y-16650843D01*
X11426049Y-16669890D02*
X11435572Y-16660367D01*
X11435572Y-16660367D02*
X11454620Y-16650843D01*
X11454620Y-16650843D02*
X11483191Y-16650843D01*
X11483191Y-16650843D02*
X11502239Y-16660367D01*
X11502239Y-16660367D02*
X11511763Y-16679414D01*
X11511763Y-16679414D02*
X11511763Y-16784176D01*
X11511763Y-16679414D02*
X11521287Y-16660367D01*
X11521287Y-16660367D02*
X11540334Y-16650843D01*
X11540334Y-16650843D02*
X11568906Y-16650843D01*
X11568906Y-16650843D02*
X11587953Y-16660367D01*
X11587953Y-16660367D02*
X11597477Y-16679414D01*
X11597477Y-16679414D02*
X11597477Y-16784176D01*
X11955572Y-16574652D02*
X11784144Y-16831795D01*
X12180334Y-16584176D02*
X12199382Y-16584176D01*
X12199382Y-16584176D02*
X12218430Y-16593700D01*
X12218430Y-16593700D02*
X12227953Y-16603224D01*
X12227953Y-16603224D02*
X12237477Y-16622271D01*
X12237477Y-16622271D02*
X12247001Y-16660367D01*
X12247001Y-16660367D02*
X12247001Y-16707986D01*
X12247001Y-16707986D02*
X12237477Y-16746081D01*
X12237477Y-16746081D02*
X12227953Y-16765128D01*
X12227953Y-16765128D02*
X12218430Y-16774652D01*
X12218430Y-16774652D02*
X12199382Y-16784176D01*
X12199382Y-16784176D02*
X12180334Y-16784176D01*
X12180334Y-16784176D02*
X12161287Y-16774652D01*
X12161287Y-16774652D02*
X12151763Y-16765128D01*
X12151763Y-16765128D02*
X12142239Y-16746081D01*
X12142239Y-16746081D02*
X12132715Y-16707986D01*
X12132715Y-16707986D02*
X12132715Y-16660367D01*
X12132715Y-16660367D02*
X12142239Y-16622271D01*
X12142239Y-16622271D02*
X12151763Y-16603224D01*
X12151763Y-16603224D02*
X12161287Y-16593700D01*
X12161287Y-16593700D02*
X12180334Y-16584176D01*
X12332715Y-16765128D02*
X12342239Y-16774652D01*
X12342239Y-16774652D02*
X12332715Y-16784176D01*
X12332715Y-16784176D02*
X12323191Y-16774652D01*
X12323191Y-16774652D02*
X12332715Y-16765128D01*
X12332715Y-16765128D02*
X12332715Y-16784176D01*
X12466049Y-16584176D02*
X12485096Y-16584176D01*
X12485096Y-16584176D02*
X12504144Y-16593700D01*
X12504144Y-16593700D02*
X12513668Y-16603224D01*
X12513668Y-16603224D02*
X12523191Y-16622271D01*
X12523191Y-16622271D02*
X12532715Y-16660367D01*
X12532715Y-16660367D02*
X12532715Y-16707986D01*
X12532715Y-16707986D02*
X12523191Y-16746081D01*
X12523191Y-16746081D02*
X12513668Y-16765128D01*
X12513668Y-16765128D02*
X12504144Y-16774652D01*
X12504144Y-16774652D02*
X12485096Y-16784176D01*
X12485096Y-16784176D02*
X12466049Y-16784176D01*
X12466049Y-16784176D02*
X12447001Y-16774652D01*
X12447001Y-16774652D02*
X12437477Y-16765128D01*
X12437477Y-16765128D02*
X12427953Y-16746081D01*
X12427953Y-16746081D02*
X12418430Y-16707986D01*
X12418430Y-16707986D02*
X12418430Y-16660367D01*
X12418430Y-16660367D02*
X12427953Y-16622271D01*
X12427953Y-16622271D02*
X12437477Y-16603224D01*
X12437477Y-16603224D02*
X12447001Y-16593700D01*
X12447001Y-16593700D02*
X12466049Y-16584176D01*
X12723191Y-16784176D02*
X12608906Y-16784176D01*
X12666049Y-16784176D02*
X12666049Y-16584176D01*
X12666049Y-16584176D02*
X12647001Y-16612748D01*
X12647001Y-16612748D02*
X12627953Y-16631795D01*
X12627953Y-16631795D02*
X12608906Y-16641319D01*
X12904144Y-16584176D02*
X12808906Y-16584176D01*
X12808906Y-16584176D02*
X12799382Y-16679414D01*
X12799382Y-16679414D02*
X12808906Y-16669890D01*
X12808906Y-16669890D02*
X12827953Y-16660367D01*
X12827953Y-16660367D02*
X12875572Y-16660367D01*
X12875572Y-16660367D02*
X12894620Y-16669890D01*
X12894620Y-16669890D02*
X12904144Y-16679414D01*
X12904144Y-16679414D02*
X12913668Y-16698462D01*
X12913668Y-16698462D02*
X12913668Y-16746081D01*
X12913668Y-16746081D02*
X12904144Y-16765128D01*
X12904144Y-16765128D02*
X12894620Y-16774652D01*
X12894620Y-16774652D02*
X12875572Y-16784176D01*
X12875572Y-16784176D02*
X12827953Y-16784176D01*
X12827953Y-16784176D02*
X12808906Y-16774652D01*
X12808906Y-16774652D02*
X12799382Y-16765128D01*
X12980334Y-16584176D02*
X13113668Y-16584176D01*
X13113668Y-16584176D02*
X13027953Y-16784176D01*
X13180334Y-16584176D02*
X13180334Y-16622271D01*
X13256525Y-16584176D02*
X13256525Y-16622271D01*
X13519382Y-16860367D02*
X13509858Y-16850843D01*
X13509858Y-16850843D02*
X13490811Y-16822271D01*
X13490811Y-16822271D02*
X13481287Y-16803224D01*
X13481287Y-16803224D02*
X13471763Y-16774652D01*
X13471763Y-16774652D02*
X13462239Y-16727033D01*
X13462239Y-16727033D02*
X13462239Y-16688938D01*
X13462239Y-16688938D02*
X13471763Y-16641319D01*
X13471763Y-16641319D02*
X13481287Y-16612748D01*
X13481287Y-16612748D02*
X13490811Y-16593700D01*
X13490811Y-16593700D02*
X13509858Y-16565128D01*
X13509858Y-16565128D02*
X13519382Y-16555605D01*
X13700334Y-16784176D02*
X13586049Y-16784176D01*
X13643191Y-16784176D02*
X13643191Y-16584176D01*
X13643191Y-16584176D02*
X13624144Y-16612748D01*
X13624144Y-16612748D02*
X13605096Y-16631795D01*
X13605096Y-16631795D02*
X13586049Y-16641319D01*
X13871763Y-16650843D02*
X13871763Y-16784176D01*
X13824144Y-16574652D02*
X13776525Y-16717509D01*
X13776525Y-16717509D02*
X13900334Y-16717509D01*
X14062239Y-16584176D02*
X14024144Y-16584176D01*
X14024144Y-16584176D02*
X14005096Y-16593700D01*
X14005096Y-16593700D02*
X13995572Y-16603224D01*
X13995572Y-16603224D02*
X13976525Y-16631795D01*
X13976525Y-16631795D02*
X13967001Y-16669890D01*
X13967001Y-16669890D02*
X13967001Y-16746081D01*
X13967001Y-16746081D02*
X13976525Y-16765128D01*
X13976525Y-16765128D02*
X13986049Y-16774652D01*
X13986049Y-16774652D02*
X14005096Y-16784176D01*
X14005096Y-16784176D02*
X14043192Y-16784176D01*
X14043192Y-16784176D02*
X14062239Y-16774652D01*
X14062239Y-16774652D02*
X14071763Y-16765128D01*
X14071763Y-16765128D02*
X14081287Y-16746081D01*
X14081287Y-16746081D02*
X14081287Y-16698462D01*
X14081287Y-16698462D02*
X14071763Y-16679414D01*
X14071763Y-16679414D02*
X14062239Y-16669890D01*
X14062239Y-16669890D02*
X14043192Y-16660367D01*
X14043192Y-16660367D02*
X14005096Y-16660367D01*
X14005096Y-16660367D02*
X13986049Y-16669890D01*
X13986049Y-16669890D02*
X13976525Y-16679414D01*
X13976525Y-16679414D02*
X13967001Y-16698462D01*
X14287001Y-16784176D02*
X14287001Y-16584176D01*
X14372715Y-16784176D02*
X14372715Y-16679414D01*
X14372715Y-16679414D02*
X14363192Y-16660367D01*
X14363192Y-16660367D02*
X14344144Y-16650843D01*
X14344144Y-16650843D02*
X14315572Y-16650843D01*
X14315572Y-16650843D02*
X14296525Y-16660367D01*
X14296525Y-16660367D02*
X14287001Y-16669890D01*
X14496525Y-16784176D02*
X14477477Y-16774652D01*
X14477477Y-16774652D02*
X14467953Y-16765128D01*
X14467953Y-16765128D02*
X14458430Y-16746081D01*
X14458430Y-16746081D02*
X14458430Y-16688938D01*
X14458430Y-16688938D02*
X14467953Y-16669890D01*
X14467953Y-16669890D02*
X14477477Y-16660367D01*
X14477477Y-16660367D02*
X14496525Y-16650843D01*
X14496525Y-16650843D02*
X14525096Y-16650843D01*
X14525096Y-16650843D02*
X14544144Y-16660367D01*
X14544144Y-16660367D02*
X14553668Y-16669890D01*
X14553668Y-16669890D02*
X14563192Y-16688938D01*
X14563192Y-16688938D02*
X14563192Y-16746081D01*
X14563192Y-16746081D02*
X14553668Y-16765128D01*
X14553668Y-16765128D02*
X14544144Y-16774652D01*
X14544144Y-16774652D02*
X14525096Y-16784176D01*
X14525096Y-16784176D02*
X14496525Y-16784176D01*
X14677477Y-16784176D02*
X14658430Y-16774652D01*
X14658430Y-16774652D02*
X14648906Y-16755605D01*
X14648906Y-16755605D02*
X14648906Y-16584176D01*
X14829858Y-16774652D02*
X14810811Y-16784176D01*
X14810811Y-16784176D02*
X14772715Y-16784176D01*
X14772715Y-16784176D02*
X14753668Y-16774652D01*
X14753668Y-16774652D02*
X14744144Y-16755605D01*
X14744144Y-16755605D02*
X14744144Y-16679414D01*
X14744144Y-16679414D02*
X14753668Y-16660367D01*
X14753668Y-16660367D02*
X14772715Y-16650843D01*
X14772715Y-16650843D02*
X14810811Y-16650843D01*
X14810811Y-16650843D02*
X14829858Y-16660367D01*
X14829858Y-16660367D02*
X14839382Y-16679414D01*
X14839382Y-16679414D02*
X14839382Y-16698462D01*
X14839382Y-16698462D02*
X14744144Y-16717509D01*
X14915573Y-16774652D02*
X14934620Y-16784176D01*
X14934620Y-16784176D02*
X14972715Y-16784176D01*
X14972715Y-16784176D02*
X14991763Y-16774652D01*
X14991763Y-16774652D02*
X15001287Y-16755605D01*
X15001287Y-16755605D02*
X15001287Y-16746081D01*
X15001287Y-16746081D02*
X14991763Y-16727033D01*
X14991763Y-16727033D02*
X14972715Y-16717509D01*
X14972715Y-16717509D02*
X14944144Y-16717509D01*
X14944144Y-16717509D02*
X14925096Y-16707986D01*
X14925096Y-16707986D02*
X14915573Y-16688938D01*
X14915573Y-16688938D02*
X14915573Y-16679414D01*
X14915573Y-16679414D02*
X14925096Y-16660367D01*
X14925096Y-16660367D02*
X14944144Y-16650843D01*
X14944144Y-16650843D02*
X14972715Y-16650843D01*
X14972715Y-16650843D02*
X14991763Y-16660367D01*
X15067954Y-16860367D02*
X15077477Y-16850843D01*
X15077477Y-16850843D02*
X15096525Y-16822271D01*
X15096525Y-16822271D02*
X15106049Y-16803224D01*
X15106049Y-16803224D02*
X15115573Y-16774652D01*
X15115573Y-16774652D02*
X15125096Y-16727033D01*
X15125096Y-16727033D02*
X15125096Y-16688938D01*
X15125096Y-16688938D02*
X15115573Y-16641319D01*
X15115573Y-16641319D02*
X15106049Y-16612748D01*
X15106049Y-16612748D02*
X15096525Y-16593700D01*
X15096525Y-16593700D02*
X15077477Y-16565128D01*
X15077477Y-16565128D02*
X15067954Y-16555605D01*
D13*
X10054620Y-16974700D02*
G75*
G03*
X10054620Y-16974700I-25000J0D01*
G01*
D11*
X10340334Y-16848176D02*
X10359382Y-16848176D01*
X10359382Y-16848176D02*
X10378430Y-16857700D01*
X10378430Y-16857700D02*
X10387953Y-16867224D01*
X10387953Y-16867224D02*
X10397477Y-16886271D01*
X10397477Y-16886271D02*
X10407001Y-16924367D01*
X10407001Y-16924367D02*
X10407001Y-16971986D01*
X10407001Y-16971986D02*
X10397477Y-17010081D01*
X10397477Y-17010081D02*
X10387953Y-17029129D01*
X10387953Y-17029129D02*
X10378430Y-17038652D01*
X10378430Y-17038652D02*
X10359382Y-17048176D01*
X10359382Y-17048176D02*
X10340334Y-17048176D01*
X10340334Y-17048176D02*
X10321287Y-17038652D01*
X10321287Y-17038652D02*
X10311763Y-17029129D01*
X10311763Y-17029129D02*
X10302239Y-17010081D01*
X10302239Y-17010081D02*
X10292715Y-16971986D01*
X10292715Y-16971986D02*
X10292715Y-16924367D01*
X10292715Y-16924367D02*
X10302239Y-16886271D01*
X10302239Y-16886271D02*
X10311763Y-16867224D01*
X10311763Y-16867224D02*
X10321287Y-16857700D01*
X10321287Y-16857700D02*
X10340334Y-16848176D01*
X10492715Y-17029129D02*
X10502239Y-17038652D01*
X10502239Y-17038652D02*
X10492715Y-17048176D01*
X10492715Y-17048176D02*
X10483191Y-17038652D01*
X10483191Y-17038652D02*
X10492715Y-17029129D01*
X10492715Y-17029129D02*
X10492715Y-17048176D01*
X10683191Y-16848176D02*
X10587953Y-16848176D01*
X10587953Y-16848176D02*
X10578430Y-16943414D01*
X10578430Y-16943414D02*
X10587953Y-16933890D01*
X10587953Y-16933890D02*
X10607001Y-16924367D01*
X10607001Y-16924367D02*
X10654620Y-16924367D01*
X10654620Y-16924367D02*
X10673668Y-16933890D01*
X10673668Y-16933890D02*
X10683191Y-16943414D01*
X10683191Y-16943414D02*
X10692715Y-16962462D01*
X10692715Y-16962462D02*
X10692715Y-17010081D01*
X10692715Y-17010081D02*
X10683191Y-17029129D01*
X10683191Y-17029129D02*
X10673668Y-17038652D01*
X10673668Y-17038652D02*
X10654620Y-17048176D01*
X10654620Y-17048176D02*
X10607001Y-17048176D01*
X10607001Y-17048176D02*
X10587953Y-17038652D01*
X10587953Y-17038652D02*
X10578430Y-17029129D01*
X10816525Y-16848176D02*
X10835572Y-16848176D01*
X10835572Y-16848176D02*
X10854620Y-16857700D01*
X10854620Y-16857700D02*
X10864144Y-16867224D01*
X10864144Y-16867224D02*
X10873668Y-16886271D01*
X10873668Y-16886271D02*
X10883191Y-16924367D01*
X10883191Y-16924367D02*
X10883191Y-16971986D01*
X10883191Y-16971986D02*
X10873668Y-17010081D01*
X10873668Y-17010081D02*
X10864144Y-17029129D01*
X10864144Y-17029129D02*
X10854620Y-17038652D01*
X10854620Y-17038652D02*
X10835572Y-17048176D01*
X10835572Y-17048176D02*
X10816525Y-17048176D01*
X10816525Y-17048176D02*
X10797477Y-17038652D01*
X10797477Y-17038652D02*
X10787953Y-17029129D01*
X10787953Y-17029129D02*
X10778430Y-17010081D01*
X10778430Y-17010081D02*
X10768906Y-16971986D01*
X10768906Y-16971986D02*
X10768906Y-16924367D01*
X10768906Y-16924367D02*
X10778430Y-16886271D01*
X10778430Y-16886271D02*
X10787953Y-16867224D01*
X10787953Y-16867224D02*
X10797477Y-16857700D01*
X10797477Y-16857700D02*
X10816525Y-16848176D01*
X11007001Y-16848176D02*
X11026049Y-16848176D01*
X11026049Y-16848176D02*
X11045096Y-16857700D01*
X11045096Y-16857700D02*
X11054620Y-16867224D01*
X11054620Y-16867224D02*
X11064144Y-16886271D01*
X11064144Y-16886271D02*
X11073668Y-16924367D01*
X11073668Y-16924367D02*
X11073668Y-16971986D01*
X11073668Y-16971986D02*
X11064144Y-17010081D01*
X11064144Y-17010081D02*
X11054620Y-17029129D01*
X11054620Y-17029129D02*
X11045096Y-17038652D01*
X11045096Y-17038652D02*
X11026049Y-17048176D01*
X11026049Y-17048176D02*
X11007001Y-17048176D01*
X11007001Y-17048176D02*
X10987953Y-17038652D01*
X10987953Y-17038652D02*
X10978430Y-17029129D01*
X10978430Y-17029129D02*
X10968906Y-17010081D01*
X10968906Y-17010081D02*
X10959382Y-16971986D01*
X10959382Y-16971986D02*
X10959382Y-16924367D01*
X10959382Y-16924367D02*
X10968906Y-16886271D01*
X10968906Y-16886271D02*
X10978430Y-16867224D01*
X10978430Y-16867224D02*
X10987953Y-16857700D01*
X10987953Y-16857700D02*
X11007001Y-16848176D01*
X11159382Y-17048176D02*
X11159382Y-16914843D01*
X11159382Y-16933890D02*
X11168906Y-16924367D01*
X11168906Y-16924367D02*
X11187953Y-16914843D01*
X11187953Y-16914843D02*
X11216525Y-16914843D01*
X11216525Y-16914843D02*
X11235572Y-16924367D01*
X11235572Y-16924367D02*
X11245096Y-16943414D01*
X11245096Y-16943414D02*
X11245096Y-17048176D01*
X11245096Y-16943414D02*
X11254620Y-16924367D01*
X11254620Y-16924367D02*
X11273668Y-16914843D01*
X11273668Y-16914843D02*
X11302239Y-16914843D01*
X11302239Y-16914843D02*
X11321287Y-16924367D01*
X11321287Y-16924367D02*
X11330810Y-16943414D01*
X11330810Y-16943414D02*
X11330810Y-17048176D01*
X11426049Y-17048176D02*
X11426049Y-16914843D01*
X11426049Y-16933890D02*
X11435572Y-16924367D01*
X11435572Y-16924367D02*
X11454620Y-16914843D01*
X11454620Y-16914843D02*
X11483191Y-16914843D01*
X11483191Y-16914843D02*
X11502239Y-16924367D01*
X11502239Y-16924367D02*
X11511763Y-16943414D01*
X11511763Y-16943414D02*
X11511763Y-17048176D01*
X11511763Y-16943414D02*
X11521287Y-16924367D01*
X11521287Y-16924367D02*
X11540334Y-16914843D01*
X11540334Y-16914843D02*
X11568906Y-16914843D01*
X11568906Y-16914843D02*
X11587953Y-16924367D01*
X11587953Y-16924367D02*
X11597477Y-16943414D01*
X11597477Y-16943414D02*
X11597477Y-17048176D01*
X11955572Y-16838652D02*
X11784144Y-17095795D01*
X12180334Y-16848176D02*
X12199382Y-16848176D01*
X12199382Y-16848176D02*
X12218430Y-16857700D01*
X12218430Y-16857700D02*
X12227953Y-16867224D01*
X12227953Y-16867224D02*
X12237477Y-16886271D01*
X12237477Y-16886271D02*
X12247001Y-16924367D01*
X12247001Y-16924367D02*
X12247001Y-16971986D01*
X12247001Y-16971986D02*
X12237477Y-17010081D01*
X12237477Y-17010081D02*
X12227953Y-17029129D01*
X12227953Y-17029129D02*
X12218430Y-17038652D01*
X12218430Y-17038652D02*
X12199382Y-17048176D01*
X12199382Y-17048176D02*
X12180334Y-17048176D01*
X12180334Y-17048176D02*
X12161287Y-17038652D01*
X12161287Y-17038652D02*
X12151763Y-17029129D01*
X12151763Y-17029129D02*
X12142239Y-17010081D01*
X12142239Y-17010081D02*
X12132715Y-16971986D01*
X12132715Y-16971986D02*
X12132715Y-16924367D01*
X12132715Y-16924367D02*
X12142239Y-16886271D01*
X12142239Y-16886271D02*
X12151763Y-16867224D01*
X12151763Y-16867224D02*
X12161287Y-16857700D01*
X12161287Y-16857700D02*
X12180334Y-16848176D01*
X12332715Y-17029129D02*
X12342239Y-17038652D01*
X12342239Y-17038652D02*
X12332715Y-17048176D01*
X12332715Y-17048176D02*
X12323191Y-17038652D01*
X12323191Y-17038652D02*
X12332715Y-17029129D01*
X12332715Y-17029129D02*
X12332715Y-17048176D01*
X12466049Y-16848176D02*
X12485096Y-16848176D01*
X12485096Y-16848176D02*
X12504144Y-16857700D01*
X12504144Y-16857700D02*
X12513668Y-16867224D01*
X12513668Y-16867224D02*
X12523191Y-16886271D01*
X12523191Y-16886271D02*
X12532715Y-16924367D01*
X12532715Y-16924367D02*
X12532715Y-16971986D01*
X12532715Y-16971986D02*
X12523191Y-17010081D01*
X12523191Y-17010081D02*
X12513668Y-17029129D01*
X12513668Y-17029129D02*
X12504144Y-17038652D01*
X12504144Y-17038652D02*
X12485096Y-17048176D01*
X12485096Y-17048176D02*
X12466049Y-17048176D01*
X12466049Y-17048176D02*
X12447001Y-17038652D01*
X12447001Y-17038652D02*
X12437477Y-17029129D01*
X12437477Y-17029129D02*
X12427953Y-17010081D01*
X12427953Y-17010081D02*
X12418430Y-16971986D01*
X12418430Y-16971986D02*
X12418430Y-16924367D01*
X12418430Y-16924367D02*
X12427953Y-16886271D01*
X12427953Y-16886271D02*
X12437477Y-16867224D01*
X12437477Y-16867224D02*
X12447001Y-16857700D01*
X12447001Y-16857700D02*
X12466049Y-16848176D01*
X12723191Y-17048176D02*
X12608906Y-17048176D01*
X12666049Y-17048176D02*
X12666049Y-16848176D01*
X12666049Y-16848176D02*
X12647001Y-16876748D01*
X12647001Y-16876748D02*
X12627953Y-16895795D01*
X12627953Y-16895795D02*
X12608906Y-16905319D01*
X12818430Y-17048176D02*
X12856525Y-17048176D01*
X12856525Y-17048176D02*
X12875572Y-17038652D01*
X12875572Y-17038652D02*
X12885096Y-17029129D01*
X12885096Y-17029129D02*
X12904144Y-17000557D01*
X12904144Y-17000557D02*
X12913668Y-16962462D01*
X12913668Y-16962462D02*
X12913668Y-16886271D01*
X12913668Y-16886271D02*
X12904144Y-16867224D01*
X12904144Y-16867224D02*
X12894620Y-16857700D01*
X12894620Y-16857700D02*
X12875572Y-16848176D01*
X12875572Y-16848176D02*
X12837477Y-16848176D01*
X12837477Y-16848176D02*
X12818430Y-16857700D01*
X12818430Y-16857700D02*
X12808906Y-16867224D01*
X12808906Y-16867224D02*
X12799382Y-16886271D01*
X12799382Y-16886271D02*
X12799382Y-16933890D01*
X12799382Y-16933890D02*
X12808906Y-16952938D01*
X12808906Y-16952938D02*
X12818430Y-16962462D01*
X12818430Y-16962462D02*
X12837477Y-16971986D01*
X12837477Y-16971986D02*
X12875572Y-16971986D01*
X12875572Y-16971986D02*
X12894620Y-16962462D01*
X12894620Y-16962462D02*
X12904144Y-16952938D01*
X12904144Y-16952938D02*
X12913668Y-16933890D01*
X12980334Y-16848176D02*
X13113668Y-16848176D01*
X13113668Y-16848176D02*
X13027953Y-17048176D01*
X13180334Y-16848176D02*
X13180334Y-16886271D01*
X13256525Y-16848176D02*
X13256525Y-16886271D01*
X13519382Y-17124367D02*
X13509858Y-17114843D01*
X13509858Y-17114843D02*
X13490811Y-17086271D01*
X13490811Y-17086271D02*
X13481287Y-17067224D01*
X13481287Y-17067224D02*
X13471763Y-17038652D01*
X13471763Y-17038652D02*
X13462239Y-16991033D01*
X13462239Y-16991033D02*
X13462239Y-16952938D01*
X13462239Y-16952938D02*
X13471763Y-16905319D01*
X13471763Y-16905319D02*
X13481287Y-16876748D01*
X13481287Y-16876748D02*
X13490811Y-16857700D01*
X13490811Y-16857700D02*
X13509858Y-16829129D01*
X13509858Y-16829129D02*
X13519382Y-16819605D01*
X13633668Y-16848176D02*
X13652715Y-16848176D01*
X13652715Y-16848176D02*
X13671763Y-16857700D01*
X13671763Y-16857700D02*
X13681287Y-16867224D01*
X13681287Y-16867224D02*
X13690811Y-16886271D01*
X13690811Y-16886271D02*
X13700334Y-16924367D01*
X13700334Y-16924367D02*
X13700334Y-16971986D01*
X13700334Y-16971986D02*
X13690811Y-17010081D01*
X13690811Y-17010081D02*
X13681287Y-17029129D01*
X13681287Y-17029129D02*
X13671763Y-17038652D01*
X13671763Y-17038652D02*
X13652715Y-17048176D01*
X13652715Y-17048176D02*
X13633668Y-17048176D01*
X13633668Y-17048176D02*
X13614620Y-17038652D01*
X13614620Y-17038652D02*
X13605096Y-17029129D01*
X13605096Y-17029129D02*
X13595572Y-17010081D01*
X13595572Y-17010081D02*
X13586049Y-16971986D01*
X13586049Y-16971986D02*
X13586049Y-16924367D01*
X13586049Y-16924367D02*
X13595572Y-16886271D01*
X13595572Y-16886271D02*
X13605096Y-16867224D01*
X13605096Y-16867224D02*
X13614620Y-16857700D01*
X13614620Y-16857700D02*
X13633668Y-16848176D01*
X13906049Y-17048176D02*
X13906049Y-16848176D01*
X13991763Y-17048176D02*
X13991763Y-16943414D01*
X13991763Y-16943414D02*
X13982239Y-16924367D01*
X13982239Y-16924367D02*
X13963192Y-16914843D01*
X13963192Y-16914843D02*
X13934620Y-16914843D01*
X13934620Y-16914843D02*
X13915572Y-16924367D01*
X13915572Y-16924367D02*
X13906049Y-16933890D01*
X14115572Y-17048176D02*
X14096525Y-17038652D01*
X14096525Y-17038652D02*
X14087001Y-17029129D01*
X14087001Y-17029129D02*
X14077477Y-17010081D01*
X14077477Y-17010081D02*
X14077477Y-16952938D01*
X14077477Y-16952938D02*
X14087001Y-16933890D01*
X14087001Y-16933890D02*
X14096525Y-16924367D01*
X14096525Y-16924367D02*
X14115572Y-16914843D01*
X14115572Y-16914843D02*
X14144144Y-16914843D01*
X14144144Y-16914843D02*
X14163192Y-16924367D01*
X14163192Y-16924367D02*
X14172715Y-16933890D01*
X14172715Y-16933890D02*
X14182239Y-16952938D01*
X14182239Y-16952938D02*
X14182239Y-17010081D01*
X14182239Y-17010081D02*
X14172715Y-17029129D01*
X14172715Y-17029129D02*
X14163192Y-17038652D01*
X14163192Y-17038652D02*
X14144144Y-17048176D01*
X14144144Y-17048176D02*
X14115572Y-17048176D01*
X14296525Y-17048176D02*
X14277477Y-17038652D01*
X14277477Y-17038652D02*
X14267953Y-17019605D01*
X14267953Y-17019605D02*
X14267953Y-16848176D01*
X14448906Y-17038652D02*
X14429858Y-17048176D01*
X14429858Y-17048176D02*
X14391763Y-17048176D01*
X14391763Y-17048176D02*
X14372715Y-17038652D01*
X14372715Y-17038652D02*
X14363192Y-17019605D01*
X14363192Y-17019605D02*
X14363192Y-16943414D01*
X14363192Y-16943414D02*
X14372715Y-16924367D01*
X14372715Y-16924367D02*
X14391763Y-16914843D01*
X14391763Y-16914843D02*
X14429858Y-16914843D01*
X14429858Y-16914843D02*
X14448906Y-16924367D01*
X14448906Y-16924367D02*
X14458430Y-16943414D01*
X14458430Y-16943414D02*
X14458430Y-16962462D01*
X14458430Y-16962462D02*
X14363192Y-16981510D01*
X14534620Y-17038652D02*
X14553668Y-17048176D01*
X14553668Y-17048176D02*
X14591763Y-17048176D01*
X14591763Y-17048176D02*
X14610811Y-17038652D01*
X14610811Y-17038652D02*
X14620334Y-17019605D01*
X14620334Y-17019605D02*
X14620334Y-17010081D01*
X14620334Y-17010081D02*
X14610811Y-16991033D01*
X14610811Y-16991033D02*
X14591763Y-16981510D01*
X14591763Y-16981510D02*
X14563192Y-16981510D01*
X14563192Y-16981510D02*
X14544144Y-16971986D01*
X14544144Y-16971986D02*
X14534620Y-16952938D01*
X14534620Y-16952938D02*
X14534620Y-16943414D01*
X14534620Y-16943414D02*
X14544144Y-16924367D01*
X14544144Y-16924367D02*
X14563192Y-16914843D01*
X14563192Y-16914843D02*
X14591763Y-16914843D01*
X14591763Y-16914843D02*
X14610811Y-16924367D01*
X14826049Y-16971986D02*
X14978430Y-16971986D01*
X14902239Y-17048176D02*
X14902239Y-16895795D01*
X15184144Y-16867224D02*
X15193668Y-16857700D01*
X15193668Y-16857700D02*
X15212715Y-16848176D01*
X15212715Y-16848176D02*
X15260334Y-16848176D01*
X15260334Y-16848176D02*
X15279382Y-16857700D01*
X15279382Y-16857700D02*
X15288906Y-16867224D01*
X15288906Y-16867224D02*
X15298430Y-16886271D01*
X15298430Y-16886271D02*
X15298430Y-16905319D01*
X15298430Y-16905319D02*
X15288906Y-16933890D01*
X15288906Y-16933890D02*
X15174620Y-17048176D01*
X15174620Y-17048176D02*
X15298430Y-17048176D01*
X15494620Y-17038652D02*
X15513668Y-17048176D01*
X15513668Y-17048176D02*
X15551763Y-17048176D01*
X15551763Y-17048176D02*
X15570811Y-17038652D01*
X15570811Y-17038652D02*
X15580334Y-17019605D01*
X15580334Y-17019605D02*
X15580334Y-17010081D01*
X15580334Y-17010081D02*
X15570811Y-16991033D01*
X15570811Y-16991033D02*
X15551763Y-16981510D01*
X15551763Y-16981510D02*
X15523192Y-16981510D01*
X15523192Y-16981510D02*
X15504144Y-16971986D01*
X15504144Y-16971986D02*
X15494620Y-16952938D01*
X15494620Y-16952938D02*
X15494620Y-16943414D01*
X15494620Y-16943414D02*
X15504144Y-16924367D01*
X15504144Y-16924367D02*
X15523192Y-16914843D01*
X15523192Y-16914843D02*
X15551763Y-16914843D01*
X15551763Y-16914843D02*
X15570811Y-16924367D01*
X15694620Y-17048176D02*
X15675573Y-17038652D01*
X15675573Y-17038652D02*
X15666049Y-17019605D01*
X15666049Y-17019605D02*
X15666049Y-16848176D01*
X15799382Y-17048176D02*
X15780334Y-17038652D01*
X15780334Y-17038652D02*
X15770811Y-17029129D01*
X15770811Y-17029129D02*
X15761287Y-17010081D01*
X15761287Y-17010081D02*
X15761287Y-16952938D01*
X15761287Y-16952938D02*
X15770811Y-16933890D01*
X15770811Y-16933890D02*
X15780334Y-16924367D01*
X15780334Y-16924367D02*
X15799382Y-16914843D01*
X15799382Y-16914843D02*
X15827954Y-16914843D01*
X15827954Y-16914843D02*
X15847001Y-16924367D01*
X15847001Y-16924367D02*
X15856525Y-16933890D01*
X15856525Y-16933890D02*
X15866049Y-16952938D01*
X15866049Y-16952938D02*
X15866049Y-17010081D01*
X15866049Y-17010081D02*
X15856525Y-17029129D01*
X15856525Y-17029129D02*
X15847001Y-17038652D01*
X15847001Y-17038652D02*
X15827954Y-17048176D01*
X15827954Y-17048176D02*
X15799382Y-17048176D01*
X15923192Y-16914843D02*
X15999382Y-16914843D01*
X15951763Y-16848176D02*
X15951763Y-17019605D01*
X15951763Y-17019605D02*
X15961287Y-17038652D01*
X15961287Y-17038652D02*
X15980334Y-17048176D01*
X15980334Y-17048176D02*
X15999382Y-17048176D01*
X16056525Y-17038652D02*
X16075573Y-17048176D01*
X16075573Y-17048176D02*
X16113668Y-17048176D01*
X16113668Y-17048176D02*
X16132715Y-17038652D01*
X16132715Y-17038652D02*
X16142239Y-17019605D01*
X16142239Y-17019605D02*
X16142239Y-17010081D01*
X16142239Y-17010081D02*
X16132715Y-16991033D01*
X16132715Y-16991033D02*
X16113668Y-16981510D01*
X16113668Y-16981510D02*
X16085096Y-16981510D01*
X16085096Y-16981510D02*
X16066049Y-16971986D01*
X16066049Y-16971986D02*
X16056525Y-16952938D01*
X16056525Y-16952938D02*
X16056525Y-16943414D01*
X16056525Y-16943414D02*
X16066049Y-16924367D01*
X16066049Y-16924367D02*
X16085096Y-16914843D01*
X16085096Y-16914843D02*
X16113668Y-16914843D01*
X16113668Y-16914843D02*
X16132715Y-16924367D01*
X16208906Y-17124367D02*
X16218430Y-17114843D01*
X16218430Y-17114843D02*
X16237477Y-17086271D01*
X16237477Y-17086271D02*
X16247001Y-17067224D01*
X16247001Y-17067224D02*
X16256525Y-17038652D01*
X16256525Y-17038652D02*
X16266049Y-16991033D01*
X16266049Y-16991033D02*
X16266049Y-16952938D01*
X16266049Y-16952938D02*
X16256525Y-16905319D01*
X16256525Y-16905319D02*
X16247001Y-16876748D01*
X16247001Y-16876748D02*
X16237477Y-16857700D01*
X16237477Y-16857700D02*
X16218430Y-16829129D01*
X16218430Y-16829129D02*
X16208906Y-16819605D01*
D14*
X10027120Y-17211200D02*
X10027120Y-17266200D01*
X9999620Y-17238700D02*
X10054620Y-17238700D01*
D11*
X10340334Y-17112176D02*
X10359382Y-17112176D01*
X10359382Y-17112176D02*
X10378430Y-17121700D01*
X10378430Y-17121700D02*
X10387953Y-17131224D01*
X10387953Y-17131224D02*
X10397477Y-17150271D01*
X10397477Y-17150271D02*
X10407001Y-17188367D01*
X10407001Y-17188367D02*
X10407001Y-17235986D01*
X10407001Y-17235986D02*
X10397477Y-17274081D01*
X10397477Y-17274081D02*
X10387953Y-17293129D01*
X10387953Y-17293129D02*
X10378430Y-17302652D01*
X10378430Y-17302652D02*
X10359382Y-17312176D01*
X10359382Y-17312176D02*
X10340334Y-17312176D01*
X10340334Y-17312176D02*
X10321287Y-17302652D01*
X10321287Y-17302652D02*
X10311763Y-17293129D01*
X10311763Y-17293129D02*
X10302239Y-17274081D01*
X10302239Y-17274081D02*
X10292715Y-17235986D01*
X10292715Y-17235986D02*
X10292715Y-17188367D01*
X10292715Y-17188367D02*
X10302239Y-17150271D01*
X10302239Y-17150271D02*
X10311763Y-17131224D01*
X10311763Y-17131224D02*
X10321287Y-17121700D01*
X10321287Y-17121700D02*
X10340334Y-17112176D01*
X10492715Y-17293129D02*
X10502239Y-17302652D01*
X10502239Y-17302652D02*
X10492715Y-17312176D01*
X10492715Y-17312176D02*
X10483191Y-17302652D01*
X10483191Y-17302652D02*
X10492715Y-17293129D01*
X10492715Y-17293129D02*
X10492715Y-17312176D01*
X10683191Y-17112176D02*
X10587953Y-17112176D01*
X10587953Y-17112176D02*
X10578430Y-17207414D01*
X10578430Y-17207414D02*
X10587953Y-17197890D01*
X10587953Y-17197890D02*
X10607001Y-17188367D01*
X10607001Y-17188367D02*
X10654620Y-17188367D01*
X10654620Y-17188367D02*
X10673668Y-17197890D01*
X10673668Y-17197890D02*
X10683191Y-17207414D01*
X10683191Y-17207414D02*
X10692715Y-17226462D01*
X10692715Y-17226462D02*
X10692715Y-17274081D01*
X10692715Y-17274081D02*
X10683191Y-17293129D01*
X10683191Y-17293129D02*
X10673668Y-17302652D01*
X10673668Y-17302652D02*
X10654620Y-17312176D01*
X10654620Y-17312176D02*
X10607001Y-17312176D01*
X10607001Y-17312176D02*
X10587953Y-17302652D01*
X10587953Y-17302652D02*
X10578430Y-17293129D01*
X10873668Y-17112176D02*
X10778430Y-17112176D01*
X10778430Y-17112176D02*
X10768906Y-17207414D01*
X10768906Y-17207414D02*
X10778430Y-17197890D01*
X10778430Y-17197890D02*
X10797477Y-17188367D01*
X10797477Y-17188367D02*
X10845096Y-17188367D01*
X10845096Y-17188367D02*
X10864144Y-17197890D01*
X10864144Y-17197890D02*
X10873668Y-17207414D01*
X10873668Y-17207414D02*
X10883191Y-17226462D01*
X10883191Y-17226462D02*
X10883191Y-17274081D01*
X10883191Y-17274081D02*
X10873668Y-17293129D01*
X10873668Y-17293129D02*
X10864144Y-17302652D01*
X10864144Y-17302652D02*
X10845096Y-17312176D01*
X10845096Y-17312176D02*
X10797477Y-17312176D01*
X10797477Y-17312176D02*
X10778430Y-17302652D01*
X10778430Y-17302652D02*
X10768906Y-17293129D01*
X11007001Y-17112176D02*
X11026049Y-17112176D01*
X11026049Y-17112176D02*
X11045096Y-17121700D01*
X11045096Y-17121700D02*
X11054620Y-17131224D01*
X11054620Y-17131224D02*
X11064144Y-17150271D01*
X11064144Y-17150271D02*
X11073668Y-17188367D01*
X11073668Y-17188367D02*
X11073668Y-17235986D01*
X11073668Y-17235986D02*
X11064144Y-17274081D01*
X11064144Y-17274081D02*
X11054620Y-17293129D01*
X11054620Y-17293129D02*
X11045096Y-17302652D01*
X11045096Y-17302652D02*
X11026049Y-17312176D01*
X11026049Y-17312176D02*
X11007001Y-17312176D01*
X11007001Y-17312176D02*
X10987953Y-17302652D01*
X10987953Y-17302652D02*
X10978430Y-17293129D01*
X10978430Y-17293129D02*
X10968906Y-17274081D01*
X10968906Y-17274081D02*
X10959382Y-17235986D01*
X10959382Y-17235986D02*
X10959382Y-17188367D01*
X10959382Y-17188367D02*
X10968906Y-17150271D01*
X10968906Y-17150271D02*
X10978430Y-17131224D01*
X10978430Y-17131224D02*
X10987953Y-17121700D01*
X10987953Y-17121700D02*
X11007001Y-17112176D01*
X11159382Y-17312176D02*
X11159382Y-17178843D01*
X11159382Y-17197890D02*
X11168906Y-17188367D01*
X11168906Y-17188367D02*
X11187953Y-17178843D01*
X11187953Y-17178843D02*
X11216525Y-17178843D01*
X11216525Y-17178843D02*
X11235572Y-17188367D01*
X11235572Y-17188367D02*
X11245096Y-17207414D01*
X11245096Y-17207414D02*
X11245096Y-17312176D01*
X11245096Y-17207414D02*
X11254620Y-17188367D01*
X11254620Y-17188367D02*
X11273668Y-17178843D01*
X11273668Y-17178843D02*
X11302239Y-17178843D01*
X11302239Y-17178843D02*
X11321287Y-17188367D01*
X11321287Y-17188367D02*
X11330810Y-17207414D01*
X11330810Y-17207414D02*
X11330810Y-17312176D01*
X11426049Y-17312176D02*
X11426049Y-17178843D01*
X11426049Y-17197890D02*
X11435572Y-17188367D01*
X11435572Y-17188367D02*
X11454620Y-17178843D01*
X11454620Y-17178843D02*
X11483191Y-17178843D01*
X11483191Y-17178843D02*
X11502239Y-17188367D01*
X11502239Y-17188367D02*
X11511763Y-17207414D01*
X11511763Y-17207414D02*
X11511763Y-17312176D01*
X11511763Y-17207414D02*
X11521287Y-17188367D01*
X11521287Y-17188367D02*
X11540334Y-17178843D01*
X11540334Y-17178843D02*
X11568906Y-17178843D01*
X11568906Y-17178843D02*
X11587953Y-17188367D01*
X11587953Y-17188367D02*
X11597477Y-17207414D01*
X11597477Y-17207414D02*
X11597477Y-17312176D01*
X11955572Y-17102652D02*
X11784144Y-17359795D01*
X12180334Y-17112176D02*
X12199382Y-17112176D01*
X12199382Y-17112176D02*
X12218430Y-17121700D01*
X12218430Y-17121700D02*
X12227953Y-17131224D01*
X12227953Y-17131224D02*
X12237477Y-17150271D01*
X12237477Y-17150271D02*
X12247001Y-17188367D01*
X12247001Y-17188367D02*
X12247001Y-17235986D01*
X12247001Y-17235986D02*
X12237477Y-17274081D01*
X12237477Y-17274081D02*
X12227953Y-17293129D01*
X12227953Y-17293129D02*
X12218430Y-17302652D01*
X12218430Y-17302652D02*
X12199382Y-17312176D01*
X12199382Y-17312176D02*
X12180334Y-17312176D01*
X12180334Y-17312176D02*
X12161287Y-17302652D01*
X12161287Y-17302652D02*
X12151763Y-17293129D01*
X12151763Y-17293129D02*
X12142239Y-17274081D01*
X12142239Y-17274081D02*
X12132715Y-17235986D01*
X12132715Y-17235986D02*
X12132715Y-17188367D01*
X12132715Y-17188367D02*
X12142239Y-17150271D01*
X12142239Y-17150271D02*
X12151763Y-17131224D01*
X12151763Y-17131224D02*
X12161287Y-17121700D01*
X12161287Y-17121700D02*
X12180334Y-17112176D01*
X12332715Y-17293129D02*
X12342239Y-17302652D01*
X12342239Y-17302652D02*
X12332715Y-17312176D01*
X12332715Y-17312176D02*
X12323191Y-17302652D01*
X12323191Y-17302652D02*
X12332715Y-17293129D01*
X12332715Y-17293129D02*
X12332715Y-17312176D01*
X12466049Y-17112176D02*
X12485096Y-17112176D01*
X12485096Y-17112176D02*
X12504144Y-17121700D01*
X12504144Y-17121700D02*
X12513668Y-17131224D01*
X12513668Y-17131224D02*
X12523191Y-17150271D01*
X12523191Y-17150271D02*
X12532715Y-17188367D01*
X12532715Y-17188367D02*
X12532715Y-17235986D01*
X12532715Y-17235986D02*
X12523191Y-17274081D01*
X12523191Y-17274081D02*
X12513668Y-17293129D01*
X12513668Y-17293129D02*
X12504144Y-17302652D01*
X12504144Y-17302652D02*
X12485096Y-17312176D01*
X12485096Y-17312176D02*
X12466049Y-17312176D01*
X12466049Y-17312176D02*
X12447001Y-17302652D01*
X12447001Y-17302652D02*
X12437477Y-17293129D01*
X12437477Y-17293129D02*
X12427953Y-17274081D01*
X12427953Y-17274081D02*
X12418430Y-17235986D01*
X12418430Y-17235986D02*
X12418430Y-17188367D01*
X12418430Y-17188367D02*
X12427953Y-17150271D01*
X12427953Y-17150271D02*
X12437477Y-17131224D01*
X12437477Y-17131224D02*
X12447001Y-17121700D01*
X12447001Y-17121700D02*
X12466049Y-17112176D01*
X12608906Y-17131224D02*
X12618430Y-17121700D01*
X12618430Y-17121700D02*
X12637477Y-17112176D01*
X12637477Y-17112176D02*
X12685096Y-17112176D01*
X12685096Y-17112176D02*
X12704144Y-17121700D01*
X12704144Y-17121700D02*
X12713668Y-17131224D01*
X12713668Y-17131224D02*
X12723191Y-17150271D01*
X12723191Y-17150271D02*
X12723191Y-17169319D01*
X12723191Y-17169319D02*
X12713668Y-17197890D01*
X12713668Y-17197890D02*
X12599382Y-17312176D01*
X12599382Y-17312176D02*
X12723191Y-17312176D01*
X12913668Y-17312176D02*
X12799382Y-17312176D01*
X12856525Y-17312176D02*
X12856525Y-17112176D01*
X12856525Y-17112176D02*
X12837477Y-17140748D01*
X12837477Y-17140748D02*
X12818430Y-17159795D01*
X12818430Y-17159795D02*
X12799382Y-17169319D01*
X12980334Y-17112176D02*
X13113668Y-17112176D01*
X13113668Y-17112176D02*
X13027953Y-17312176D01*
X13180334Y-17112176D02*
X13180334Y-17150271D01*
X13256525Y-17112176D02*
X13256525Y-17150271D01*
X13519382Y-17388367D02*
X13509858Y-17378843D01*
X13509858Y-17378843D02*
X13490811Y-17350271D01*
X13490811Y-17350271D02*
X13481287Y-17331224D01*
X13481287Y-17331224D02*
X13471763Y-17302652D01*
X13471763Y-17302652D02*
X13462239Y-17255033D01*
X13462239Y-17255033D02*
X13462239Y-17216938D01*
X13462239Y-17216938D02*
X13471763Y-17169319D01*
X13471763Y-17169319D02*
X13481287Y-17140748D01*
X13481287Y-17140748D02*
X13490811Y-17121700D01*
X13490811Y-17121700D02*
X13509858Y-17093129D01*
X13509858Y-17093129D02*
X13519382Y-17083605D01*
X13633668Y-17112176D02*
X13652715Y-17112176D01*
X13652715Y-17112176D02*
X13671763Y-17121700D01*
X13671763Y-17121700D02*
X13681287Y-17131224D01*
X13681287Y-17131224D02*
X13690811Y-17150271D01*
X13690811Y-17150271D02*
X13700334Y-17188367D01*
X13700334Y-17188367D02*
X13700334Y-17235986D01*
X13700334Y-17235986D02*
X13690811Y-17274081D01*
X13690811Y-17274081D02*
X13681287Y-17293129D01*
X13681287Y-17293129D02*
X13671763Y-17302652D01*
X13671763Y-17302652D02*
X13652715Y-17312176D01*
X13652715Y-17312176D02*
X13633668Y-17312176D01*
X13633668Y-17312176D02*
X13614620Y-17302652D01*
X13614620Y-17302652D02*
X13605096Y-17293129D01*
X13605096Y-17293129D02*
X13595572Y-17274081D01*
X13595572Y-17274081D02*
X13586049Y-17235986D01*
X13586049Y-17235986D02*
X13586049Y-17188367D01*
X13586049Y-17188367D02*
X13595572Y-17150271D01*
X13595572Y-17150271D02*
X13605096Y-17131224D01*
X13605096Y-17131224D02*
X13614620Y-17121700D01*
X13614620Y-17121700D02*
X13633668Y-17112176D01*
X13906049Y-17312176D02*
X13906049Y-17112176D01*
X13991763Y-17312176D02*
X13991763Y-17207414D01*
X13991763Y-17207414D02*
X13982239Y-17188367D01*
X13982239Y-17188367D02*
X13963192Y-17178843D01*
X13963192Y-17178843D02*
X13934620Y-17178843D01*
X13934620Y-17178843D02*
X13915572Y-17188367D01*
X13915572Y-17188367D02*
X13906049Y-17197890D01*
X14115572Y-17312176D02*
X14096525Y-17302652D01*
X14096525Y-17302652D02*
X14087001Y-17293129D01*
X14087001Y-17293129D02*
X14077477Y-17274081D01*
X14077477Y-17274081D02*
X14077477Y-17216938D01*
X14077477Y-17216938D02*
X14087001Y-17197890D01*
X14087001Y-17197890D02*
X14096525Y-17188367D01*
X14096525Y-17188367D02*
X14115572Y-17178843D01*
X14115572Y-17178843D02*
X14144144Y-17178843D01*
X14144144Y-17178843D02*
X14163192Y-17188367D01*
X14163192Y-17188367D02*
X14172715Y-17197890D01*
X14172715Y-17197890D02*
X14182239Y-17216938D01*
X14182239Y-17216938D02*
X14182239Y-17274081D01*
X14182239Y-17274081D02*
X14172715Y-17293129D01*
X14172715Y-17293129D02*
X14163192Y-17302652D01*
X14163192Y-17302652D02*
X14144144Y-17312176D01*
X14144144Y-17312176D02*
X14115572Y-17312176D01*
X14296525Y-17312176D02*
X14277477Y-17302652D01*
X14277477Y-17302652D02*
X14267953Y-17283605D01*
X14267953Y-17283605D02*
X14267953Y-17112176D01*
X14448906Y-17302652D02*
X14429858Y-17312176D01*
X14429858Y-17312176D02*
X14391763Y-17312176D01*
X14391763Y-17312176D02*
X14372715Y-17302652D01*
X14372715Y-17302652D02*
X14363192Y-17283605D01*
X14363192Y-17283605D02*
X14363192Y-17207414D01*
X14363192Y-17207414D02*
X14372715Y-17188367D01*
X14372715Y-17188367D02*
X14391763Y-17178843D01*
X14391763Y-17178843D02*
X14429858Y-17178843D01*
X14429858Y-17178843D02*
X14448906Y-17188367D01*
X14448906Y-17188367D02*
X14458430Y-17207414D01*
X14458430Y-17207414D02*
X14458430Y-17226462D01*
X14458430Y-17226462D02*
X14363192Y-17245510D01*
X14534620Y-17302652D02*
X14553668Y-17312176D01*
X14553668Y-17312176D02*
X14591763Y-17312176D01*
X14591763Y-17312176D02*
X14610811Y-17302652D01*
X14610811Y-17302652D02*
X14620334Y-17283605D01*
X14620334Y-17283605D02*
X14620334Y-17274081D01*
X14620334Y-17274081D02*
X14610811Y-17255033D01*
X14610811Y-17255033D02*
X14591763Y-17245510D01*
X14591763Y-17245510D02*
X14563192Y-17245510D01*
X14563192Y-17245510D02*
X14544144Y-17235986D01*
X14544144Y-17235986D02*
X14534620Y-17216938D01*
X14534620Y-17216938D02*
X14534620Y-17207414D01*
X14534620Y-17207414D02*
X14544144Y-17188367D01*
X14544144Y-17188367D02*
X14563192Y-17178843D01*
X14563192Y-17178843D02*
X14591763Y-17178843D01*
X14591763Y-17178843D02*
X14610811Y-17188367D01*
X14826049Y-17235986D02*
X14978430Y-17235986D01*
X14902239Y-17312176D02*
X14902239Y-17159795D01*
X15184144Y-17131224D02*
X15193668Y-17121700D01*
X15193668Y-17121700D02*
X15212715Y-17112176D01*
X15212715Y-17112176D02*
X15260334Y-17112176D01*
X15260334Y-17112176D02*
X15279382Y-17121700D01*
X15279382Y-17121700D02*
X15288906Y-17131224D01*
X15288906Y-17131224D02*
X15298430Y-17150271D01*
X15298430Y-17150271D02*
X15298430Y-17169319D01*
X15298430Y-17169319D02*
X15288906Y-17197890D01*
X15288906Y-17197890D02*
X15174620Y-17312176D01*
X15174620Y-17312176D02*
X15298430Y-17312176D01*
X15494620Y-17302652D02*
X15513668Y-17312176D01*
X15513668Y-17312176D02*
X15551763Y-17312176D01*
X15551763Y-17312176D02*
X15570811Y-17302652D01*
X15570811Y-17302652D02*
X15580334Y-17283605D01*
X15580334Y-17283605D02*
X15580334Y-17274081D01*
X15580334Y-17274081D02*
X15570811Y-17255033D01*
X15570811Y-17255033D02*
X15551763Y-17245510D01*
X15551763Y-17245510D02*
X15523192Y-17245510D01*
X15523192Y-17245510D02*
X15504144Y-17235986D01*
X15504144Y-17235986D02*
X15494620Y-17216938D01*
X15494620Y-17216938D02*
X15494620Y-17207414D01*
X15494620Y-17207414D02*
X15504144Y-17188367D01*
X15504144Y-17188367D02*
X15523192Y-17178843D01*
X15523192Y-17178843D02*
X15551763Y-17178843D01*
X15551763Y-17178843D02*
X15570811Y-17188367D01*
X15694620Y-17312176D02*
X15675573Y-17302652D01*
X15675573Y-17302652D02*
X15666049Y-17283605D01*
X15666049Y-17283605D02*
X15666049Y-17112176D01*
X15799382Y-17312176D02*
X15780334Y-17302652D01*
X15780334Y-17302652D02*
X15770811Y-17293129D01*
X15770811Y-17293129D02*
X15761287Y-17274081D01*
X15761287Y-17274081D02*
X15761287Y-17216938D01*
X15761287Y-17216938D02*
X15770811Y-17197890D01*
X15770811Y-17197890D02*
X15780334Y-17188367D01*
X15780334Y-17188367D02*
X15799382Y-17178843D01*
X15799382Y-17178843D02*
X15827954Y-17178843D01*
X15827954Y-17178843D02*
X15847001Y-17188367D01*
X15847001Y-17188367D02*
X15856525Y-17197890D01*
X15856525Y-17197890D02*
X15866049Y-17216938D01*
X15866049Y-17216938D02*
X15866049Y-17274081D01*
X15866049Y-17274081D02*
X15856525Y-17293129D01*
X15856525Y-17293129D02*
X15847001Y-17302652D01*
X15847001Y-17302652D02*
X15827954Y-17312176D01*
X15827954Y-17312176D02*
X15799382Y-17312176D01*
X15923192Y-17178843D02*
X15999382Y-17178843D01*
X15951763Y-17112176D02*
X15951763Y-17283605D01*
X15951763Y-17283605D02*
X15961287Y-17302652D01*
X15961287Y-17302652D02*
X15980334Y-17312176D01*
X15980334Y-17312176D02*
X15999382Y-17312176D01*
X16056525Y-17302652D02*
X16075573Y-17312176D01*
X16075573Y-17312176D02*
X16113668Y-17312176D01*
X16113668Y-17312176D02*
X16132715Y-17302652D01*
X16132715Y-17302652D02*
X16142239Y-17283605D01*
X16142239Y-17283605D02*
X16142239Y-17274081D01*
X16142239Y-17274081D02*
X16132715Y-17255033D01*
X16132715Y-17255033D02*
X16113668Y-17245510D01*
X16113668Y-17245510D02*
X16085096Y-17245510D01*
X16085096Y-17245510D02*
X16066049Y-17235986D01*
X16066049Y-17235986D02*
X16056525Y-17216938D01*
X16056525Y-17216938D02*
X16056525Y-17207414D01*
X16056525Y-17207414D02*
X16066049Y-17188367D01*
X16066049Y-17188367D02*
X16085096Y-17178843D01*
X16085096Y-17178843D02*
X16113668Y-17178843D01*
X16113668Y-17178843D02*
X16132715Y-17188367D01*
X16208906Y-17388367D02*
X16218430Y-17378843D01*
X16218430Y-17378843D02*
X16237477Y-17350271D01*
X16237477Y-17350271D02*
X16247001Y-17331224D01*
X16247001Y-17331224D02*
X16256525Y-17302652D01*
X16256525Y-17302652D02*
X16266049Y-17255033D01*
X16266049Y-17255033D02*
X16266049Y-17216938D01*
X16266049Y-17216938D02*
X16256525Y-17169319D01*
X16256525Y-17169319D02*
X16247001Y-17140748D01*
X16247001Y-17140748D02*
X16237477Y-17121700D01*
X16237477Y-17121700D02*
X16218430Y-17093129D01*
X16218430Y-17093129D02*
X16208906Y-17083605D01*
D15*
X10045101Y-17525681D02*
X10045101Y-17479719D01*
X9999139Y-17479719D01*
X9999139Y-17525681D01*
X10045101Y-17525681D01*
D11*
X10340334Y-17376176D02*
X10359382Y-17376176D01*
X10359382Y-17376176D02*
X10378430Y-17385700D01*
X10378430Y-17385700D02*
X10387953Y-17395224D01*
X10387953Y-17395224D02*
X10397477Y-17414271D01*
X10397477Y-17414271D02*
X10407001Y-17452367D01*
X10407001Y-17452367D02*
X10407001Y-17499986D01*
X10407001Y-17499986D02*
X10397477Y-17538081D01*
X10397477Y-17538081D02*
X10387953Y-17557129D01*
X10387953Y-17557129D02*
X10378430Y-17566652D01*
X10378430Y-17566652D02*
X10359382Y-17576176D01*
X10359382Y-17576176D02*
X10340334Y-17576176D01*
X10340334Y-17576176D02*
X10321287Y-17566652D01*
X10321287Y-17566652D02*
X10311763Y-17557129D01*
X10311763Y-17557129D02*
X10302239Y-17538081D01*
X10302239Y-17538081D02*
X10292715Y-17499986D01*
X10292715Y-17499986D02*
X10292715Y-17452367D01*
X10292715Y-17452367D02*
X10302239Y-17414271D01*
X10302239Y-17414271D02*
X10311763Y-17395224D01*
X10311763Y-17395224D02*
X10321287Y-17385700D01*
X10321287Y-17385700D02*
X10340334Y-17376176D01*
X10492715Y-17557129D02*
X10502239Y-17566652D01*
X10502239Y-17566652D02*
X10492715Y-17576176D01*
X10492715Y-17576176D02*
X10483191Y-17566652D01*
X10483191Y-17566652D02*
X10492715Y-17557129D01*
X10492715Y-17557129D02*
X10492715Y-17576176D01*
X10673668Y-17376176D02*
X10635572Y-17376176D01*
X10635572Y-17376176D02*
X10616525Y-17385700D01*
X10616525Y-17385700D02*
X10607001Y-17395224D01*
X10607001Y-17395224D02*
X10587953Y-17423795D01*
X10587953Y-17423795D02*
X10578430Y-17461890D01*
X10578430Y-17461890D02*
X10578430Y-17538081D01*
X10578430Y-17538081D02*
X10587953Y-17557129D01*
X10587953Y-17557129D02*
X10597477Y-17566652D01*
X10597477Y-17566652D02*
X10616525Y-17576176D01*
X10616525Y-17576176D02*
X10654620Y-17576176D01*
X10654620Y-17576176D02*
X10673668Y-17566652D01*
X10673668Y-17566652D02*
X10683191Y-17557129D01*
X10683191Y-17557129D02*
X10692715Y-17538081D01*
X10692715Y-17538081D02*
X10692715Y-17490462D01*
X10692715Y-17490462D02*
X10683191Y-17471414D01*
X10683191Y-17471414D02*
X10673668Y-17461890D01*
X10673668Y-17461890D02*
X10654620Y-17452367D01*
X10654620Y-17452367D02*
X10616525Y-17452367D01*
X10616525Y-17452367D02*
X10597477Y-17461890D01*
X10597477Y-17461890D02*
X10587953Y-17471414D01*
X10587953Y-17471414D02*
X10578430Y-17490462D01*
X10873668Y-17376176D02*
X10778430Y-17376176D01*
X10778430Y-17376176D02*
X10768906Y-17471414D01*
X10768906Y-17471414D02*
X10778430Y-17461890D01*
X10778430Y-17461890D02*
X10797477Y-17452367D01*
X10797477Y-17452367D02*
X10845096Y-17452367D01*
X10845096Y-17452367D02*
X10864144Y-17461890D01*
X10864144Y-17461890D02*
X10873668Y-17471414D01*
X10873668Y-17471414D02*
X10883191Y-17490462D01*
X10883191Y-17490462D02*
X10883191Y-17538081D01*
X10883191Y-17538081D02*
X10873668Y-17557129D01*
X10873668Y-17557129D02*
X10864144Y-17566652D01*
X10864144Y-17566652D02*
X10845096Y-17576176D01*
X10845096Y-17576176D02*
X10797477Y-17576176D01*
X10797477Y-17576176D02*
X10778430Y-17566652D01*
X10778430Y-17566652D02*
X10768906Y-17557129D01*
X11007001Y-17376176D02*
X11026049Y-17376176D01*
X11026049Y-17376176D02*
X11045096Y-17385700D01*
X11045096Y-17385700D02*
X11054620Y-17395224D01*
X11054620Y-17395224D02*
X11064144Y-17414271D01*
X11064144Y-17414271D02*
X11073668Y-17452367D01*
X11073668Y-17452367D02*
X11073668Y-17499986D01*
X11073668Y-17499986D02*
X11064144Y-17538081D01*
X11064144Y-17538081D02*
X11054620Y-17557129D01*
X11054620Y-17557129D02*
X11045096Y-17566652D01*
X11045096Y-17566652D02*
X11026049Y-17576176D01*
X11026049Y-17576176D02*
X11007001Y-17576176D01*
X11007001Y-17576176D02*
X10987953Y-17566652D01*
X10987953Y-17566652D02*
X10978430Y-17557129D01*
X10978430Y-17557129D02*
X10968906Y-17538081D01*
X10968906Y-17538081D02*
X10959382Y-17499986D01*
X10959382Y-17499986D02*
X10959382Y-17452367D01*
X10959382Y-17452367D02*
X10968906Y-17414271D01*
X10968906Y-17414271D02*
X10978430Y-17395224D01*
X10978430Y-17395224D02*
X10987953Y-17385700D01*
X10987953Y-17385700D02*
X11007001Y-17376176D01*
X11159382Y-17576176D02*
X11159382Y-17442843D01*
X11159382Y-17461890D02*
X11168906Y-17452367D01*
X11168906Y-17452367D02*
X11187953Y-17442843D01*
X11187953Y-17442843D02*
X11216525Y-17442843D01*
X11216525Y-17442843D02*
X11235572Y-17452367D01*
X11235572Y-17452367D02*
X11245096Y-17471414D01*
X11245096Y-17471414D02*
X11245096Y-17576176D01*
X11245096Y-17471414D02*
X11254620Y-17452367D01*
X11254620Y-17452367D02*
X11273668Y-17442843D01*
X11273668Y-17442843D02*
X11302239Y-17442843D01*
X11302239Y-17442843D02*
X11321287Y-17452367D01*
X11321287Y-17452367D02*
X11330810Y-17471414D01*
X11330810Y-17471414D02*
X11330810Y-17576176D01*
X11426049Y-17576176D02*
X11426049Y-17442843D01*
X11426049Y-17461890D02*
X11435572Y-17452367D01*
X11435572Y-17452367D02*
X11454620Y-17442843D01*
X11454620Y-17442843D02*
X11483191Y-17442843D01*
X11483191Y-17442843D02*
X11502239Y-17452367D01*
X11502239Y-17452367D02*
X11511763Y-17471414D01*
X11511763Y-17471414D02*
X11511763Y-17576176D01*
X11511763Y-17471414D02*
X11521287Y-17452367D01*
X11521287Y-17452367D02*
X11540334Y-17442843D01*
X11540334Y-17442843D02*
X11568906Y-17442843D01*
X11568906Y-17442843D02*
X11587953Y-17452367D01*
X11587953Y-17452367D02*
X11597477Y-17471414D01*
X11597477Y-17471414D02*
X11597477Y-17576176D01*
X11955572Y-17366652D02*
X11784144Y-17623795D01*
X12180334Y-17376176D02*
X12199382Y-17376176D01*
X12199382Y-17376176D02*
X12218430Y-17385700D01*
X12218430Y-17385700D02*
X12227953Y-17395224D01*
X12227953Y-17395224D02*
X12237477Y-17414271D01*
X12237477Y-17414271D02*
X12247001Y-17452367D01*
X12247001Y-17452367D02*
X12247001Y-17499986D01*
X12247001Y-17499986D02*
X12237477Y-17538081D01*
X12237477Y-17538081D02*
X12227953Y-17557129D01*
X12227953Y-17557129D02*
X12218430Y-17566652D01*
X12218430Y-17566652D02*
X12199382Y-17576176D01*
X12199382Y-17576176D02*
X12180334Y-17576176D01*
X12180334Y-17576176D02*
X12161287Y-17566652D01*
X12161287Y-17566652D02*
X12151763Y-17557129D01*
X12151763Y-17557129D02*
X12142239Y-17538081D01*
X12142239Y-17538081D02*
X12132715Y-17499986D01*
X12132715Y-17499986D02*
X12132715Y-17452367D01*
X12132715Y-17452367D02*
X12142239Y-17414271D01*
X12142239Y-17414271D02*
X12151763Y-17395224D01*
X12151763Y-17395224D02*
X12161287Y-17385700D01*
X12161287Y-17385700D02*
X12180334Y-17376176D01*
X12332715Y-17557129D02*
X12342239Y-17566652D01*
X12342239Y-17566652D02*
X12332715Y-17576176D01*
X12332715Y-17576176D02*
X12323191Y-17566652D01*
X12323191Y-17566652D02*
X12332715Y-17557129D01*
X12332715Y-17557129D02*
X12332715Y-17576176D01*
X12466049Y-17376176D02*
X12485096Y-17376176D01*
X12485096Y-17376176D02*
X12504144Y-17385700D01*
X12504144Y-17385700D02*
X12513668Y-17395224D01*
X12513668Y-17395224D02*
X12523191Y-17414271D01*
X12523191Y-17414271D02*
X12532715Y-17452367D01*
X12532715Y-17452367D02*
X12532715Y-17499986D01*
X12532715Y-17499986D02*
X12523191Y-17538081D01*
X12523191Y-17538081D02*
X12513668Y-17557129D01*
X12513668Y-17557129D02*
X12504144Y-17566652D01*
X12504144Y-17566652D02*
X12485096Y-17576176D01*
X12485096Y-17576176D02*
X12466049Y-17576176D01*
X12466049Y-17576176D02*
X12447001Y-17566652D01*
X12447001Y-17566652D02*
X12437477Y-17557129D01*
X12437477Y-17557129D02*
X12427953Y-17538081D01*
X12427953Y-17538081D02*
X12418430Y-17499986D01*
X12418430Y-17499986D02*
X12418430Y-17452367D01*
X12418430Y-17452367D02*
X12427953Y-17414271D01*
X12427953Y-17414271D02*
X12437477Y-17395224D01*
X12437477Y-17395224D02*
X12447001Y-17385700D01*
X12447001Y-17385700D02*
X12466049Y-17376176D01*
X12608906Y-17395224D02*
X12618430Y-17385700D01*
X12618430Y-17385700D02*
X12637477Y-17376176D01*
X12637477Y-17376176D02*
X12685096Y-17376176D01*
X12685096Y-17376176D02*
X12704144Y-17385700D01*
X12704144Y-17385700D02*
X12713668Y-17395224D01*
X12713668Y-17395224D02*
X12723191Y-17414271D01*
X12723191Y-17414271D02*
X12723191Y-17433319D01*
X12723191Y-17433319D02*
X12713668Y-17461890D01*
X12713668Y-17461890D02*
X12599382Y-17576176D01*
X12599382Y-17576176D02*
X12723191Y-17576176D01*
X12904144Y-17376176D02*
X12808906Y-17376176D01*
X12808906Y-17376176D02*
X12799382Y-17471414D01*
X12799382Y-17471414D02*
X12808906Y-17461890D01*
X12808906Y-17461890D02*
X12827953Y-17452367D01*
X12827953Y-17452367D02*
X12875572Y-17452367D01*
X12875572Y-17452367D02*
X12894620Y-17461890D01*
X12894620Y-17461890D02*
X12904144Y-17471414D01*
X12904144Y-17471414D02*
X12913668Y-17490462D01*
X12913668Y-17490462D02*
X12913668Y-17538081D01*
X12913668Y-17538081D02*
X12904144Y-17557129D01*
X12904144Y-17557129D02*
X12894620Y-17566652D01*
X12894620Y-17566652D02*
X12875572Y-17576176D01*
X12875572Y-17576176D02*
X12827953Y-17576176D01*
X12827953Y-17576176D02*
X12808906Y-17566652D01*
X12808906Y-17566652D02*
X12799382Y-17557129D01*
X13085096Y-17376176D02*
X13047001Y-17376176D01*
X13047001Y-17376176D02*
X13027953Y-17385700D01*
X13027953Y-17385700D02*
X13018430Y-17395224D01*
X13018430Y-17395224D02*
X12999382Y-17423795D01*
X12999382Y-17423795D02*
X12989858Y-17461890D01*
X12989858Y-17461890D02*
X12989858Y-17538081D01*
X12989858Y-17538081D02*
X12999382Y-17557129D01*
X12999382Y-17557129D02*
X13008906Y-17566652D01*
X13008906Y-17566652D02*
X13027953Y-17576176D01*
X13027953Y-17576176D02*
X13066049Y-17576176D01*
X13066049Y-17576176D02*
X13085096Y-17566652D01*
X13085096Y-17566652D02*
X13094620Y-17557129D01*
X13094620Y-17557129D02*
X13104144Y-17538081D01*
X13104144Y-17538081D02*
X13104144Y-17490462D01*
X13104144Y-17490462D02*
X13094620Y-17471414D01*
X13094620Y-17471414D02*
X13085096Y-17461890D01*
X13085096Y-17461890D02*
X13066049Y-17452367D01*
X13066049Y-17452367D02*
X13027953Y-17452367D01*
X13027953Y-17452367D02*
X13008906Y-17461890D01*
X13008906Y-17461890D02*
X12999382Y-17471414D01*
X12999382Y-17471414D02*
X12989858Y-17490462D01*
X13180334Y-17376176D02*
X13180334Y-17414271D01*
X13256525Y-17376176D02*
X13256525Y-17414271D01*
X13519382Y-17652367D02*
X13509858Y-17642843D01*
X13509858Y-17642843D02*
X13490811Y-17614271D01*
X13490811Y-17614271D02*
X13481287Y-17595224D01*
X13481287Y-17595224D02*
X13471763Y-17566652D01*
X13471763Y-17566652D02*
X13462239Y-17519033D01*
X13462239Y-17519033D02*
X13462239Y-17480938D01*
X13462239Y-17480938D02*
X13471763Y-17433319D01*
X13471763Y-17433319D02*
X13481287Y-17404748D01*
X13481287Y-17404748D02*
X13490811Y-17385700D01*
X13490811Y-17385700D02*
X13509858Y-17357129D01*
X13509858Y-17357129D02*
X13519382Y-17347605D01*
X13700334Y-17576176D02*
X13586049Y-17576176D01*
X13643191Y-17576176D02*
X13643191Y-17376176D01*
X13643191Y-17376176D02*
X13624144Y-17404748D01*
X13624144Y-17404748D02*
X13605096Y-17423795D01*
X13605096Y-17423795D02*
X13586049Y-17433319D01*
X13795572Y-17576176D02*
X13833668Y-17576176D01*
X13833668Y-17576176D02*
X13852715Y-17566652D01*
X13852715Y-17566652D02*
X13862239Y-17557129D01*
X13862239Y-17557129D02*
X13881287Y-17528557D01*
X13881287Y-17528557D02*
X13890811Y-17490462D01*
X13890811Y-17490462D02*
X13890811Y-17414271D01*
X13890811Y-17414271D02*
X13881287Y-17395224D01*
X13881287Y-17395224D02*
X13871763Y-17385700D01*
X13871763Y-17385700D02*
X13852715Y-17376176D01*
X13852715Y-17376176D02*
X13814620Y-17376176D01*
X13814620Y-17376176D02*
X13795572Y-17385700D01*
X13795572Y-17385700D02*
X13786049Y-17395224D01*
X13786049Y-17395224D02*
X13776525Y-17414271D01*
X13776525Y-17414271D02*
X13776525Y-17461890D01*
X13776525Y-17461890D02*
X13786049Y-17480938D01*
X13786049Y-17480938D02*
X13795572Y-17490462D01*
X13795572Y-17490462D02*
X13814620Y-17499986D01*
X13814620Y-17499986D02*
X13852715Y-17499986D01*
X13852715Y-17499986D02*
X13871763Y-17490462D01*
X13871763Y-17490462D02*
X13881287Y-17480938D01*
X13881287Y-17480938D02*
X13890811Y-17461890D01*
X14096525Y-17576176D02*
X14096525Y-17376176D01*
X14182239Y-17576176D02*
X14182239Y-17471414D01*
X14182239Y-17471414D02*
X14172715Y-17452367D01*
X14172715Y-17452367D02*
X14153668Y-17442843D01*
X14153668Y-17442843D02*
X14125096Y-17442843D01*
X14125096Y-17442843D02*
X14106049Y-17452367D01*
X14106049Y-17452367D02*
X14096525Y-17461890D01*
X14306049Y-17576176D02*
X14287001Y-17566652D01*
X14287001Y-17566652D02*
X14277477Y-17557129D01*
X14277477Y-17557129D02*
X14267953Y-17538081D01*
X14267953Y-17538081D02*
X14267953Y-17480938D01*
X14267953Y-17480938D02*
X14277477Y-17461890D01*
X14277477Y-17461890D02*
X14287001Y-17452367D01*
X14287001Y-17452367D02*
X14306049Y-17442843D01*
X14306049Y-17442843D02*
X14334620Y-17442843D01*
X14334620Y-17442843D02*
X14353668Y-17452367D01*
X14353668Y-17452367D02*
X14363192Y-17461890D01*
X14363192Y-17461890D02*
X14372715Y-17480938D01*
X14372715Y-17480938D02*
X14372715Y-17538081D01*
X14372715Y-17538081D02*
X14363192Y-17557129D01*
X14363192Y-17557129D02*
X14353668Y-17566652D01*
X14353668Y-17566652D02*
X14334620Y-17576176D01*
X14334620Y-17576176D02*
X14306049Y-17576176D01*
X14487001Y-17576176D02*
X14467953Y-17566652D01*
X14467953Y-17566652D02*
X14458430Y-17547605D01*
X14458430Y-17547605D02*
X14458430Y-17376176D01*
X14639382Y-17566652D02*
X14620334Y-17576176D01*
X14620334Y-17576176D02*
X14582239Y-17576176D01*
X14582239Y-17576176D02*
X14563192Y-17566652D01*
X14563192Y-17566652D02*
X14553668Y-17547605D01*
X14553668Y-17547605D02*
X14553668Y-17471414D01*
X14553668Y-17471414D02*
X14563192Y-17452367D01*
X14563192Y-17452367D02*
X14582239Y-17442843D01*
X14582239Y-17442843D02*
X14620334Y-17442843D01*
X14620334Y-17442843D02*
X14639382Y-17452367D01*
X14639382Y-17452367D02*
X14648906Y-17471414D01*
X14648906Y-17471414D02*
X14648906Y-17490462D01*
X14648906Y-17490462D02*
X14553668Y-17509510D01*
X14725096Y-17566652D02*
X14744144Y-17576176D01*
X14744144Y-17576176D02*
X14782239Y-17576176D01*
X14782239Y-17576176D02*
X14801287Y-17566652D01*
X14801287Y-17566652D02*
X14810811Y-17547605D01*
X14810811Y-17547605D02*
X14810811Y-17538081D01*
X14810811Y-17538081D02*
X14801287Y-17519033D01*
X14801287Y-17519033D02*
X14782239Y-17509510D01*
X14782239Y-17509510D02*
X14753668Y-17509510D01*
X14753668Y-17509510D02*
X14734620Y-17499986D01*
X14734620Y-17499986D02*
X14725096Y-17480938D01*
X14725096Y-17480938D02*
X14725096Y-17471414D01*
X14725096Y-17471414D02*
X14734620Y-17452367D01*
X14734620Y-17452367D02*
X14753668Y-17442843D01*
X14753668Y-17442843D02*
X14782239Y-17442843D01*
X14782239Y-17442843D02*
X14801287Y-17452367D01*
X14877477Y-17652367D02*
X14887001Y-17642843D01*
X14887001Y-17642843D02*
X14906049Y-17614271D01*
X14906049Y-17614271D02*
X14915573Y-17595224D01*
X14915573Y-17595224D02*
X14925096Y-17566652D01*
X14925096Y-17566652D02*
X14934620Y-17519033D01*
X14934620Y-17519033D02*
X14934620Y-17480938D01*
X14934620Y-17480938D02*
X14925096Y-17433319D01*
X14925096Y-17433319D02*
X14915573Y-17404748D01*
X14915573Y-17404748D02*
X14906049Y-17385700D01*
X14906049Y-17385700D02*
X14887001Y-17357129D01*
X14887001Y-17357129D02*
X14877477Y-17347605D01*
D16*
X10014620Y-17806700D02*
X10054620Y-17766700D01*
X10014620Y-17726700D01*
X9974620Y-17766700D01*
X10014620Y-17806700D01*
D11*
X10340334Y-17640176D02*
X10359382Y-17640176D01*
X10359382Y-17640176D02*
X10378430Y-17649700D01*
X10378430Y-17649700D02*
X10387953Y-17659224D01*
X10387953Y-17659224D02*
X10397477Y-17678271D01*
X10397477Y-17678271D02*
X10407001Y-17716367D01*
X10407001Y-17716367D02*
X10407001Y-17763986D01*
X10407001Y-17763986D02*
X10397477Y-17802081D01*
X10397477Y-17802081D02*
X10387953Y-17821129D01*
X10387953Y-17821129D02*
X10378430Y-17830652D01*
X10378430Y-17830652D02*
X10359382Y-17840176D01*
X10359382Y-17840176D02*
X10340334Y-17840176D01*
X10340334Y-17840176D02*
X10321287Y-17830652D01*
X10321287Y-17830652D02*
X10311763Y-17821129D01*
X10311763Y-17821129D02*
X10302239Y-17802081D01*
X10302239Y-17802081D02*
X10292715Y-17763986D01*
X10292715Y-17763986D02*
X10292715Y-17716367D01*
X10292715Y-17716367D02*
X10302239Y-17678271D01*
X10302239Y-17678271D02*
X10311763Y-17659224D01*
X10311763Y-17659224D02*
X10321287Y-17649700D01*
X10321287Y-17649700D02*
X10340334Y-17640176D01*
X10492715Y-17821129D02*
X10502239Y-17830652D01*
X10502239Y-17830652D02*
X10492715Y-17840176D01*
X10492715Y-17840176D02*
X10483191Y-17830652D01*
X10483191Y-17830652D02*
X10492715Y-17821129D01*
X10492715Y-17821129D02*
X10492715Y-17840176D01*
X10616525Y-17725890D02*
X10597477Y-17716367D01*
X10597477Y-17716367D02*
X10587953Y-17706843D01*
X10587953Y-17706843D02*
X10578430Y-17687795D01*
X10578430Y-17687795D02*
X10578430Y-17678271D01*
X10578430Y-17678271D02*
X10587953Y-17659224D01*
X10587953Y-17659224D02*
X10597477Y-17649700D01*
X10597477Y-17649700D02*
X10616525Y-17640176D01*
X10616525Y-17640176D02*
X10654620Y-17640176D01*
X10654620Y-17640176D02*
X10673668Y-17649700D01*
X10673668Y-17649700D02*
X10683191Y-17659224D01*
X10683191Y-17659224D02*
X10692715Y-17678271D01*
X10692715Y-17678271D02*
X10692715Y-17687795D01*
X10692715Y-17687795D02*
X10683191Y-17706843D01*
X10683191Y-17706843D02*
X10673668Y-17716367D01*
X10673668Y-17716367D02*
X10654620Y-17725890D01*
X10654620Y-17725890D02*
X10616525Y-17725890D01*
X10616525Y-17725890D02*
X10597477Y-17735414D01*
X10597477Y-17735414D02*
X10587953Y-17744938D01*
X10587953Y-17744938D02*
X10578430Y-17763986D01*
X10578430Y-17763986D02*
X10578430Y-17802081D01*
X10578430Y-17802081D02*
X10587953Y-17821129D01*
X10587953Y-17821129D02*
X10597477Y-17830652D01*
X10597477Y-17830652D02*
X10616525Y-17840176D01*
X10616525Y-17840176D02*
X10654620Y-17840176D01*
X10654620Y-17840176D02*
X10673668Y-17830652D01*
X10673668Y-17830652D02*
X10683191Y-17821129D01*
X10683191Y-17821129D02*
X10692715Y-17802081D01*
X10692715Y-17802081D02*
X10692715Y-17763986D01*
X10692715Y-17763986D02*
X10683191Y-17744938D01*
X10683191Y-17744938D02*
X10673668Y-17735414D01*
X10673668Y-17735414D02*
X10654620Y-17725890D01*
X10816525Y-17640176D02*
X10835572Y-17640176D01*
X10835572Y-17640176D02*
X10854620Y-17649700D01*
X10854620Y-17649700D02*
X10864144Y-17659224D01*
X10864144Y-17659224D02*
X10873668Y-17678271D01*
X10873668Y-17678271D02*
X10883191Y-17716367D01*
X10883191Y-17716367D02*
X10883191Y-17763986D01*
X10883191Y-17763986D02*
X10873668Y-17802081D01*
X10873668Y-17802081D02*
X10864144Y-17821129D01*
X10864144Y-17821129D02*
X10854620Y-17830652D01*
X10854620Y-17830652D02*
X10835572Y-17840176D01*
X10835572Y-17840176D02*
X10816525Y-17840176D01*
X10816525Y-17840176D02*
X10797477Y-17830652D01*
X10797477Y-17830652D02*
X10787953Y-17821129D01*
X10787953Y-17821129D02*
X10778430Y-17802081D01*
X10778430Y-17802081D02*
X10768906Y-17763986D01*
X10768906Y-17763986D02*
X10768906Y-17716367D01*
X10768906Y-17716367D02*
X10778430Y-17678271D01*
X10778430Y-17678271D02*
X10787953Y-17659224D01*
X10787953Y-17659224D02*
X10797477Y-17649700D01*
X10797477Y-17649700D02*
X10816525Y-17640176D01*
X11007001Y-17640176D02*
X11026049Y-17640176D01*
X11026049Y-17640176D02*
X11045096Y-17649700D01*
X11045096Y-17649700D02*
X11054620Y-17659224D01*
X11054620Y-17659224D02*
X11064144Y-17678271D01*
X11064144Y-17678271D02*
X11073668Y-17716367D01*
X11073668Y-17716367D02*
X11073668Y-17763986D01*
X11073668Y-17763986D02*
X11064144Y-17802081D01*
X11064144Y-17802081D02*
X11054620Y-17821129D01*
X11054620Y-17821129D02*
X11045096Y-17830652D01*
X11045096Y-17830652D02*
X11026049Y-17840176D01*
X11026049Y-17840176D02*
X11007001Y-17840176D01*
X11007001Y-17840176D02*
X10987953Y-17830652D01*
X10987953Y-17830652D02*
X10978430Y-17821129D01*
X10978430Y-17821129D02*
X10968906Y-17802081D01*
X10968906Y-17802081D02*
X10959382Y-17763986D01*
X10959382Y-17763986D02*
X10959382Y-17716367D01*
X10959382Y-17716367D02*
X10968906Y-17678271D01*
X10968906Y-17678271D02*
X10978430Y-17659224D01*
X10978430Y-17659224D02*
X10987953Y-17649700D01*
X10987953Y-17649700D02*
X11007001Y-17640176D01*
X11159382Y-17840176D02*
X11159382Y-17706843D01*
X11159382Y-17725890D02*
X11168906Y-17716367D01*
X11168906Y-17716367D02*
X11187953Y-17706843D01*
X11187953Y-17706843D02*
X11216525Y-17706843D01*
X11216525Y-17706843D02*
X11235572Y-17716367D01*
X11235572Y-17716367D02*
X11245096Y-17735414D01*
X11245096Y-17735414D02*
X11245096Y-17840176D01*
X11245096Y-17735414D02*
X11254620Y-17716367D01*
X11254620Y-17716367D02*
X11273668Y-17706843D01*
X11273668Y-17706843D02*
X11302239Y-17706843D01*
X11302239Y-17706843D02*
X11321287Y-17716367D01*
X11321287Y-17716367D02*
X11330810Y-17735414D01*
X11330810Y-17735414D02*
X11330810Y-17840176D01*
X11426049Y-17840176D02*
X11426049Y-17706843D01*
X11426049Y-17725890D02*
X11435572Y-17716367D01*
X11435572Y-17716367D02*
X11454620Y-17706843D01*
X11454620Y-17706843D02*
X11483191Y-17706843D01*
X11483191Y-17706843D02*
X11502239Y-17716367D01*
X11502239Y-17716367D02*
X11511763Y-17735414D01*
X11511763Y-17735414D02*
X11511763Y-17840176D01*
X11511763Y-17735414D02*
X11521287Y-17716367D01*
X11521287Y-17716367D02*
X11540334Y-17706843D01*
X11540334Y-17706843D02*
X11568906Y-17706843D01*
X11568906Y-17706843D02*
X11587953Y-17716367D01*
X11587953Y-17716367D02*
X11597477Y-17735414D01*
X11597477Y-17735414D02*
X11597477Y-17840176D01*
X11955572Y-17630652D02*
X11784144Y-17887795D01*
X12180334Y-17640176D02*
X12199382Y-17640176D01*
X12199382Y-17640176D02*
X12218430Y-17649700D01*
X12218430Y-17649700D02*
X12227953Y-17659224D01*
X12227953Y-17659224D02*
X12237477Y-17678271D01*
X12237477Y-17678271D02*
X12247001Y-17716367D01*
X12247001Y-17716367D02*
X12247001Y-17763986D01*
X12247001Y-17763986D02*
X12237477Y-17802081D01*
X12237477Y-17802081D02*
X12227953Y-17821129D01*
X12227953Y-17821129D02*
X12218430Y-17830652D01*
X12218430Y-17830652D02*
X12199382Y-17840176D01*
X12199382Y-17840176D02*
X12180334Y-17840176D01*
X12180334Y-17840176D02*
X12161287Y-17830652D01*
X12161287Y-17830652D02*
X12151763Y-17821129D01*
X12151763Y-17821129D02*
X12142239Y-17802081D01*
X12142239Y-17802081D02*
X12132715Y-17763986D01*
X12132715Y-17763986D02*
X12132715Y-17716367D01*
X12132715Y-17716367D02*
X12142239Y-17678271D01*
X12142239Y-17678271D02*
X12151763Y-17659224D01*
X12151763Y-17659224D02*
X12161287Y-17649700D01*
X12161287Y-17649700D02*
X12180334Y-17640176D01*
X12332715Y-17821129D02*
X12342239Y-17830652D01*
X12342239Y-17830652D02*
X12332715Y-17840176D01*
X12332715Y-17840176D02*
X12323191Y-17830652D01*
X12323191Y-17830652D02*
X12332715Y-17821129D01*
X12332715Y-17821129D02*
X12332715Y-17840176D01*
X12466049Y-17640176D02*
X12485096Y-17640176D01*
X12485096Y-17640176D02*
X12504144Y-17649700D01*
X12504144Y-17649700D02*
X12513668Y-17659224D01*
X12513668Y-17659224D02*
X12523191Y-17678271D01*
X12523191Y-17678271D02*
X12532715Y-17716367D01*
X12532715Y-17716367D02*
X12532715Y-17763986D01*
X12532715Y-17763986D02*
X12523191Y-17802081D01*
X12523191Y-17802081D02*
X12513668Y-17821129D01*
X12513668Y-17821129D02*
X12504144Y-17830652D01*
X12504144Y-17830652D02*
X12485096Y-17840176D01*
X12485096Y-17840176D02*
X12466049Y-17840176D01*
X12466049Y-17840176D02*
X12447001Y-17830652D01*
X12447001Y-17830652D02*
X12437477Y-17821129D01*
X12437477Y-17821129D02*
X12427953Y-17802081D01*
X12427953Y-17802081D02*
X12418430Y-17763986D01*
X12418430Y-17763986D02*
X12418430Y-17716367D01*
X12418430Y-17716367D02*
X12427953Y-17678271D01*
X12427953Y-17678271D02*
X12437477Y-17659224D01*
X12437477Y-17659224D02*
X12447001Y-17649700D01*
X12447001Y-17649700D02*
X12466049Y-17640176D01*
X12599382Y-17640176D02*
X12723191Y-17640176D01*
X12723191Y-17640176D02*
X12656525Y-17716367D01*
X12656525Y-17716367D02*
X12685096Y-17716367D01*
X12685096Y-17716367D02*
X12704144Y-17725890D01*
X12704144Y-17725890D02*
X12713668Y-17735414D01*
X12713668Y-17735414D02*
X12723191Y-17754462D01*
X12723191Y-17754462D02*
X12723191Y-17802081D01*
X12723191Y-17802081D02*
X12713668Y-17821129D01*
X12713668Y-17821129D02*
X12704144Y-17830652D01*
X12704144Y-17830652D02*
X12685096Y-17840176D01*
X12685096Y-17840176D02*
X12627953Y-17840176D01*
X12627953Y-17840176D02*
X12608906Y-17830652D01*
X12608906Y-17830652D02*
X12599382Y-17821129D01*
X12913668Y-17840176D02*
X12799382Y-17840176D01*
X12856525Y-17840176D02*
X12856525Y-17640176D01*
X12856525Y-17640176D02*
X12837477Y-17668748D01*
X12837477Y-17668748D02*
X12818430Y-17687795D01*
X12818430Y-17687795D02*
X12799382Y-17697319D01*
X13094620Y-17640176D02*
X12999382Y-17640176D01*
X12999382Y-17640176D02*
X12989858Y-17735414D01*
X12989858Y-17735414D02*
X12999382Y-17725890D01*
X12999382Y-17725890D02*
X13018430Y-17716367D01*
X13018430Y-17716367D02*
X13066049Y-17716367D01*
X13066049Y-17716367D02*
X13085096Y-17725890D01*
X13085096Y-17725890D02*
X13094620Y-17735414D01*
X13094620Y-17735414D02*
X13104144Y-17754462D01*
X13104144Y-17754462D02*
X13104144Y-17802081D01*
X13104144Y-17802081D02*
X13094620Y-17821129D01*
X13094620Y-17821129D02*
X13085096Y-17830652D01*
X13085096Y-17830652D02*
X13066049Y-17840176D01*
X13066049Y-17840176D02*
X13018430Y-17840176D01*
X13018430Y-17840176D02*
X12999382Y-17830652D01*
X12999382Y-17830652D02*
X12989858Y-17821129D01*
X13180334Y-17640176D02*
X13180334Y-17678271D01*
X13256525Y-17640176D02*
X13256525Y-17678271D01*
X13519382Y-17916367D02*
X13509858Y-17906843D01*
X13509858Y-17906843D02*
X13490811Y-17878271D01*
X13490811Y-17878271D02*
X13481287Y-17859224D01*
X13481287Y-17859224D02*
X13471763Y-17830652D01*
X13471763Y-17830652D02*
X13462239Y-17783033D01*
X13462239Y-17783033D02*
X13462239Y-17744938D01*
X13462239Y-17744938D02*
X13471763Y-17697319D01*
X13471763Y-17697319D02*
X13481287Y-17668748D01*
X13481287Y-17668748D02*
X13490811Y-17649700D01*
X13490811Y-17649700D02*
X13509858Y-17621129D01*
X13509858Y-17621129D02*
X13519382Y-17611605D01*
X13576525Y-17640176D02*
X13700334Y-17640176D01*
X13700334Y-17640176D02*
X13633668Y-17716367D01*
X13633668Y-17716367D02*
X13662239Y-17716367D01*
X13662239Y-17716367D02*
X13681287Y-17725890D01*
X13681287Y-17725890D02*
X13690811Y-17735414D01*
X13690811Y-17735414D02*
X13700334Y-17754462D01*
X13700334Y-17754462D02*
X13700334Y-17802081D01*
X13700334Y-17802081D02*
X13690811Y-17821129D01*
X13690811Y-17821129D02*
X13681287Y-17830652D01*
X13681287Y-17830652D02*
X13662239Y-17840176D01*
X13662239Y-17840176D02*
X13605096Y-17840176D01*
X13605096Y-17840176D02*
X13586049Y-17830652D01*
X13586049Y-17830652D02*
X13576525Y-17821129D01*
X13906049Y-17840176D02*
X13906049Y-17640176D01*
X13991763Y-17840176D02*
X13991763Y-17735414D01*
X13991763Y-17735414D02*
X13982239Y-17716367D01*
X13982239Y-17716367D02*
X13963192Y-17706843D01*
X13963192Y-17706843D02*
X13934620Y-17706843D01*
X13934620Y-17706843D02*
X13915572Y-17716367D01*
X13915572Y-17716367D02*
X13906049Y-17725890D01*
X14115572Y-17840176D02*
X14096525Y-17830652D01*
X14096525Y-17830652D02*
X14087001Y-17821129D01*
X14087001Y-17821129D02*
X14077477Y-17802081D01*
X14077477Y-17802081D02*
X14077477Y-17744938D01*
X14077477Y-17744938D02*
X14087001Y-17725890D01*
X14087001Y-17725890D02*
X14096525Y-17716367D01*
X14096525Y-17716367D02*
X14115572Y-17706843D01*
X14115572Y-17706843D02*
X14144144Y-17706843D01*
X14144144Y-17706843D02*
X14163192Y-17716367D01*
X14163192Y-17716367D02*
X14172715Y-17725890D01*
X14172715Y-17725890D02*
X14182239Y-17744938D01*
X14182239Y-17744938D02*
X14182239Y-17802081D01*
X14182239Y-17802081D02*
X14172715Y-17821129D01*
X14172715Y-17821129D02*
X14163192Y-17830652D01*
X14163192Y-17830652D02*
X14144144Y-17840176D01*
X14144144Y-17840176D02*
X14115572Y-17840176D01*
X14296525Y-17840176D02*
X14277477Y-17830652D01*
X14277477Y-17830652D02*
X14267953Y-17811605D01*
X14267953Y-17811605D02*
X14267953Y-17640176D01*
X14448906Y-17830652D02*
X14429858Y-17840176D01*
X14429858Y-17840176D02*
X14391763Y-17840176D01*
X14391763Y-17840176D02*
X14372715Y-17830652D01*
X14372715Y-17830652D02*
X14363192Y-17811605D01*
X14363192Y-17811605D02*
X14363192Y-17735414D01*
X14363192Y-17735414D02*
X14372715Y-17716367D01*
X14372715Y-17716367D02*
X14391763Y-17706843D01*
X14391763Y-17706843D02*
X14429858Y-17706843D01*
X14429858Y-17706843D02*
X14448906Y-17716367D01*
X14448906Y-17716367D02*
X14458430Y-17735414D01*
X14458430Y-17735414D02*
X14458430Y-17754462D01*
X14458430Y-17754462D02*
X14363192Y-17773510D01*
X14534620Y-17830652D02*
X14553668Y-17840176D01*
X14553668Y-17840176D02*
X14591763Y-17840176D01*
X14591763Y-17840176D02*
X14610811Y-17830652D01*
X14610811Y-17830652D02*
X14620334Y-17811605D01*
X14620334Y-17811605D02*
X14620334Y-17802081D01*
X14620334Y-17802081D02*
X14610811Y-17783033D01*
X14610811Y-17783033D02*
X14591763Y-17773510D01*
X14591763Y-17773510D02*
X14563192Y-17773510D01*
X14563192Y-17773510D02*
X14544144Y-17763986D01*
X14544144Y-17763986D02*
X14534620Y-17744938D01*
X14534620Y-17744938D02*
X14534620Y-17735414D01*
X14534620Y-17735414D02*
X14544144Y-17716367D01*
X14544144Y-17716367D02*
X14563192Y-17706843D01*
X14563192Y-17706843D02*
X14591763Y-17706843D01*
X14591763Y-17706843D02*
X14610811Y-17716367D01*
X14687001Y-17916367D02*
X14696525Y-17906843D01*
X14696525Y-17906843D02*
X14715573Y-17878271D01*
X14715573Y-17878271D02*
X14725096Y-17859224D01*
X14725096Y-17859224D02*
X14734620Y-17830652D01*
X14734620Y-17830652D02*
X14744144Y-17783033D01*
X14744144Y-17783033D02*
X14744144Y-17744938D01*
X14744144Y-17744938D02*
X14734620Y-17697319D01*
X14734620Y-17697319D02*
X14725096Y-17668748D01*
X14725096Y-17668748D02*
X14715573Y-17649700D01*
X14715573Y-17649700D02*
X14696525Y-17621129D01*
X14696525Y-17621129D02*
X14687001Y-17611605D01*
D17*
X9958100Y-17982440D02*
X10054620Y-18078960D01*
X10054620Y-17982440D02*
X9958100Y-18078960D01*
X10054620Y-18030700D02*
G75*
G03*
X10054620Y-18030700I-48260J0D01*
G01*
D11*
X10340334Y-17904176D02*
X10359382Y-17904176D01*
X10359382Y-17904176D02*
X10378430Y-17913700D01*
X10378430Y-17913700D02*
X10387953Y-17923224D01*
X10387953Y-17923224D02*
X10397477Y-17942271D01*
X10397477Y-17942271D02*
X10407001Y-17980367D01*
X10407001Y-17980367D02*
X10407001Y-18027986D01*
X10407001Y-18027986D02*
X10397477Y-18066081D01*
X10397477Y-18066081D02*
X10387953Y-18085129D01*
X10387953Y-18085129D02*
X10378430Y-18094652D01*
X10378430Y-18094652D02*
X10359382Y-18104176D01*
X10359382Y-18104176D02*
X10340334Y-18104176D01*
X10340334Y-18104176D02*
X10321287Y-18094652D01*
X10321287Y-18094652D02*
X10311763Y-18085129D01*
X10311763Y-18085129D02*
X10302239Y-18066081D01*
X10302239Y-18066081D02*
X10292715Y-18027986D01*
X10292715Y-18027986D02*
X10292715Y-17980367D01*
X10292715Y-17980367D02*
X10302239Y-17942271D01*
X10302239Y-17942271D02*
X10311763Y-17923224D01*
X10311763Y-17923224D02*
X10321287Y-17913700D01*
X10321287Y-17913700D02*
X10340334Y-17904176D01*
X10492715Y-18085129D02*
X10502239Y-18094652D01*
X10502239Y-18094652D02*
X10492715Y-18104176D01*
X10492715Y-18104176D02*
X10483191Y-18094652D01*
X10483191Y-18094652D02*
X10492715Y-18085129D01*
X10492715Y-18085129D02*
X10492715Y-18104176D01*
X10597477Y-18104176D02*
X10635572Y-18104176D01*
X10635572Y-18104176D02*
X10654620Y-18094652D01*
X10654620Y-18094652D02*
X10664144Y-18085129D01*
X10664144Y-18085129D02*
X10683191Y-18056557D01*
X10683191Y-18056557D02*
X10692715Y-18018462D01*
X10692715Y-18018462D02*
X10692715Y-17942271D01*
X10692715Y-17942271D02*
X10683191Y-17923224D01*
X10683191Y-17923224D02*
X10673668Y-17913700D01*
X10673668Y-17913700D02*
X10654620Y-17904176D01*
X10654620Y-17904176D02*
X10616525Y-17904176D01*
X10616525Y-17904176D02*
X10597477Y-17913700D01*
X10597477Y-17913700D02*
X10587953Y-17923224D01*
X10587953Y-17923224D02*
X10578430Y-17942271D01*
X10578430Y-17942271D02*
X10578430Y-17989890D01*
X10578430Y-17989890D02*
X10587953Y-18008938D01*
X10587953Y-18008938D02*
X10597477Y-18018462D01*
X10597477Y-18018462D02*
X10616525Y-18027986D01*
X10616525Y-18027986D02*
X10654620Y-18027986D01*
X10654620Y-18027986D02*
X10673668Y-18018462D01*
X10673668Y-18018462D02*
X10683191Y-18008938D01*
X10683191Y-18008938D02*
X10692715Y-17989890D01*
X10864144Y-17904176D02*
X10826049Y-17904176D01*
X10826049Y-17904176D02*
X10807001Y-17913700D01*
X10807001Y-17913700D02*
X10797477Y-17923224D01*
X10797477Y-17923224D02*
X10778430Y-17951795D01*
X10778430Y-17951795D02*
X10768906Y-17989890D01*
X10768906Y-17989890D02*
X10768906Y-18066081D01*
X10768906Y-18066081D02*
X10778430Y-18085129D01*
X10778430Y-18085129D02*
X10787953Y-18094652D01*
X10787953Y-18094652D02*
X10807001Y-18104176D01*
X10807001Y-18104176D02*
X10845096Y-18104176D01*
X10845096Y-18104176D02*
X10864144Y-18094652D01*
X10864144Y-18094652D02*
X10873668Y-18085129D01*
X10873668Y-18085129D02*
X10883191Y-18066081D01*
X10883191Y-18066081D02*
X10883191Y-18018462D01*
X10883191Y-18018462D02*
X10873668Y-17999414D01*
X10873668Y-17999414D02*
X10864144Y-17989890D01*
X10864144Y-17989890D02*
X10845096Y-17980367D01*
X10845096Y-17980367D02*
X10807001Y-17980367D01*
X10807001Y-17980367D02*
X10787953Y-17989890D01*
X10787953Y-17989890D02*
X10778430Y-17999414D01*
X10778430Y-17999414D02*
X10768906Y-18018462D01*
X11064144Y-17904176D02*
X10968906Y-17904176D01*
X10968906Y-17904176D02*
X10959382Y-17999414D01*
X10959382Y-17999414D02*
X10968906Y-17989890D01*
X10968906Y-17989890D02*
X10987953Y-17980367D01*
X10987953Y-17980367D02*
X11035572Y-17980367D01*
X11035572Y-17980367D02*
X11054620Y-17989890D01*
X11054620Y-17989890D02*
X11064144Y-17999414D01*
X11064144Y-17999414D02*
X11073668Y-18018462D01*
X11073668Y-18018462D02*
X11073668Y-18066081D01*
X11073668Y-18066081D02*
X11064144Y-18085129D01*
X11064144Y-18085129D02*
X11054620Y-18094652D01*
X11054620Y-18094652D02*
X11035572Y-18104176D01*
X11035572Y-18104176D02*
X10987953Y-18104176D01*
X10987953Y-18104176D02*
X10968906Y-18094652D01*
X10968906Y-18094652D02*
X10959382Y-18085129D01*
X11159382Y-18104176D02*
X11159382Y-17970843D01*
X11159382Y-17989890D02*
X11168906Y-17980367D01*
X11168906Y-17980367D02*
X11187953Y-17970843D01*
X11187953Y-17970843D02*
X11216525Y-17970843D01*
X11216525Y-17970843D02*
X11235572Y-17980367D01*
X11235572Y-17980367D02*
X11245096Y-17999414D01*
X11245096Y-17999414D02*
X11245096Y-18104176D01*
X11245096Y-17999414D02*
X11254620Y-17980367D01*
X11254620Y-17980367D02*
X11273668Y-17970843D01*
X11273668Y-17970843D02*
X11302239Y-17970843D01*
X11302239Y-17970843D02*
X11321287Y-17980367D01*
X11321287Y-17980367D02*
X11330810Y-17999414D01*
X11330810Y-17999414D02*
X11330810Y-18104176D01*
X11426049Y-18104176D02*
X11426049Y-17970843D01*
X11426049Y-17989890D02*
X11435572Y-17980367D01*
X11435572Y-17980367D02*
X11454620Y-17970843D01*
X11454620Y-17970843D02*
X11483191Y-17970843D01*
X11483191Y-17970843D02*
X11502239Y-17980367D01*
X11502239Y-17980367D02*
X11511763Y-17999414D01*
X11511763Y-17999414D02*
X11511763Y-18104176D01*
X11511763Y-17999414D02*
X11521287Y-17980367D01*
X11521287Y-17980367D02*
X11540334Y-17970843D01*
X11540334Y-17970843D02*
X11568906Y-17970843D01*
X11568906Y-17970843D02*
X11587953Y-17980367D01*
X11587953Y-17980367D02*
X11597477Y-17999414D01*
X11597477Y-17999414D02*
X11597477Y-18104176D01*
X11955572Y-17894652D02*
X11784144Y-18151795D01*
X12180334Y-17904176D02*
X12199382Y-17904176D01*
X12199382Y-17904176D02*
X12218430Y-17913700D01*
X12218430Y-17913700D02*
X12227953Y-17923224D01*
X12227953Y-17923224D02*
X12237477Y-17942271D01*
X12237477Y-17942271D02*
X12247001Y-17980367D01*
X12247001Y-17980367D02*
X12247001Y-18027986D01*
X12247001Y-18027986D02*
X12237477Y-18066081D01*
X12237477Y-18066081D02*
X12227953Y-18085129D01*
X12227953Y-18085129D02*
X12218430Y-18094652D01*
X12218430Y-18094652D02*
X12199382Y-18104176D01*
X12199382Y-18104176D02*
X12180334Y-18104176D01*
X12180334Y-18104176D02*
X12161287Y-18094652D01*
X12161287Y-18094652D02*
X12151763Y-18085129D01*
X12151763Y-18085129D02*
X12142239Y-18066081D01*
X12142239Y-18066081D02*
X12132715Y-18027986D01*
X12132715Y-18027986D02*
X12132715Y-17980367D01*
X12132715Y-17980367D02*
X12142239Y-17942271D01*
X12142239Y-17942271D02*
X12151763Y-17923224D01*
X12151763Y-17923224D02*
X12161287Y-17913700D01*
X12161287Y-17913700D02*
X12180334Y-17904176D01*
X12332715Y-18085129D02*
X12342239Y-18094652D01*
X12342239Y-18094652D02*
X12332715Y-18104176D01*
X12332715Y-18104176D02*
X12323191Y-18094652D01*
X12323191Y-18094652D02*
X12332715Y-18085129D01*
X12332715Y-18085129D02*
X12332715Y-18104176D01*
X12466049Y-17904176D02*
X12485096Y-17904176D01*
X12485096Y-17904176D02*
X12504144Y-17913700D01*
X12504144Y-17913700D02*
X12513668Y-17923224D01*
X12513668Y-17923224D02*
X12523191Y-17942271D01*
X12523191Y-17942271D02*
X12532715Y-17980367D01*
X12532715Y-17980367D02*
X12532715Y-18027986D01*
X12532715Y-18027986D02*
X12523191Y-18066081D01*
X12523191Y-18066081D02*
X12513668Y-18085129D01*
X12513668Y-18085129D02*
X12504144Y-18094652D01*
X12504144Y-18094652D02*
X12485096Y-18104176D01*
X12485096Y-18104176D02*
X12466049Y-18104176D01*
X12466049Y-18104176D02*
X12447001Y-18094652D01*
X12447001Y-18094652D02*
X12437477Y-18085129D01*
X12437477Y-18085129D02*
X12427953Y-18066081D01*
X12427953Y-18066081D02*
X12418430Y-18027986D01*
X12418430Y-18027986D02*
X12418430Y-17980367D01*
X12418430Y-17980367D02*
X12427953Y-17942271D01*
X12427953Y-17942271D02*
X12437477Y-17923224D01*
X12437477Y-17923224D02*
X12447001Y-17913700D01*
X12447001Y-17913700D02*
X12466049Y-17904176D01*
X12599382Y-17904176D02*
X12723191Y-17904176D01*
X12723191Y-17904176D02*
X12656525Y-17980367D01*
X12656525Y-17980367D02*
X12685096Y-17980367D01*
X12685096Y-17980367D02*
X12704144Y-17989890D01*
X12704144Y-17989890D02*
X12713668Y-17999414D01*
X12713668Y-17999414D02*
X12723191Y-18018462D01*
X12723191Y-18018462D02*
X12723191Y-18066081D01*
X12723191Y-18066081D02*
X12713668Y-18085129D01*
X12713668Y-18085129D02*
X12704144Y-18094652D01*
X12704144Y-18094652D02*
X12685096Y-18104176D01*
X12685096Y-18104176D02*
X12627953Y-18104176D01*
X12627953Y-18104176D02*
X12608906Y-18094652D01*
X12608906Y-18094652D02*
X12599382Y-18085129D01*
X12837477Y-17989890D02*
X12818430Y-17980367D01*
X12818430Y-17980367D02*
X12808906Y-17970843D01*
X12808906Y-17970843D02*
X12799382Y-17951795D01*
X12799382Y-17951795D02*
X12799382Y-17942271D01*
X12799382Y-17942271D02*
X12808906Y-17923224D01*
X12808906Y-17923224D02*
X12818430Y-17913700D01*
X12818430Y-17913700D02*
X12837477Y-17904176D01*
X12837477Y-17904176D02*
X12875572Y-17904176D01*
X12875572Y-17904176D02*
X12894620Y-17913700D01*
X12894620Y-17913700D02*
X12904144Y-17923224D01*
X12904144Y-17923224D02*
X12913668Y-17942271D01*
X12913668Y-17942271D02*
X12913668Y-17951795D01*
X12913668Y-17951795D02*
X12904144Y-17970843D01*
X12904144Y-17970843D02*
X12894620Y-17980367D01*
X12894620Y-17980367D02*
X12875572Y-17989890D01*
X12875572Y-17989890D02*
X12837477Y-17989890D01*
X12837477Y-17989890D02*
X12818430Y-17999414D01*
X12818430Y-17999414D02*
X12808906Y-18008938D01*
X12808906Y-18008938D02*
X12799382Y-18027986D01*
X12799382Y-18027986D02*
X12799382Y-18066081D01*
X12799382Y-18066081D02*
X12808906Y-18085129D01*
X12808906Y-18085129D02*
X12818430Y-18094652D01*
X12818430Y-18094652D02*
X12837477Y-18104176D01*
X12837477Y-18104176D02*
X12875572Y-18104176D01*
X12875572Y-18104176D02*
X12894620Y-18094652D01*
X12894620Y-18094652D02*
X12904144Y-18085129D01*
X12904144Y-18085129D02*
X12913668Y-18066081D01*
X12913668Y-18066081D02*
X12913668Y-18027986D01*
X12913668Y-18027986D02*
X12904144Y-18008938D01*
X12904144Y-18008938D02*
X12894620Y-17999414D01*
X12894620Y-17999414D02*
X12875572Y-17989890D01*
X13037477Y-17904176D02*
X13056525Y-17904176D01*
X13056525Y-17904176D02*
X13075572Y-17913700D01*
X13075572Y-17913700D02*
X13085096Y-17923224D01*
X13085096Y-17923224D02*
X13094620Y-17942271D01*
X13094620Y-17942271D02*
X13104144Y-17980367D01*
X13104144Y-17980367D02*
X13104144Y-18027986D01*
X13104144Y-18027986D02*
X13094620Y-18066081D01*
X13094620Y-18066081D02*
X13085096Y-18085129D01*
X13085096Y-18085129D02*
X13075572Y-18094652D01*
X13075572Y-18094652D02*
X13056525Y-18104176D01*
X13056525Y-18104176D02*
X13037477Y-18104176D01*
X13037477Y-18104176D02*
X13018430Y-18094652D01*
X13018430Y-18094652D02*
X13008906Y-18085129D01*
X13008906Y-18085129D02*
X12999382Y-18066081D01*
X12999382Y-18066081D02*
X12989858Y-18027986D01*
X12989858Y-18027986D02*
X12989858Y-17980367D01*
X12989858Y-17980367D02*
X12999382Y-17942271D01*
X12999382Y-17942271D02*
X13008906Y-17923224D01*
X13008906Y-17923224D02*
X13018430Y-17913700D01*
X13018430Y-17913700D02*
X13037477Y-17904176D01*
X13180334Y-17904176D02*
X13180334Y-17942271D01*
X13256525Y-17904176D02*
X13256525Y-17942271D01*
X13519382Y-18180367D02*
X13509858Y-18170843D01*
X13509858Y-18170843D02*
X13490811Y-18142271D01*
X13490811Y-18142271D02*
X13481287Y-18123224D01*
X13481287Y-18123224D02*
X13471763Y-18094652D01*
X13471763Y-18094652D02*
X13462239Y-18047033D01*
X13462239Y-18047033D02*
X13462239Y-18008938D01*
X13462239Y-18008938D02*
X13471763Y-17961319D01*
X13471763Y-17961319D02*
X13481287Y-17932748D01*
X13481287Y-17932748D02*
X13490811Y-17913700D01*
X13490811Y-17913700D02*
X13509858Y-17885129D01*
X13509858Y-17885129D02*
X13519382Y-17875605D01*
X13576525Y-17904176D02*
X13700334Y-17904176D01*
X13700334Y-17904176D02*
X13633668Y-17980367D01*
X13633668Y-17980367D02*
X13662239Y-17980367D01*
X13662239Y-17980367D02*
X13681287Y-17989890D01*
X13681287Y-17989890D02*
X13690811Y-17999414D01*
X13690811Y-17999414D02*
X13700334Y-18018462D01*
X13700334Y-18018462D02*
X13700334Y-18066081D01*
X13700334Y-18066081D02*
X13690811Y-18085129D01*
X13690811Y-18085129D02*
X13681287Y-18094652D01*
X13681287Y-18094652D02*
X13662239Y-18104176D01*
X13662239Y-18104176D02*
X13605096Y-18104176D01*
X13605096Y-18104176D02*
X13586049Y-18094652D01*
X13586049Y-18094652D02*
X13576525Y-18085129D01*
X13906049Y-18104176D02*
X13906049Y-17904176D01*
X13991763Y-18104176D02*
X13991763Y-17999414D01*
X13991763Y-17999414D02*
X13982239Y-17980367D01*
X13982239Y-17980367D02*
X13963192Y-17970843D01*
X13963192Y-17970843D02*
X13934620Y-17970843D01*
X13934620Y-17970843D02*
X13915572Y-17980367D01*
X13915572Y-17980367D02*
X13906049Y-17989890D01*
X14115572Y-18104176D02*
X14096525Y-18094652D01*
X14096525Y-18094652D02*
X14087001Y-18085129D01*
X14087001Y-18085129D02*
X14077477Y-18066081D01*
X14077477Y-18066081D02*
X14077477Y-18008938D01*
X14077477Y-18008938D02*
X14087001Y-17989890D01*
X14087001Y-17989890D02*
X14096525Y-17980367D01*
X14096525Y-17980367D02*
X14115572Y-17970843D01*
X14115572Y-17970843D02*
X14144144Y-17970843D01*
X14144144Y-17970843D02*
X14163192Y-17980367D01*
X14163192Y-17980367D02*
X14172715Y-17989890D01*
X14172715Y-17989890D02*
X14182239Y-18008938D01*
X14182239Y-18008938D02*
X14182239Y-18066081D01*
X14182239Y-18066081D02*
X14172715Y-18085129D01*
X14172715Y-18085129D02*
X14163192Y-18094652D01*
X14163192Y-18094652D02*
X14144144Y-18104176D01*
X14144144Y-18104176D02*
X14115572Y-18104176D01*
X14296525Y-18104176D02*
X14277477Y-18094652D01*
X14277477Y-18094652D02*
X14267953Y-18075605D01*
X14267953Y-18075605D02*
X14267953Y-17904176D01*
X14448906Y-18094652D02*
X14429858Y-18104176D01*
X14429858Y-18104176D02*
X14391763Y-18104176D01*
X14391763Y-18104176D02*
X14372715Y-18094652D01*
X14372715Y-18094652D02*
X14363192Y-18075605D01*
X14363192Y-18075605D02*
X14363192Y-17999414D01*
X14363192Y-17999414D02*
X14372715Y-17980367D01*
X14372715Y-17980367D02*
X14391763Y-17970843D01*
X14391763Y-17970843D02*
X14429858Y-17970843D01*
X14429858Y-17970843D02*
X14448906Y-17980367D01*
X14448906Y-17980367D02*
X14458430Y-17999414D01*
X14458430Y-17999414D02*
X14458430Y-18018462D01*
X14458430Y-18018462D02*
X14363192Y-18037510D01*
X14534620Y-18094652D02*
X14553668Y-18104176D01*
X14553668Y-18104176D02*
X14591763Y-18104176D01*
X14591763Y-18104176D02*
X14610811Y-18094652D01*
X14610811Y-18094652D02*
X14620334Y-18075605D01*
X14620334Y-18075605D02*
X14620334Y-18066081D01*
X14620334Y-18066081D02*
X14610811Y-18047033D01*
X14610811Y-18047033D02*
X14591763Y-18037510D01*
X14591763Y-18037510D02*
X14563192Y-18037510D01*
X14563192Y-18037510D02*
X14544144Y-18027986D01*
X14544144Y-18027986D02*
X14534620Y-18008938D01*
X14534620Y-18008938D02*
X14534620Y-17999414D01*
X14534620Y-17999414D02*
X14544144Y-17980367D01*
X14544144Y-17980367D02*
X14563192Y-17970843D01*
X14563192Y-17970843D02*
X14591763Y-17970843D01*
X14591763Y-17970843D02*
X14610811Y-17980367D01*
X14687001Y-18180367D02*
X14696525Y-18170843D01*
X14696525Y-18170843D02*
X14715573Y-18142271D01*
X14715573Y-18142271D02*
X14725096Y-18123224D01*
X14725096Y-18123224D02*
X14734620Y-18094652D01*
X14734620Y-18094652D02*
X14744144Y-18047033D01*
X14744144Y-18047033D02*
X14744144Y-18008938D01*
X14744144Y-18008938D02*
X14734620Y-17961319D01*
X14734620Y-17961319D02*
X14725096Y-17932748D01*
X14725096Y-17932748D02*
X14715573Y-17913700D01*
X14715573Y-17913700D02*
X14696525Y-17885129D01*
X14696525Y-17885129D02*
X14687001Y-17875605D01*
D10*
X9954620Y-18244700D02*
X10054620Y-18344700D01*
X10054620Y-18244700D02*
X9954620Y-18344700D01*
X10004620Y-18244700D02*
X10004620Y-18344700D01*
X9954620Y-18294700D02*
X10054620Y-18294700D01*
D11*
X10407001Y-18368176D02*
X10292715Y-18368176D01*
X10349858Y-18368176D02*
X10349858Y-18168176D01*
X10349858Y-18168176D02*
X10330810Y-18196748D01*
X10330810Y-18196748D02*
X10311763Y-18215795D01*
X10311763Y-18215795D02*
X10292715Y-18225319D01*
X10492715Y-18349129D02*
X10502239Y-18358652D01*
X10502239Y-18358652D02*
X10492715Y-18368176D01*
X10492715Y-18368176D02*
X10483191Y-18358652D01*
X10483191Y-18358652D02*
X10492715Y-18349129D01*
X10492715Y-18349129D02*
X10492715Y-18368176D01*
X10626049Y-18168176D02*
X10645096Y-18168176D01*
X10645096Y-18168176D02*
X10664144Y-18177700D01*
X10664144Y-18177700D02*
X10673668Y-18187224D01*
X10673668Y-18187224D02*
X10683191Y-18206271D01*
X10683191Y-18206271D02*
X10692715Y-18244367D01*
X10692715Y-18244367D02*
X10692715Y-18291986D01*
X10692715Y-18291986D02*
X10683191Y-18330081D01*
X10683191Y-18330081D02*
X10673668Y-18349129D01*
X10673668Y-18349129D02*
X10664144Y-18358652D01*
X10664144Y-18358652D02*
X10645096Y-18368176D01*
X10645096Y-18368176D02*
X10626049Y-18368176D01*
X10626049Y-18368176D02*
X10607001Y-18358652D01*
X10607001Y-18358652D02*
X10597477Y-18349129D01*
X10597477Y-18349129D02*
X10587953Y-18330081D01*
X10587953Y-18330081D02*
X10578430Y-18291986D01*
X10578430Y-18291986D02*
X10578430Y-18244367D01*
X10578430Y-18244367D02*
X10587953Y-18206271D01*
X10587953Y-18206271D02*
X10597477Y-18187224D01*
X10597477Y-18187224D02*
X10607001Y-18177700D01*
X10607001Y-18177700D02*
X10626049Y-18168176D01*
X10816525Y-18168176D02*
X10835572Y-18168176D01*
X10835572Y-18168176D02*
X10854620Y-18177700D01*
X10854620Y-18177700D02*
X10864144Y-18187224D01*
X10864144Y-18187224D02*
X10873668Y-18206271D01*
X10873668Y-18206271D02*
X10883191Y-18244367D01*
X10883191Y-18244367D02*
X10883191Y-18291986D01*
X10883191Y-18291986D02*
X10873668Y-18330081D01*
X10873668Y-18330081D02*
X10864144Y-18349129D01*
X10864144Y-18349129D02*
X10854620Y-18358652D01*
X10854620Y-18358652D02*
X10835572Y-18368176D01*
X10835572Y-18368176D02*
X10816525Y-18368176D01*
X10816525Y-18368176D02*
X10797477Y-18358652D01*
X10797477Y-18358652D02*
X10787953Y-18349129D01*
X10787953Y-18349129D02*
X10778430Y-18330081D01*
X10778430Y-18330081D02*
X10768906Y-18291986D01*
X10768906Y-18291986D02*
X10768906Y-18244367D01*
X10768906Y-18244367D02*
X10778430Y-18206271D01*
X10778430Y-18206271D02*
X10787953Y-18187224D01*
X10787953Y-18187224D02*
X10797477Y-18177700D01*
X10797477Y-18177700D02*
X10816525Y-18168176D01*
X11007001Y-18168176D02*
X11026049Y-18168176D01*
X11026049Y-18168176D02*
X11045096Y-18177700D01*
X11045096Y-18177700D02*
X11054620Y-18187224D01*
X11054620Y-18187224D02*
X11064144Y-18206271D01*
X11064144Y-18206271D02*
X11073668Y-18244367D01*
X11073668Y-18244367D02*
X11073668Y-18291986D01*
X11073668Y-18291986D02*
X11064144Y-18330081D01*
X11064144Y-18330081D02*
X11054620Y-18349129D01*
X11054620Y-18349129D02*
X11045096Y-18358652D01*
X11045096Y-18358652D02*
X11026049Y-18368176D01*
X11026049Y-18368176D02*
X11007001Y-18368176D01*
X11007001Y-18368176D02*
X10987953Y-18358652D01*
X10987953Y-18358652D02*
X10978430Y-18349129D01*
X10978430Y-18349129D02*
X10968906Y-18330081D01*
X10968906Y-18330081D02*
X10959382Y-18291986D01*
X10959382Y-18291986D02*
X10959382Y-18244367D01*
X10959382Y-18244367D02*
X10968906Y-18206271D01*
X10968906Y-18206271D02*
X10978430Y-18187224D01*
X10978430Y-18187224D02*
X10987953Y-18177700D01*
X10987953Y-18177700D02*
X11007001Y-18168176D01*
X11159382Y-18368176D02*
X11159382Y-18234843D01*
X11159382Y-18253890D02*
X11168906Y-18244367D01*
X11168906Y-18244367D02*
X11187953Y-18234843D01*
X11187953Y-18234843D02*
X11216525Y-18234843D01*
X11216525Y-18234843D02*
X11235572Y-18244367D01*
X11235572Y-18244367D02*
X11245096Y-18263414D01*
X11245096Y-18263414D02*
X11245096Y-18368176D01*
X11245096Y-18263414D02*
X11254620Y-18244367D01*
X11254620Y-18244367D02*
X11273668Y-18234843D01*
X11273668Y-18234843D02*
X11302239Y-18234843D01*
X11302239Y-18234843D02*
X11321287Y-18244367D01*
X11321287Y-18244367D02*
X11330810Y-18263414D01*
X11330810Y-18263414D02*
X11330810Y-18368176D01*
X11426049Y-18368176D02*
X11426049Y-18234843D01*
X11426049Y-18253890D02*
X11435572Y-18244367D01*
X11435572Y-18244367D02*
X11454620Y-18234843D01*
X11454620Y-18234843D02*
X11483191Y-18234843D01*
X11483191Y-18234843D02*
X11502239Y-18244367D01*
X11502239Y-18244367D02*
X11511763Y-18263414D01*
X11511763Y-18263414D02*
X11511763Y-18368176D01*
X11511763Y-18263414D02*
X11521287Y-18244367D01*
X11521287Y-18244367D02*
X11540334Y-18234843D01*
X11540334Y-18234843D02*
X11568906Y-18234843D01*
X11568906Y-18234843D02*
X11587953Y-18244367D01*
X11587953Y-18244367D02*
X11597477Y-18263414D01*
X11597477Y-18263414D02*
X11597477Y-18368176D01*
X11955572Y-18158652D02*
X11784144Y-18415795D01*
X12180334Y-18168176D02*
X12199382Y-18168176D01*
X12199382Y-18168176D02*
X12218430Y-18177700D01*
X12218430Y-18177700D02*
X12227953Y-18187224D01*
X12227953Y-18187224D02*
X12237477Y-18206271D01*
X12237477Y-18206271D02*
X12247001Y-18244367D01*
X12247001Y-18244367D02*
X12247001Y-18291986D01*
X12247001Y-18291986D02*
X12237477Y-18330081D01*
X12237477Y-18330081D02*
X12227953Y-18349129D01*
X12227953Y-18349129D02*
X12218430Y-18358652D01*
X12218430Y-18358652D02*
X12199382Y-18368176D01*
X12199382Y-18368176D02*
X12180334Y-18368176D01*
X12180334Y-18368176D02*
X12161287Y-18358652D01*
X12161287Y-18358652D02*
X12151763Y-18349129D01*
X12151763Y-18349129D02*
X12142239Y-18330081D01*
X12142239Y-18330081D02*
X12132715Y-18291986D01*
X12132715Y-18291986D02*
X12132715Y-18244367D01*
X12132715Y-18244367D02*
X12142239Y-18206271D01*
X12142239Y-18206271D02*
X12151763Y-18187224D01*
X12151763Y-18187224D02*
X12161287Y-18177700D01*
X12161287Y-18177700D02*
X12180334Y-18168176D01*
X12332715Y-18349129D02*
X12342239Y-18358652D01*
X12342239Y-18358652D02*
X12332715Y-18368176D01*
X12332715Y-18368176D02*
X12323191Y-18358652D01*
X12323191Y-18358652D02*
X12332715Y-18349129D01*
X12332715Y-18349129D02*
X12332715Y-18368176D01*
X12466049Y-18168176D02*
X12485096Y-18168176D01*
X12485096Y-18168176D02*
X12504144Y-18177700D01*
X12504144Y-18177700D02*
X12513668Y-18187224D01*
X12513668Y-18187224D02*
X12523191Y-18206271D01*
X12523191Y-18206271D02*
X12532715Y-18244367D01*
X12532715Y-18244367D02*
X12532715Y-18291986D01*
X12532715Y-18291986D02*
X12523191Y-18330081D01*
X12523191Y-18330081D02*
X12513668Y-18349129D01*
X12513668Y-18349129D02*
X12504144Y-18358652D01*
X12504144Y-18358652D02*
X12485096Y-18368176D01*
X12485096Y-18368176D02*
X12466049Y-18368176D01*
X12466049Y-18368176D02*
X12447001Y-18358652D01*
X12447001Y-18358652D02*
X12437477Y-18349129D01*
X12437477Y-18349129D02*
X12427953Y-18330081D01*
X12427953Y-18330081D02*
X12418430Y-18291986D01*
X12418430Y-18291986D02*
X12418430Y-18244367D01*
X12418430Y-18244367D02*
X12427953Y-18206271D01*
X12427953Y-18206271D02*
X12437477Y-18187224D01*
X12437477Y-18187224D02*
X12447001Y-18177700D01*
X12447001Y-18177700D02*
X12466049Y-18168176D01*
X12599382Y-18168176D02*
X12723191Y-18168176D01*
X12723191Y-18168176D02*
X12656525Y-18244367D01*
X12656525Y-18244367D02*
X12685096Y-18244367D01*
X12685096Y-18244367D02*
X12704144Y-18253890D01*
X12704144Y-18253890D02*
X12713668Y-18263414D01*
X12713668Y-18263414D02*
X12723191Y-18282462D01*
X12723191Y-18282462D02*
X12723191Y-18330081D01*
X12723191Y-18330081D02*
X12713668Y-18349129D01*
X12713668Y-18349129D02*
X12704144Y-18358652D01*
X12704144Y-18358652D02*
X12685096Y-18368176D01*
X12685096Y-18368176D02*
X12627953Y-18368176D01*
X12627953Y-18368176D02*
X12608906Y-18358652D01*
X12608906Y-18358652D02*
X12599382Y-18349129D01*
X12818430Y-18368176D02*
X12856525Y-18368176D01*
X12856525Y-18368176D02*
X12875572Y-18358652D01*
X12875572Y-18358652D02*
X12885096Y-18349129D01*
X12885096Y-18349129D02*
X12904144Y-18320557D01*
X12904144Y-18320557D02*
X12913668Y-18282462D01*
X12913668Y-18282462D02*
X12913668Y-18206271D01*
X12913668Y-18206271D02*
X12904144Y-18187224D01*
X12904144Y-18187224D02*
X12894620Y-18177700D01*
X12894620Y-18177700D02*
X12875572Y-18168176D01*
X12875572Y-18168176D02*
X12837477Y-18168176D01*
X12837477Y-18168176D02*
X12818430Y-18177700D01*
X12818430Y-18177700D02*
X12808906Y-18187224D01*
X12808906Y-18187224D02*
X12799382Y-18206271D01*
X12799382Y-18206271D02*
X12799382Y-18253890D01*
X12799382Y-18253890D02*
X12808906Y-18272938D01*
X12808906Y-18272938D02*
X12818430Y-18282462D01*
X12818430Y-18282462D02*
X12837477Y-18291986D01*
X12837477Y-18291986D02*
X12875572Y-18291986D01*
X12875572Y-18291986D02*
X12894620Y-18282462D01*
X12894620Y-18282462D02*
X12904144Y-18272938D01*
X12904144Y-18272938D02*
X12913668Y-18253890D01*
X13085096Y-18234843D02*
X13085096Y-18368176D01*
X13037477Y-18158652D02*
X12989858Y-18301510D01*
X12989858Y-18301510D02*
X13113668Y-18301510D01*
X13180334Y-18168176D02*
X13180334Y-18206271D01*
X13256525Y-18168176D02*
X13256525Y-18206271D01*
X13519382Y-18444367D02*
X13509858Y-18434843D01*
X13509858Y-18434843D02*
X13490811Y-18406271D01*
X13490811Y-18406271D02*
X13481287Y-18387224D01*
X13481287Y-18387224D02*
X13471763Y-18358652D01*
X13471763Y-18358652D02*
X13462239Y-18311033D01*
X13462239Y-18311033D02*
X13462239Y-18272938D01*
X13462239Y-18272938D02*
X13471763Y-18225319D01*
X13471763Y-18225319D02*
X13481287Y-18196748D01*
X13481287Y-18196748D02*
X13490811Y-18177700D01*
X13490811Y-18177700D02*
X13509858Y-18149129D01*
X13509858Y-18149129D02*
X13519382Y-18139605D01*
X13586049Y-18187224D02*
X13595572Y-18177700D01*
X13595572Y-18177700D02*
X13614620Y-18168176D01*
X13614620Y-18168176D02*
X13662239Y-18168176D01*
X13662239Y-18168176D02*
X13681287Y-18177700D01*
X13681287Y-18177700D02*
X13690811Y-18187224D01*
X13690811Y-18187224D02*
X13700334Y-18206271D01*
X13700334Y-18206271D02*
X13700334Y-18225319D01*
X13700334Y-18225319D02*
X13690811Y-18253890D01*
X13690811Y-18253890D02*
X13576525Y-18368176D01*
X13576525Y-18368176D02*
X13700334Y-18368176D01*
X13881287Y-18168176D02*
X13786049Y-18168176D01*
X13786049Y-18168176D02*
X13776525Y-18263414D01*
X13776525Y-18263414D02*
X13786049Y-18253890D01*
X13786049Y-18253890D02*
X13805096Y-18244367D01*
X13805096Y-18244367D02*
X13852715Y-18244367D01*
X13852715Y-18244367D02*
X13871763Y-18253890D01*
X13871763Y-18253890D02*
X13881287Y-18263414D01*
X13881287Y-18263414D02*
X13890811Y-18282462D01*
X13890811Y-18282462D02*
X13890811Y-18330081D01*
X13890811Y-18330081D02*
X13881287Y-18349129D01*
X13881287Y-18349129D02*
X13871763Y-18358652D01*
X13871763Y-18358652D02*
X13852715Y-18368176D01*
X13852715Y-18368176D02*
X13805096Y-18368176D01*
X13805096Y-18368176D02*
X13786049Y-18358652D01*
X13786049Y-18358652D02*
X13776525Y-18349129D01*
X14096525Y-18368176D02*
X14096525Y-18168176D01*
X14182239Y-18368176D02*
X14182239Y-18263414D01*
X14182239Y-18263414D02*
X14172715Y-18244367D01*
X14172715Y-18244367D02*
X14153668Y-18234843D01*
X14153668Y-18234843D02*
X14125096Y-18234843D01*
X14125096Y-18234843D02*
X14106049Y-18244367D01*
X14106049Y-18244367D02*
X14096525Y-18253890D01*
X14306049Y-18368176D02*
X14287001Y-18358652D01*
X14287001Y-18358652D02*
X14277477Y-18349129D01*
X14277477Y-18349129D02*
X14267953Y-18330081D01*
X14267953Y-18330081D02*
X14267953Y-18272938D01*
X14267953Y-18272938D02*
X14277477Y-18253890D01*
X14277477Y-18253890D02*
X14287001Y-18244367D01*
X14287001Y-18244367D02*
X14306049Y-18234843D01*
X14306049Y-18234843D02*
X14334620Y-18234843D01*
X14334620Y-18234843D02*
X14353668Y-18244367D01*
X14353668Y-18244367D02*
X14363192Y-18253890D01*
X14363192Y-18253890D02*
X14372715Y-18272938D01*
X14372715Y-18272938D02*
X14372715Y-18330081D01*
X14372715Y-18330081D02*
X14363192Y-18349129D01*
X14363192Y-18349129D02*
X14353668Y-18358652D01*
X14353668Y-18358652D02*
X14334620Y-18368176D01*
X14334620Y-18368176D02*
X14306049Y-18368176D01*
X14487001Y-18368176D02*
X14467953Y-18358652D01*
X14467953Y-18358652D02*
X14458430Y-18339605D01*
X14458430Y-18339605D02*
X14458430Y-18168176D01*
X14639382Y-18358652D02*
X14620334Y-18368176D01*
X14620334Y-18368176D02*
X14582239Y-18368176D01*
X14582239Y-18368176D02*
X14563192Y-18358652D01*
X14563192Y-18358652D02*
X14553668Y-18339605D01*
X14553668Y-18339605D02*
X14553668Y-18263414D01*
X14553668Y-18263414D02*
X14563192Y-18244367D01*
X14563192Y-18244367D02*
X14582239Y-18234843D01*
X14582239Y-18234843D02*
X14620334Y-18234843D01*
X14620334Y-18234843D02*
X14639382Y-18244367D01*
X14639382Y-18244367D02*
X14648906Y-18263414D01*
X14648906Y-18263414D02*
X14648906Y-18282462D01*
X14648906Y-18282462D02*
X14553668Y-18301510D01*
X14725096Y-18358652D02*
X14744144Y-18368176D01*
X14744144Y-18368176D02*
X14782239Y-18368176D01*
X14782239Y-18368176D02*
X14801287Y-18358652D01*
X14801287Y-18358652D02*
X14810811Y-18339605D01*
X14810811Y-18339605D02*
X14810811Y-18330081D01*
X14810811Y-18330081D02*
X14801287Y-18311033D01*
X14801287Y-18311033D02*
X14782239Y-18301510D01*
X14782239Y-18301510D02*
X14753668Y-18301510D01*
X14753668Y-18301510D02*
X14734620Y-18291986D01*
X14734620Y-18291986D02*
X14725096Y-18272938D01*
X14725096Y-18272938D02*
X14725096Y-18263414D01*
X14725096Y-18263414D02*
X14734620Y-18244367D01*
X14734620Y-18244367D02*
X14753668Y-18234843D01*
X14753668Y-18234843D02*
X14782239Y-18234843D01*
X14782239Y-18234843D02*
X14801287Y-18244367D01*
X14877477Y-18444367D02*
X14887001Y-18434843D01*
X14887001Y-18434843D02*
X14906049Y-18406271D01*
X14906049Y-18406271D02*
X14915573Y-18387224D01*
X14915573Y-18387224D02*
X14925096Y-18358652D01*
X14925096Y-18358652D02*
X14934620Y-18311033D01*
X14934620Y-18311033D02*
X14934620Y-18272938D01*
X14934620Y-18272938D02*
X14925096Y-18225319D01*
X14925096Y-18225319D02*
X14915573Y-18196748D01*
X14915573Y-18196748D02*
X14906049Y-18177700D01*
X14906049Y-18177700D02*
X14887001Y-18149129D01*
X14887001Y-18149129D02*
X14877477Y-18139605D01*
D18*
X9947940Y-18505360D02*
X10054620Y-18612040D01*
X10054620Y-18505360D02*
X9947940Y-18612040D01*
X10038997Y-18596417D02*
X10038997Y-18520983D01*
X9963563Y-18520983D01*
X9963563Y-18596417D01*
X10038997Y-18596417D01*
D11*
X10407001Y-18632176D02*
X10292715Y-18632176D01*
X10349858Y-18632176D02*
X10349858Y-18432176D01*
X10349858Y-18432176D02*
X10330810Y-18460748D01*
X10330810Y-18460748D02*
X10311763Y-18479795D01*
X10311763Y-18479795D02*
X10292715Y-18489319D01*
X10492715Y-18613129D02*
X10502239Y-18622652D01*
X10502239Y-18622652D02*
X10492715Y-18632176D01*
X10492715Y-18632176D02*
X10483191Y-18622652D01*
X10483191Y-18622652D02*
X10492715Y-18613129D01*
X10492715Y-18613129D02*
X10492715Y-18632176D01*
X10626049Y-18432176D02*
X10645096Y-18432176D01*
X10645096Y-18432176D02*
X10664144Y-18441700D01*
X10664144Y-18441700D02*
X10673668Y-18451224D01*
X10673668Y-18451224D02*
X10683191Y-18470271D01*
X10683191Y-18470271D02*
X10692715Y-18508367D01*
X10692715Y-18508367D02*
X10692715Y-18555986D01*
X10692715Y-18555986D02*
X10683191Y-18594081D01*
X10683191Y-18594081D02*
X10673668Y-18613129D01*
X10673668Y-18613129D02*
X10664144Y-18622652D01*
X10664144Y-18622652D02*
X10645096Y-18632176D01*
X10645096Y-18632176D02*
X10626049Y-18632176D01*
X10626049Y-18632176D02*
X10607001Y-18622652D01*
X10607001Y-18622652D02*
X10597477Y-18613129D01*
X10597477Y-18613129D02*
X10587953Y-18594081D01*
X10587953Y-18594081D02*
X10578430Y-18555986D01*
X10578430Y-18555986D02*
X10578430Y-18508367D01*
X10578430Y-18508367D02*
X10587953Y-18470271D01*
X10587953Y-18470271D02*
X10597477Y-18451224D01*
X10597477Y-18451224D02*
X10607001Y-18441700D01*
X10607001Y-18441700D02*
X10626049Y-18432176D01*
X10864144Y-18432176D02*
X10826049Y-18432176D01*
X10826049Y-18432176D02*
X10807001Y-18441700D01*
X10807001Y-18441700D02*
X10797477Y-18451224D01*
X10797477Y-18451224D02*
X10778430Y-18479795D01*
X10778430Y-18479795D02*
X10768906Y-18517890D01*
X10768906Y-18517890D02*
X10768906Y-18594081D01*
X10768906Y-18594081D02*
X10778430Y-18613129D01*
X10778430Y-18613129D02*
X10787953Y-18622652D01*
X10787953Y-18622652D02*
X10807001Y-18632176D01*
X10807001Y-18632176D02*
X10845096Y-18632176D01*
X10845096Y-18632176D02*
X10864144Y-18622652D01*
X10864144Y-18622652D02*
X10873668Y-18613129D01*
X10873668Y-18613129D02*
X10883191Y-18594081D01*
X10883191Y-18594081D02*
X10883191Y-18546462D01*
X10883191Y-18546462D02*
X10873668Y-18527414D01*
X10873668Y-18527414D02*
X10864144Y-18517890D01*
X10864144Y-18517890D02*
X10845096Y-18508367D01*
X10845096Y-18508367D02*
X10807001Y-18508367D01*
X10807001Y-18508367D02*
X10787953Y-18517890D01*
X10787953Y-18517890D02*
X10778430Y-18527414D01*
X10778430Y-18527414D02*
X10768906Y-18546462D01*
X10949858Y-18432176D02*
X11083191Y-18432176D01*
X11083191Y-18432176D02*
X10997477Y-18632176D01*
X11159382Y-18632176D02*
X11159382Y-18498843D01*
X11159382Y-18517890D02*
X11168906Y-18508367D01*
X11168906Y-18508367D02*
X11187953Y-18498843D01*
X11187953Y-18498843D02*
X11216525Y-18498843D01*
X11216525Y-18498843D02*
X11235572Y-18508367D01*
X11235572Y-18508367D02*
X11245096Y-18527414D01*
X11245096Y-18527414D02*
X11245096Y-18632176D01*
X11245096Y-18527414D02*
X11254620Y-18508367D01*
X11254620Y-18508367D02*
X11273668Y-18498843D01*
X11273668Y-18498843D02*
X11302239Y-18498843D01*
X11302239Y-18498843D02*
X11321287Y-18508367D01*
X11321287Y-18508367D02*
X11330810Y-18527414D01*
X11330810Y-18527414D02*
X11330810Y-18632176D01*
X11426049Y-18632176D02*
X11426049Y-18498843D01*
X11426049Y-18517890D02*
X11435572Y-18508367D01*
X11435572Y-18508367D02*
X11454620Y-18498843D01*
X11454620Y-18498843D02*
X11483191Y-18498843D01*
X11483191Y-18498843D02*
X11502239Y-18508367D01*
X11502239Y-18508367D02*
X11511763Y-18527414D01*
X11511763Y-18527414D02*
X11511763Y-18632176D01*
X11511763Y-18527414D02*
X11521287Y-18508367D01*
X11521287Y-18508367D02*
X11540334Y-18498843D01*
X11540334Y-18498843D02*
X11568906Y-18498843D01*
X11568906Y-18498843D02*
X11587953Y-18508367D01*
X11587953Y-18508367D02*
X11597477Y-18527414D01*
X11597477Y-18527414D02*
X11597477Y-18632176D01*
X11955572Y-18422652D02*
X11784144Y-18679795D01*
X12180334Y-18432176D02*
X12199382Y-18432176D01*
X12199382Y-18432176D02*
X12218430Y-18441700D01*
X12218430Y-18441700D02*
X12227953Y-18451224D01*
X12227953Y-18451224D02*
X12237477Y-18470271D01*
X12237477Y-18470271D02*
X12247001Y-18508367D01*
X12247001Y-18508367D02*
X12247001Y-18555986D01*
X12247001Y-18555986D02*
X12237477Y-18594081D01*
X12237477Y-18594081D02*
X12227953Y-18613129D01*
X12227953Y-18613129D02*
X12218430Y-18622652D01*
X12218430Y-18622652D02*
X12199382Y-18632176D01*
X12199382Y-18632176D02*
X12180334Y-18632176D01*
X12180334Y-18632176D02*
X12161287Y-18622652D01*
X12161287Y-18622652D02*
X12151763Y-18613129D01*
X12151763Y-18613129D02*
X12142239Y-18594081D01*
X12142239Y-18594081D02*
X12132715Y-18555986D01*
X12132715Y-18555986D02*
X12132715Y-18508367D01*
X12132715Y-18508367D02*
X12142239Y-18470271D01*
X12142239Y-18470271D02*
X12151763Y-18451224D01*
X12151763Y-18451224D02*
X12161287Y-18441700D01*
X12161287Y-18441700D02*
X12180334Y-18432176D01*
X12332715Y-18613129D02*
X12342239Y-18622652D01*
X12342239Y-18622652D02*
X12332715Y-18632176D01*
X12332715Y-18632176D02*
X12323191Y-18622652D01*
X12323191Y-18622652D02*
X12332715Y-18613129D01*
X12332715Y-18613129D02*
X12332715Y-18632176D01*
X12466049Y-18432176D02*
X12485096Y-18432176D01*
X12485096Y-18432176D02*
X12504144Y-18441700D01*
X12504144Y-18441700D02*
X12513668Y-18451224D01*
X12513668Y-18451224D02*
X12523191Y-18470271D01*
X12523191Y-18470271D02*
X12532715Y-18508367D01*
X12532715Y-18508367D02*
X12532715Y-18555986D01*
X12532715Y-18555986D02*
X12523191Y-18594081D01*
X12523191Y-18594081D02*
X12513668Y-18613129D01*
X12513668Y-18613129D02*
X12504144Y-18622652D01*
X12504144Y-18622652D02*
X12485096Y-18632176D01*
X12485096Y-18632176D02*
X12466049Y-18632176D01*
X12466049Y-18632176D02*
X12447001Y-18622652D01*
X12447001Y-18622652D02*
X12437477Y-18613129D01*
X12437477Y-18613129D02*
X12427953Y-18594081D01*
X12427953Y-18594081D02*
X12418430Y-18555986D01*
X12418430Y-18555986D02*
X12418430Y-18508367D01*
X12418430Y-18508367D02*
X12427953Y-18470271D01*
X12427953Y-18470271D02*
X12437477Y-18451224D01*
X12437477Y-18451224D02*
X12447001Y-18441700D01*
X12447001Y-18441700D02*
X12466049Y-18432176D01*
X12704144Y-18498843D02*
X12704144Y-18632176D01*
X12656525Y-18422652D02*
X12608906Y-18565510D01*
X12608906Y-18565510D02*
X12732715Y-18565510D01*
X12799382Y-18451224D02*
X12808906Y-18441700D01*
X12808906Y-18441700D02*
X12827953Y-18432176D01*
X12827953Y-18432176D02*
X12875572Y-18432176D01*
X12875572Y-18432176D02*
X12894620Y-18441700D01*
X12894620Y-18441700D02*
X12904144Y-18451224D01*
X12904144Y-18451224D02*
X12913668Y-18470271D01*
X12913668Y-18470271D02*
X12913668Y-18489319D01*
X12913668Y-18489319D02*
X12904144Y-18517890D01*
X12904144Y-18517890D02*
X12789858Y-18632176D01*
X12789858Y-18632176D02*
X12913668Y-18632176D01*
X13037477Y-18432176D02*
X13056525Y-18432176D01*
X13056525Y-18432176D02*
X13075572Y-18441700D01*
X13075572Y-18441700D02*
X13085096Y-18451224D01*
X13085096Y-18451224D02*
X13094620Y-18470271D01*
X13094620Y-18470271D02*
X13104144Y-18508367D01*
X13104144Y-18508367D02*
X13104144Y-18555986D01*
X13104144Y-18555986D02*
X13094620Y-18594081D01*
X13094620Y-18594081D02*
X13085096Y-18613129D01*
X13085096Y-18613129D02*
X13075572Y-18622652D01*
X13075572Y-18622652D02*
X13056525Y-18632176D01*
X13056525Y-18632176D02*
X13037477Y-18632176D01*
X13037477Y-18632176D02*
X13018430Y-18622652D01*
X13018430Y-18622652D02*
X13008906Y-18613129D01*
X13008906Y-18613129D02*
X12999382Y-18594081D01*
X12999382Y-18594081D02*
X12989858Y-18555986D01*
X12989858Y-18555986D02*
X12989858Y-18508367D01*
X12989858Y-18508367D02*
X12999382Y-18470271D01*
X12999382Y-18470271D02*
X13008906Y-18451224D01*
X13008906Y-18451224D02*
X13018430Y-18441700D01*
X13018430Y-18441700D02*
X13037477Y-18432176D01*
X13180334Y-18432176D02*
X13180334Y-18470271D01*
X13256525Y-18432176D02*
X13256525Y-18470271D01*
X13519382Y-18708367D02*
X13509858Y-18698843D01*
X13509858Y-18698843D02*
X13490811Y-18670271D01*
X13490811Y-18670271D02*
X13481287Y-18651224D01*
X13481287Y-18651224D02*
X13471763Y-18622652D01*
X13471763Y-18622652D02*
X13462239Y-18575033D01*
X13462239Y-18575033D02*
X13462239Y-18536938D01*
X13462239Y-18536938D02*
X13471763Y-18489319D01*
X13471763Y-18489319D02*
X13481287Y-18460748D01*
X13481287Y-18460748D02*
X13490811Y-18441700D01*
X13490811Y-18441700D02*
X13509858Y-18413129D01*
X13509858Y-18413129D02*
X13519382Y-18403605D01*
X13586049Y-18451224D02*
X13595572Y-18441700D01*
X13595572Y-18441700D02*
X13614620Y-18432176D01*
X13614620Y-18432176D02*
X13662239Y-18432176D01*
X13662239Y-18432176D02*
X13681287Y-18441700D01*
X13681287Y-18441700D02*
X13690811Y-18451224D01*
X13690811Y-18451224D02*
X13700334Y-18470271D01*
X13700334Y-18470271D02*
X13700334Y-18489319D01*
X13700334Y-18489319D02*
X13690811Y-18517890D01*
X13690811Y-18517890D02*
X13576525Y-18632176D01*
X13576525Y-18632176D02*
X13700334Y-18632176D01*
X13906049Y-18632176D02*
X13906049Y-18432176D01*
X13991763Y-18632176D02*
X13991763Y-18527414D01*
X13991763Y-18527414D02*
X13982239Y-18508367D01*
X13982239Y-18508367D02*
X13963192Y-18498843D01*
X13963192Y-18498843D02*
X13934620Y-18498843D01*
X13934620Y-18498843D02*
X13915572Y-18508367D01*
X13915572Y-18508367D02*
X13906049Y-18517890D01*
X14115572Y-18632176D02*
X14096525Y-18622652D01*
X14096525Y-18622652D02*
X14087001Y-18613129D01*
X14087001Y-18613129D02*
X14077477Y-18594081D01*
X14077477Y-18594081D02*
X14077477Y-18536938D01*
X14077477Y-18536938D02*
X14087001Y-18517890D01*
X14087001Y-18517890D02*
X14096525Y-18508367D01*
X14096525Y-18508367D02*
X14115572Y-18498843D01*
X14115572Y-18498843D02*
X14144144Y-18498843D01*
X14144144Y-18498843D02*
X14163192Y-18508367D01*
X14163192Y-18508367D02*
X14172715Y-18517890D01*
X14172715Y-18517890D02*
X14182239Y-18536938D01*
X14182239Y-18536938D02*
X14182239Y-18594081D01*
X14182239Y-18594081D02*
X14172715Y-18613129D01*
X14172715Y-18613129D02*
X14163192Y-18622652D01*
X14163192Y-18622652D02*
X14144144Y-18632176D01*
X14144144Y-18632176D02*
X14115572Y-18632176D01*
X14296525Y-18632176D02*
X14277477Y-18622652D01*
X14277477Y-18622652D02*
X14267953Y-18603605D01*
X14267953Y-18603605D02*
X14267953Y-18432176D01*
X14448906Y-18622652D02*
X14429858Y-18632176D01*
X14429858Y-18632176D02*
X14391763Y-18632176D01*
X14391763Y-18632176D02*
X14372715Y-18622652D01*
X14372715Y-18622652D02*
X14363192Y-18603605D01*
X14363192Y-18603605D02*
X14363192Y-18527414D01*
X14363192Y-18527414D02*
X14372715Y-18508367D01*
X14372715Y-18508367D02*
X14391763Y-18498843D01*
X14391763Y-18498843D02*
X14429858Y-18498843D01*
X14429858Y-18498843D02*
X14448906Y-18508367D01*
X14448906Y-18508367D02*
X14458430Y-18527414D01*
X14458430Y-18527414D02*
X14458430Y-18546462D01*
X14458430Y-18546462D02*
X14363192Y-18565510D01*
X14534620Y-18622652D02*
X14553668Y-18632176D01*
X14553668Y-18632176D02*
X14591763Y-18632176D01*
X14591763Y-18632176D02*
X14610811Y-18622652D01*
X14610811Y-18622652D02*
X14620334Y-18603605D01*
X14620334Y-18603605D02*
X14620334Y-18594081D01*
X14620334Y-18594081D02*
X14610811Y-18575033D01*
X14610811Y-18575033D02*
X14591763Y-18565510D01*
X14591763Y-18565510D02*
X14563192Y-18565510D01*
X14563192Y-18565510D02*
X14544144Y-18555986D01*
X14544144Y-18555986D02*
X14534620Y-18536938D01*
X14534620Y-18536938D02*
X14534620Y-18527414D01*
X14534620Y-18527414D02*
X14544144Y-18508367D01*
X14544144Y-18508367D02*
X14563192Y-18498843D01*
X14563192Y-18498843D02*
X14591763Y-18498843D01*
X14591763Y-18498843D02*
X14610811Y-18508367D01*
X14687001Y-18708367D02*
X14696525Y-18698843D01*
X14696525Y-18698843D02*
X14715573Y-18670271D01*
X14715573Y-18670271D02*
X14725096Y-18651224D01*
X14725096Y-18651224D02*
X14734620Y-18622652D01*
X14734620Y-18622652D02*
X14744144Y-18575033D01*
X14744144Y-18575033D02*
X14744144Y-18536938D01*
X14744144Y-18536938D02*
X14734620Y-18489319D01*
X14734620Y-18489319D02*
X14725096Y-18460748D01*
X14725096Y-18460748D02*
X14715573Y-18441700D01*
X14715573Y-18441700D02*
X14696525Y-18413129D01*
X14696525Y-18413129D02*
X14687001Y-18403605D01*
D19*
X9944620Y-18767700D02*
X10054620Y-18877700D01*
X10054620Y-18767700D02*
X9944620Y-18877700D01*
X9999620Y-18877700D02*
X10054620Y-18822700D01*
X9999620Y-18767700D01*
X9944620Y-18822700D01*
X9999620Y-18877700D01*
D11*
X10407001Y-18896176D02*
X10292715Y-18896176D01*
X10349858Y-18896176D02*
X10349858Y-18696176D01*
X10349858Y-18696176D02*
X10330810Y-18724748D01*
X10330810Y-18724748D02*
X10311763Y-18743795D01*
X10311763Y-18743795D02*
X10292715Y-18753319D01*
X10492715Y-18877129D02*
X10502239Y-18886652D01*
X10502239Y-18886652D02*
X10492715Y-18896176D01*
X10492715Y-18896176D02*
X10483191Y-18886652D01*
X10483191Y-18886652D02*
X10492715Y-18877129D01*
X10492715Y-18877129D02*
X10492715Y-18896176D01*
X10692715Y-18896176D02*
X10578430Y-18896176D01*
X10635572Y-18896176D02*
X10635572Y-18696176D01*
X10635572Y-18696176D02*
X10616525Y-18724748D01*
X10616525Y-18724748D02*
X10597477Y-18743795D01*
X10597477Y-18743795D02*
X10578430Y-18753319D01*
X10816525Y-18696176D02*
X10835572Y-18696176D01*
X10835572Y-18696176D02*
X10854620Y-18705700D01*
X10854620Y-18705700D02*
X10864144Y-18715224D01*
X10864144Y-18715224D02*
X10873668Y-18734271D01*
X10873668Y-18734271D02*
X10883191Y-18772367D01*
X10883191Y-18772367D02*
X10883191Y-18819986D01*
X10883191Y-18819986D02*
X10873668Y-18858081D01*
X10873668Y-18858081D02*
X10864144Y-18877129D01*
X10864144Y-18877129D02*
X10854620Y-18886652D01*
X10854620Y-18886652D02*
X10835572Y-18896176D01*
X10835572Y-18896176D02*
X10816525Y-18896176D01*
X10816525Y-18896176D02*
X10797477Y-18886652D01*
X10797477Y-18886652D02*
X10787953Y-18877129D01*
X10787953Y-18877129D02*
X10778430Y-18858081D01*
X10778430Y-18858081D02*
X10768906Y-18819986D01*
X10768906Y-18819986D02*
X10768906Y-18772367D01*
X10768906Y-18772367D02*
X10778430Y-18734271D01*
X10778430Y-18734271D02*
X10787953Y-18715224D01*
X10787953Y-18715224D02*
X10797477Y-18705700D01*
X10797477Y-18705700D02*
X10816525Y-18696176D01*
X11007001Y-18696176D02*
X11026049Y-18696176D01*
X11026049Y-18696176D02*
X11045096Y-18705700D01*
X11045096Y-18705700D02*
X11054620Y-18715224D01*
X11054620Y-18715224D02*
X11064144Y-18734271D01*
X11064144Y-18734271D02*
X11073668Y-18772367D01*
X11073668Y-18772367D02*
X11073668Y-18819986D01*
X11073668Y-18819986D02*
X11064144Y-18858081D01*
X11064144Y-18858081D02*
X11054620Y-18877129D01*
X11054620Y-18877129D02*
X11045096Y-18886652D01*
X11045096Y-18886652D02*
X11026049Y-18896176D01*
X11026049Y-18896176D02*
X11007001Y-18896176D01*
X11007001Y-18896176D02*
X10987953Y-18886652D01*
X10987953Y-18886652D02*
X10978430Y-18877129D01*
X10978430Y-18877129D02*
X10968906Y-18858081D01*
X10968906Y-18858081D02*
X10959382Y-18819986D01*
X10959382Y-18819986D02*
X10959382Y-18772367D01*
X10959382Y-18772367D02*
X10968906Y-18734271D01*
X10968906Y-18734271D02*
X10978430Y-18715224D01*
X10978430Y-18715224D02*
X10987953Y-18705700D01*
X10987953Y-18705700D02*
X11007001Y-18696176D01*
X11159382Y-18896176D02*
X11159382Y-18762843D01*
X11159382Y-18781890D02*
X11168906Y-18772367D01*
X11168906Y-18772367D02*
X11187953Y-18762843D01*
X11187953Y-18762843D02*
X11216525Y-18762843D01*
X11216525Y-18762843D02*
X11235572Y-18772367D01*
X11235572Y-18772367D02*
X11245096Y-18791414D01*
X11245096Y-18791414D02*
X11245096Y-18896176D01*
X11245096Y-18791414D02*
X11254620Y-18772367D01*
X11254620Y-18772367D02*
X11273668Y-18762843D01*
X11273668Y-18762843D02*
X11302239Y-18762843D01*
X11302239Y-18762843D02*
X11321287Y-18772367D01*
X11321287Y-18772367D02*
X11330810Y-18791414D01*
X11330810Y-18791414D02*
X11330810Y-18896176D01*
X11426049Y-18896176D02*
X11426049Y-18762843D01*
X11426049Y-18781890D02*
X11435572Y-18772367D01*
X11435572Y-18772367D02*
X11454620Y-18762843D01*
X11454620Y-18762843D02*
X11483191Y-18762843D01*
X11483191Y-18762843D02*
X11502239Y-18772367D01*
X11502239Y-18772367D02*
X11511763Y-18791414D01*
X11511763Y-18791414D02*
X11511763Y-18896176D01*
X11511763Y-18791414D02*
X11521287Y-18772367D01*
X11521287Y-18772367D02*
X11540334Y-18762843D01*
X11540334Y-18762843D02*
X11568906Y-18762843D01*
X11568906Y-18762843D02*
X11587953Y-18772367D01*
X11587953Y-18772367D02*
X11597477Y-18791414D01*
X11597477Y-18791414D02*
X11597477Y-18896176D01*
X11955572Y-18686652D02*
X11784144Y-18943795D01*
X12180334Y-18696176D02*
X12199382Y-18696176D01*
X12199382Y-18696176D02*
X12218430Y-18705700D01*
X12218430Y-18705700D02*
X12227953Y-18715224D01*
X12227953Y-18715224D02*
X12237477Y-18734271D01*
X12237477Y-18734271D02*
X12247001Y-18772367D01*
X12247001Y-18772367D02*
X12247001Y-18819986D01*
X12247001Y-18819986D02*
X12237477Y-18858081D01*
X12237477Y-18858081D02*
X12227953Y-18877129D01*
X12227953Y-18877129D02*
X12218430Y-18886652D01*
X12218430Y-18886652D02*
X12199382Y-18896176D01*
X12199382Y-18896176D02*
X12180334Y-18896176D01*
X12180334Y-18896176D02*
X12161287Y-18886652D01*
X12161287Y-18886652D02*
X12151763Y-18877129D01*
X12151763Y-18877129D02*
X12142239Y-18858081D01*
X12142239Y-18858081D02*
X12132715Y-18819986D01*
X12132715Y-18819986D02*
X12132715Y-18772367D01*
X12132715Y-18772367D02*
X12142239Y-18734271D01*
X12142239Y-18734271D02*
X12151763Y-18715224D01*
X12151763Y-18715224D02*
X12161287Y-18705700D01*
X12161287Y-18705700D02*
X12180334Y-18696176D01*
X12332715Y-18877129D02*
X12342239Y-18886652D01*
X12342239Y-18886652D02*
X12332715Y-18896176D01*
X12332715Y-18896176D02*
X12323191Y-18886652D01*
X12323191Y-18886652D02*
X12332715Y-18877129D01*
X12332715Y-18877129D02*
X12332715Y-18896176D01*
X12466049Y-18696176D02*
X12485096Y-18696176D01*
X12485096Y-18696176D02*
X12504144Y-18705700D01*
X12504144Y-18705700D02*
X12513668Y-18715224D01*
X12513668Y-18715224D02*
X12523191Y-18734271D01*
X12523191Y-18734271D02*
X12532715Y-18772367D01*
X12532715Y-18772367D02*
X12532715Y-18819986D01*
X12532715Y-18819986D02*
X12523191Y-18858081D01*
X12523191Y-18858081D02*
X12513668Y-18877129D01*
X12513668Y-18877129D02*
X12504144Y-18886652D01*
X12504144Y-18886652D02*
X12485096Y-18896176D01*
X12485096Y-18896176D02*
X12466049Y-18896176D01*
X12466049Y-18896176D02*
X12447001Y-18886652D01*
X12447001Y-18886652D02*
X12437477Y-18877129D01*
X12437477Y-18877129D02*
X12427953Y-18858081D01*
X12427953Y-18858081D02*
X12418430Y-18819986D01*
X12418430Y-18819986D02*
X12418430Y-18772367D01*
X12418430Y-18772367D02*
X12427953Y-18734271D01*
X12427953Y-18734271D02*
X12437477Y-18715224D01*
X12437477Y-18715224D02*
X12447001Y-18705700D01*
X12447001Y-18705700D02*
X12466049Y-18696176D01*
X12704144Y-18762843D02*
X12704144Y-18896176D01*
X12656525Y-18686652D02*
X12608906Y-18829510D01*
X12608906Y-18829510D02*
X12732715Y-18829510D01*
X12789858Y-18696176D02*
X12913668Y-18696176D01*
X12913668Y-18696176D02*
X12847001Y-18772367D01*
X12847001Y-18772367D02*
X12875572Y-18772367D01*
X12875572Y-18772367D02*
X12894620Y-18781890D01*
X12894620Y-18781890D02*
X12904144Y-18791414D01*
X12904144Y-18791414D02*
X12913668Y-18810462D01*
X12913668Y-18810462D02*
X12913668Y-18858081D01*
X12913668Y-18858081D02*
X12904144Y-18877129D01*
X12904144Y-18877129D02*
X12894620Y-18886652D01*
X12894620Y-18886652D02*
X12875572Y-18896176D01*
X12875572Y-18896176D02*
X12818430Y-18896176D01*
X12818430Y-18896176D02*
X12799382Y-18886652D01*
X12799382Y-18886652D02*
X12789858Y-18877129D01*
X12980334Y-18696176D02*
X13104144Y-18696176D01*
X13104144Y-18696176D02*
X13037477Y-18772367D01*
X13037477Y-18772367D02*
X13066049Y-18772367D01*
X13066049Y-18772367D02*
X13085096Y-18781890D01*
X13085096Y-18781890D02*
X13094620Y-18791414D01*
X13094620Y-18791414D02*
X13104144Y-18810462D01*
X13104144Y-18810462D02*
X13104144Y-18858081D01*
X13104144Y-18858081D02*
X13094620Y-18877129D01*
X13094620Y-18877129D02*
X13085096Y-18886652D01*
X13085096Y-18886652D02*
X13066049Y-18896176D01*
X13066049Y-18896176D02*
X13008906Y-18896176D01*
X13008906Y-18896176D02*
X12989858Y-18886652D01*
X12989858Y-18886652D02*
X12980334Y-18877129D01*
X13180334Y-18696176D02*
X13180334Y-18734271D01*
X13256525Y-18696176D02*
X13256525Y-18734271D01*
X13519382Y-18972367D02*
X13509858Y-18962843D01*
X13509858Y-18962843D02*
X13490811Y-18934271D01*
X13490811Y-18934271D02*
X13481287Y-18915224D01*
X13481287Y-18915224D02*
X13471763Y-18886652D01*
X13471763Y-18886652D02*
X13462239Y-18839033D01*
X13462239Y-18839033D02*
X13462239Y-18800938D01*
X13462239Y-18800938D02*
X13471763Y-18753319D01*
X13471763Y-18753319D02*
X13481287Y-18724748D01*
X13481287Y-18724748D02*
X13490811Y-18705700D01*
X13490811Y-18705700D02*
X13509858Y-18677129D01*
X13509858Y-18677129D02*
X13519382Y-18667605D01*
X13586049Y-18715224D02*
X13595572Y-18705700D01*
X13595572Y-18705700D02*
X13614620Y-18696176D01*
X13614620Y-18696176D02*
X13662239Y-18696176D01*
X13662239Y-18696176D02*
X13681287Y-18705700D01*
X13681287Y-18705700D02*
X13690811Y-18715224D01*
X13690811Y-18715224D02*
X13700334Y-18734271D01*
X13700334Y-18734271D02*
X13700334Y-18753319D01*
X13700334Y-18753319D02*
X13690811Y-18781890D01*
X13690811Y-18781890D02*
X13576525Y-18896176D01*
X13576525Y-18896176D02*
X13700334Y-18896176D01*
X13906049Y-18896176D02*
X13906049Y-18696176D01*
X13991763Y-18896176D02*
X13991763Y-18791414D01*
X13991763Y-18791414D02*
X13982239Y-18772367D01*
X13982239Y-18772367D02*
X13963192Y-18762843D01*
X13963192Y-18762843D02*
X13934620Y-18762843D01*
X13934620Y-18762843D02*
X13915572Y-18772367D01*
X13915572Y-18772367D02*
X13906049Y-18781890D01*
X14115572Y-18896176D02*
X14096525Y-18886652D01*
X14096525Y-18886652D02*
X14087001Y-18877129D01*
X14087001Y-18877129D02*
X14077477Y-18858081D01*
X14077477Y-18858081D02*
X14077477Y-18800938D01*
X14077477Y-18800938D02*
X14087001Y-18781890D01*
X14087001Y-18781890D02*
X14096525Y-18772367D01*
X14096525Y-18772367D02*
X14115572Y-18762843D01*
X14115572Y-18762843D02*
X14144144Y-18762843D01*
X14144144Y-18762843D02*
X14163192Y-18772367D01*
X14163192Y-18772367D02*
X14172715Y-18781890D01*
X14172715Y-18781890D02*
X14182239Y-18800938D01*
X14182239Y-18800938D02*
X14182239Y-18858081D01*
X14182239Y-18858081D02*
X14172715Y-18877129D01*
X14172715Y-18877129D02*
X14163192Y-18886652D01*
X14163192Y-18886652D02*
X14144144Y-18896176D01*
X14144144Y-18896176D02*
X14115572Y-18896176D01*
X14296525Y-18896176D02*
X14277477Y-18886652D01*
X14277477Y-18886652D02*
X14267953Y-18867605D01*
X14267953Y-18867605D02*
X14267953Y-18696176D01*
X14448906Y-18886652D02*
X14429858Y-18896176D01*
X14429858Y-18896176D02*
X14391763Y-18896176D01*
X14391763Y-18896176D02*
X14372715Y-18886652D01*
X14372715Y-18886652D02*
X14363192Y-18867605D01*
X14363192Y-18867605D02*
X14363192Y-18791414D01*
X14363192Y-18791414D02*
X14372715Y-18772367D01*
X14372715Y-18772367D02*
X14391763Y-18762843D01*
X14391763Y-18762843D02*
X14429858Y-18762843D01*
X14429858Y-18762843D02*
X14448906Y-18772367D01*
X14448906Y-18772367D02*
X14458430Y-18791414D01*
X14458430Y-18791414D02*
X14458430Y-18810462D01*
X14458430Y-18810462D02*
X14363192Y-18829510D01*
X14534620Y-18886652D02*
X14553668Y-18896176D01*
X14553668Y-18896176D02*
X14591763Y-18896176D01*
X14591763Y-18896176D02*
X14610811Y-18886652D01*
X14610811Y-18886652D02*
X14620334Y-18867605D01*
X14620334Y-18867605D02*
X14620334Y-18858081D01*
X14620334Y-18858081D02*
X14610811Y-18839033D01*
X14610811Y-18839033D02*
X14591763Y-18829510D01*
X14591763Y-18829510D02*
X14563192Y-18829510D01*
X14563192Y-18829510D02*
X14544144Y-18819986D01*
X14544144Y-18819986D02*
X14534620Y-18800938D01*
X14534620Y-18800938D02*
X14534620Y-18791414D01*
X14534620Y-18791414D02*
X14544144Y-18772367D01*
X14544144Y-18772367D02*
X14563192Y-18762843D01*
X14563192Y-18762843D02*
X14591763Y-18762843D01*
X14591763Y-18762843D02*
X14610811Y-18772367D01*
X14687001Y-18972367D02*
X14696525Y-18962843D01*
X14696525Y-18962843D02*
X14715573Y-18934271D01*
X14715573Y-18934271D02*
X14725096Y-18915224D01*
X14725096Y-18915224D02*
X14734620Y-18886652D01*
X14734620Y-18886652D02*
X14744144Y-18839033D01*
X14744144Y-18839033D02*
X14744144Y-18800938D01*
X14744144Y-18800938D02*
X14734620Y-18753319D01*
X14734620Y-18753319D02*
X14725096Y-18724748D01*
X14725096Y-18724748D02*
X14715573Y-18705700D01*
X14715573Y-18705700D02*
X14696525Y-18677129D01*
X14696525Y-18677129D02*
X14687001Y-18667605D01*
X9954620Y-18986700D02*
X9954620Y-19186700D01*
X9854620Y-19086700D02*
X10054620Y-19086700D01*
X10054620Y-19086700D02*
G75*
G03*
X10054620Y-19086700I-100000J0D01*
G01*
X10283191Y-18960176D02*
X10407001Y-18960176D01*
X10407001Y-18960176D02*
X10340334Y-19036367D01*
X10340334Y-19036367D02*
X10368906Y-19036367D01*
X10368906Y-19036367D02*
X10387953Y-19045890D01*
X10387953Y-19045890D02*
X10397477Y-19055414D01*
X10397477Y-19055414D02*
X10407001Y-19074462D01*
X10407001Y-19074462D02*
X10407001Y-19122081D01*
X10407001Y-19122081D02*
X10397477Y-19141129D01*
X10397477Y-19141129D02*
X10387953Y-19150652D01*
X10387953Y-19150652D02*
X10368906Y-19160176D01*
X10368906Y-19160176D02*
X10311763Y-19160176D01*
X10311763Y-19160176D02*
X10292715Y-19150652D01*
X10292715Y-19150652D02*
X10283191Y-19141129D01*
X10492715Y-19141129D02*
X10502239Y-19150652D01*
X10502239Y-19150652D02*
X10492715Y-19160176D01*
X10492715Y-19160176D02*
X10483191Y-19150652D01*
X10483191Y-19150652D02*
X10492715Y-19141129D01*
X10492715Y-19141129D02*
X10492715Y-19160176D01*
X10578430Y-18979224D02*
X10587953Y-18969700D01*
X10587953Y-18969700D02*
X10607001Y-18960176D01*
X10607001Y-18960176D02*
X10654620Y-18960176D01*
X10654620Y-18960176D02*
X10673668Y-18969700D01*
X10673668Y-18969700D02*
X10683191Y-18979224D01*
X10683191Y-18979224D02*
X10692715Y-18998271D01*
X10692715Y-18998271D02*
X10692715Y-19017319D01*
X10692715Y-19017319D02*
X10683191Y-19045890D01*
X10683191Y-19045890D02*
X10568906Y-19160176D01*
X10568906Y-19160176D02*
X10692715Y-19160176D01*
X10816525Y-18960176D02*
X10835572Y-18960176D01*
X10835572Y-18960176D02*
X10854620Y-18969700D01*
X10854620Y-18969700D02*
X10864144Y-18979224D01*
X10864144Y-18979224D02*
X10873668Y-18998271D01*
X10873668Y-18998271D02*
X10883191Y-19036367D01*
X10883191Y-19036367D02*
X10883191Y-19083986D01*
X10883191Y-19083986D02*
X10873668Y-19122081D01*
X10873668Y-19122081D02*
X10864144Y-19141129D01*
X10864144Y-19141129D02*
X10854620Y-19150652D01*
X10854620Y-19150652D02*
X10835572Y-19160176D01*
X10835572Y-19160176D02*
X10816525Y-19160176D01*
X10816525Y-19160176D02*
X10797477Y-19150652D01*
X10797477Y-19150652D02*
X10787953Y-19141129D01*
X10787953Y-19141129D02*
X10778430Y-19122081D01*
X10778430Y-19122081D02*
X10768906Y-19083986D01*
X10768906Y-19083986D02*
X10768906Y-19036367D01*
X10768906Y-19036367D02*
X10778430Y-18998271D01*
X10778430Y-18998271D02*
X10787953Y-18979224D01*
X10787953Y-18979224D02*
X10797477Y-18969700D01*
X10797477Y-18969700D02*
X10816525Y-18960176D01*
X11007001Y-18960176D02*
X11026049Y-18960176D01*
X11026049Y-18960176D02*
X11045096Y-18969700D01*
X11045096Y-18969700D02*
X11054620Y-18979224D01*
X11054620Y-18979224D02*
X11064144Y-18998271D01*
X11064144Y-18998271D02*
X11073668Y-19036367D01*
X11073668Y-19036367D02*
X11073668Y-19083986D01*
X11073668Y-19083986D02*
X11064144Y-19122081D01*
X11064144Y-19122081D02*
X11054620Y-19141129D01*
X11054620Y-19141129D02*
X11045096Y-19150652D01*
X11045096Y-19150652D02*
X11026049Y-19160176D01*
X11026049Y-19160176D02*
X11007001Y-19160176D01*
X11007001Y-19160176D02*
X10987953Y-19150652D01*
X10987953Y-19150652D02*
X10978430Y-19141129D01*
X10978430Y-19141129D02*
X10968906Y-19122081D01*
X10968906Y-19122081D02*
X10959382Y-19083986D01*
X10959382Y-19083986D02*
X10959382Y-19036367D01*
X10959382Y-19036367D02*
X10968906Y-18998271D01*
X10968906Y-18998271D02*
X10978430Y-18979224D01*
X10978430Y-18979224D02*
X10987953Y-18969700D01*
X10987953Y-18969700D02*
X11007001Y-18960176D01*
X11159382Y-19160176D02*
X11159382Y-19026843D01*
X11159382Y-19045890D02*
X11168906Y-19036367D01*
X11168906Y-19036367D02*
X11187953Y-19026843D01*
X11187953Y-19026843D02*
X11216525Y-19026843D01*
X11216525Y-19026843D02*
X11235572Y-19036367D01*
X11235572Y-19036367D02*
X11245096Y-19055414D01*
X11245096Y-19055414D02*
X11245096Y-19160176D01*
X11245096Y-19055414D02*
X11254620Y-19036367D01*
X11254620Y-19036367D02*
X11273668Y-19026843D01*
X11273668Y-19026843D02*
X11302239Y-19026843D01*
X11302239Y-19026843D02*
X11321287Y-19036367D01*
X11321287Y-19036367D02*
X11330810Y-19055414D01*
X11330810Y-19055414D02*
X11330810Y-19160176D01*
X11426049Y-19160176D02*
X11426049Y-19026843D01*
X11426049Y-19045890D02*
X11435572Y-19036367D01*
X11435572Y-19036367D02*
X11454620Y-19026843D01*
X11454620Y-19026843D02*
X11483191Y-19026843D01*
X11483191Y-19026843D02*
X11502239Y-19036367D01*
X11502239Y-19036367D02*
X11511763Y-19055414D01*
X11511763Y-19055414D02*
X11511763Y-19160176D01*
X11511763Y-19055414D02*
X11521287Y-19036367D01*
X11521287Y-19036367D02*
X11540334Y-19026843D01*
X11540334Y-19026843D02*
X11568906Y-19026843D01*
X11568906Y-19026843D02*
X11587953Y-19036367D01*
X11587953Y-19036367D02*
X11597477Y-19055414D01*
X11597477Y-19055414D02*
X11597477Y-19160176D01*
X11955572Y-18950652D02*
X11784144Y-19207795D01*
X12180334Y-18960176D02*
X12199382Y-18960176D01*
X12199382Y-18960176D02*
X12218430Y-18969700D01*
X12218430Y-18969700D02*
X12227953Y-18979224D01*
X12227953Y-18979224D02*
X12237477Y-18998271D01*
X12237477Y-18998271D02*
X12247001Y-19036367D01*
X12247001Y-19036367D02*
X12247001Y-19083986D01*
X12247001Y-19083986D02*
X12237477Y-19122081D01*
X12237477Y-19122081D02*
X12227953Y-19141129D01*
X12227953Y-19141129D02*
X12218430Y-19150652D01*
X12218430Y-19150652D02*
X12199382Y-19160176D01*
X12199382Y-19160176D02*
X12180334Y-19160176D01*
X12180334Y-19160176D02*
X12161287Y-19150652D01*
X12161287Y-19150652D02*
X12151763Y-19141129D01*
X12151763Y-19141129D02*
X12142239Y-19122081D01*
X12142239Y-19122081D02*
X12132715Y-19083986D01*
X12132715Y-19083986D02*
X12132715Y-19036367D01*
X12132715Y-19036367D02*
X12142239Y-18998271D01*
X12142239Y-18998271D02*
X12151763Y-18979224D01*
X12151763Y-18979224D02*
X12161287Y-18969700D01*
X12161287Y-18969700D02*
X12180334Y-18960176D01*
X12332715Y-19141129D02*
X12342239Y-19150652D01*
X12342239Y-19150652D02*
X12332715Y-19160176D01*
X12332715Y-19160176D02*
X12323191Y-19150652D01*
X12323191Y-19150652D02*
X12332715Y-19141129D01*
X12332715Y-19141129D02*
X12332715Y-19160176D01*
X12532715Y-19160176D02*
X12418430Y-19160176D01*
X12475572Y-19160176D02*
X12475572Y-18960176D01*
X12475572Y-18960176D02*
X12456525Y-18988748D01*
X12456525Y-18988748D02*
X12437477Y-19007795D01*
X12437477Y-19007795D02*
X12418430Y-19017319D01*
X12608906Y-18979224D02*
X12618430Y-18969700D01*
X12618430Y-18969700D02*
X12637477Y-18960176D01*
X12637477Y-18960176D02*
X12685096Y-18960176D01*
X12685096Y-18960176D02*
X12704144Y-18969700D01*
X12704144Y-18969700D02*
X12713668Y-18979224D01*
X12713668Y-18979224D02*
X12723191Y-18998271D01*
X12723191Y-18998271D02*
X12723191Y-19017319D01*
X12723191Y-19017319D02*
X12713668Y-19045890D01*
X12713668Y-19045890D02*
X12599382Y-19160176D01*
X12599382Y-19160176D02*
X12723191Y-19160176D01*
X12894620Y-18960176D02*
X12856525Y-18960176D01*
X12856525Y-18960176D02*
X12837477Y-18969700D01*
X12837477Y-18969700D02*
X12827953Y-18979224D01*
X12827953Y-18979224D02*
X12808906Y-19007795D01*
X12808906Y-19007795D02*
X12799382Y-19045890D01*
X12799382Y-19045890D02*
X12799382Y-19122081D01*
X12799382Y-19122081D02*
X12808906Y-19141129D01*
X12808906Y-19141129D02*
X12818430Y-19150652D01*
X12818430Y-19150652D02*
X12837477Y-19160176D01*
X12837477Y-19160176D02*
X12875572Y-19160176D01*
X12875572Y-19160176D02*
X12894620Y-19150652D01*
X12894620Y-19150652D02*
X12904144Y-19141129D01*
X12904144Y-19141129D02*
X12913668Y-19122081D01*
X12913668Y-19122081D02*
X12913668Y-19074462D01*
X12913668Y-19074462D02*
X12904144Y-19055414D01*
X12904144Y-19055414D02*
X12894620Y-19045890D01*
X12894620Y-19045890D02*
X12875572Y-19036367D01*
X12875572Y-19036367D02*
X12837477Y-19036367D01*
X12837477Y-19036367D02*
X12818430Y-19045890D01*
X12818430Y-19045890D02*
X12808906Y-19055414D01*
X12808906Y-19055414D02*
X12799382Y-19074462D01*
X13037477Y-18960176D02*
X13056525Y-18960176D01*
X13056525Y-18960176D02*
X13075572Y-18969700D01*
X13075572Y-18969700D02*
X13085096Y-18979224D01*
X13085096Y-18979224D02*
X13094620Y-18998271D01*
X13094620Y-18998271D02*
X13104144Y-19036367D01*
X13104144Y-19036367D02*
X13104144Y-19083986D01*
X13104144Y-19083986D02*
X13094620Y-19122081D01*
X13094620Y-19122081D02*
X13085096Y-19141129D01*
X13085096Y-19141129D02*
X13075572Y-19150652D01*
X13075572Y-19150652D02*
X13056525Y-19160176D01*
X13056525Y-19160176D02*
X13037477Y-19160176D01*
X13037477Y-19160176D02*
X13018430Y-19150652D01*
X13018430Y-19150652D02*
X13008906Y-19141129D01*
X13008906Y-19141129D02*
X12999382Y-19122081D01*
X12999382Y-19122081D02*
X12989858Y-19083986D01*
X12989858Y-19083986D02*
X12989858Y-19036367D01*
X12989858Y-19036367D02*
X12999382Y-18998271D01*
X12999382Y-18998271D02*
X13008906Y-18979224D01*
X13008906Y-18979224D02*
X13018430Y-18969700D01*
X13018430Y-18969700D02*
X13037477Y-18960176D01*
X13180334Y-18960176D02*
X13180334Y-18998271D01*
X13256525Y-18960176D02*
X13256525Y-18998271D01*
X13519382Y-19236367D02*
X13509858Y-19226843D01*
X13509858Y-19226843D02*
X13490811Y-19198271D01*
X13490811Y-19198271D02*
X13481287Y-19179224D01*
X13481287Y-19179224D02*
X13471763Y-19150652D01*
X13471763Y-19150652D02*
X13462239Y-19103033D01*
X13462239Y-19103033D02*
X13462239Y-19064938D01*
X13462239Y-19064938D02*
X13471763Y-19017319D01*
X13471763Y-19017319D02*
X13481287Y-18988748D01*
X13481287Y-18988748D02*
X13490811Y-18969700D01*
X13490811Y-18969700D02*
X13509858Y-18941129D01*
X13509858Y-18941129D02*
X13519382Y-18931605D01*
X13681287Y-18960176D02*
X13643191Y-18960176D01*
X13643191Y-18960176D02*
X13624144Y-18969700D01*
X13624144Y-18969700D02*
X13614620Y-18979224D01*
X13614620Y-18979224D02*
X13595572Y-19007795D01*
X13595572Y-19007795D02*
X13586049Y-19045890D01*
X13586049Y-19045890D02*
X13586049Y-19122081D01*
X13586049Y-19122081D02*
X13595572Y-19141129D01*
X13595572Y-19141129D02*
X13605096Y-19150652D01*
X13605096Y-19150652D02*
X13624144Y-19160176D01*
X13624144Y-19160176D02*
X13662239Y-19160176D01*
X13662239Y-19160176D02*
X13681287Y-19150652D01*
X13681287Y-19150652D02*
X13690811Y-19141129D01*
X13690811Y-19141129D02*
X13700334Y-19122081D01*
X13700334Y-19122081D02*
X13700334Y-19074462D01*
X13700334Y-19074462D02*
X13690811Y-19055414D01*
X13690811Y-19055414D02*
X13681287Y-19045890D01*
X13681287Y-19045890D02*
X13662239Y-19036367D01*
X13662239Y-19036367D02*
X13624144Y-19036367D01*
X13624144Y-19036367D02*
X13605096Y-19045890D01*
X13605096Y-19045890D02*
X13595572Y-19055414D01*
X13595572Y-19055414D02*
X13586049Y-19074462D01*
X13906049Y-19160176D02*
X13906049Y-18960176D01*
X13991763Y-19160176D02*
X13991763Y-19055414D01*
X13991763Y-19055414D02*
X13982239Y-19036367D01*
X13982239Y-19036367D02*
X13963192Y-19026843D01*
X13963192Y-19026843D02*
X13934620Y-19026843D01*
X13934620Y-19026843D02*
X13915572Y-19036367D01*
X13915572Y-19036367D02*
X13906049Y-19045890D01*
X14115572Y-19160176D02*
X14096525Y-19150652D01*
X14096525Y-19150652D02*
X14087001Y-19141129D01*
X14087001Y-19141129D02*
X14077477Y-19122081D01*
X14077477Y-19122081D02*
X14077477Y-19064938D01*
X14077477Y-19064938D02*
X14087001Y-19045890D01*
X14087001Y-19045890D02*
X14096525Y-19036367D01*
X14096525Y-19036367D02*
X14115572Y-19026843D01*
X14115572Y-19026843D02*
X14144144Y-19026843D01*
X14144144Y-19026843D02*
X14163192Y-19036367D01*
X14163192Y-19036367D02*
X14172715Y-19045890D01*
X14172715Y-19045890D02*
X14182239Y-19064938D01*
X14182239Y-19064938D02*
X14182239Y-19122081D01*
X14182239Y-19122081D02*
X14172715Y-19141129D01*
X14172715Y-19141129D02*
X14163192Y-19150652D01*
X14163192Y-19150652D02*
X14144144Y-19160176D01*
X14144144Y-19160176D02*
X14115572Y-19160176D01*
X14296525Y-19160176D02*
X14277477Y-19150652D01*
X14277477Y-19150652D02*
X14267953Y-19131605D01*
X14267953Y-19131605D02*
X14267953Y-18960176D01*
X14448906Y-19150652D02*
X14429858Y-19160176D01*
X14429858Y-19160176D02*
X14391763Y-19160176D01*
X14391763Y-19160176D02*
X14372715Y-19150652D01*
X14372715Y-19150652D02*
X14363192Y-19131605D01*
X14363192Y-19131605D02*
X14363192Y-19055414D01*
X14363192Y-19055414D02*
X14372715Y-19036367D01*
X14372715Y-19036367D02*
X14391763Y-19026843D01*
X14391763Y-19026843D02*
X14429858Y-19026843D01*
X14429858Y-19026843D02*
X14448906Y-19036367D01*
X14448906Y-19036367D02*
X14458430Y-19055414D01*
X14458430Y-19055414D02*
X14458430Y-19074462D01*
X14458430Y-19074462D02*
X14363192Y-19093510D01*
X14534620Y-19150652D02*
X14553668Y-19160176D01*
X14553668Y-19160176D02*
X14591763Y-19160176D01*
X14591763Y-19160176D02*
X14610811Y-19150652D01*
X14610811Y-19150652D02*
X14620334Y-19131605D01*
X14620334Y-19131605D02*
X14620334Y-19122081D01*
X14620334Y-19122081D02*
X14610811Y-19103033D01*
X14610811Y-19103033D02*
X14591763Y-19093510D01*
X14591763Y-19093510D02*
X14563192Y-19093510D01*
X14563192Y-19093510D02*
X14544144Y-19083986D01*
X14544144Y-19083986D02*
X14534620Y-19064938D01*
X14534620Y-19064938D02*
X14534620Y-19055414D01*
X14534620Y-19055414D02*
X14544144Y-19036367D01*
X14544144Y-19036367D02*
X14563192Y-19026843D01*
X14563192Y-19026843D02*
X14591763Y-19026843D01*
X14591763Y-19026843D02*
X14610811Y-19036367D01*
X14687001Y-19236367D02*
X14696525Y-19226843D01*
X14696525Y-19226843D02*
X14715573Y-19198271D01*
X14715573Y-19198271D02*
X14725096Y-19179224D01*
X14725096Y-19179224D02*
X14734620Y-19150652D01*
X14734620Y-19150652D02*
X14744144Y-19103033D01*
X14744144Y-19103033D02*
X14744144Y-19064938D01*
X14744144Y-19064938D02*
X14734620Y-19017319D01*
X14734620Y-19017319D02*
X14725096Y-18988748D01*
X14725096Y-18988748D02*
X14715573Y-18969700D01*
X14715573Y-18969700D02*
X14696525Y-18941129D01*
X14696525Y-18941129D02*
X14687001Y-18931605D01*
M02*
