%TF.GenerationSoftware,KiCad,Pcbnew,(7.0.0)*%
%TF.CreationDate,2023-09-29T14:09:18-04:00*%
%TF.ProjectId,_HW_ToslinkToDMX,5f48575f-546f-4736-9c69-6e6b546f444d,rev?*%
%TF.SameCoordinates,Original*%
%TF.FileFunction,Legend,Top*%
%TF.FilePolarity,Positive*%
%FSLAX46Y46*%
G04 Gerber Fmt 4.6, Leading zero omitted, Abs format (unit mm)*
G04 Created by KiCad (PCBNEW (7.0.0)) date 2023-09-29 14:09:18*
%MOMM*%
%LPD*%
G01*
G04 APERTURE LIST*
G04 Aperture macros list*
%AMRoundRect*
0 Rectangle with rounded corners*
0 $1 Rounding radius*
0 $2 $3 $4 $5 $6 $7 $8 $9 X,Y pos of 4 corners*
0 Add a 4 corners polygon primitive as box body*
4,1,4,$2,$3,$4,$5,$6,$7,$8,$9,$2,$3,0*
0 Add four circle primitives for the rounded corners*
1,1,$1+$1,$2,$3*
1,1,$1+$1,$4,$5*
1,1,$1+$1,$6,$7*
1,1,$1+$1,$8,$9*
0 Add four rect primitives between the rounded corners*
20,1,$1+$1,$2,$3,$4,$5,0*
20,1,$1+$1,$4,$5,$6,$7,0*
20,1,$1+$1,$6,$7,$8,$9,0*
20,1,$1+$1,$8,$9,$2,$3,0*%
G04 Aperture macros list end*
%ADD10C,0.127000*%
%ADD11C,0.150000*%
%ADD12C,0.120000*%
%ADD13C,0.100000*%
%ADD14C,0.152400*%
%ADD15C,0.508000*%
%ADD16RoundRect,0.135000X-0.185000X0.135000X-0.185000X-0.135000X0.185000X-0.135000X0.185000X0.135000X0*%
%ADD17R,0.900000X0.800000*%
%ADD18RoundRect,0.100000X0.130000X0.100000X-0.130000X0.100000X-0.130000X-0.100000X0.130000X-0.100000X0*%
%ADD19RoundRect,0.250000X-0.262500X-0.450000X0.262500X-0.450000X0.262500X0.450000X-0.262500X0.450000X0*%
%ADD20RoundRect,0.100000X-0.130000X-0.100000X0.130000X-0.100000X0.130000X0.100000X-0.130000X0.100000X0*%
%ADD21C,4.000000*%
%ADD22R,1.600000X1.600000*%
%ADD23C,1.600000*%
%ADD24RoundRect,0.147500X-0.172500X0.147500X-0.172500X-0.147500X0.172500X-0.147500X0.172500X0.147500X0*%
%ADD25R,0.400000X1.350000*%
%ADD26O,0.890000X1.550000*%
%ADD27R,1.200000X1.550000*%
%ADD28O,1.250000X0.950000*%
%ADD29R,1.500000X1.550000*%
%ADD30C,3.600000*%
%ADD31C,5.600000*%
%ADD32R,1.500000X0.900000*%
%ADD33R,1.700000X1.700000*%
%ADD34O,1.700000X1.700000*%
%ADD35RoundRect,0.100000X0.100000X-0.130000X0.100000X0.130000X-0.100000X0.130000X-0.100000X-0.130000X0*%
%ADD36RoundRect,0.100000X-0.100000X0.130000X-0.100000X-0.130000X0.100000X-0.130000X0.100000X0.130000X0*%
%ADD37R,1.000000X1.000000*%
%ADD38O,1.000000X1.000000*%
%ADD39RoundRect,0.075000X-0.075000X0.700000X-0.075000X-0.700000X0.075000X-0.700000X0.075000X0.700000X0*%
%ADD40RoundRect,0.075000X-0.700000X0.075000X-0.700000X-0.075000X0.700000X-0.075000X0.700000X0.075000X0*%
%ADD41C,1.473200*%
%ADD42C,1.574800*%
%ADD43RoundRect,0.140000X-0.140000X-0.170000X0.140000X-0.170000X0.140000X0.170000X-0.140000X0.170000X0*%
%ADD44RoundRect,0.225000X-0.250000X0.225000X-0.250000X-0.225000X0.250000X-0.225000X0.250000X0.225000X0*%
%ADD45RoundRect,0.147500X-0.147500X-0.172500X0.147500X-0.172500X0.147500X0.172500X-0.147500X0.172500X0*%
%ADD46R,2.300000X1.500000*%
%ADD47O,2.300000X1.500000*%
%ADD48R,0.450000X0.400000*%
%ADD49R,0.450000X0.500000*%
%ADD50RoundRect,0.135000X-0.135000X-0.185000X0.135000X-0.185000X0.135000X0.185000X-0.135000X0.185000X0*%
%ADD51RoundRect,0.225000X0.250000X-0.225000X0.250000X0.225000X-0.250000X0.225000X-0.250000X-0.225000X0*%
%ADD52R,0.650000X0.400000*%
%ADD53RoundRect,0.250000X-0.450000X0.262500X-0.450000X-0.262500X0.450000X-0.262500X0.450000X0.262500X0*%
%ADD54RoundRect,0.150000X-0.150000X0.512500X-0.150000X-0.512500X0.150000X-0.512500X0.150000X0.512500X0*%
%ADD55RoundRect,0.243750X-0.243750X-0.456250X0.243750X-0.456250X0.243750X0.456250X-0.243750X0.456250X0*%
%ADD56RoundRect,0.150000X0.150000X-0.512500X0.150000X0.512500X-0.150000X0.512500X-0.150000X-0.512500X0*%
%ADD57C,1.750000*%
%ADD58C,1.524000*%
%ADD59RoundRect,0.243750X0.243750X0.456250X-0.243750X0.456250X-0.243750X-0.456250X0.243750X-0.456250X0*%
%ADD60RoundRect,0.218750X0.218750X0.381250X-0.218750X0.381250X-0.218750X-0.381250X0.218750X-0.381250X0*%
%ADD61C,1.000000*%
%ADD62RoundRect,0.150000X-0.725000X-0.150000X0.725000X-0.150000X0.725000X0.150000X-0.725000X0.150000X0*%
%ADD63RoundRect,0.140000X0.140000X0.170000X-0.140000X0.170000X-0.140000X-0.170000X0.140000X-0.170000X0*%
%ADD64RoundRect,0.150000X0.512500X0.150000X-0.512500X0.150000X-0.512500X-0.150000X0.512500X-0.150000X0*%
G04 APERTURE END LIST*
D10*
X144011952Y-127254907D02*
X144399000Y-127254907D01*
X144205476Y-127496811D02*
X144205476Y-127013002D01*
X144882809Y-126861811D02*
X144640904Y-126861811D01*
X144640904Y-126861811D02*
X144616713Y-127164192D01*
X144616713Y-127164192D02*
X144640904Y-127133954D01*
X144640904Y-127133954D02*
X144689285Y-127103716D01*
X144689285Y-127103716D02*
X144810237Y-127103716D01*
X144810237Y-127103716D02*
X144858618Y-127133954D01*
X144858618Y-127133954D02*
X144882809Y-127164192D01*
X144882809Y-127164192D02*
X144906999Y-127224669D01*
X144906999Y-127224669D02*
X144906999Y-127375859D01*
X144906999Y-127375859D02*
X144882809Y-127436335D01*
X144882809Y-127436335D02*
X144858618Y-127466573D01*
X144858618Y-127466573D02*
X144810237Y-127496811D01*
X144810237Y-127496811D02*
X144689285Y-127496811D01*
X144689285Y-127496811D02*
X144640904Y-127466573D01*
X144640904Y-127466573D02*
X144616713Y-127436335D01*
X145052142Y-126861811D02*
X145221476Y-127496811D01*
X145221476Y-127496811D02*
X145390809Y-126861811D01*
X145439191Y-127557288D02*
X145826238Y-127557288D01*
X145923000Y-126922288D02*
X145947191Y-126892050D01*
X145947191Y-126892050D02*
X145995572Y-126861811D01*
X145995572Y-126861811D02*
X146116524Y-126861811D01*
X146116524Y-126861811D02*
X146164905Y-126892050D01*
X146164905Y-126892050D02*
X146189096Y-126922288D01*
X146189096Y-126922288D02*
X146213286Y-126982764D01*
X146213286Y-126982764D02*
X146213286Y-127043240D01*
X146213286Y-127043240D02*
X146189096Y-127133954D01*
X146189096Y-127133954D02*
X145898810Y-127496811D01*
X145898810Y-127496811D02*
X146213286Y-127496811D01*
X142674521Y-145753666D02*
X142251188Y-145753666D01*
X142916426Y-145632714D02*
X142462854Y-145511761D01*
X142462854Y-145511761D02*
X142462854Y-145826238D01*
X142493092Y-145947190D02*
X142523330Y-145971381D01*
X142523330Y-145971381D02*
X142553569Y-146019762D01*
X142553569Y-146019762D02*
X142493092Y-146116524D01*
X142493092Y-146116524D02*
X142523330Y-146164905D01*
X142523330Y-146164905D02*
X142553569Y-146189095D01*
X142886188Y-146600333D02*
X142886188Y-146503571D01*
X142886188Y-146503571D02*
X142855950Y-146455190D01*
X142855950Y-146455190D02*
X142825711Y-146431000D01*
X142825711Y-146431000D02*
X142734997Y-146382619D01*
X142734997Y-146382619D02*
X142614045Y-146358428D01*
X142614045Y-146358428D02*
X142372140Y-146358428D01*
X142372140Y-146358428D02*
X142311664Y-146382619D01*
X142311664Y-146382619D02*
X142281426Y-146406809D01*
X142281426Y-146406809D02*
X142251188Y-146455190D01*
X142251188Y-146455190D02*
X142251188Y-146551952D01*
X142251188Y-146551952D02*
X142281426Y-146600333D01*
X142281426Y-146600333D02*
X142311664Y-146624524D01*
X142311664Y-146624524D02*
X142372140Y-146648714D01*
X142372140Y-146648714D02*
X142523330Y-146648714D01*
X142523330Y-146648714D02*
X142583807Y-146624524D01*
X142583807Y-146624524D02*
X142614045Y-146600333D01*
X142614045Y-146600333D02*
X142644283Y-146551952D01*
X142644283Y-146551952D02*
X142644283Y-146455190D01*
X142644283Y-146455190D02*
X142614045Y-146406809D01*
X142614045Y-146406809D02*
X142583807Y-146382619D01*
X142583807Y-146382619D02*
X142523330Y-146358428D01*
X142251188Y-147171229D02*
X142886188Y-147171229D01*
X142493092Y-147219610D02*
X142251188Y-147364753D01*
X142674521Y-147364753D02*
X142432616Y-147171229D01*
X142251188Y-147582467D02*
X142886188Y-147582467D01*
X142583807Y-147582467D02*
X142583807Y-147872753D01*
X142251188Y-147872753D02*
X142886188Y-147872753D01*
X142674521Y-148066276D02*
X142674521Y-148332371D01*
X142674521Y-148332371D02*
X142251188Y-148066276D01*
X142251188Y-148066276D02*
X142251188Y-148332371D01*
X142825711Y-117317761D02*
X142855950Y-117341952D01*
X142855950Y-117341952D02*
X142886188Y-117390333D01*
X142886188Y-117390333D02*
X142886188Y-117511285D01*
X142886188Y-117511285D02*
X142855950Y-117559666D01*
X142855950Y-117559666D02*
X142825711Y-117583857D01*
X142825711Y-117583857D02*
X142765235Y-117608047D01*
X142765235Y-117608047D02*
X142704759Y-117608047D01*
X142704759Y-117608047D02*
X142614045Y-117583857D01*
X142614045Y-117583857D02*
X142251188Y-117293571D01*
X142251188Y-117293571D02*
X142251188Y-117608047D01*
X142886188Y-117922524D02*
X142886188Y-117970905D01*
X142886188Y-117970905D02*
X142855950Y-118019286D01*
X142855950Y-118019286D02*
X142825711Y-118043476D01*
X142825711Y-118043476D02*
X142765235Y-118067667D01*
X142765235Y-118067667D02*
X142644283Y-118091857D01*
X142644283Y-118091857D02*
X142493092Y-118091857D01*
X142493092Y-118091857D02*
X142372140Y-118067667D01*
X142372140Y-118067667D02*
X142311664Y-118043476D01*
X142311664Y-118043476D02*
X142281426Y-118019286D01*
X142281426Y-118019286D02*
X142251188Y-117970905D01*
X142251188Y-117970905D02*
X142251188Y-117922524D01*
X142251188Y-117922524D02*
X142281426Y-117874143D01*
X142281426Y-117874143D02*
X142311664Y-117849952D01*
X142311664Y-117849952D02*
X142372140Y-117825762D01*
X142372140Y-117825762D02*
X142493092Y-117801571D01*
X142493092Y-117801571D02*
X142644283Y-117801571D01*
X142644283Y-117801571D02*
X142765235Y-117825762D01*
X142765235Y-117825762D02*
X142825711Y-117849952D01*
X142825711Y-117849952D02*
X142855950Y-117874143D01*
X142855950Y-117874143D02*
X142886188Y-117922524D01*
X142493092Y-118237000D02*
X142523330Y-118261191D01*
X142523330Y-118261191D02*
X142553569Y-118309572D01*
X142553569Y-118309572D02*
X142493092Y-118406334D01*
X142493092Y-118406334D02*
X142523330Y-118454715D01*
X142523330Y-118454715D02*
X142553569Y-118478905D01*
X142886188Y-118890143D02*
X142886188Y-118793381D01*
X142886188Y-118793381D02*
X142855950Y-118745000D01*
X142855950Y-118745000D02*
X142825711Y-118720810D01*
X142825711Y-118720810D02*
X142734997Y-118672429D01*
X142734997Y-118672429D02*
X142614045Y-118648238D01*
X142614045Y-118648238D02*
X142372140Y-118648238D01*
X142372140Y-118648238D02*
X142311664Y-118672429D01*
X142311664Y-118672429D02*
X142281426Y-118696619D01*
X142281426Y-118696619D02*
X142251188Y-118745000D01*
X142251188Y-118745000D02*
X142251188Y-118841762D01*
X142251188Y-118841762D02*
X142281426Y-118890143D01*
X142281426Y-118890143D02*
X142311664Y-118914334D01*
X142311664Y-118914334D02*
X142372140Y-118938524D01*
X142372140Y-118938524D02*
X142523330Y-118938524D01*
X142523330Y-118938524D02*
X142583807Y-118914334D01*
X142583807Y-118914334D02*
X142614045Y-118890143D01*
X142614045Y-118890143D02*
X142644283Y-118841762D01*
X142644283Y-118841762D02*
X142644283Y-118745000D01*
X142644283Y-118745000D02*
X142614045Y-118696619D01*
X142614045Y-118696619D02*
X142583807Y-118672429D01*
X142583807Y-118672429D02*
X142523330Y-118648238D01*
X142886188Y-119253001D02*
X142886188Y-119301382D01*
X142886188Y-119301382D02*
X142855950Y-119349763D01*
X142855950Y-119349763D02*
X142825711Y-119373953D01*
X142825711Y-119373953D02*
X142765235Y-119398144D01*
X142765235Y-119398144D02*
X142644283Y-119422334D01*
X142644283Y-119422334D02*
X142493092Y-119422334D01*
X142493092Y-119422334D02*
X142372140Y-119398144D01*
X142372140Y-119398144D02*
X142311664Y-119373953D01*
X142311664Y-119373953D02*
X142281426Y-119349763D01*
X142281426Y-119349763D02*
X142251188Y-119301382D01*
X142251188Y-119301382D02*
X142251188Y-119253001D01*
X142251188Y-119253001D02*
X142281426Y-119204620D01*
X142281426Y-119204620D02*
X142311664Y-119180429D01*
X142311664Y-119180429D02*
X142372140Y-119156239D01*
X142372140Y-119156239D02*
X142493092Y-119132048D01*
X142493092Y-119132048D02*
X142644283Y-119132048D01*
X142644283Y-119132048D02*
X142765235Y-119156239D01*
X142765235Y-119156239D02*
X142825711Y-119180429D01*
X142825711Y-119180429D02*
X142855950Y-119204620D01*
X142855950Y-119204620D02*
X142886188Y-119253001D01*
X142251188Y-119944849D02*
X142886188Y-119944849D01*
X142583807Y-119944849D02*
X142583807Y-120235135D01*
X142251188Y-120235135D02*
X142886188Y-120235135D01*
X142674521Y-120428658D02*
X142674521Y-120694753D01*
X142674521Y-120694753D02*
X142251188Y-120428658D01*
X142251188Y-120428658D02*
X142251188Y-120694753D01*
X147054811Y-124224142D02*
X147054811Y-124466047D01*
X147054811Y-124466047D02*
X146419811Y-124466047D01*
X146812907Y-124054809D02*
X146812907Y-123667762D01*
X147054811Y-122879152D02*
X147054811Y-123121057D01*
X147054811Y-123121057D02*
X146419811Y-123121057D01*
X146812907Y-122709819D02*
X146812907Y-122322772D01*
X147054811Y-122516295D02*
X146571002Y-122516295D01*
X129533952Y-143371811D02*
X129533952Y-142736811D01*
X129775857Y-143371811D02*
X129775857Y-142736811D01*
X129775857Y-142736811D02*
X130066143Y-143371811D01*
X130066143Y-143371811D02*
X130066143Y-142736811D01*
X130308047Y-143371811D02*
X130308047Y-142736811D01*
X130308047Y-142736811D02*
X130428999Y-142736811D01*
X130428999Y-142736811D02*
X130501571Y-142767050D01*
X130501571Y-142767050D02*
X130549952Y-142827526D01*
X130549952Y-142827526D02*
X130574142Y-142888002D01*
X130574142Y-142888002D02*
X130598333Y-143008954D01*
X130598333Y-143008954D02*
X130598333Y-143099669D01*
X130598333Y-143099669D02*
X130574142Y-143220621D01*
X130574142Y-143220621D02*
X130549952Y-143281097D01*
X130549952Y-143281097D02*
X130501571Y-143341573D01*
X130501571Y-143341573D02*
X130428999Y-143371811D01*
X130428999Y-143371811D02*
X130308047Y-143371811D01*
X128263952Y-149352907D02*
X128651000Y-149352907D01*
X128457476Y-149594811D02*
X128457476Y-149111002D01*
X128844523Y-148959811D02*
X129158999Y-148959811D01*
X129158999Y-148959811D02*
X128989666Y-149201716D01*
X128989666Y-149201716D02*
X129062237Y-149201716D01*
X129062237Y-149201716D02*
X129110618Y-149231954D01*
X129110618Y-149231954D02*
X129134809Y-149262192D01*
X129134809Y-149262192D02*
X129158999Y-149322669D01*
X129158999Y-149322669D02*
X129158999Y-149473859D01*
X129158999Y-149473859D02*
X129134809Y-149534335D01*
X129134809Y-149534335D02*
X129110618Y-149564573D01*
X129110618Y-149564573D02*
X129062237Y-149594811D01*
X129062237Y-149594811D02*
X128917094Y-149594811D01*
X128917094Y-149594811D02*
X128868713Y-149564573D01*
X128868713Y-149564573D02*
X128844523Y-149534335D01*
X129304142Y-148959811D02*
X129473476Y-149594811D01*
X129473476Y-149594811D02*
X129642809Y-148959811D01*
X129763762Y-148959811D02*
X130078238Y-148959811D01*
X130078238Y-148959811D02*
X129908905Y-149201716D01*
X129908905Y-149201716D02*
X129981476Y-149201716D01*
X129981476Y-149201716D02*
X130029857Y-149231954D01*
X130029857Y-149231954D02*
X130054048Y-149262192D01*
X130054048Y-149262192D02*
X130078238Y-149322669D01*
X130078238Y-149322669D02*
X130078238Y-149473859D01*
X130078238Y-149473859D02*
X130054048Y-149534335D01*
X130054048Y-149534335D02*
X130029857Y-149564573D01*
X130029857Y-149564573D02*
X129981476Y-149594811D01*
X129981476Y-149594811D02*
X129836333Y-149594811D01*
X129836333Y-149594811D02*
X129787952Y-149564573D01*
X129787952Y-149564573D02*
X129763762Y-149534335D01*
X130175001Y-149655288D02*
X130562048Y-149655288D01*
X130658810Y-149020288D02*
X130683001Y-148990050D01*
X130683001Y-148990050D02*
X130731382Y-148959811D01*
X130731382Y-148959811D02*
X130852334Y-148959811D01*
X130852334Y-148959811D02*
X130900715Y-148990050D01*
X130900715Y-148990050D02*
X130924906Y-149020288D01*
X130924906Y-149020288D02*
X130949096Y-149080764D01*
X130949096Y-149080764D02*
X130949096Y-149141240D01*
X130949096Y-149141240D02*
X130924906Y-149231954D01*
X130924906Y-149231954D02*
X130634620Y-149594811D01*
X130634620Y-149594811D02*
X130949096Y-149594811D01*
D11*
X110807428Y-137180571D02*
X110950285Y-137228190D01*
X110950285Y-137228190D02*
X110997904Y-137275809D01*
X110997904Y-137275809D02*
X111045523Y-137371047D01*
X111045523Y-137371047D02*
X111045523Y-137513904D01*
X111045523Y-137513904D02*
X110997904Y-137609142D01*
X110997904Y-137609142D02*
X110950285Y-137656761D01*
X110950285Y-137656761D02*
X110855047Y-137704380D01*
X110855047Y-137704380D02*
X110474095Y-137704380D01*
X110474095Y-137704380D02*
X110474095Y-136704380D01*
X110474095Y-136704380D02*
X110807428Y-136704380D01*
X110807428Y-136704380D02*
X110902666Y-136752000D01*
X110902666Y-136752000D02*
X110950285Y-136799619D01*
X110950285Y-136799619D02*
X110997904Y-136894857D01*
X110997904Y-136894857D02*
X110997904Y-136990095D01*
X110997904Y-136990095D02*
X110950285Y-137085333D01*
X110950285Y-137085333D02*
X110902666Y-137132952D01*
X110902666Y-137132952D02*
X110807428Y-137180571D01*
X110807428Y-137180571D02*
X110474095Y-137180571D01*
D10*
X118273285Y-155612192D02*
X118345857Y-155642430D01*
X118345857Y-155642430D02*
X118370047Y-155672669D01*
X118370047Y-155672669D02*
X118394238Y-155733145D01*
X118394238Y-155733145D02*
X118394238Y-155823859D01*
X118394238Y-155823859D02*
X118370047Y-155884335D01*
X118370047Y-155884335D02*
X118345857Y-155914573D01*
X118345857Y-155914573D02*
X118297476Y-155944811D01*
X118297476Y-155944811D02*
X118103952Y-155944811D01*
X118103952Y-155944811D02*
X118103952Y-155309811D01*
X118103952Y-155309811D02*
X118273285Y-155309811D01*
X118273285Y-155309811D02*
X118321666Y-155340050D01*
X118321666Y-155340050D02*
X118345857Y-155370288D01*
X118345857Y-155370288D02*
X118370047Y-155430764D01*
X118370047Y-155430764D02*
X118370047Y-155491240D01*
X118370047Y-155491240D02*
X118345857Y-155551716D01*
X118345857Y-155551716D02*
X118321666Y-155581954D01*
X118321666Y-155581954D02*
X118273285Y-155612192D01*
X118273285Y-155612192D02*
X118103952Y-155612192D01*
X118587761Y-155763383D02*
X118829666Y-155763383D01*
X118539380Y-155944811D02*
X118708714Y-155309811D01*
X118708714Y-155309811D02*
X118878047Y-155944811D01*
X118974809Y-155309811D02*
X119265095Y-155309811D01*
X119119952Y-155944811D02*
X119119952Y-155309811D01*
X119361857Y-155309811D02*
X119652143Y-155309811D01*
X119507000Y-155944811D02*
X119507000Y-155309811D01*
X133554711Y-127985761D02*
X133584950Y-128009952D01*
X133584950Y-128009952D02*
X133615188Y-128058333D01*
X133615188Y-128058333D02*
X133615188Y-128179285D01*
X133615188Y-128179285D02*
X133584950Y-128227666D01*
X133584950Y-128227666D02*
X133554711Y-128251857D01*
X133554711Y-128251857D02*
X133494235Y-128276047D01*
X133494235Y-128276047D02*
X133433759Y-128276047D01*
X133433759Y-128276047D02*
X133343045Y-128251857D01*
X133343045Y-128251857D02*
X132980188Y-127961571D01*
X132980188Y-127961571D02*
X132980188Y-128276047D01*
X133615188Y-128735667D02*
X133615188Y-128493762D01*
X133615188Y-128493762D02*
X133312807Y-128469571D01*
X133312807Y-128469571D02*
X133343045Y-128493762D01*
X133343045Y-128493762D02*
X133373283Y-128542143D01*
X133373283Y-128542143D02*
X133373283Y-128663095D01*
X133373283Y-128663095D02*
X133343045Y-128711476D01*
X133343045Y-128711476D02*
X133312807Y-128735667D01*
X133312807Y-128735667D02*
X133252330Y-128759857D01*
X133252330Y-128759857D02*
X133101140Y-128759857D01*
X133101140Y-128759857D02*
X133040664Y-128735667D01*
X133040664Y-128735667D02*
X133010426Y-128711476D01*
X133010426Y-128711476D02*
X132980188Y-128663095D01*
X132980188Y-128663095D02*
X132980188Y-128542143D01*
X132980188Y-128542143D02*
X133010426Y-128493762D01*
X133010426Y-128493762D02*
X133040664Y-128469571D01*
X133615188Y-129074334D02*
X133615188Y-129122715D01*
X133615188Y-129122715D02*
X133584950Y-129171096D01*
X133584950Y-129171096D02*
X133554711Y-129195286D01*
X133554711Y-129195286D02*
X133494235Y-129219477D01*
X133494235Y-129219477D02*
X133373283Y-129243667D01*
X133373283Y-129243667D02*
X133222092Y-129243667D01*
X133222092Y-129243667D02*
X133101140Y-129219477D01*
X133101140Y-129219477D02*
X133040664Y-129195286D01*
X133040664Y-129195286D02*
X133010426Y-129171096D01*
X133010426Y-129171096D02*
X132980188Y-129122715D01*
X132980188Y-129122715D02*
X132980188Y-129074334D01*
X132980188Y-129074334D02*
X133010426Y-129025953D01*
X133010426Y-129025953D02*
X133040664Y-129001762D01*
X133040664Y-129001762D02*
X133101140Y-128977572D01*
X133101140Y-128977572D02*
X133222092Y-128953381D01*
X133222092Y-128953381D02*
X133373283Y-128953381D01*
X133373283Y-128953381D02*
X133494235Y-128977572D01*
X133494235Y-128977572D02*
X133554711Y-129001762D01*
X133554711Y-129001762D02*
X133584950Y-129025953D01*
X133584950Y-129025953D02*
X133615188Y-129074334D01*
X133222092Y-129388810D02*
X133252330Y-129413001D01*
X133252330Y-129413001D02*
X133282569Y-129461382D01*
X133282569Y-129461382D02*
X133222092Y-129558144D01*
X133222092Y-129558144D02*
X133252330Y-129606525D01*
X133252330Y-129606525D02*
X133282569Y-129630715D01*
X133615188Y-130066144D02*
X133615188Y-129824239D01*
X133615188Y-129824239D02*
X133312807Y-129800048D01*
X133312807Y-129800048D02*
X133343045Y-129824239D01*
X133343045Y-129824239D02*
X133373283Y-129872620D01*
X133373283Y-129872620D02*
X133373283Y-129993572D01*
X133373283Y-129993572D02*
X133343045Y-130041953D01*
X133343045Y-130041953D02*
X133312807Y-130066144D01*
X133312807Y-130066144D02*
X133252330Y-130090334D01*
X133252330Y-130090334D02*
X133101140Y-130090334D01*
X133101140Y-130090334D02*
X133040664Y-130066144D01*
X133040664Y-130066144D02*
X133010426Y-130041953D01*
X133010426Y-130041953D02*
X132980188Y-129993572D01*
X132980188Y-129993572D02*
X132980188Y-129872620D01*
X132980188Y-129872620D02*
X133010426Y-129824239D01*
X133010426Y-129824239D02*
X133040664Y-129800048D01*
X133615188Y-130404811D02*
X133615188Y-130453192D01*
X133615188Y-130453192D02*
X133584950Y-130501573D01*
X133584950Y-130501573D02*
X133554711Y-130525763D01*
X133554711Y-130525763D02*
X133494235Y-130549954D01*
X133494235Y-130549954D02*
X133373283Y-130574144D01*
X133373283Y-130574144D02*
X133222092Y-130574144D01*
X133222092Y-130574144D02*
X133101140Y-130549954D01*
X133101140Y-130549954D02*
X133040664Y-130525763D01*
X133040664Y-130525763D02*
X133010426Y-130501573D01*
X133010426Y-130501573D02*
X132980188Y-130453192D01*
X132980188Y-130453192D02*
X132980188Y-130404811D01*
X132980188Y-130404811D02*
X133010426Y-130356430D01*
X133010426Y-130356430D02*
X133040664Y-130332239D01*
X133040664Y-130332239D02*
X133101140Y-130308049D01*
X133101140Y-130308049D02*
X133222092Y-130283858D01*
X133222092Y-130283858D02*
X133373283Y-130283858D01*
X133373283Y-130283858D02*
X133494235Y-130308049D01*
X133494235Y-130308049D02*
X133554711Y-130332239D01*
X133554711Y-130332239D02*
X133584950Y-130356430D01*
X133584950Y-130356430D02*
X133615188Y-130404811D01*
X133615188Y-130888621D02*
X133615188Y-130937002D01*
X133615188Y-130937002D02*
X133584950Y-130985383D01*
X133584950Y-130985383D02*
X133554711Y-131009573D01*
X133554711Y-131009573D02*
X133494235Y-131033764D01*
X133494235Y-131033764D02*
X133373283Y-131057954D01*
X133373283Y-131057954D02*
X133222092Y-131057954D01*
X133222092Y-131057954D02*
X133101140Y-131033764D01*
X133101140Y-131033764D02*
X133040664Y-131009573D01*
X133040664Y-131009573D02*
X133010426Y-130985383D01*
X133010426Y-130985383D02*
X132980188Y-130937002D01*
X132980188Y-130937002D02*
X132980188Y-130888621D01*
X132980188Y-130888621D02*
X133010426Y-130840240D01*
X133010426Y-130840240D02*
X133040664Y-130816049D01*
X133040664Y-130816049D02*
X133101140Y-130791859D01*
X133101140Y-130791859D02*
X133222092Y-130767668D01*
X133222092Y-130767668D02*
X133373283Y-130767668D01*
X133373283Y-130767668D02*
X133494235Y-130791859D01*
X133494235Y-130791859D02*
X133554711Y-130816049D01*
X133554711Y-130816049D02*
X133584950Y-130840240D01*
X133584950Y-130840240D02*
X133615188Y-130888621D01*
X132980188Y-131580469D02*
X133615188Y-131580469D01*
X133312807Y-131580469D02*
X133312807Y-131870755D01*
X132980188Y-131870755D02*
X133615188Y-131870755D01*
X133403521Y-132064278D02*
X133403521Y-132330373D01*
X133403521Y-132330373D02*
X132980188Y-132064278D01*
X132980188Y-132064278D02*
X132980188Y-132330373D01*
X147054811Y-120619761D02*
X146752430Y-120789095D01*
X147054811Y-120910047D02*
X146419811Y-120910047D01*
X146419811Y-120910047D02*
X146419811Y-120716523D01*
X146419811Y-120716523D02*
X146450050Y-120668142D01*
X146450050Y-120668142D02*
X146480288Y-120643952D01*
X146480288Y-120643952D02*
X146540764Y-120619761D01*
X146540764Y-120619761D02*
X146631478Y-120619761D01*
X146631478Y-120619761D02*
X146691954Y-120643952D01*
X146691954Y-120643952D02*
X146722192Y-120668142D01*
X146722192Y-120668142D02*
X146752430Y-120716523D01*
X146752430Y-120716523D02*
X146752430Y-120910047D01*
X146812907Y-120402047D02*
X146812907Y-120015000D01*
X147054811Y-120208523D02*
X146571002Y-120208523D01*
X147054811Y-119178009D02*
X146752430Y-119347343D01*
X147054811Y-119468295D02*
X146419811Y-119468295D01*
X146419811Y-119468295D02*
X146419811Y-119274771D01*
X146419811Y-119274771D02*
X146450050Y-119226390D01*
X146450050Y-119226390D02*
X146480288Y-119202200D01*
X146480288Y-119202200D02*
X146540764Y-119178009D01*
X146540764Y-119178009D02*
X146631478Y-119178009D01*
X146631478Y-119178009D02*
X146691954Y-119202200D01*
X146691954Y-119202200D02*
X146722192Y-119226390D01*
X146722192Y-119226390D02*
X146752430Y-119274771D01*
X146752430Y-119274771D02*
X146752430Y-119468295D01*
X146812907Y-118960295D02*
X146812907Y-118573248D01*
X147308811Y-129419047D02*
X146673811Y-129419047D01*
X146673811Y-129419047D02*
X146673811Y-129225523D01*
X146673811Y-129225523D02*
X146704050Y-129177142D01*
X146704050Y-129177142D02*
X146734288Y-129152952D01*
X146734288Y-129152952D02*
X146794764Y-129128761D01*
X146794764Y-129128761D02*
X146885478Y-129128761D01*
X146885478Y-129128761D02*
X146945954Y-129152952D01*
X146945954Y-129152952D02*
X146976192Y-129177142D01*
X146976192Y-129177142D02*
X147006430Y-129225523D01*
X147006430Y-129225523D02*
X147006430Y-129419047D01*
X146734288Y-128935238D02*
X146704050Y-128911047D01*
X146704050Y-128911047D02*
X146673811Y-128862666D01*
X146673811Y-128862666D02*
X146673811Y-128741714D01*
X146673811Y-128741714D02*
X146704050Y-128693333D01*
X146704050Y-128693333D02*
X146734288Y-128669142D01*
X146734288Y-128669142D02*
X146794764Y-128644952D01*
X146794764Y-128644952D02*
X146855240Y-128644952D01*
X146855240Y-128644952D02*
X146945954Y-128669142D01*
X146945954Y-128669142D02*
X147308811Y-128959428D01*
X147308811Y-128959428D02*
X147308811Y-128644952D01*
X147308811Y-128122437D02*
X146673811Y-128122437D01*
X146673811Y-128122437D02*
X146673811Y-127928913D01*
X146673811Y-127928913D02*
X146704050Y-127880532D01*
X146704050Y-127880532D02*
X146734288Y-127856342D01*
X146734288Y-127856342D02*
X146794764Y-127832151D01*
X146794764Y-127832151D02*
X146885478Y-127832151D01*
X146885478Y-127832151D02*
X146945954Y-127856342D01*
X146945954Y-127856342D02*
X146976192Y-127880532D01*
X146976192Y-127880532D02*
X147006430Y-127928913D01*
X147006430Y-127928913D02*
X147006430Y-128122437D01*
X147308811Y-127348342D02*
X147308811Y-127638628D01*
X147308811Y-127493485D02*
X146673811Y-127493485D01*
X146673811Y-127493485D02*
X146764526Y-127541866D01*
X146764526Y-127541866D02*
X146825002Y-127590247D01*
X146825002Y-127590247D02*
X146855240Y-127638628D01*
X147308811Y-126825827D02*
X146673811Y-126825827D01*
X146673811Y-126825827D02*
X146673811Y-126632303D01*
X146673811Y-126632303D02*
X146704050Y-126583922D01*
X146704050Y-126583922D02*
X146734288Y-126559732D01*
X146734288Y-126559732D02*
X146794764Y-126535541D01*
X146794764Y-126535541D02*
X146885478Y-126535541D01*
X146885478Y-126535541D02*
X146945954Y-126559732D01*
X146945954Y-126559732D02*
X146976192Y-126583922D01*
X146976192Y-126583922D02*
X147006430Y-126632303D01*
X147006430Y-126632303D02*
X147006430Y-126825827D01*
X146673811Y-126366208D02*
X146673811Y-126051732D01*
X146673811Y-126051732D02*
X146915716Y-126221065D01*
X146915716Y-126221065D02*
X146915716Y-126148494D01*
X146915716Y-126148494D02*
X146945954Y-126100113D01*
X146945954Y-126100113D02*
X146976192Y-126075922D01*
X146976192Y-126075922D02*
X147036669Y-126051732D01*
X147036669Y-126051732D02*
X147187859Y-126051732D01*
X147187859Y-126051732D02*
X147248335Y-126075922D01*
X147248335Y-126075922D02*
X147278573Y-126100113D01*
X147278573Y-126100113D02*
X147308811Y-126148494D01*
X147308811Y-126148494D02*
X147308811Y-126293637D01*
X147308811Y-126293637D02*
X147278573Y-126342018D01*
X147278573Y-126342018D02*
X147248335Y-126366208D01*
X125215952Y-149352907D02*
X125603000Y-149352907D01*
X125409476Y-149594811D02*
X125409476Y-149111002D01*
X125796523Y-148959811D02*
X126110999Y-148959811D01*
X126110999Y-148959811D02*
X125941666Y-149201716D01*
X125941666Y-149201716D02*
X126014237Y-149201716D01*
X126014237Y-149201716D02*
X126062618Y-149231954D01*
X126062618Y-149231954D02*
X126086809Y-149262192D01*
X126086809Y-149262192D02*
X126110999Y-149322669D01*
X126110999Y-149322669D02*
X126110999Y-149473859D01*
X126110999Y-149473859D02*
X126086809Y-149534335D01*
X126086809Y-149534335D02*
X126062618Y-149564573D01*
X126062618Y-149564573D02*
X126014237Y-149594811D01*
X126014237Y-149594811D02*
X125869094Y-149594811D01*
X125869094Y-149594811D02*
X125820713Y-149564573D01*
X125820713Y-149564573D02*
X125796523Y-149534335D01*
X126256142Y-148959811D02*
X126425476Y-149594811D01*
X126425476Y-149594811D02*
X126594809Y-148959811D01*
X126715762Y-148959811D02*
X127030238Y-148959811D01*
X127030238Y-148959811D02*
X126860905Y-149201716D01*
X126860905Y-149201716D02*
X126933476Y-149201716D01*
X126933476Y-149201716D02*
X126981857Y-149231954D01*
X126981857Y-149231954D02*
X127006048Y-149262192D01*
X127006048Y-149262192D02*
X127030238Y-149322669D01*
X127030238Y-149322669D02*
X127030238Y-149473859D01*
X127030238Y-149473859D02*
X127006048Y-149534335D01*
X127006048Y-149534335D02*
X126981857Y-149564573D01*
X126981857Y-149564573D02*
X126933476Y-149594811D01*
X126933476Y-149594811D02*
X126788333Y-149594811D01*
X126788333Y-149594811D02*
X126739952Y-149564573D01*
X126739952Y-149564573D02*
X126715762Y-149534335D01*
X127127001Y-149655288D02*
X127514048Y-149655288D01*
X127901096Y-149594811D02*
X127610810Y-149594811D01*
X127755953Y-149594811D02*
X127755953Y-148959811D01*
X127755953Y-148959811D02*
X127707572Y-149050526D01*
X127707572Y-149050526D02*
X127659191Y-149111002D01*
X127659191Y-149111002D02*
X127610810Y-149141240D01*
D11*
X146165761Y-124650523D02*
X146213380Y-124507666D01*
X146213380Y-124507666D02*
X146213380Y-124269571D01*
X146213380Y-124269571D02*
X146165761Y-124174333D01*
X146165761Y-124174333D02*
X146118142Y-124126714D01*
X146118142Y-124126714D02*
X146022904Y-124079095D01*
X146022904Y-124079095D02*
X145927666Y-124079095D01*
X145927666Y-124079095D02*
X145832428Y-124126714D01*
X145832428Y-124126714D02*
X145784809Y-124174333D01*
X145784809Y-124174333D02*
X145737190Y-124269571D01*
X145737190Y-124269571D02*
X145689571Y-124460047D01*
X145689571Y-124460047D02*
X145641952Y-124555285D01*
X145641952Y-124555285D02*
X145594333Y-124602904D01*
X145594333Y-124602904D02*
X145499095Y-124650523D01*
X145499095Y-124650523D02*
X145403857Y-124650523D01*
X145403857Y-124650523D02*
X145308619Y-124602904D01*
X145308619Y-124602904D02*
X145261000Y-124555285D01*
X145261000Y-124555285D02*
X145213380Y-124460047D01*
X145213380Y-124460047D02*
X145213380Y-124221952D01*
X145213380Y-124221952D02*
X145261000Y-124079095D01*
X146213380Y-123650523D02*
X145213380Y-123650523D01*
X145213380Y-123650523D02*
X145213380Y-123269571D01*
X145213380Y-123269571D02*
X145261000Y-123174333D01*
X145261000Y-123174333D02*
X145308619Y-123126714D01*
X145308619Y-123126714D02*
X145403857Y-123079095D01*
X145403857Y-123079095D02*
X145546714Y-123079095D01*
X145546714Y-123079095D02*
X145641952Y-123126714D01*
X145641952Y-123126714D02*
X145689571Y-123174333D01*
X145689571Y-123174333D02*
X145737190Y-123269571D01*
X145737190Y-123269571D02*
X145737190Y-123650523D01*
X145689571Y-122650523D02*
X145689571Y-122317190D01*
X146213380Y-122174333D02*
X146213380Y-122650523D01*
X146213380Y-122650523D02*
X145213380Y-122650523D01*
X145213380Y-122650523D02*
X145213380Y-122174333D01*
X145927666Y-121793380D02*
X145927666Y-121317190D01*
X146213380Y-121888618D02*
X145213380Y-121555285D01*
X145213380Y-121555285D02*
X146213380Y-121221952D01*
X146213380Y-120888618D02*
X145213380Y-120888618D01*
X146213380Y-120317190D02*
X145641952Y-120745761D01*
X145213380Y-120317190D02*
X145784809Y-120888618D01*
X145689571Y-119888618D02*
X145689571Y-119555285D01*
X146213380Y-119412428D02*
X146213380Y-119888618D01*
X146213380Y-119888618D02*
X145213380Y-119888618D01*
X145213380Y-119888618D02*
X145213380Y-119412428D01*
X146213380Y-118412428D02*
X145737190Y-118745761D01*
X146213380Y-118983856D02*
X145213380Y-118983856D01*
X145213380Y-118983856D02*
X145213380Y-118602904D01*
X145213380Y-118602904D02*
X145261000Y-118507666D01*
X145261000Y-118507666D02*
X145308619Y-118460047D01*
X145308619Y-118460047D02*
X145403857Y-118412428D01*
X145403857Y-118412428D02*
X145546714Y-118412428D01*
X145546714Y-118412428D02*
X145641952Y-118460047D01*
X145641952Y-118460047D02*
X145689571Y-118507666D01*
X145689571Y-118507666D02*
X145737190Y-118602904D01*
X145737190Y-118602904D02*
X145737190Y-118983856D01*
X110918523Y-126655380D02*
X110585190Y-126179190D01*
X110347095Y-126655380D02*
X110347095Y-125655380D01*
X110347095Y-125655380D02*
X110728047Y-125655380D01*
X110728047Y-125655380D02*
X110823285Y-125703000D01*
X110823285Y-125703000D02*
X110870904Y-125750619D01*
X110870904Y-125750619D02*
X110918523Y-125845857D01*
X110918523Y-125845857D02*
X110918523Y-125988714D01*
X110918523Y-125988714D02*
X110870904Y-126083952D01*
X110870904Y-126083952D02*
X110823285Y-126131571D01*
X110823285Y-126131571D02*
X110728047Y-126179190D01*
X110728047Y-126179190D02*
X110347095Y-126179190D01*
D10*
X143884952Y-152400907D02*
X144272000Y-152400907D01*
X144078476Y-152642811D02*
X144078476Y-152159002D01*
X144755809Y-152007811D02*
X144513904Y-152007811D01*
X144513904Y-152007811D02*
X144489713Y-152310192D01*
X144489713Y-152310192D02*
X144513904Y-152279954D01*
X144513904Y-152279954D02*
X144562285Y-152249716D01*
X144562285Y-152249716D02*
X144683237Y-152249716D01*
X144683237Y-152249716D02*
X144731618Y-152279954D01*
X144731618Y-152279954D02*
X144755809Y-152310192D01*
X144755809Y-152310192D02*
X144779999Y-152370669D01*
X144779999Y-152370669D02*
X144779999Y-152521859D01*
X144779999Y-152521859D02*
X144755809Y-152582335D01*
X144755809Y-152582335D02*
X144731618Y-152612573D01*
X144731618Y-152612573D02*
X144683237Y-152642811D01*
X144683237Y-152642811D02*
X144562285Y-152642811D01*
X144562285Y-152642811D02*
X144513904Y-152612573D01*
X144513904Y-152612573D02*
X144489713Y-152582335D01*
X144925142Y-152007811D02*
X145094476Y-152642811D01*
X145094476Y-152642811D02*
X145263809Y-152007811D01*
X145312191Y-152703288D02*
X145699238Y-152703288D01*
X146086286Y-152642811D02*
X145796000Y-152642811D01*
X145941143Y-152642811D02*
X145941143Y-152007811D01*
X145941143Y-152007811D02*
X145892762Y-152098526D01*
X145892762Y-152098526D02*
X145844381Y-152159002D01*
X145844381Y-152159002D02*
X145796000Y-152189240D01*
X146546811Y-151275142D02*
X146546811Y-151517047D01*
X146546811Y-151517047D02*
X146849192Y-151541238D01*
X146849192Y-151541238D02*
X146818954Y-151517047D01*
X146818954Y-151517047D02*
X146788716Y-151468666D01*
X146788716Y-151468666D02*
X146788716Y-151347714D01*
X146788716Y-151347714D02*
X146818954Y-151299333D01*
X146818954Y-151299333D02*
X146849192Y-151275142D01*
X146849192Y-151275142D02*
X146909669Y-151250952D01*
X146909669Y-151250952D02*
X147060859Y-151250952D01*
X147060859Y-151250952D02*
X147121335Y-151275142D01*
X147121335Y-151275142D02*
X147151573Y-151299333D01*
X147151573Y-151299333D02*
X147181811Y-151347714D01*
X147181811Y-151347714D02*
X147181811Y-151468666D01*
X147181811Y-151468666D02*
X147151573Y-151517047D01*
X147151573Y-151517047D02*
X147121335Y-151541238D01*
X146546811Y-151105809D02*
X147181811Y-150936475D01*
X147181811Y-150936475D02*
X146546811Y-150767142D01*
X146546811Y-150196246D02*
X146546811Y-150147865D01*
X146546811Y-150147865D02*
X146577050Y-150099484D01*
X146577050Y-150099484D02*
X146607288Y-150075294D01*
X146607288Y-150075294D02*
X146667764Y-150051103D01*
X146667764Y-150051103D02*
X146788716Y-150026913D01*
X146788716Y-150026913D02*
X146939907Y-150026913D01*
X146939907Y-150026913D02*
X147060859Y-150051103D01*
X147060859Y-150051103D02*
X147121335Y-150075294D01*
X147121335Y-150075294D02*
X147151573Y-150099484D01*
X147151573Y-150099484D02*
X147181811Y-150147865D01*
X147181811Y-150147865D02*
X147181811Y-150196246D01*
X147181811Y-150196246D02*
X147151573Y-150244627D01*
X147151573Y-150244627D02*
X147121335Y-150268818D01*
X147121335Y-150268818D02*
X147060859Y-150293008D01*
X147060859Y-150293008D02*
X146939907Y-150317199D01*
X146939907Y-150317199D02*
X146788716Y-150317199D01*
X146788716Y-150317199D02*
X146667764Y-150293008D01*
X146667764Y-150293008D02*
X146607288Y-150268818D01*
X146607288Y-150268818D02*
X146577050Y-150244627D01*
X146577050Y-150244627D02*
X146546811Y-150196246D01*
X146546811Y-149881770D02*
X147181811Y-149712436D01*
X147181811Y-149712436D02*
X146546811Y-149543103D01*
X122421952Y-146304907D02*
X122809000Y-146304907D01*
X122615476Y-146546811D02*
X122615476Y-146063002D01*
X123292809Y-145911811D02*
X123050904Y-145911811D01*
X123050904Y-145911811D02*
X123026713Y-146214192D01*
X123026713Y-146214192D02*
X123050904Y-146183954D01*
X123050904Y-146183954D02*
X123099285Y-146153716D01*
X123099285Y-146153716D02*
X123220237Y-146153716D01*
X123220237Y-146153716D02*
X123268618Y-146183954D01*
X123268618Y-146183954D02*
X123292809Y-146214192D01*
X123292809Y-146214192D02*
X123316999Y-146274669D01*
X123316999Y-146274669D02*
X123316999Y-146425859D01*
X123316999Y-146425859D02*
X123292809Y-146486335D01*
X123292809Y-146486335D02*
X123268618Y-146516573D01*
X123268618Y-146516573D02*
X123220237Y-146546811D01*
X123220237Y-146546811D02*
X123099285Y-146546811D01*
X123099285Y-146546811D02*
X123050904Y-146516573D01*
X123050904Y-146516573D02*
X123026713Y-146486335D01*
X123462142Y-145911811D02*
X123631476Y-146546811D01*
X123631476Y-146546811D02*
X123800809Y-145911811D01*
D11*
X110997904Y-131545000D02*
X110902666Y-131497380D01*
X110902666Y-131497380D02*
X110759809Y-131497380D01*
X110759809Y-131497380D02*
X110616952Y-131545000D01*
X110616952Y-131545000D02*
X110521714Y-131640238D01*
X110521714Y-131640238D02*
X110474095Y-131735476D01*
X110474095Y-131735476D02*
X110426476Y-131925952D01*
X110426476Y-131925952D02*
X110426476Y-132068809D01*
X110426476Y-132068809D02*
X110474095Y-132259285D01*
X110474095Y-132259285D02*
X110521714Y-132354523D01*
X110521714Y-132354523D02*
X110616952Y-132449761D01*
X110616952Y-132449761D02*
X110759809Y-132497380D01*
X110759809Y-132497380D02*
X110855047Y-132497380D01*
X110855047Y-132497380D02*
X110997904Y-132449761D01*
X110997904Y-132449761D02*
X111045523Y-132402142D01*
X111045523Y-132402142D02*
X111045523Y-132068809D01*
X111045523Y-132068809D02*
X110855047Y-132068809D01*
D10*
X133488188Y-133458857D02*
X133488188Y-133216952D01*
X133488188Y-133216952D02*
X133185807Y-133192761D01*
X133185807Y-133192761D02*
X133216045Y-133216952D01*
X133216045Y-133216952D02*
X133246283Y-133265333D01*
X133246283Y-133265333D02*
X133246283Y-133386285D01*
X133246283Y-133386285D02*
X133216045Y-133434666D01*
X133216045Y-133434666D02*
X133185807Y-133458857D01*
X133185807Y-133458857D02*
X133125330Y-133483047D01*
X133125330Y-133483047D02*
X132974140Y-133483047D01*
X132974140Y-133483047D02*
X132913664Y-133458857D01*
X132913664Y-133458857D02*
X132883426Y-133434666D01*
X132883426Y-133434666D02*
X132853188Y-133386285D01*
X132853188Y-133386285D02*
X132853188Y-133265333D01*
X132853188Y-133265333D02*
X132883426Y-133216952D01*
X132883426Y-133216952D02*
X132913664Y-133192761D01*
X133488188Y-133797524D02*
X133488188Y-133845905D01*
X133488188Y-133845905D02*
X133457950Y-133894286D01*
X133457950Y-133894286D02*
X133427711Y-133918476D01*
X133427711Y-133918476D02*
X133367235Y-133942667D01*
X133367235Y-133942667D02*
X133246283Y-133966857D01*
X133246283Y-133966857D02*
X133095092Y-133966857D01*
X133095092Y-133966857D02*
X132974140Y-133942667D01*
X132974140Y-133942667D02*
X132913664Y-133918476D01*
X132913664Y-133918476D02*
X132883426Y-133894286D01*
X132883426Y-133894286D02*
X132853188Y-133845905D01*
X132853188Y-133845905D02*
X132853188Y-133797524D01*
X132853188Y-133797524D02*
X132883426Y-133749143D01*
X132883426Y-133749143D02*
X132913664Y-133724952D01*
X132913664Y-133724952D02*
X132974140Y-133700762D01*
X132974140Y-133700762D02*
X133095092Y-133676571D01*
X133095092Y-133676571D02*
X133246283Y-133676571D01*
X133246283Y-133676571D02*
X133367235Y-133700762D01*
X133367235Y-133700762D02*
X133427711Y-133724952D01*
X133427711Y-133724952D02*
X133457950Y-133749143D01*
X133457950Y-133749143D02*
X133488188Y-133797524D01*
X133488188Y-134281334D02*
X133488188Y-134329715D01*
X133488188Y-134329715D02*
X133457950Y-134378096D01*
X133457950Y-134378096D02*
X133427711Y-134402286D01*
X133427711Y-134402286D02*
X133367235Y-134426477D01*
X133367235Y-134426477D02*
X133246283Y-134450667D01*
X133246283Y-134450667D02*
X133095092Y-134450667D01*
X133095092Y-134450667D02*
X132974140Y-134426477D01*
X132974140Y-134426477D02*
X132913664Y-134402286D01*
X132913664Y-134402286D02*
X132883426Y-134378096D01*
X132883426Y-134378096D02*
X132853188Y-134329715D01*
X132853188Y-134329715D02*
X132853188Y-134281334D01*
X132853188Y-134281334D02*
X132883426Y-134232953D01*
X132883426Y-134232953D02*
X132913664Y-134208762D01*
X132913664Y-134208762D02*
X132974140Y-134184572D01*
X132974140Y-134184572D02*
X133095092Y-134160381D01*
X133095092Y-134160381D02*
X133246283Y-134160381D01*
X133246283Y-134160381D02*
X133367235Y-134184572D01*
X133367235Y-134184572D02*
X133427711Y-134208762D01*
X133427711Y-134208762D02*
X133457950Y-134232953D01*
X133457950Y-134232953D02*
X133488188Y-134281334D01*
X133095092Y-134595810D02*
X133125330Y-134620001D01*
X133125330Y-134620001D02*
X133155569Y-134668382D01*
X133155569Y-134668382D02*
X133095092Y-134765144D01*
X133095092Y-134765144D02*
X133125330Y-134813525D01*
X133125330Y-134813525D02*
X133155569Y-134837715D01*
X133427711Y-135007048D02*
X133457950Y-135031239D01*
X133457950Y-135031239D02*
X133488188Y-135079620D01*
X133488188Y-135079620D02*
X133488188Y-135200572D01*
X133488188Y-135200572D02*
X133457950Y-135248953D01*
X133457950Y-135248953D02*
X133427711Y-135273144D01*
X133427711Y-135273144D02*
X133367235Y-135297334D01*
X133367235Y-135297334D02*
X133306759Y-135297334D01*
X133306759Y-135297334D02*
X133216045Y-135273144D01*
X133216045Y-135273144D02*
X132853188Y-134982858D01*
X132853188Y-134982858D02*
X132853188Y-135297334D01*
X133488188Y-135611811D02*
X133488188Y-135660192D01*
X133488188Y-135660192D02*
X133457950Y-135708573D01*
X133457950Y-135708573D02*
X133427711Y-135732763D01*
X133427711Y-135732763D02*
X133367235Y-135756954D01*
X133367235Y-135756954D02*
X133246283Y-135781144D01*
X133246283Y-135781144D02*
X133095092Y-135781144D01*
X133095092Y-135781144D02*
X132974140Y-135756954D01*
X132974140Y-135756954D02*
X132913664Y-135732763D01*
X132913664Y-135732763D02*
X132883426Y-135708573D01*
X132883426Y-135708573D02*
X132853188Y-135660192D01*
X132853188Y-135660192D02*
X132853188Y-135611811D01*
X132853188Y-135611811D02*
X132883426Y-135563430D01*
X132883426Y-135563430D02*
X132913664Y-135539239D01*
X132913664Y-135539239D02*
X132974140Y-135515049D01*
X132974140Y-135515049D02*
X133095092Y-135490858D01*
X133095092Y-135490858D02*
X133246283Y-135490858D01*
X133246283Y-135490858D02*
X133367235Y-135515049D01*
X133367235Y-135515049D02*
X133427711Y-135539239D01*
X133427711Y-135539239D02*
X133457950Y-135563430D01*
X133457950Y-135563430D02*
X133488188Y-135611811D01*
X133488188Y-136095621D02*
X133488188Y-136144002D01*
X133488188Y-136144002D02*
X133457950Y-136192383D01*
X133457950Y-136192383D02*
X133427711Y-136216573D01*
X133427711Y-136216573D02*
X133367235Y-136240764D01*
X133367235Y-136240764D02*
X133246283Y-136264954D01*
X133246283Y-136264954D02*
X133095092Y-136264954D01*
X133095092Y-136264954D02*
X132974140Y-136240764D01*
X132974140Y-136240764D02*
X132913664Y-136216573D01*
X132913664Y-136216573D02*
X132883426Y-136192383D01*
X132883426Y-136192383D02*
X132853188Y-136144002D01*
X132853188Y-136144002D02*
X132853188Y-136095621D01*
X132853188Y-136095621D02*
X132883426Y-136047240D01*
X132883426Y-136047240D02*
X132913664Y-136023049D01*
X132913664Y-136023049D02*
X132974140Y-135998859D01*
X132974140Y-135998859D02*
X133095092Y-135974668D01*
X133095092Y-135974668D02*
X133246283Y-135974668D01*
X133246283Y-135974668D02*
X133367235Y-135998859D01*
X133367235Y-135998859D02*
X133427711Y-136023049D01*
X133427711Y-136023049D02*
X133457950Y-136047240D01*
X133457950Y-136047240D02*
X133488188Y-136095621D01*
X133488188Y-136579431D02*
X133488188Y-136627812D01*
X133488188Y-136627812D02*
X133457950Y-136676193D01*
X133457950Y-136676193D02*
X133427711Y-136700383D01*
X133427711Y-136700383D02*
X133367235Y-136724574D01*
X133367235Y-136724574D02*
X133246283Y-136748764D01*
X133246283Y-136748764D02*
X133095092Y-136748764D01*
X133095092Y-136748764D02*
X132974140Y-136724574D01*
X132974140Y-136724574D02*
X132913664Y-136700383D01*
X132913664Y-136700383D02*
X132883426Y-136676193D01*
X132883426Y-136676193D02*
X132853188Y-136627812D01*
X132853188Y-136627812D02*
X132853188Y-136579431D01*
X132853188Y-136579431D02*
X132883426Y-136531050D01*
X132883426Y-136531050D02*
X132913664Y-136506859D01*
X132913664Y-136506859D02*
X132974140Y-136482669D01*
X132974140Y-136482669D02*
X133095092Y-136458478D01*
X133095092Y-136458478D02*
X133246283Y-136458478D01*
X133246283Y-136458478D02*
X133367235Y-136482669D01*
X133367235Y-136482669D02*
X133427711Y-136506859D01*
X133427711Y-136506859D02*
X133457950Y-136531050D01*
X133457950Y-136531050D02*
X133488188Y-136579431D01*
X132853188Y-137271279D02*
X133488188Y-137271279D01*
X133185807Y-137271279D02*
X133185807Y-137561565D01*
X132853188Y-137561565D02*
X133488188Y-137561565D01*
X133276521Y-137755088D02*
X133276521Y-138021183D01*
X133276521Y-138021183D02*
X132853188Y-137755088D01*
X132853188Y-137755088D02*
X132853188Y-138021183D01*
X118606952Y-121467811D02*
X118606952Y-120832811D01*
X118606952Y-120832811D02*
X118727904Y-120832811D01*
X118727904Y-120832811D02*
X118800476Y-120863050D01*
X118800476Y-120863050D02*
X118848857Y-120923526D01*
X118848857Y-120923526D02*
X118873047Y-120984002D01*
X118873047Y-120984002D02*
X118897238Y-121104954D01*
X118897238Y-121104954D02*
X118897238Y-121195669D01*
X118897238Y-121195669D02*
X118873047Y-121316621D01*
X118873047Y-121316621D02*
X118848857Y-121377097D01*
X118848857Y-121377097D02*
X118800476Y-121437573D01*
X118800476Y-121437573D02*
X118727904Y-121467811D01*
X118727904Y-121467811D02*
X118606952Y-121467811D01*
X119405238Y-121407335D02*
X119381047Y-121437573D01*
X119381047Y-121437573D02*
X119308476Y-121467811D01*
X119308476Y-121467811D02*
X119260095Y-121467811D01*
X119260095Y-121467811D02*
X119187523Y-121437573D01*
X119187523Y-121437573D02*
X119139142Y-121377097D01*
X119139142Y-121377097D02*
X119114952Y-121316621D01*
X119114952Y-121316621D02*
X119090761Y-121195669D01*
X119090761Y-121195669D02*
X119090761Y-121104954D01*
X119090761Y-121104954D02*
X119114952Y-120984002D01*
X119114952Y-120984002D02*
X119139142Y-120923526D01*
X119139142Y-120923526D02*
X119187523Y-120863050D01*
X119187523Y-120863050D02*
X119260095Y-120832811D01*
X119260095Y-120832811D02*
X119308476Y-120832811D01*
X119308476Y-120832811D02*
X119381047Y-120863050D01*
X119381047Y-120863050D02*
X119405238Y-120893288D01*
X121132438Y-121467811D02*
X120963104Y-121165430D01*
X120842152Y-121467811D02*
X120842152Y-120832811D01*
X120842152Y-120832811D02*
X121035676Y-120832811D01*
X121035676Y-120832811D02*
X121084057Y-120863050D01*
X121084057Y-120863050D02*
X121108247Y-120893288D01*
X121108247Y-120893288D02*
X121132438Y-120953764D01*
X121132438Y-120953764D02*
X121132438Y-121044478D01*
X121132438Y-121044478D02*
X121108247Y-121104954D01*
X121108247Y-121104954D02*
X121084057Y-121135192D01*
X121084057Y-121135192D02*
X121035676Y-121165430D01*
X121035676Y-121165430D02*
X120842152Y-121165430D01*
X121350152Y-121135192D02*
X121519485Y-121135192D01*
X121592057Y-121467811D02*
X121350152Y-121467811D01*
X121350152Y-121467811D02*
X121350152Y-120832811D01*
X121350152Y-120832811D02*
X121592057Y-120832811D01*
X121785580Y-121437573D02*
X121858152Y-121467811D01*
X121858152Y-121467811D02*
X121979104Y-121467811D01*
X121979104Y-121467811D02*
X122027485Y-121437573D01*
X122027485Y-121437573D02*
X122051676Y-121407335D01*
X122051676Y-121407335D02*
X122075866Y-121346859D01*
X122075866Y-121346859D02*
X122075866Y-121286383D01*
X122075866Y-121286383D02*
X122051676Y-121225907D01*
X122051676Y-121225907D02*
X122027485Y-121195669D01*
X122027485Y-121195669D02*
X121979104Y-121165430D01*
X121979104Y-121165430D02*
X121882342Y-121135192D01*
X121882342Y-121135192D02*
X121833961Y-121104954D01*
X121833961Y-121104954D02*
X121809771Y-121074716D01*
X121809771Y-121074716D02*
X121785580Y-121014240D01*
X121785580Y-121014240D02*
X121785580Y-120953764D01*
X121785580Y-120953764D02*
X121809771Y-120893288D01*
X121809771Y-120893288D02*
X121833961Y-120863050D01*
X121833961Y-120863050D02*
X121882342Y-120832811D01*
X121882342Y-120832811D02*
X122003295Y-120832811D01*
X122003295Y-120832811D02*
X122075866Y-120863050D01*
X123817581Y-121467811D02*
X123817581Y-120832811D01*
X123817581Y-120832811D02*
X123938533Y-120832811D01*
X123938533Y-120832811D02*
X124011105Y-120863050D01*
X124011105Y-120863050D02*
X124059486Y-120923526D01*
X124059486Y-120923526D02*
X124083676Y-120984002D01*
X124083676Y-120984002D02*
X124107867Y-121104954D01*
X124107867Y-121104954D02*
X124107867Y-121195669D01*
X124107867Y-121195669D02*
X124083676Y-121316621D01*
X124083676Y-121316621D02*
X124059486Y-121377097D01*
X124059486Y-121377097D02*
X124011105Y-121437573D01*
X124011105Y-121437573D02*
X123938533Y-121467811D01*
X123938533Y-121467811D02*
X123817581Y-121467811D01*
X124591676Y-121467811D02*
X124301390Y-121467811D01*
X124446533Y-121467811D02*
X124446533Y-120832811D01*
X124446533Y-120832811D02*
X124398152Y-120923526D01*
X124398152Y-120923526D02*
X124349771Y-120984002D01*
X124349771Y-120984002D02*
X124301390Y-121014240D01*
X126333391Y-121467811D02*
X126333391Y-120832811D01*
X126333391Y-120832811D02*
X126454343Y-120832811D01*
X126454343Y-120832811D02*
X126526915Y-120863050D01*
X126526915Y-120863050D02*
X126575296Y-120923526D01*
X126575296Y-120923526D02*
X126599486Y-120984002D01*
X126599486Y-120984002D02*
X126623677Y-121104954D01*
X126623677Y-121104954D02*
X126623677Y-121195669D01*
X126623677Y-121195669D02*
X126599486Y-121316621D01*
X126599486Y-121316621D02*
X126575296Y-121377097D01*
X126575296Y-121377097D02*
X126526915Y-121437573D01*
X126526915Y-121437573D02*
X126454343Y-121467811D01*
X126454343Y-121467811D02*
X126333391Y-121467811D01*
X126938153Y-120832811D02*
X126986534Y-120832811D01*
X126986534Y-120832811D02*
X127034915Y-120863050D01*
X127034915Y-120863050D02*
X127059105Y-120893288D01*
X127059105Y-120893288D02*
X127083296Y-120953764D01*
X127083296Y-120953764D02*
X127107486Y-121074716D01*
X127107486Y-121074716D02*
X127107486Y-121225907D01*
X127107486Y-121225907D02*
X127083296Y-121346859D01*
X127083296Y-121346859D02*
X127059105Y-121407335D01*
X127059105Y-121407335D02*
X127034915Y-121437573D01*
X127034915Y-121437573D02*
X126986534Y-121467811D01*
X126986534Y-121467811D02*
X126938153Y-121467811D01*
X126938153Y-121467811D02*
X126889772Y-121437573D01*
X126889772Y-121437573D02*
X126865581Y-121407335D01*
X126865581Y-121407335D02*
X126841391Y-121346859D01*
X126841391Y-121346859D02*
X126817200Y-121225907D01*
X126817200Y-121225907D02*
X126817200Y-121074716D01*
X126817200Y-121074716D02*
X126841391Y-120953764D01*
X126841391Y-120953764D02*
X126865581Y-120893288D01*
X126865581Y-120893288D02*
X126889772Y-120863050D01*
X126889772Y-120863050D02*
X126938153Y-120832811D01*
X128776629Y-120832811D02*
X128945963Y-121467811D01*
X128945963Y-121467811D02*
X129115296Y-120832811D01*
X129574916Y-121407335D02*
X129550725Y-121437573D01*
X129550725Y-121437573D02*
X129478154Y-121467811D01*
X129478154Y-121467811D02*
X129429773Y-121467811D01*
X129429773Y-121467811D02*
X129357201Y-121437573D01*
X129357201Y-121437573D02*
X129308820Y-121377097D01*
X129308820Y-121377097D02*
X129284630Y-121316621D01*
X129284630Y-121316621D02*
X129260439Y-121195669D01*
X129260439Y-121195669D02*
X129260439Y-121104954D01*
X129260439Y-121104954D02*
X129284630Y-120984002D01*
X129284630Y-120984002D02*
X129308820Y-120923526D01*
X129308820Y-120923526D02*
X129357201Y-120863050D01*
X129357201Y-120863050D02*
X129429773Y-120832811D01*
X129429773Y-120832811D02*
X129478154Y-120832811D01*
X129478154Y-120832811D02*
X129550725Y-120863050D01*
X129550725Y-120863050D02*
X129574916Y-120893288D01*
X130082916Y-121407335D02*
X130058725Y-121437573D01*
X130058725Y-121437573D02*
X129986154Y-121467811D01*
X129986154Y-121467811D02*
X129937773Y-121467811D01*
X129937773Y-121467811D02*
X129865201Y-121437573D01*
X129865201Y-121437573D02*
X129816820Y-121377097D01*
X129816820Y-121377097D02*
X129792630Y-121316621D01*
X129792630Y-121316621D02*
X129768439Y-121195669D01*
X129768439Y-121195669D02*
X129768439Y-121104954D01*
X129768439Y-121104954D02*
X129792630Y-120984002D01*
X129792630Y-120984002D02*
X129816820Y-120923526D01*
X129816820Y-120923526D02*
X129865201Y-120863050D01*
X129865201Y-120863050D02*
X129937773Y-120832811D01*
X129937773Y-120832811D02*
X129986154Y-120832811D01*
X129986154Y-120832811D02*
X130058725Y-120863050D01*
X130058725Y-120863050D02*
X130082916Y-120893288D01*
X131785925Y-120863050D02*
X131737544Y-120832811D01*
X131737544Y-120832811D02*
X131664973Y-120832811D01*
X131664973Y-120832811D02*
X131592401Y-120863050D01*
X131592401Y-120863050D02*
X131544020Y-120923526D01*
X131544020Y-120923526D02*
X131519830Y-120984002D01*
X131519830Y-120984002D02*
X131495639Y-121104954D01*
X131495639Y-121104954D02*
X131495639Y-121195669D01*
X131495639Y-121195669D02*
X131519830Y-121316621D01*
X131519830Y-121316621D02*
X131544020Y-121377097D01*
X131544020Y-121377097D02*
X131592401Y-121437573D01*
X131592401Y-121437573D02*
X131664973Y-121467811D01*
X131664973Y-121467811D02*
X131713354Y-121467811D01*
X131713354Y-121467811D02*
X131785925Y-121437573D01*
X131785925Y-121437573D02*
X131810116Y-121407335D01*
X131810116Y-121407335D02*
X131810116Y-121195669D01*
X131810116Y-121195669D02*
X131713354Y-121195669D01*
X132027830Y-121467811D02*
X132027830Y-120832811D01*
X132027830Y-120832811D02*
X132318116Y-121467811D01*
X132318116Y-121467811D02*
X132318116Y-120832811D01*
X132560020Y-121467811D02*
X132560020Y-120832811D01*
X132560020Y-120832811D02*
X132680972Y-120832811D01*
X132680972Y-120832811D02*
X132753544Y-120863050D01*
X132753544Y-120863050D02*
X132801925Y-120923526D01*
X132801925Y-120923526D02*
X132826115Y-120984002D01*
X132826115Y-120984002D02*
X132850306Y-121104954D01*
X132850306Y-121104954D02*
X132850306Y-121195669D01*
X132850306Y-121195669D02*
X132826115Y-121316621D01*
X132826115Y-121316621D02*
X132801925Y-121377097D01*
X132801925Y-121377097D02*
X132753544Y-121437573D01*
X132753544Y-121437573D02*
X132680972Y-121467811D01*
X132680972Y-121467811D02*
X132560020Y-121467811D01*
X133554711Y-139669761D02*
X133584950Y-139693952D01*
X133584950Y-139693952D02*
X133615188Y-139742333D01*
X133615188Y-139742333D02*
X133615188Y-139863285D01*
X133615188Y-139863285D02*
X133584950Y-139911666D01*
X133584950Y-139911666D02*
X133554711Y-139935857D01*
X133554711Y-139935857D02*
X133494235Y-139960047D01*
X133494235Y-139960047D02*
X133433759Y-139960047D01*
X133433759Y-139960047D02*
X133343045Y-139935857D01*
X133343045Y-139935857D02*
X132980188Y-139645571D01*
X132980188Y-139645571D02*
X132980188Y-139960047D01*
X133222092Y-140105190D02*
X133252330Y-140129381D01*
X133252330Y-140129381D02*
X133282569Y-140177762D01*
X133282569Y-140177762D02*
X133222092Y-140274524D01*
X133222092Y-140274524D02*
X133252330Y-140322905D01*
X133252330Y-140322905D02*
X133282569Y-140347095D01*
X133403521Y-140758333D02*
X132980188Y-140758333D01*
X133645426Y-140637381D02*
X133191854Y-140516428D01*
X133191854Y-140516428D02*
X133191854Y-140830905D01*
X132980188Y-141329229D02*
X133615188Y-141329229D01*
X133222092Y-141377610D02*
X132980188Y-141522753D01*
X133403521Y-141522753D02*
X133161616Y-141329229D01*
X132980188Y-141740467D02*
X133615188Y-141740467D01*
X133312807Y-141740467D02*
X133312807Y-142030753D01*
X132980188Y-142030753D02*
X133615188Y-142030753D01*
X133403521Y-142224276D02*
X133403521Y-142490371D01*
X133403521Y-142490371D02*
X132980188Y-142224276D01*
X132980188Y-142224276D02*
X132980188Y-142490371D01*
X142886188Y-151849666D02*
X142886188Y-151752904D01*
X142886188Y-151752904D02*
X142855950Y-151704523D01*
X142855950Y-151704523D02*
X142825711Y-151680333D01*
X142825711Y-151680333D02*
X142734997Y-151631952D01*
X142734997Y-151631952D02*
X142614045Y-151607761D01*
X142614045Y-151607761D02*
X142372140Y-151607761D01*
X142372140Y-151607761D02*
X142311664Y-151631952D01*
X142311664Y-151631952D02*
X142281426Y-151656142D01*
X142281426Y-151656142D02*
X142251188Y-151704523D01*
X142251188Y-151704523D02*
X142251188Y-151801285D01*
X142251188Y-151801285D02*
X142281426Y-151849666D01*
X142281426Y-151849666D02*
X142311664Y-151873857D01*
X142311664Y-151873857D02*
X142372140Y-151898047D01*
X142372140Y-151898047D02*
X142523330Y-151898047D01*
X142523330Y-151898047D02*
X142583807Y-151873857D01*
X142583807Y-151873857D02*
X142614045Y-151849666D01*
X142614045Y-151849666D02*
X142644283Y-151801285D01*
X142644283Y-151801285D02*
X142644283Y-151704523D01*
X142644283Y-151704523D02*
X142614045Y-151656142D01*
X142614045Y-151656142D02*
X142583807Y-151631952D01*
X142583807Y-151631952D02*
X142523330Y-151607761D01*
X142493092Y-152043190D02*
X142523330Y-152067381D01*
X142523330Y-152067381D02*
X142553569Y-152115762D01*
X142553569Y-152115762D02*
X142493092Y-152212524D01*
X142493092Y-152212524D02*
X142523330Y-152260905D01*
X142523330Y-152260905D02*
X142553569Y-152285095D01*
X142825711Y-152454428D02*
X142855950Y-152478619D01*
X142855950Y-152478619D02*
X142886188Y-152527000D01*
X142886188Y-152527000D02*
X142886188Y-152647952D01*
X142886188Y-152647952D02*
X142855950Y-152696333D01*
X142855950Y-152696333D02*
X142825711Y-152720524D01*
X142825711Y-152720524D02*
X142765235Y-152744714D01*
X142765235Y-152744714D02*
X142704759Y-152744714D01*
X142704759Y-152744714D02*
X142614045Y-152720524D01*
X142614045Y-152720524D02*
X142251188Y-152430238D01*
X142251188Y-152430238D02*
X142251188Y-152744714D01*
X142886188Y-153059191D02*
X142886188Y-153107572D01*
X142886188Y-153107572D02*
X142855950Y-153155953D01*
X142855950Y-153155953D02*
X142825711Y-153180143D01*
X142825711Y-153180143D02*
X142765235Y-153204334D01*
X142765235Y-153204334D02*
X142644283Y-153228524D01*
X142644283Y-153228524D02*
X142493092Y-153228524D01*
X142493092Y-153228524D02*
X142372140Y-153204334D01*
X142372140Y-153204334D02*
X142311664Y-153180143D01*
X142311664Y-153180143D02*
X142281426Y-153155953D01*
X142281426Y-153155953D02*
X142251188Y-153107572D01*
X142251188Y-153107572D02*
X142251188Y-153059191D01*
X142251188Y-153059191D02*
X142281426Y-153010810D01*
X142281426Y-153010810D02*
X142311664Y-152986619D01*
X142311664Y-152986619D02*
X142372140Y-152962429D01*
X142372140Y-152962429D02*
X142493092Y-152938238D01*
X142493092Y-152938238D02*
X142644283Y-152938238D01*
X142644283Y-152938238D02*
X142765235Y-152962429D01*
X142765235Y-152962429D02*
X142825711Y-152986619D01*
X142825711Y-152986619D02*
X142855950Y-153010810D01*
X142855950Y-153010810D02*
X142886188Y-153059191D01*
X142251188Y-153751039D02*
X142886188Y-153751039D01*
X142493092Y-153799420D02*
X142251188Y-153944563D01*
X142674521Y-153944563D02*
X142432616Y-153751039D01*
X142251188Y-154162277D02*
X142886188Y-154162277D01*
X142583807Y-154162277D02*
X142583807Y-154452563D01*
X142251188Y-154452563D02*
X142886188Y-154452563D01*
X142674521Y-154646086D02*
X142674521Y-154912181D01*
X142674521Y-154912181D02*
X142251188Y-154646086D01*
X142251188Y-154646086D02*
X142251188Y-154912181D01*
X146722192Y-147791714D02*
X146752430Y-147719142D01*
X146752430Y-147719142D02*
X146782669Y-147694952D01*
X146782669Y-147694952D02*
X146843145Y-147670761D01*
X146843145Y-147670761D02*
X146933859Y-147670761D01*
X146933859Y-147670761D02*
X146994335Y-147694952D01*
X146994335Y-147694952D02*
X147024573Y-147719142D01*
X147024573Y-147719142D02*
X147054811Y-147767523D01*
X147054811Y-147767523D02*
X147054811Y-147961047D01*
X147054811Y-147961047D02*
X146419811Y-147961047D01*
X146419811Y-147961047D02*
X146419811Y-147791714D01*
X146419811Y-147791714D02*
X146450050Y-147743333D01*
X146450050Y-147743333D02*
X146480288Y-147719142D01*
X146480288Y-147719142D02*
X146540764Y-147694952D01*
X146540764Y-147694952D02*
X146601240Y-147694952D01*
X146601240Y-147694952D02*
X146661716Y-147719142D01*
X146661716Y-147719142D02*
X146691954Y-147743333D01*
X146691954Y-147743333D02*
X146722192Y-147791714D01*
X146722192Y-147791714D02*
X146722192Y-147961047D01*
X146419811Y-147356285D02*
X146419811Y-147259523D01*
X146419811Y-147259523D02*
X146450050Y-147211142D01*
X146450050Y-147211142D02*
X146510526Y-147162761D01*
X146510526Y-147162761D02*
X146631478Y-147138571D01*
X146631478Y-147138571D02*
X146843145Y-147138571D01*
X146843145Y-147138571D02*
X146964097Y-147162761D01*
X146964097Y-147162761D02*
X147024573Y-147211142D01*
X147024573Y-147211142D02*
X147054811Y-147259523D01*
X147054811Y-147259523D02*
X147054811Y-147356285D01*
X147054811Y-147356285D02*
X147024573Y-147404666D01*
X147024573Y-147404666D02*
X146964097Y-147453047D01*
X146964097Y-147453047D02*
X146843145Y-147477238D01*
X146843145Y-147477238D02*
X146631478Y-147477238D01*
X146631478Y-147477238D02*
X146510526Y-147453047D01*
X146510526Y-147453047D02*
X146450050Y-147404666D01*
X146450050Y-147404666D02*
X146419811Y-147356285D01*
X147054811Y-146616057D02*
X146419811Y-146616057D01*
X146419811Y-146616057D02*
X146419811Y-146495105D01*
X146419811Y-146495105D02*
X146450050Y-146422533D01*
X146450050Y-146422533D02*
X146510526Y-146374152D01*
X146510526Y-146374152D02*
X146571002Y-146349962D01*
X146571002Y-146349962D02*
X146691954Y-146325771D01*
X146691954Y-146325771D02*
X146782669Y-146325771D01*
X146782669Y-146325771D02*
X146903621Y-146349962D01*
X146903621Y-146349962D02*
X146964097Y-146374152D01*
X146964097Y-146374152D02*
X147024573Y-146422533D01*
X147024573Y-146422533D02*
X147054811Y-146495105D01*
X147054811Y-146495105D02*
X147054811Y-146616057D01*
X146419811Y-146011295D02*
X146419811Y-145914533D01*
X146419811Y-145914533D02*
X146450050Y-145866152D01*
X146450050Y-145866152D02*
X146510526Y-145817771D01*
X146510526Y-145817771D02*
X146631478Y-145793581D01*
X146631478Y-145793581D02*
X146843145Y-145793581D01*
X146843145Y-145793581D02*
X146964097Y-145817771D01*
X146964097Y-145817771D02*
X147024573Y-145866152D01*
X147024573Y-145866152D02*
X147054811Y-145914533D01*
X147054811Y-145914533D02*
X147054811Y-146011295D01*
X147054811Y-146011295D02*
X147024573Y-146059676D01*
X147024573Y-146059676D02*
X146964097Y-146108057D01*
X146964097Y-146108057D02*
X146843145Y-146132248D01*
X146843145Y-146132248D02*
X146631478Y-146132248D01*
X146631478Y-146132248D02*
X146510526Y-146108057D01*
X146510526Y-146108057D02*
X146450050Y-146059676D01*
X146450050Y-146059676D02*
X146419811Y-146011295D01*
X146419811Y-145029162D02*
X146419811Y-145271067D01*
X146419811Y-145271067D02*
X146722192Y-145295258D01*
X146722192Y-145295258D02*
X146691954Y-145271067D01*
X146691954Y-145271067D02*
X146661716Y-145222686D01*
X146661716Y-145222686D02*
X146661716Y-145101734D01*
X146661716Y-145101734D02*
X146691954Y-145053353D01*
X146691954Y-145053353D02*
X146722192Y-145029162D01*
X146722192Y-145029162D02*
X146782669Y-145004972D01*
X146782669Y-145004972D02*
X146933859Y-145004972D01*
X146933859Y-145004972D02*
X146994335Y-145029162D01*
X146994335Y-145029162D02*
X147024573Y-145053353D01*
X147024573Y-145053353D02*
X147054811Y-145101734D01*
X147054811Y-145101734D02*
X147054811Y-145222686D01*
X147054811Y-145222686D02*
X147024573Y-145271067D01*
X147024573Y-145271067D02*
X146994335Y-145295258D01*
X146419811Y-144859829D02*
X147054811Y-144690495D01*
X147054811Y-144690495D02*
X146419811Y-144521162D01*
X146419811Y-143950266D02*
X146419811Y-143901885D01*
X146419811Y-143901885D02*
X146450050Y-143853504D01*
X146450050Y-143853504D02*
X146480288Y-143829314D01*
X146480288Y-143829314D02*
X146540764Y-143805123D01*
X146540764Y-143805123D02*
X146661716Y-143780933D01*
X146661716Y-143780933D02*
X146812907Y-143780933D01*
X146812907Y-143780933D02*
X146933859Y-143805123D01*
X146933859Y-143805123D02*
X146994335Y-143829314D01*
X146994335Y-143829314D02*
X147024573Y-143853504D01*
X147024573Y-143853504D02*
X147054811Y-143901885D01*
X147054811Y-143901885D02*
X147054811Y-143950266D01*
X147054811Y-143950266D02*
X147024573Y-143998647D01*
X147024573Y-143998647D02*
X146994335Y-144022838D01*
X146994335Y-144022838D02*
X146933859Y-144047028D01*
X146933859Y-144047028D02*
X146812907Y-144071219D01*
X146812907Y-144071219D02*
X146661716Y-144071219D01*
X146661716Y-144071219D02*
X146540764Y-144047028D01*
X146540764Y-144047028D02*
X146480288Y-144022838D01*
X146480288Y-144022838D02*
X146450050Y-143998647D01*
X146450050Y-143998647D02*
X146419811Y-143950266D01*
X146419811Y-143635790D02*
X147054811Y-143466456D01*
X147054811Y-143466456D02*
X146419811Y-143297123D01*
X143013188Y-122766666D02*
X143013188Y-122669904D01*
X143013188Y-122669904D02*
X142982950Y-122621523D01*
X142982950Y-122621523D02*
X142952711Y-122597333D01*
X142952711Y-122597333D02*
X142861997Y-122548952D01*
X142861997Y-122548952D02*
X142741045Y-122524761D01*
X142741045Y-122524761D02*
X142499140Y-122524761D01*
X142499140Y-122524761D02*
X142438664Y-122548952D01*
X142438664Y-122548952D02*
X142408426Y-122573142D01*
X142408426Y-122573142D02*
X142378188Y-122621523D01*
X142378188Y-122621523D02*
X142378188Y-122718285D01*
X142378188Y-122718285D02*
X142408426Y-122766666D01*
X142408426Y-122766666D02*
X142438664Y-122790857D01*
X142438664Y-122790857D02*
X142499140Y-122815047D01*
X142499140Y-122815047D02*
X142650330Y-122815047D01*
X142650330Y-122815047D02*
X142710807Y-122790857D01*
X142710807Y-122790857D02*
X142741045Y-122766666D01*
X142741045Y-122766666D02*
X142771283Y-122718285D01*
X142771283Y-122718285D02*
X142771283Y-122621523D01*
X142771283Y-122621523D02*
X142741045Y-122573142D01*
X142741045Y-122573142D02*
X142710807Y-122548952D01*
X142710807Y-122548952D02*
X142650330Y-122524761D01*
X143013188Y-123129524D02*
X143013188Y-123177905D01*
X143013188Y-123177905D02*
X142982950Y-123226286D01*
X142982950Y-123226286D02*
X142952711Y-123250476D01*
X142952711Y-123250476D02*
X142892235Y-123274667D01*
X142892235Y-123274667D02*
X142771283Y-123298857D01*
X142771283Y-123298857D02*
X142620092Y-123298857D01*
X142620092Y-123298857D02*
X142499140Y-123274667D01*
X142499140Y-123274667D02*
X142438664Y-123250476D01*
X142438664Y-123250476D02*
X142408426Y-123226286D01*
X142408426Y-123226286D02*
X142378188Y-123177905D01*
X142378188Y-123177905D02*
X142378188Y-123129524D01*
X142378188Y-123129524D02*
X142408426Y-123081143D01*
X142408426Y-123081143D02*
X142438664Y-123056952D01*
X142438664Y-123056952D02*
X142499140Y-123032762D01*
X142499140Y-123032762D02*
X142620092Y-123008571D01*
X142620092Y-123008571D02*
X142771283Y-123008571D01*
X142771283Y-123008571D02*
X142892235Y-123032762D01*
X142892235Y-123032762D02*
X142952711Y-123056952D01*
X142952711Y-123056952D02*
X142982950Y-123081143D01*
X142982950Y-123081143D02*
X143013188Y-123129524D01*
X142620092Y-123444000D02*
X142650330Y-123468191D01*
X142650330Y-123468191D02*
X142680569Y-123516572D01*
X142680569Y-123516572D02*
X142620092Y-123613334D01*
X142620092Y-123613334D02*
X142650330Y-123661715D01*
X142650330Y-123661715D02*
X142680569Y-123685905D01*
X142952711Y-123855238D02*
X142982950Y-123879429D01*
X142982950Y-123879429D02*
X143013188Y-123927810D01*
X143013188Y-123927810D02*
X143013188Y-124048762D01*
X143013188Y-124048762D02*
X142982950Y-124097143D01*
X142982950Y-124097143D02*
X142952711Y-124121334D01*
X142952711Y-124121334D02*
X142892235Y-124145524D01*
X142892235Y-124145524D02*
X142831759Y-124145524D01*
X142831759Y-124145524D02*
X142741045Y-124121334D01*
X142741045Y-124121334D02*
X142378188Y-123831048D01*
X142378188Y-123831048D02*
X142378188Y-124145524D01*
X143013188Y-124605144D02*
X143013188Y-124363239D01*
X143013188Y-124363239D02*
X142710807Y-124339048D01*
X142710807Y-124339048D02*
X142741045Y-124363239D01*
X142741045Y-124363239D02*
X142771283Y-124411620D01*
X142771283Y-124411620D02*
X142771283Y-124532572D01*
X142771283Y-124532572D02*
X142741045Y-124580953D01*
X142741045Y-124580953D02*
X142710807Y-124605144D01*
X142710807Y-124605144D02*
X142650330Y-124629334D01*
X142650330Y-124629334D02*
X142499140Y-124629334D01*
X142499140Y-124629334D02*
X142438664Y-124605144D01*
X142438664Y-124605144D02*
X142408426Y-124580953D01*
X142408426Y-124580953D02*
X142378188Y-124532572D01*
X142378188Y-124532572D02*
X142378188Y-124411620D01*
X142378188Y-124411620D02*
X142408426Y-124363239D01*
X142408426Y-124363239D02*
X142438664Y-124339048D01*
X143013188Y-124943811D02*
X143013188Y-124992192D01*
X143013188Y-124992192D02*
X142982950Y-125040573D01*
X142982950Y-125040573D02*
X142952711Y-125064763D01*
X142952711Y-125064763D02*
X142892235Y-125088954D01*
X142892235Y-125088954D02*
X142771283Y-125113144D01*
X142771283Y-125113144D02*
X142620092Y-125113144D01*
X142620092Y-125113144D02*
X142499140Y-125088954D01*
X142499140Y-125088954D02*
X142438664Y-125064763D01*
X142438664Y-125064763D02*
X142408426Y-125040573D01*
X142408426Y-125040573D02*
X142378188Y-124992192D01*
X142378188Y-124992192D02*
X142378188Y-124943811D01*
X142378188Y-124943811D02*
X142408426Y-124895430D01*
X142408426Y-124895430D02*
X142438664Y-124871239D01*
X142438664Y-124871239D02*
X142499140Y-124847049D01*
X142499140Y-124847049D02*
X142620092Y-124822858D01*
X142620092Y-124822858D02*
X142771283Y-124822858D01*
X142771283Y-124822858D02*
X142892235Y-124847049D01*
X142892235Y-124847049D02*
X142952711Y-124871239D01*
X142952711Y-124871239D02*
X142982950Y-124895430D01*
X142982950Y-124895430D02*
X143013188Y-124943811D01*
X142378188Y-125635659D02*
X143013188Y-125635659D01*
X142710807Y-125635659D02*
X142710807Y-125925945D01*
X142378188Y-125925945D02*
X143013188Y-125925945D01*
X142801521Y-126119468D02*
X142801521Y-126385563D01*
X142801521Y-126385563D02*
X142378188Y-126119468D01*
X142378188Y-126119468D02*
X142378188Y-126385563D01*
X132237238Y-157849811D02*
X132067904Y-157547430D01*
X131946952Y-157849811D02*
X131946952Y-157214811D01*
X131946952Y-157214811D02*
X132140476Y-157214811D01*
X132140476Y-157214811D02*
X132188857Y-157245050D01*
X132188857Y-157245050D02*
X132213047Y-157275288D01*
X132213047Y-157275288D02*
X132237238Y-157335764D01*
X132237238Y-157335764D02*
X132237238Y-157426478D01*
X132237238Y-157426478D02*
X132213047Y-157486954D01*
X132213047Y-157486954D02*
X132188857Y-157517192D01*
X132188857Y-157517192D02*
X132140476Y-157547430D01*
X132140476Y-157547430D02*
X131946952Y-157547430D01*
X132430761Y-157819573D02*
X132503333Y-157849811D01*
X132503333Y-157849811D02*
X132624285Y-157849811D01*
X132624285Y-157849811D02*
X132672666Y-157819573D01*
X132672666Y-157819573D02*
X132696857Y-157789335D01*
X132696857Y-157789335D02*
X132721047Y-157728859D01*
X132721047Y-157728859D02*
X132721047Y-157668383D01*
X132721047Y-157668383D02*
X132696857Y-157607907D01*
X132696857Y-157607907D02*
X132672666Y-157577669D01*
X132672666Y-157577669D02*
X132624285Y-157547430D01*
X132624285Y-157547430D02*
X132527523Y-157517192D01*
X132527523Y-157517192D02*
X132479142Y-157486954D01*
X132479142Y-157486954D02*
X132454952Y-157456716D01*
X132454952Y-157456716D02*
X132430761Y-157396240D01*
X132430761Y-157396240D02*
X132430761Y-157335764D01*
X132430761Y-157335764D02*
X132454952Y-157275288D01*
X132454952Y-157275288D02*
X132479142Y-157245050D01*
X132479142Y-157245050D02*
X132527523Y-157214811D01*
X132527523Y-157214811D02*
X132648476Y-157214811D01*
X132648476Y-157214811D02*
X132721047Y-157245050D01*
X132866190Y-157214811D02*
X133156476Y-157214811D01*
X133011333Y-157849811D02*
X133011333Y-157214811D01*
X131876800Y-156991050D02*
X133154058Y-156991050D01*
X133630610Y-157849811D02*
X133630610Y-157214811D01*
X133630610Y-157214811D02*
X133751562Y-157214811D01*
X133751562Y-157214811D02*
X133824134Y-157245050D01*
X133824134Y-157245050D02*
X133872515Y-157305526D01*
X133872515Y-157305526D02*
X133896705Y-157366002D01*
X133896705Y-157366002D02*
X133920896Y-157486954D01*
X133920896Y-157486954D02*
X133920896Y-157577669D01*
X133920896Y-157577669D02*
X133896705Y-157698621D01*
X133896705Y-157698621D02*
X133872515Y-157759097D01*
X133872515Y-157759097D02*
X133824134Y-157819573D01*
X133824134Y-157819573D02*
X133751562Y-157849811D01*
X133751562Y-157849811D02*
X133630610Y-157849811D01*
X134138610Y-157849811D02*
X134138610Y-157214811D01*
X134477277Y-157214811D02*
X134574039Y-157214811D01*
X134574039Y-157214811D02*
X134622420Y-157245050D01*
X134622420Y-157245050D02*
X134670801Y-157305526D01*
X134670801Y-157305526D02*
X134694991Y-157426478D01*
X134694991Y-157426478D02*
X134694991Y-157638145D01*
X134694991Y-157638145D02*
X134670801Y-157759097D01*
X134670801Y-157759097D02*
X134622420Y-157819573D01*
X134622420Y-157819573D02*
X134574039Y-157849811D01*
X134574039Y-157849811D02*
X134477277Y-157849811D01*
X134477277Y-157849811D02*
X134428896Y-157819573D01*
X134428896Y-157819573D02*
X134380515Y-157759097D01*
X134380515Y-157759097D02*
X134356324Y-157638145D01*
X134356324Y-157638145D02*
X134356324Y-157426478D01*
X134356324Y-157426478D02*
X134380515Y-157305526D01*
X134380515Y-157305526D02*
X134428896Y-157245050D01*
X134428896Y-157245050D02*
X134477277Y-157214811D01*
X135507791Y-157789335D02*
X135483600Y-157819573D01*
X135483600Y-157819573D02*
X135411029Y-157849811D01*
X135411029Y-157849811D02*
X135362648Y-157849811D01*
X135362648Y-157849811D02*
X135290076Y-157819573D01*
X135290076Y-157819573D02*
X135241695Y-157759097D01*
X135241695Y-157759097D02*
X135217505Y-157698621D01*
X135217505Y-157698621D02*
X135193314Y-157577669D01*
X135193314Y-157577669D02*
X135193314Y-157486954D01*
X135193314Y-157486954D02*
X135217505Y-157366002D01*
X135217505Y-157366002D02*
X135241695Y-157305526D01*
X135241695Y-157305526D02*
X135290076Y-157245050D01*
X135290076Y-157245050D02*
X135362648Y-157214811D01*
X135362648Y-157214811D02*
X135411029Y-157214811D01*
X135411029Y-157214811D02*
X135483600Y-157245050D01*
X135483600Y-157245050D02*
X135507791Y-157275288D01*
X135967410Y-157849811D02*
X135725505Y-157849811D01*
X135725505Y-157849811D02*
X135725505Y-157214811D01*
X136136743Y-157849811D02*
X136136743Y-157214811D01*
X136427029Y-157849811D02*
X136209314Y-157486954D01*
X136427029Y-157214811D02*
X136136743Y-157577669D01*
X137215638Y-157245050D02*
X137167257Y-157214811D01*
X137167257Y-157214811D02*
X137094686Y-157214811D01*
X137094686Y-157214811D02*
X137022114Y-157245050D01*
X137022114Y-157245050D02*
X136973733Y-157305526D01*
X136973733Y-157305526D02*
X136949543Y-157366002D01*
X136949543Y-157366002D02*
X136925352Y-157486954D01*
X136925352Y-157486954D02*
X136925352Y-157577669D01*
X136925352Y-157577669D02*
X136949543Y-157698621D01*
X136949543Y-157698621D02*
X136973733Y-157759097D01*
X136973733Y-157759097D02*
X137022114Y-157819573D01*
X137022114Y-157819573D02*
X137094686Y-157849811D01*
X137094686Y-157849811D02*
X137143067Y-157849811D01*
X137143067Y-157849811D02*
X137215638Y-157819573D01*
X137215638Y-157819573D02*
X137239829Y-157789335D01*
X137239829Y-157789335D02*
X137239829Y-157577669D01*
X137239829Y-157577669D02*
X137143067Y-157577669D01*
X137457543Y-157849811D02*
X137457543Y-157214811D01*
X137457543Y-157214811D02*
X137747829Y-157849811D01*
X137747829Y-157849811D02*
X137747829Y-157214811D01*
X137989733Y-157849811D02*
X137989733Y-157214811D01*
X137989733Y-157214811D02*
X138110685Y-157214811D01*
X138110685Y-157214811D02*
X138183257Y-157245050D01*
X138183257Y-157245050D02*
X138231638Y-157305526D01*
X138231638Y-157305526D02*
X138255828Y-157366002D01*
X138255828Y-157366002D02*
X138280019Y-157486954D01*
X138280019Y-157486954D02*
X138280019Y-157577669D01*
X138280019Y-157577669D02*
X138255828Y-157698621D01*
X138255828Y-157698621D02*
X138231638Y-157759097D01*
X138231638Y-157759097D02*
X138183257Y-157819573D01*
X138183257Y-157819573D02*
X138110685Y-157849811D01*
X138110685Y-157849811D02*
X137989733Y-157849811D01*
X118103952Y-160020907D02*
X118491000Y-160020907D01*
X119647304Y-160020907D02*
X120034352Y-160020907D01*
X119840828Y-160262811D02*
X119840828Y-159779002D01*
D12*
X144906000Y-150849359D02*
X144906000Y-151156641D01*
X144146000Y-150849359D02*
X144146000Y-151156641D01*
X127842000Y-127642000D02*
X127842000Y-125342000D01*
X127842000Y-125342000D02*
X125142000Y-125342000D01*
X144552936Y-145569000D02*
X145007064Y-145569000D01*
X144552936Y-147039000D02*
X145007064Y-147039000D01*
X109320331Y-119530000D02*
X109320331Y-150500000D01*
X100720331Y-119530000D02*
X109320331Y-119530000D01*
X110214669Y-130450000D02*
X110214669Y-130950000D01*
X109781656Y-130700000D02*
X110214669Y-130450000D01*
X110214669Y-130950000D02*
X109781656Y-130700000D01*
X109320331Y-150500000D02*
X100720331Y-150500000D01*
D13*
X119430000Y-142882272D02*
G75*
G03*
X119430000Y-142882272I-50000J0D01*
G01*
D12*
X109159000Y-156298000D02*
X109579000Y-156298000D01*
X109159000Y-158278000D02*
X109159000Y-156298000D01*
X109159000Y-160648000D02*
X109159000Y-160248000D01*
X111159000Y-156068000D02*
X111159000Y-155618000D01*
X111609000Y-155618000D02*
X111159000Y-155618000D01*
X116679000Y-156298000D02*
X116259000Y-156298000D01*
X116679000Y-158278000D02*
X116679000Y-156298000D01*
X116679000Y-160248000D02*
X116679000Y-160648000D01*
X134526000Y-133140000D02*
X141826000Y-133140000D01*
X134526000Y-138640000D02*
X141826000Y-138640000D01*
X141826000Y-138640000D02*
X141826000Y-137490000D01*
D13*
X141834708Y-137931292D02*
X141116228Y-138649772D01*
D12*
X120421000Y-124266000D02*
X133181000Y-124266000D01*
X120421000Y-124266000D02*
X120421000Y-121606000D01*
X133181000Y-124266000D02*
X133181000Y-121606000D01*
X117821000Y-122936000D02*
X117821000Y-121606000D01*
X117821000Y-121606000D02*
X119151000Y-121606000D01*
X120421000Y-121606000D02*
X133181000Y-121606000D01*
X134526000Y-127425000D02*
X141826000Y-127425000D01*
X134526000Y-132925000D02*
X141826000Y-132925000D01*
X141826000Y-132925000D02*
X141826000Y-131775000D01*
D13*
X141834708Y-132216292D02*
X141116228Y-132934772D01*
D12*
X137788000Y-158021000D02*
X137788000Y-159131000D01*
X137028000Y-158021000D02*
X137788000Y-158021000D01*
X136268000Y-158021000D02*
X132523000Y-158021000D01*
X136268000Y-158021000D02*
X136268000Y-158567529D01*
X132523000Y-158021000D02*
X132523000Y-158823470D01*
X132523000Y-159438530D02*
X132523000Y-160241000D01*
X136268000Y-159694471D02*
X136268000Y-160241000D01*
X136268000Y-160241000D02*
X132523000Y-160241000D01*
X130586000Y-130780000D02*
X129636000Y-130780000D01*
X129636000Y-130780000D02*
X129636000Y-129440000D01*
X120366000Y-130780000D02*
X121316000Y-130780000D01*
X130586000Y-131730000D02*
X130586000Y-130780000D01*
X120366000Y-131730000D02*
X120366000Y-130780000D01*
X130586000Y-140050000D02*
X130586000Y-141000000D01*
X120366000Y-140050000D02*
X120366000Y-141000000D01*
X130586000Y-141000000D02*
X129636000Y-141000000D01*
X120366000Y-141000000D02*
X121316000Y-141000000D01*
D14*
X118694200Y-106421001D02*
X118694200Y-120467201D01*
X118694200Y-120467201D02*
X132257800Y-120467201D01*
X132257800Y-106421001D02*
X118694200Y-106421001D01*
X132257800Y-120467201D02*
X132257800Y-106421001D01*
D15*
X133273800Y-117348000D02*
G75*
G03*
X133273800Y-117348000I-381000J0D01*
G01*
D13*
X125526000Y-146738000D02*
G75*
G03*
X125526000Y-146738000I-50000J0D01*
G01*
D12*
X129031000Y-147674359D02*
X129031000Y-147981641D01*
X128271000Y-147674359D02*
X128271000Y-147981641D01*
X149827000Y-129792000D02*
X148717000Y-129792000D01*
X149827000Y-129032000D02*
X149827000Y-129792000D01*
X149827000Y-128272000D02*
X149827000Y-125797000D01*
X149827000Y-128272000D02*
X149280471Y-128272000D01*
X149827000Y-125797000D02*
X149024530Y-125797000D01*
X148409470Y-125797000D02*
X147607000Y-125797000D01*
X148153529Y-128272000D02*
X147607000Y-128272000D01*
X147607000Y-128272000D02*
X147607000Y-125797000D01*
X114448164Y-115295000D02*
X114663836Y-115295000D01*
X114448164Y-116015000D02*
X114663836Y-116015000D01*
X116842000Y-144766420D02*
X116842000Y-145047580D01*
X115822000Y-144766420D02*
X115822000Y-145047580D01*
D13*
X111162000Y-135143000D02*
G75*
G03*
X111162000Y-135143000I-50000J0D01*
G01*
X145719000Y-149913000D02*
G75*
G03*
X145719000Y-149913000I-50000J0D01*
G01*
D12*
X149063500Y-142455500D02*
X150303500Y-142455500D01*
X150303500Y-142455500D02*
X150303500Y-141215500D01*
X141443500Y-142215500D02*
X150063500Y-142215500D01*
X141443500Y-142215500D02*
X141443500Y-130495500D01*
X150063500Y-142215500D02*
X150063500Y-130495500D01*
X141443500Y-130495500D02*
X150063500Y-130495500D01*
X117589000Y-159606000D02*
X117589000Y-158496000D01*
X118349000Y-159606000D02*
X117589000Y-159606000D01*
X119109000Y-159606000D02*
X120314000Y-159606000D01*
X119109000Y-159606000D02*
X119109000Y-159059471D01*
X120314000Y-159606000D02*
X120314000Y-158803530D01*
X120314000Y-158188470D02*
X120314000Y-157386000D01*
X119109000Y-157932529D02*
X119109000Y-157386000D01*
X119109000Y-157386000D02*
X120314000Y-157386000D01*
X147607000Y-122049000D02*
X148717000Y-122049000D01*
X147607000Y-122809000D02*
X147607000Y-122049000D01*
X147607000Y-123569000D02*
X147607000Y-124774000D01*
X147607000Y-123569000D02*
X148153529Y-123569000D01*
X147607000Y-124774000D02*
X148409470Y-124774000D01*
X149024530Y-124774000D02*
X149827000Y-124774000D01*
X149280471Y-123569000D02*
X149827000Y-123569000D01*
X149827000Y-123569000D02*
X149827000Y-124774000D01*
X147480000Y-143004000D02*
X148590000Y-143004000D01*
X147480000Y-143764000D02*
X147480000Y-143004000D01*
X147480000Y-144524000D02*
X147480000Y-148269000D01*
X147480000Y-144524000D02*
X148026529Y-144524000D01*
X147480000Y-148269000D02*
X148282470Y-148269000D01*
X148897530Y-148269000D02*
X149700000Y-148269000D01*
X149153471Y-144524000D02*
X149700000Y-144524000D01*
X149700000Y-144524000D02*
X149700000Y-148269000D01*
X111425000Y-152438000D02*
X110825000Y-152438000D01*
X111625000Y-150838000D02*
X110425000Y-150838000D01*
D13*
X111078022Y-122862923D02*
G75*
G03*
X111078022Y-122862923I-50000J0D01*
G01*
D12*
X114400359Y-114174000D02*
X114707641Y-114174000D01*
X114400359Y-114934000D02*
X114707641Y-114934000D01*
D13*
X111162000Y-129936000D02*
G75*
G03*
X111162000Y-129936000I-50000J0D01*
G01*
X130262000Y-143563000D02*
G75*
G03*
X130262000Y-143563000I-50000J0D01*
G01*
D12*
X115822000Y-148095580D02*
X115822000Y-147814420D01*
X116842000Y-148095580D02*
X116842000Y-147814420D01*
D13*
X110794000Y-152961000D02*
G75*
G03*
X110794000Y-152961000I-50000J0D01*
G01*
D12*
X134526000Y-138855000D02*
X141826000Y-138855000D01*
X134526000Y-144355000D02*
X141826000Y-144355000D01*
X141826000Y-144355000D02*
X141826000Y-143205000D01*
D13*
X141834708Y-143646292D02*
X141116228Y-144364772D01*
D12*
X112137000Y-133255000D02*
X113537000Y-133255000D01*
X113537000Y-130935000D02*
X111637000Y-130935000D01*
X145082000Y-128751359D02*
X145082000Y-129058641D01*
X144322000Y-128751359D02*
X144322000Y-129058641D01*
X142746000Y-128664580D02*
X142746000Y-128383420D01*
X143766000Y-128664580D02*
X143766000Y-128383420D01*
X111733000Y-144933936D02*
X111733000Y-145388064D01*
X110263000Y-144933936D02*
X110263000Y-145388064D01*
X112076000Y-127398000D02*
X113476000Y-127398000D01*
X113476000Y-125078000D02*
X111576000Y-125078000D01*
X124332000Y-147674359D02*
X124332000Y-147981641D01*
X123572000Y-147674359D02*
X123572000Y-147981641D01*
X126999000Y-147674359D02*
X126999000Y-147981641D01*
X126239000Y-147674359D02*
X126239000Y-147981641D01*
D13*
X111072000Y-124040000D02*
G75*
G03*
X111072000Y-124040000I-50000J0D01*
G01*
D12*
X134021000Y-153929500D02*
X134021000Y-152129500D01*
X134021000Y-153929500D02*
X134021000Y-154729500D01*
X130901000Y-153929500D02*
X130901000Y-153129500D01*
X130901000Y-153929500D02*
X130901000Y-154729500D01*
X113533422Y-141657000D02*
X114050578Y-141657000D01*
X113533422Y-143077000D02*
X114050578Y-143077000D01*
X112232000Y-145542000D02*
X112232000Y-147342000D01*
X112232000Y-145542000D02*
X112232000Y-144742000D01*
X115352000Y-145542000D02*
X115352000Y-146342000D01*
X115352000Y-145542000D02*
X115352000Y-144742000D01*
X144552936Y-147601000D02*
X145007064Y-147601000D01*
X144552936Y-149071000D02*
X145007064Y-149071000D01*
D13*
X122866678Y-146734089D02*
G75*
G03*
X122866678Y-146734089I-50000J0D01*
G01*
X130332235Y-164955000D02*
X120632235Y-164955000D01*
X130332235Y-167305000D02*
X120632235Y-167305000D01*
X120632235Y-167305000D02*
X120632235Y-153805000D01*
X120632235Y-153805000D02*
X130332235Y-153805000D01*
X130332235Y-153805000D02*
X130332235Y-167305000D01*
D12*
X119130578Y-149173000D02*
X118613422Y-149173000D01*
X119130578Y-147753000D02*
X118613422Y-147753000D01*
X116432359Y-115317000D02*
X116739641Y-115317000D01*
X116432359Y-116077000D02*
X116739641Y-116077000D01*
D13*
X145973000Y-127866000D02*
G75*
G03*
X145973000Y-127866000I-50000J0D01*
G01*
D12*
X114191622Y-149150000D02*
X113392378Y-149150000D01*
X114191622Y-148030000D02*
X113392378Y-148030000D01*
X112137000Y-138462000D02*
X113537000Y-138462000D01*
X113537000Y-136142000D02*
X111637000Y-136142000D01*
X134526000Y-115995000D02*
X141826000Y-115995000D01*
X134526000Y-121495000D02*
X141826000Y-121495000D01*
X141826000Y-121495000D02*
X141826000Y-120345000D01*
D13*
X141834708Y-120786292D02*
X141116228Y-121504772D01*
D12*
X134526000Y-150285000D02*
X141826000Y-150285000D01*
X134526000Y-155785000D02*
X141826000Y-155785000D01*
X141826000Y-155785000D02*
X141826000Y-154635000D01*
D13*
X141834708Y-155076292D02*
X141116228Y-155794772D01*
X111101000Y-119253000D02*
G75*
G03*
X111101000Y-119253000I-50000J0D01*
G01*
G36*
X125520018Y-136055870D02*
G01*
X125577021Y-136075304D01*
X125655534Y-136105086D01*
X125723972Y-136132336D01*
X125806974Y-136165636D01*
X125869236Y-136191226D01*
X125913019Y-136211689D01*
X125940581Y-136229609D01*
X125954184Y-136247568D01*
X125956087Y-136268151D01*
X125948552Y-136293939D01*
X125933837Y-136327517D01*
X125920509Y-136356963D01*
X125897895Y-136400705D01*
X125878207Y-136421903D01*
X125867309Y-136424736D01*
X125848743Y-136419784D01*
X125811083Y-136406703D01*
X125758500Y-136387048D01*
X125695161Y-136362374D01*
X125631096Y-136336627D01*
X125562324Y-136308226D01*
X125501443Y-136282387D01*
X125452395Y-136260837D01*
X125419123Y-136245307D01*
X125405781Y-136237772D01*
X125403985Y-136220952D01*
X125410092Y-136188461D01*
X125421726Y-136147633D01*
X125436509Y-136105802D01*
X125452067Y-136070305D01*
X125466022Y-136048476D01*
X125467559Y-136047055D01*
X125483779Y-136046537D01*
X125520018Y-136055870D01*
G37*
G36*
X125382397Y-134429627D02*
G01*
X125417090Y-134440666D01*
X125466001Y-134458286D01*
X125524788Y-134480719D01*
X125589105Y-134506199D01*
X125654608Y-134532958D01*
X125716951Y-134559230D01*
X125771792Y-134583246D01*
X125814785Y-134603240D01*
X125841584Y-134617445D01*
X125848396Y-134623034D01*
X125846298Y-134640797D01*
X125836495Y-134674902D01*
X125821011Y-134718449D01*
X125818457Y-134725029D01*
X125795142Y-134777651D01*
X125775867Y-134806112D01*
X125763832Y-134811988D01*
X125746279Y-134807051D01*
X125709440Y-134794002D01*
X125657319Y-134774350D01*
X125593918Y-134749605D01*
X125523242Y-134721279D01*
X125520854Y-134720309D01*
X125450847Y-134691628D01*
X125388960Y-134665798D01*
X125338961Y-134644430D01*
X125304619Y-134629136D01*
X125289700Y-134621527D01*
X125289527Y-134621372D01*
X125289543Y-134606146D01*
X125297893Y-134575213D01*
X125311843Y-134535503D01*
X125328656Y-134493946D01*
X125345599Y-134457472D01*
X125359935Y-134433011D01*
X125366270Y-134426935D01*
X125382397Y-134429627D01*
G37*
G36*
X126464469Y-135093473D02*
G01*
X126504291Y-135107682D01*
X126545644Y-135125267D01*
X126581717Y-135143385D01*
X126605701Y-135159192D01*
X126611649Y-135167954D01*
X126606264Y-135189061D01*
X126593183Y-135227406D01*
X126574121Y-135278789D01*
X126550791Y-135339009D01*
X126524905Y-135403867D01*
X126498177Y-135469161D01*
X126472320Y-135530692D01*
X126449047Y-135584260D01*
X126430072Y-135625665D01*
X126417107Y-135650705D01*
X126412481Y-135656246D01*
X126394726Y-135651102D01*
X126361080Y-135638593D01*
X126318758Y-135621404D01*
X126317903Y-135621044D01*
X126276837Y-135602100D01*
X126246138Y-135584882D01*
X126232266Y-135573024D01*
X126232172Y-135572775D01*
X126235212Y-135557630D01*
X126246015Y-135523506D01*
X126262919Y-135474791D01*
X126284256Y-135415874D01*
X126308361Y-135351143D01*
X126333571Y-135284986D01*
X126358219Y-135221792D01*
X126380640Y-135165949D01*
X126399170Y-135121846D01*
X126412143Y-135093872D01*
X126416662Y-135086555D01*
X126432990Y-135085483D01*
X126464469Y-135093473D01*
G37*
G36*
X124837830Y-135215357D02*
G01*
X124871099Y-135224378D01*
X124914617Y-135239875D01*
X124926644Y-135244667D01*
X124973201Y-135264438D01*
X125000273Y-135278887D01*
X125012080Y-135291229D01*
X125012847Y-135304679D01*
X125011578Y-135309336D01*
X125004464Y-135329145D01*
X124989712Y-135368210D01*
X124968928Y-135422343D01*
X124943719Y-135487360D01*
X124915694Y-135559074D01*
X124915472Y-135559638D01*
X124882193Y-135642917D01*
X124856044Y-135704565D01*
X124835954Y-135746777D01*
X124820851Y-135771749D01*
X124809666Y-135781678D01*
X124806986Y-135782056D01*
X124785146Y-135776840D01*
X124748380Y-135764403D01*
X124707489Y-135748571D01*
X124667813Y-135730431D01*
X124639501Y-135713893D01*
X124628685Y-135702543D01*
X124633118Y-135685206D01*
X124645329Y-135649422D01*
X124663602Y-135599542D01*
X124686218Y-135539917D01*
X124711461Y-135474898D01*
X124737614Y-135408837D01*
X124762959Y-135346086D01*
X124785780Y-135290995D01*
X124804358Y-135247917D01*
X124816978Y-135221202D01*
X124821223Y-135214637D01*
X124837830Y-135215357D01*
G37*
G36*
X126172548Y-137338222D02*
G01*
X126356062Y-137338222D01*
X126357399Y-137399995D01*
X126360514Y-137427726D01*
X126376938Y-137480855D01*
X126405523Y-137520287D01*
X126441857Y-137543559D01*
X126481527Y-137548208D01*
X126520119Y-137531772D01*
X126530559Y-137522629D01*
X126555297Y-137483110D01*
X126571628Y-137427006D01*
X126579078Y-137361650D01*
X126577177Y-137294376D01*
X126565449Y-137232514D01*
X126551552Y-137197149D01*
X126521368Y-137162287D01*
X126481170Y-137145922D01*
X126438266Y-137148465D01*
X126399966Y-137170324D01*
X126385339Y-137187836D01*
X126370880Y-137223947D01*
X126360839Y-137276808D01*
X126356062Y-137338222D01*
X126172548Y-137338222D01*
X126177510Y-137246047D01*
X126193236Y-137170836D01*
X126221525Y-137108070D01*
X126264235Y-137052174D01*
X126270252Y-137045835D01*
X126327894Y-137003312D01*
X126396963Y-136978878D01*
X126471722Y-136972168D01*
X126546437Y-136982820D01*
X126615373Y-137010468D01*
X126672794Y-137054751D01*
X126687737Y-137072292D01*
X126728889Y-137144846D01*
X126755629Y-137232535D01*
X126766765Y-137329044D01*
X126761107Y-137428057D01*
X126758180Y-137445834D01*
X126732304Y-137540723D01*
X126692820Y-137614746D01*
X126639245Y-137668546D01*
X126571097Y-137702767D01*
X126563929Y-137704999D01*
X126495643Y-137719964D01*
X126434124Y-137719620D01*
X126366711Y-137704102D01*
X126296861Y-137671110D01*
X126242797Y-137619755D01*
X126204238Y-137549515D01*
X126180906Y-137459864D01*
X126172522Y-137350278D01*
X126172491Y-137339276D01*
X126172548Y-137338222D01*
G37*
G36*
X127546400Y-137319562D02*
G01*
X127729975Y-137319562D01*
X127730057Y-137381668D01*
X127738713Y-137440681D01*
X127756251Y-137491142D01*
X127782979Y-137527595D01*
X127787664Y-137531414D01*
X127825190Y-137545703D01*
X127867848Y-137542607D01*
X127903450Y-137523049D01*
X127903873Y-137522629D01*
X127929646Y-137481946D01*
X127946539Y-137423655D01*
X127953071Y-137354235D01*
X127951698Y-137313509D01*
X127939259Y-137237469D01*
X127915800Y-137184074D01*
X127881297Y-137153297D01*
X127835726Y-137145110D01*
X127809228Y-137149367D01*
X127778094Y-137169266D01*
X127754302Y-137207903D01*
X127738160Y-137259821D01*
X127729975Y-137319562D01*
X127546400Y-137319562D01*
X127546895Y-137280793D01*
X127550262Y-137233651D01*
X127557292Y-137196633D01*
X127569112Y-137162222D01*
X127575841Y-137146590D01*
X127620535Y-137074524D01*
X127679410Y-137020677D01*
X127748442Y-136985849D01*
X127823605Y-136970837D01*
X127900876Y-136976442D01*
X127976228Y-137003460D01*
X128045639Y-137052692D01*
X128046242Y-137053255D01*
X128083331Y-137102530D01*
X128112103Y-137169957D01*
X128131245Y-137249485D01*
X128139442Y-137335060D01*
X128135380Y-137420630D01*
X128131494Y-137445834D01*
X128105618Y-137540723D01*
X128066133Y-137614746D01*
X128012558Y-137668546D01*
X127944410Y-137702767D01*
X127937242Y-137704999D01*
X127868797Y-137719981D01*
X127807261Y-137719594D01*
X127740748Y-137704159D01*
X127677699Y-137674745D01*
X127626857Y-137627968D01*
X127584628Y-137560370D01*
X127578854Y-137548304D01*
X127563582Y-137512247D01*
X127553901Y-137478682D01*
X127548581Y-137440009D01*
X127546392Y-137388627D01*
X127546068Y-137345576D01*
X127546400Y-137319562D01*
G37*
G36*
X124929328Y-137191689D02*
G01*
X124955699Y-137202959D01*
X124967635Y-137214873D01*
X124989333Y-137241661D01*
X125025048Y-137215645D01*
X125070918Y-137195937D01*
X125128548Y-137190798D01*
X125189150Y-137200205D01*
X125229918Y-137216094D01*
X125266412Y-137241871D01*
X125302839Y-137278156D01*
X125315401Y-137294190D01*
X125330533Y-137316348D01*
X125340968Y-137336003D01*
X125347578Y-137358351D01*
X125351237Y-137388583D01*
X125352816Y-137431893D01*
X125353191Y-137493474D01*
X125353198Y-137519013D01*
X125353198Y-137690373D01*
X125312251Y-137701023D01*
X125269444Y-137705435D01*
X125230356Y-137701108D01*
X125189409Y-137690542D01*
X125183109Y-137548430D01*
X125179933Y-137485954D01*
X125176245Y-137443548D01*
X125170934Y-137416089D01*
X125162889Y-137398458D01*
X125150999Y-137385531D01*
X125147065Y-137382247D01*
X125104306Y-137361009D01*
X125059248Y-137360056D01*
X125019758Y-137378873D01*
X125007634Y-137391372D01*
X124995188Y-137410680D01*
X124987386Y-137434240D01*
X124983212Y-137468136D01*
X124981646Y-137518448D01*
X124981522Y-137547320D01*
X124980193Y-137612572D01*
X124975970Y-137655644D01*
X124968493Y-137679427D01*
X124964572Y-137684137D01*
X124933933Y-137698109D01*
X124890912Y-137704981D01*
X124847779Y-137702870D01*
X124845401Y-137702406D01*
X124818533Y-137686092D01*
X124803644Y-137662941D01*
X124798765Y-137636970D01*
X124795597Y-137592874D01*
X124794026Y-137535811D01*
X124793933Y-137470941D01*
X124795203Y-137403423D01*
X124797719Y-137338415D01*
X124801363Y-137281077D01*
X124806019Y-137236567D01*
X124811571Y-137210044D01*
X124813990Y-137205653D01*
X124835079Y-137196269D01*
X124870571Y-137190258D01*
X124887542Y-137189308D01*
X124929328Y-137191689D01*
G37*
G36*
X127229256Y-137188308D02*
G01*
X127289306Y-137189219D01*
X127331872Y-137191188D01*
X127360808Y-137194582D01*
X127379970Y-137199770D01*
X127393214Y-137207120D01*
X127399229Y-137212087D01*
X127420109Y-137244153D01*
X127425768Y-137271668D01*
X127422661Y-137289292D01*
X127411418Y-137309269D01*
X127389158Y-137334906D01*
X127352999Y-137369511D01*
X127300058Y-137416391D01*
X127298487Y-137417756D01*
X127171206Y-137528264D01*
X127289038Y-137534564D01*
X127342329Y-137538367D01*
X127386786Y-137543299D01*
X127415873Y-137548555D01*
X127422618Y-137551057D01*
X127432311Y-137569537D01*
X127437759Y-137605107D01*
X127438367Y-137623814D01*
X127436837Y-137662221D01*
X127429977Y-137683391D01*
X127414382Y-137695210D01*
X127406049Y-137698666D01*
X127380531Y-137703370D01*
X127335642Y-137706800D01*
X127276637Y-137708990D01*
X127208769Y-137709973D01*
X127137291Y-137709783D01*
X127067458Y-137708456D01*
X127004523Y-137706024D01*
X126953741Y-137702523D01*
X126920365Y-137697986D01*
X126912076Y-137695454D01*
X126884409Y-137669295D01*
X126872732Y-137629544D01*
X126876438Y-137594410D01*
X126889471Y-137575012D01*
X126919611Y-137543610D01*
X126963640Y-137503094D01*
X127018340Y-137456355D01*
X127080492Y-137406283D01*
X127118870Y-137376713D01*
X127127834Y-137367964D01*
X127123970Y-137362612D01*
X127103636Y-137359813D01*
X127063194Y-137358723D01*
X127040750Y-137358576D01*
X126976086Y-137356210D01*
X126932641Y-137348232D01*
X126906662Y-137332410D01*
X126894399Y-137306516D01*
X126892044Y-137270201D01*
X126896277Y-137233634D01*
X126905129Y-137207119D01*
X126908229Y-137202906D01*
X126925193Y-137196800D01*
X126963001Y-137192367D01*
X127022918Y-137189529D01*
X127106207Y-137188208D01*
X127147865Y-137188086D01*
X127229256Y-137188308D01*
G37*
G36*
X124128484Y-137405986D02*
G01*
X124319281Y-137405986D01*
X124320098Y-137408628D01*
X124337809Y-137417164D01*
X124371432Y-137420842D01*
X124412212Y-137419963D01*
X124451394Y-137414823D01*
X124480225Y-137405723D01*
X124484595Y-137403010D01*
X124500872Y-137381159D01*
X124495041Y-137360119D01*
X124470024Y-137343606D01*
X124431513Y-137335524D01*
X124390421Y-137337515D01*
X124358227Y-137354266D01*
X124347043Y-137363928D01*
X124326477Y-137387685D01*
X124319281Y-137405986D01*
X124128484Y-137405986D01*
X124128697Y-137394800D01*
X124146819Y-137332327D01*
X124183476Y-137278423D01*
X124191205Y-137270180D01*
X124246178Y-137224720D01*
X124308303Y-137196667D01*
X124383658Y-137183755D01*
X124427157Y-137182270D01*
X124510182Y-137189429D01*
X124575617Y-137212048D01*
X124626857Y-137251635D01*
X124650420Y-137281485D01*
X124672963Y-137330874D01*
X124680271Y-137384136D01*
X124672362Y-137433212D01*
X124649980Y-137469372D01*
X124635220Y-137481215D01*
X124617515Y-137489068D01*
X124591686Y-137493738D01*
X124552555Y-137496027D01*
X124494942Y-137496740D01*
X124473592Y-137496766D01*
X124409206Y-137497279D01*
X124366157Y-137499138D01*
X124340594Y-137502831D01*
X124328671Y-137508843D01*
X124326363Y-137515342D01*
X124337519Y-137534848D01*
X124365647Y-137553571D01*
X124402740Y-137567425D01*
X124438169Y-137572362D01*
X124472633Y-137569473D01*
X124517920Y-137562131D01*
X124541199Y-137557227D01*
X124579941Y-137549186D01*
X124602763Y-137548815D01*
X124618132Y-137557441D01*
X124630354Y-137571222D01*
X124652759Y-137612100D01*
X124651105Y-137648117D01*
X124626273Y-137678005D01*
X124579143Y-137700501D01*
X124532841Y-137711257D01*
X124465359Y-137720217D01*
X124411399Y-137721454D01*
X124360417Y-137714705D01*
X124324456Y-137706066D01*
X124246099Y-137674207D01*
X124187047Y-137626263D01*
X124147662Y-137562666D01*
X124128309Y-137483849D01*
X124127229Y-137471764D01*
X124128484Y-137405986D01*
G37*
G36*
X125488512Y-137446370D02*
G01*
X125674478Y-137446370D01*
X125685109Y-137487466D01*
X125712654Y-137516821D01*
X125750596Y-137531952D01*
X125792415Y-137530382D01*
X125831592Y-137509629D01*
X125834306Y-137507169D01*
X125858998Y-137470190D01*
X125859117Y-137430632D01*
X125834706Y-137391313D01*
X125832541Y-137389101D01*
X125794189Y-137364976D01*
X125752853Y-137360545D01*
X125714895Y-137373502D01*
X125686677Y-137401542D01*
X125674561Y-137442361D01*
X125674478Y-137446370D01*
X125488512Y-137446370D01*
X125487793Y-137414591D01*
X125508739Y-137344251D01*
X125551217Y-137281031D01*
X125604175Y-137235333D01*
X125646510Y-137210021D01*
X125684241Y-137197794D01*
X125731056Y-137194402D01*
X125736094Y-137194386D01*
X125790297Y-137198614D01*
X125829288Y-137210303D01*
X125835464Y-137213999D01*
X125863466Y-137233612D01*
X125863466Y-137116009D01*
X125865270Y-137045874D01*
X125871997Y-136997128D01*
X125885625Y-136966133D01*
X125908128Y-136949251D01*
X125941483Y-136942846D01*
X125957775Y-136942401D01*
X125984496Y-136942642D01*
X126005649Y-136945119D01*
X126021884Y-136952469D01*
X126033852Y-136967327D01*
X126042202Y-136992329D01*
X126047585Y-137030110D01*
X126050653Y-137083306D01*
X126052054Y-137154551D01*
X126052440Y-137246483D01*
X126052454Y-137326034D01*
X126052438Y-137433231D01*
X126051934Y-137517887D01*
X126050258Y-137582660D01*
X126046725Y-137630208D01*
X126040651Y-137663188D01*
X126031352Y-137684257D01*
X126018144Y-137696074D01*
X126000342Y-137701295D01*
X125977263Y-137702577D01*
X125955505Y-137702554D01*
X125911201Y-137698356D01*
X125885141Y-137684594D01*
X125880975Y-137679685D01*
X125864673Y-137664499D01*
X125847736Y-137670587D01*
X125845318Y-137672532D01*
X125808007Y-137690934D01*
X125756821Y-137700228D01*
X125701978Y-137698693D01*
X125695779Y-137697724D01*
X125635407Y-137676432D01*
X125577386Y-137636941D01*
X125530032Y-137585537D01*
X125514805Y-137560931D01*
X125489456Y-137488126D01*
X125488512Y-137446370D01*
G37*
G36*
X126263810Y-134600249D02*
G01*
X126346660Y-134600249D01*
X126371661Y-134642363D01*
X126380351Y-134651601D01*
X126419955Y-134678793D01*
X126459559Y-134680873D01*
X126499562Y-134657813D01*
X126515475Y-134641869D01*
X126539752Y-134600087D01*
X126538856Y-134557371D01*
X126514319Y-134515657D01*
X126475489Y-134486866D01*
X126432227Y-134481063D01*
X126390424Y-134498248D01*
X126371740Y-134515657D01*
X126346711Y-134558404D01*
X126346660Y-134600249D01*
X126263810Y-134600249D01*
X126259873Y-134563420D01*
X126275483Y-134499545D01*
X126314092Y-134445373D01*
X126322494Y-134437590D01*
X126380290Y-134400872D01*
X126441526Y-134389115D01*
X126506051Y-134402336D01*
X126527564Y-134411944D01*
X126583708Y-134451048D01*
X126617340Y-134501156D01*
X126629232Y-134563637D01*
X126628253Y-134590438D01*
X126613055Y-134655750D01*
X126578854Y-134705702D01*
X126523286Y-134743742D01*
X126523088Y-134743840D01*
X126472165Y-134769038D01*
X126309557Y-135182989D01*
X126271727Y-135279307D01*
X126236849Y-135368141D01*
X126205987Y-135446780D01*
X126180204Y-135512510D01*
X126160565Y-135562620D01*
X126148132Y-135594398D01*
X126143991Y-135605062D01*
X126153666Y-135612775D01*
X126182137Y-135627279D01*
X126224687Y-135646313D01*
X126263684Y-135662474D01*
X126316254Y-135684128D01*
X126360832Y-135703469D01*
X126391692Y-135717956D01*
X126402082Y-135723863D01*
X126416165Y-135750306D01*
X126412811Y-135793941D01*
X126393080Y-135851525D01*
X126374838Y-135887752D01*
X126357597Y-135904737D01*
X126339534Y-135907936D01*
X126318706Y-135902753D01*
X126279228Y-135889245D01*
X126225581Y-135869080D01*
X126162246Y-135843929D01*
X126111305Y-135822891D01*
X126045067Y-135794265D01*
X125986934Y-135767585D01*
X125940950Y-135744834D01*
X125911163Y-135727992D01*
X125901799Y-135720278D01*
X125899054Y-135713463D01*
X125898099Y-135704405D01*
X125899660Y-135691062D01*
X125904460Y-135671389D01*
X125913223Y-135643343D01*
X125926674Y-135604880D01*
X125945538Y-135553957D01*
X125970538Y-135488530D01*
X126002399Y-135406556D01*
X126041846Y-135305989D01*
X126089602Y-135184788D01*
X126109135Y-135135285D01*
X126282835Y-134695183D01*
X126267605Y-134635758D01*
X126263810Y-134600249D01*
G37*
G36*
X126219253Y-136260594D02*
G01*
X126355236Y-136260594D01*
X126367214Y-136306133D01*
X126402208Y-136341863D01*
X126411532Y-136347620D01*
X126447832Y-136361304D01*
X126482778Y-136355190D01*
X126497404Y-136348181D01*
X126537411Y-136315251D01*
X126555101Y-136273621D01*
X126549509Y-136227793D01*
X126530310Y-136194448D01*
X126495612Y-136167434D01*
X126454874Y-136160029D01*
X126414372Y-136169861D01*
X126380385Y-136194558D01*
X126359192Y-136231748D01*
X126355236Y-136260594D01*
X126219253Y-136260594D01*
X126210511Y-136256199D01*
X126163451Y-136236351D01*
X126105216Y-136213315D01*
X126042098Y-136188595D01*
X125962417Y-136157324D01*
X125873050Y-136122203D01*
X125780871Y-136085934D01*
X125692757Y-136051220D01*
X125691111Y-136050571D01*
X125436861Y-135950323D01*
X125384381Y-136077835D01*
X125356985Y-136143595D01*
X125335919Y-136188970D01*
X125317892Y-136216863D01*
X125299614Y-136230178D01*
X125277794Y-136231821D01*
X125249143Y-136224694D01*
X125226529Y-136217154D01*
X125186316Y-136200744D01*
X125155915Y-136183323D01*
X125144400Y-136172147D01*
X125143451Y-136155582D01*
X125150974Y-136123279D01*
X125167573Y-136073389D01*
X125193850Y-136004062D01*
X125222551Y-135932617D01*
X125250845Y-135863674D01*
X125275920Y-135803152D01*
X125296218Y-135754770D01*
X125310178Y-135722241D01*
X125316242Y-135709283D01*
X125316267Y-135709254D01*
X125324852Y-135705538D01*
X125341333Y-135706174D01*
X125367599Y-135711812D01*
X125405540Y-135723102D01*
X125457044Y-135740693D01*
X125524000Y-135765236D01*
X125608298Y-135797378D01*
X125711826Y-135837770D01*
X125836474Y-135887062D01*
X125856272Y-135894930D01*
X126334147Y-136084953D01*
X126423236Y-136077715D01*
X126472407Y-136074758D01*
X126505329Y-136076659D01*
X126530721Y-136084900D01*
X126556422Y-136100366D01*
X126606415Y-136147449D01*
X126635106Y-136203513D01*
X126642510Y-136264102D01*
X126628643Y-136324762D01*
X126593519Y-136381036D01*
X126555332Y-136416149D01*
X126511080Y-136437004D01*
X126457296Y-136446217D01*
X126406587Y-136442127D01*
X126392633Y-136437557D01*
X126344661Y-136407235D01*
X126303376Y-136363097D01*
X126278747Y-136317246D01*
X126271636Y-136299913D01*
X126260577Y-136285569D01*
X126241544Y-136271801D01*
X126219253Y-136260594D01*
G37*
G36*
X123937797Y-136985990D02*
G01*
X123970782Y-136999812D01*
X123979407Y-137006493D01*
X123986050Y-137015007D01*
X123990970Y-137028446D01*
X123994425Y-137049903D01*
X123996674Y-137082472D01*
X123997975Y-137129245D01*
X123998588Y-137193316D01*
X123998772Y-137277777D01*
X123998784Y-137334520D01*
X123998271Y-137433608D01*
X123996800Y-137519218D01*
X123994471Y-137588679D01*
X123991385Y-137639324D01*
X123987642Y-137668481D01*
X123986031Y-137673441D01*
X123961890Y-137694795D01*
X123923553Y-137705889D01*
X123880494Y-137705111D01*
X123851815Y-137696262D01*
X123816095Y-137679170D01*
X123809795Y-137484025D01*
X123803496Y-137288880D01*
X123721601Y-137391892D01*
X123683739Y-137436830D01*
X123647579Y-137475075D01*
X123618160Y-137501524D01*
X123605058Y-137509963D01*
X123573941Y-137517787D01*
X123542956Y-137511879D01*
X123508915Y-137490213D01*
X123468631Y-137450765D01*
X123419220Y-137391892D01*
X123337325Y-137288880D01*
X123331026Y-137483823D01*
X123328512Y-137557768D01*
X123326045Y-137610528D01*
X123322904Y-137646108D01*
X123318374Y-137668510D01*
X123311736Y-137681736D01*
X123302274Y-137689790D01*
X123293228Y-137694674D01*
X123259896Y-137707085D01*
X123225447Y-137707331D01*
X123198734Y-137702129D01*
X123182054Y-137697058D01*
X123169006Y-137688672D01*
X123159145Y-137674116D01*
X123152027Y-137650536D01*
X123147209Y-137615075D01*
X123144246Y-137564878D01*
X123142694Y-137497090D01*
X123142109Y-137408856D01*
X123142038Y-137337583D01*
X123142093Y-137239961D01*
X123142430Y-137164461D01*
X123143303Y-137108007D01*
X123144967Y-137067522D01*
X123147678Y-137039931D01*
X123151690Y-137022156D01*
X123157258Y-137011123D01*
X123164638Y-137003754D01*
X123170039Y-136999812D01*
X123214820Y-136982520D01*
X123266400Y-136984034D01*
X123295785Y-136993955D01*
X123313899Y-137008335D01*
X123344039Y-137038524D01*
X123382548Y-137080608D01*
X123425765Y-137130676D01*
X123443044Y-137151445D01*
X123485220Y-137201979D01*
X123522006Y-137244738D01*
X123550372Y-137276299D01*
X123567285Y-137293238D01*
X123570356Y-137295179D01*
X123581105Y-137285979D01*
X123604802Y-137260613D01*
X123638458Y-137222438D01*
X123679086Y-137174809D01*
X123702208Y-137147138D01*
X123746378Y-137094950D01*
X123786330Y-137049662D01*
X123818729Y-137014910D01*
X123840239Y-136994334D01*
X123845779Y-136990534D01*
X123890334Y-136981592D01*
X123937797Y-136985990D01*
G37*
G36*
X124616375Y-134592649D02*
G01*
X124704339Y-134592649D01*
X124714466Y-134641228D01*
X124741140Y-134675457D01*
X124778801Y-134693081D01*
X124821888Y-134691842D01*
X124864841Y-134669484D01*
X124873798Y-134661431D01*
X124892533Y-134627868D01*
X124897970Y-134584716D01*
X124889484Y-134544124D01*
X124880616Y-134529518D01*
X124841581Y-134500498D01*
X124794026Y-134493981D01*
X124767541Y-134499972D01*
X124727408Y-134524184D01*
X124707344Y-134562911D01*
X124704339Y-134592649D01*
X124616375Y-134592649D01*
X124616192Y-134590125D01*
X124625404Y-134540514D01*
X124649004Y-134488646D01*
X124681068Y-134446643D01*
X124690185Y-134438736D01*
X124738808Y-134414527D01*
X124797728Y-134404173D01*
X124854379Y-134409651D01*
X124893128Y-134427485D01*
X124931372Y-134456829D01*
X124962497Y-134491170D01*
X124979889Y-134523997D01*
X124981522Y-134534849D01*
X124989461Y-134561526D01*
X124997271Y-134571031D01*
X125014830Y-134580669D01*
X125051721Y-134597521D01*
X125104676Y-134620296D01*
X125170427Y-134647706D01*
X125245705Y-134678460D01*
X125327243Y-134711269D01*
X125411773Y-134744843D01*
X125496026Y-134777893D01*
X125576735Y-134809129D01*
X125650632Y-134837261D01*
X125714448Y-134861000D01*
X125764916Y-134879056D01*
X125798767Y-134890139D01*
X125812734Y-134892960D01*
X125812839Y-134892875D01*
X125821329Y-134877354D01*
X125836654Y-134844006D01*
X125856314Y-134798408D01*
X125869771Y-134765970D01*
X125891823Y-134714804D01*
X125912444Y-134671826D01*
X125928701Y-134642917D01*
X125935184Y-134634736D01*
X125957189Y-134629902D01*
X125993168Y-134634050D01*
X126034576Y-134644859D01*
X126072868Y-134660005D01*
X126099496Y-134677167D01*
X126102265Y-134680137D01*
X126105666Y-134691268D01*
X126103100Y-134711900D01*
X126093660Y-134744877D01*
X126076436Y-134793041D01*
X126050521Y-134859234D01*
X126024818Y-134922459D01*
X125992437Y-135000694D01*
X125967625Y-135058553D01*
X125948709Y-135099105D01*
X125934020Y-135125417D01*
X125921887Y-135140557D01*
X125910638Y-135147592D01*
X125901196Y-135149444D01*
X125869029Y-135148451D01*
X125850867Y-135144379D01*
X125835297Y-135138060D01*
X125799072Y-135123284D01*
X125744856Y-135101138D01*
X125675313Y-135072713D01*
X125593108Y-135039098D01*
X125500905Y-135001381D01*
X125401368Y-134960651D01*
X125384696Y-134953828D01*
X124937424Y-134770773D01*
X124828223Y-134769905D01*
X124773822Y-134768770D01*
X124737901Y-134765399D01*
X124713756Y-134758274D01*
X124694680Y-134745875D01*
X124685285Y-134737540D01*
X124639829Y-134681411D01*
X124618320Y-134619482D01*
X124616375Y-134592649D01*
G37*
G36*
X124646706Y-136303690D02*
G01*
X124729239Y-136303690D01*
X124744603Y-136342881D01*
X124762735Y-136361923D01*
X124806916Y-136384815D01*
X124850285Y-136382673D01*
X124878720Y-136367866D01*
X124911014Y-136332793D01*
X124923349Y-136291667D01*
X124917526Y-136250542D01*
X124895345Y-136215467D01*
X124858607Y-136192494D01*
X124824844Y-136186850D01*
X124782012Y-136197027D01*
X124750258Y-136224241D01*
X124731896Y-136261969D01*
X124729239Y-136303690D01*
X124646706Y-136303690D01*
X124644367Y-136263549D01*
X124649047Y-136224277D01*
X124658355Y-136196409D01*
X124677124Y-136171020D01*
X124710188Y-136139185D01*
X124713181Y-136136468D01*
X124730319Y-136120533D01*
X124745244Y-136104811D01*
X124759240Y-136086652D01*
X124773593Y-136063405D01*
X124789586Y-136032420D01*
X124808503Y-135991048D01*
X124831629Y-135936639D01*
X124860248Y-135866543D01*
X124895644Y-135778110D01*
X124935553Y-135677634D01*
X124973119Y-135582500D01*
X125007530Y-135494510D01*
X125037713Y-135416475D01*
X125062594Y-135351208D01*
X125081099Y-135301521D01*
X125092154Y-135270224D01*
X125094914Y-135260390D01*
X125084008Y-135249491D01*
X125054430Y-135231783D01*
X125010887Y-135209849D01*
X124965773Y-135189536D01*
X124908304Y-135164234D01*
X124870310Y-135145296D01*
X124847740Y-135130057D01*
X124836542Y-135115852D01*
X124832880Y-135102109D01*
X124835352Y-135067613D01*
X124847240Y-135027735D01*
X124864987Y-134990069D01*
X124885038Y-134962205D01*
X124903313Y-134951727D01*
X124924477Y-134956581D01*
X124963338Y-134969815D01*
X125015161Y-134989437D01*
X125075215Y-135013455D01*
X125138767Y-135039876D01*
X125201083Y-135066707D01*
X125257431Y-135091957D01*
X125303078Y-135113633D01*
X125333292Y-135129743D01*
X125342799Y-135136734D01*
X125346969Y-135141718D01*
X125350089Y-135146726D01*
X125351436Y-135153819D01*
X125350287Y-135165058D01*
X125345919Y-135182501D01*
X125337611Y-135208210D01*
X125324638Y-135244244D01*
X125306280Y-135292664D01*
X125281811Y-135355530D01*
X125250511Y-135434901D01*
X125211657Y-135532839D01*
X125164524Y-135651404D01*
X125145228Y-135699944D01*
X125099651Y-135814715D01*
X125062638Y-135908425D01*
X125033424Y-135983419D01*
X125011242Y-136042041D01*
X124995327Y-136086638D01*
X124984912Y-136119554D01*
X124979231Y-136143136D01*
X124977518Y-136159727D01*
X124979006Y-136171674D01*
X124982929Y-136181322D01*
X124986117Y-136186957D01*
X125004922Y-136241198D01*
X125005666Y-136302467D01*
X124990111Y-136362920D01*
X124960014Y-136414715D01*
X124928576Y-136443411D01*
X124890625Y-136459234D01*
X124841150Y-136469009D01*
X124793515Y-136470656D01*
X124773635Y-136467536D01*
X124714968Y-136439716D01*
X124672613Y-136394231D01*
X124648478Y-136334094D01*
X124646706Y-136303690D01*
G37*
D12*
X134526000Y-144570000D02*
X141826000Y-144570000D01*
X134526000Y-150070000D02*
X141826000Y-150070000D01*
X141826000Y-150070000D02*
X141826000Y-148920000D01*
D13*
X141834708Y-149361292D02*
X141116228Y-150079772D01*
X129844000Y-146738000D02*
G75*
G03*
X129844000Y-146738000I-50000J0D01*
G01*
D12*
X122265000Y-151257000D02*
X122265000Y-153057000D01*
X122265000Y-151257000D02*
X122265000Y-150457000D01*
X125385000Y-151257000D02*
X125385000Y-152057000D01*
X125385000Y-151257000D02*
X125385000Y-150457000D01*
X116332000Y-149840000D02*
X112882000Y-149840000D01*
X116332000Y-149840000D02*
X118282000Y-149840000D01*
X116332000Y-154960000D02*
X114382000Y-154960000D01*
X116332000Y-154960000D02*
X118282000Y-154960000D01*
X111105836Y-143235000D02*
X110890164Y-143235000D01*
X111105836Y-142515000D02*
X110890164Y-142515000D01*
X147480000Y-149212000D02*
X148590000Y-149212000D01*
X147480000Y-149972000D02*
X147480000Y-149212000D01*
X147480000Y-150732000D02*
X147480000Y-151937000D01*
X147480000Y-150732000D02*
X148026529Y-150732000D01*
X147480000Y-151937000D02*
X148282470Y-151937000D01*
X148897530Y-151937000D02*
X149700000Y-151937000D01*
X149153471Y-150732000D02*
X149700000Y-150732000D01*
X149700000Y-150732000D02*
X149700000Y-151937000D01*
X118408403Y-144379280D02*
X118408403Y-144660440D01*
X117388403Y-144379280D02*
X117388403Y-144660440D01*
X149827000Y-121171000D02*
X148717000Y-121171000D01*
X149827000Y-120411000D02*
X149827000Y-121171000D01*
X149827000Y-119651000D02*
X149827000Y-118446000D01*
X149827000Y-119651000D02*
X149280471Y-119651000D01*
X149827000Y-118446000D02*
X149024530Y-118446000D01*
X148409470Y-118446000D02*
X147607000Y-118446000D01*
X148153529Y-119651000D02*
X147607000Y-119651000D01*
X147607000Y-119651000D02*
X147607000Y-118446000D01*
X134526000Y-121710000D02*
X141826000Y-121710000D01*
X134526000Y-127210000D02*
X141826000Y-127210000D01*
X141826000Y-127210000D02*
X141826000Y-126060000D01*
D13*
X141834708Y-126501292D02*
X141116228Y-127219772D01*
D12*
X136779000Y-115860000D02*
X138579000Y-115860000D01*
X136779000Y-115860000D02*
X135979000Y-115860000D01*
X136779000Y-112740000D02*
X137579000Y-112740000D01*
X136779000Y-112740000D02*
X135979000Y-112740000D01*
%LPC*%
D16*
X144526000Y-150493000D03*
X144526000Y-151513000D03*
D17*
X127191999Y-125941999D03*
X125791999Y-125941999D03*
X125791999Y-127041999D03*
X127191999Y-127041999D03*
D18*
X117287000Y-137922000D03*
X116647000Y-137922000D03*
X115763000Y-120142000D03*
X115123000Y-120142000D03*
D19*
X143867500Y-146304000D03*
X145692500Y-146304000D03*
D20*
X111689000Y-134142000D03*
X112329000Y-134142000D03*
D21*
X105600331Y-122515000D03*
X105600331Y-147515000D03*
D22*
X107650330Y-130699999D03*
D23*
X107650331Y-132990000D03*
X107650331Y-135280000D03*
X107650331Y-137570000D03*
X107650331Y-139860000D03*
X105670331Y-129555000D03*
X105670331Y-131845000D03*
X105670331Y-134135000D03*
X105670331Y-136425000D03*
X105670331Y-138715000D03*
X103690331Y-130700000D03*
X103690331Y-132990000D03*
X103690331Y-135280000D03*
X103690331Y-137570000D03*
X103690331Y-139860000D03*
D20*
X115123000Y-135636000D03*
X115763000Y-135636000D03*
D24*
X119380000Y-143487272D03*
X119380000Y-144457272D03*
D25*
X111618999Y-156557999D03*
X112268999Y-156557999D03*
X112918999Y-156557999D03*
X113568999Y-156557999D03*
X114218999Y-156557999D03*
D26*
X109418999Y-159257999D03*
D27*
X110018999Y-159257999D03*
D28*
X110418999Y-156557999D03*
D29*
X111918999Y-159257999D03*
X113918999Y-159257999D03*
D28*
X115418999Y-156557999D03*
D27*
X115818999Y-159257999D03*
D26*
X116418999Y-159257999D03*
D30*
X146000000Y-156000000D03*
D31*
X146000000Y-156000000D03*
D20*
X115123000Y-136652000D03*
X115763000Y-136652000D03*
D32*
X135725999Y-134239999D03*
X135725999Y-137539999D03*
X140625999Y-137539999D03*
X140625999Y-134239999D03*
D33*
X119150999Y-122935999D03*
D34*
X121690999Y-122935999D03*
X124230999Y-122935999D03*
X126770999Y-122935999D03*
X129310999Y-122935999D03*
X131850999Y-122935999D03*
D35*
X124333000Y-125923000D03*
X124333000Y-125283000D03*
D36*
X133219593Y-146172318D03*
X133219593Y-146812318D03*
D35*
X123190000Y-144755000D03*
X123190000Y-144115000D03*
D36*
X131194296Y-146179445D03*
X131194296Y-146819445D03*
X134112000Y-143317000D03*
X134112000Y-143957000D03*
D20*
X143952000Y-124460000D03*
X144592000Y-124460000D03*
D32*
X135725999Y-128524999D03*
X135725999Y-131824999D03*
X140625999Y-131824999D03*
X140625999Y-128524999D03*
D20*
X115123000Y-124729000D03*
X115763000Y-124729000D03*
D37*
X137027999Y-159130999D03*
D38*
X135757999Y-159130999D03*
X134487999Y-159130999D03*
X133217999Y-159130999D03*
D39*
X129226000Y-130215000D03*
X128726000Y-130215000D03*
X128226000Y-130215000D03*
X127726000Y-130215000D03*
X127226000Y-130215000D03*
X126726000Y-130215000D03*
X126226000Y-130215000D03*
X125726000Y-130215000D03*
X125226000Y-130215000D03*
X124726000Y-130215000D03*
X124226000Y-130215000D03*
X123726000Y-130215000D03*
X123226000Y-130215000D03*
X122726000Y-130215000D03*
X122226000Y-130215000D03*
X121726000Y-130215000D03*
D40*
X119801000Y-132140000D03*
X119801000Y-132640000D03*
X119801000Y-133140000D03*
X119801000Y-133640000D03*
X119801000Y-134140000D03*
X119801000Y-134640000D03*
X119801000Y-135140000D03*
X119801000Y-135640000D03*
X119801000Y-136140000D03*
X119801000Y-136640000D03*
X119801000Y-137140000D03*
X119801000Y-137640000D03*
X119801000Y-138140000D03*
X119801000Y-138640000D03*
X119801000Y-139140000D03*
X119801000Y-139640000D03*
D39*
X121726000Y-141565000D03*
X122226000Y-141565000D03*
X122726000Y-141565000D03*
X123226000Y-141565000D03*
X123726000Y-141565000D03*
X124226000Y-141565000D03*
X124726000Y-141565000D03*
X125226000Y-141565000D03*
X125726000Y-141565000D03*
X126226000Y-141565000D03*
X126726000Y-141565000D03*
X127226000Y-141565000D03*
X127726000Y-141565000D03*
X128226000Y-141565000D03*
X128726000Y-141565000D03*
X129226000Y-141565000D03*
D40*
X131151000Y-139640000D03*
X131151000Y-139140000D03*
X131151000Y-138640000D03*
X131151000Y-138140000D03*
X131151000Y-137640000D03*
X131151000Y-137140000D03*
X131151000Y-136640000D03*
X131151000Y-136140000D03*
X131151000Y-135640000D03*
X131151000Y-135140000D03*
X131151000Y-134640000D03*
X131151000Y-134140000D03*
X131151000Y-133640000D03*
X131151000Y-133140000D03*
X131151000Y-132640000D03*
X131151000Y-132140000D03*
D41*
X128016000Y-117348000D03*
X125476000Y-117348000D03*
X122936000Y-117348000D03*
D42*
X120276000Y-113148001D03*
X130676000Y-113148001D03*
D35*
X134112000Y-113604000D03*
X134112000Y-112964000D03*
D36*
X132207000Y-144079000D03*
X132207000Y-144719000D03*
D20*
X140015000Y-156718000D03*
X140655000Y-156718000D03*
D36*
X134112000Y-118425000D03*
X134112000Y-119065000D03*
D35*
X120777000Y-125923000D03*
X120777000Y-125283000D03*
D24*
X125476000Y-147343000D03*
X125476000Y-148313000D03*
D36*
X134112000Y-115250000D03*
X134112000Y-115890000D03*
D16*
X128651000Y-147318000D03*
X128651000Y-148338000D03*
D36*
X122174000Y-144115000D03*
X122174000Y-144755000D03*
X132207000Y-146172000D03*
X132207000Y-146812000D03*
D37*
X148716999Y-129031999D03*
D38*
X148716999Y-127761999D03*
X148716999Y-126491999D03*
D43*
X114076000Y-115655000D03*
X115036000Y-115655000D03*
D35*
X130683000Y-125923000D03*
X130683000Y-125283000D03*
D20*
X113284000Y-128285000D03*
X113924000Y-128285000D03*
D44*
X116332000Y-144132000D03*
X116332000Y-145682000D03*
D45*
X111717000Y-135143000D03*
X112687000Y-135143000D03*
D36*
X121285000Y-144115000D03*
X121285000Y-144755000D03*
X125222000Y-144115000D03*
X125222000Y-144755000D03*
X134112000Y-135443000D03*
X134112000Y-136083000D03*
X134112000Y-138745000D03*
X134112000Y-139385000D03*
D24*
X145669000Y-150518000D03*
X145669000Y-151488000D03*
D46*
X148003499Y-140155499D03*
D47*
X148003499Y-137615499D03*
X148003499Y-135075499D03*
X148003499Y-132535499D03*
D20*
X111821000Y-114681000D03*
X112461000Y-114681000D03*
X113721000Y-129189000D03*
X114361000Y-129189000D03*
D36*
X134112000Y-147000000D03*
X134112000Y-147640000D03*
D37*
X118348999Y-158495999D03*
D38*
X119618999Y-158495999D03*
D37*
X148716999Y-122808999D03*
D38*
X148716999Y-124078999D03*
D18*
X117287000Y-131572000D03*
X116647000Y-131572000D03*
X115763000Y-123825000D03*
X115123000Y-123825000D03*
X117287000Y-132461000D03*
X116647000Y-132461000D03*
D20*
X115123000Y-118364000D03*
X115763000Y-118364000D03*
X115123000Y-119253000D03*
X115763000Y-119253000D03*
D37*
X148589999Y-143763999D03*
D38*
X148589999Y-145033999D03*
X148589999Y-146303999D03*
X148589999Y-147573999D03*
D48*
X110549999Y-151237999D03*
X110549999Y-152037999D03*
D49*
X111699999Y-151637999D03*
D18*
X121478000Y-150114000D03*
X120838000Y-150114000D03*
D35*
X123952000Y-144755000D03*
X123952000Y-144115000D03*
D20*
X111633000Y-128285000D03*
X112273000Y-128285000D03*
D18*
X117251000Y-141351000D03*
X116611000Y-141351000D03*
X118303000Y-146939000D03*
X117663000Y-146939000D03*
D20*
X113340000Y-134142000D03*
X113980000Y-134142000D03*
X111664000Y-139369509D03*
X112304000Y-139369509D03*
D18*
X117287000Y-134112000D03*
X116647000Y-134112000D03*
D20*
X115123000Y-125618000D03*
X115763000Y-125618000D03*
D45*
X111633022Y-122862923D03*
X112603022Y-122862923D03*
D20*
X143952000Y-119888000D03*
X144592000Y-119888000D03*
D36*
X131191000Y-144079000D03*
X131191000Y-144719000D03*
D50*
X114044000Y-114554000D03*
X115064000Y-114554000D03*
D45*
X111717000Y-129936000D03*
X112687000Y-129936000D03*
D18*
X119700000Y-146939000D03*
X119060000Y-146939000D03*
D24*
X130212000Y-144168000D03*
X130212000Y-145138000D03*
D18*
X117253481Y-138938000D03*
X116613481Y-138938000D03*
D51*
X116332000Y-148730000D03*
X116332000Y-147180000D03*
D35*
X128524000Y-125923000D03*
X128524000Y-125283000D03*
D24*
X110744000Y-153566000D03*
X110744000Y-154536000D03*
D32*
X135725999Y-139954999D03*
X135725999Y-143254999D03*
X140625999Y-143254999D03*
X140625999Y-139954999D03*
D36*
X120396000Y-144115000D03*
X120396000Y-144755000D03*
D52*
X111886999Y-131444999D03*
X111886999Y-132094999D03*
X111886999Y-132744999D03*
X113786999Y-132744999D03*
X113786999Y-131444999D03*
D20*
X131506000Y-156723500D03*
X132146000Y-156723500D03*
D16*
X144702000Y-128395000D03*
X144702000Y-129415000D03*
D51*
X143256000Y-129299000D03*
X143256000Y-127749000D03*
D53*
X110998000Y-144248500D03*
X110998000Y-146073500D03*
D20*
X119441000Y-156464000D03*
X120081000Y-156464000D03*
D52*
X111825999Y-125587999D03*
X111825999Y-126237999D03*
X111825999Y-126887999D03*
X113725999Y-126887999D03*
X113725999Y-125587999D03*
D35*
X128651000Y-152847000D03*
X128651000Y-152207000D03*
D20*
X143952000Y-121412000D03*
X144592000Y-121412000D03*
X113721000Y-130078000D03*
X114361000Y-130078000D03*
D16*
X123952000Y-147318000D03*
X123952000Y-148338000D03*
D36*
X134112000Y-148905000D03*
X134112000Y-149545000D03*
D16*
X126619000Y-147318000D03*
X126619000Y-148338000D03*
D45*
X111627000Y-124040000D03*
X112597000Y-124040000D03*
D54*
X133411000Y-152792000D03*
X132461000Y-152792000D03*
X131511000Y-152792000D03*
X131511000Y-155067000D03*
X133411000Y-155067000D03*
D55*
X112854500Y-142367000D03*
X114729500Y-142367000D03*
D30*
X105000000Y-115000000D03*
D31*
X105000000Y-115000000D03*
D20*
X143952000Y-122936000D03*
X144592000Y-122936000D03*
D36*
X134112000Y-126172000D03*
X134112000Y-126812000D03*
D56*
X112842000Y-146679500D03*
X113792000Y-146679500D03*
X114742000Y-146679500D03*
X114742000Y-144404500D03*
X112842000Y-144404500D03*
D35*
X126492000Y-152847000D03*
X126492000Y-152207000D03*
D19*
X143867500Y-148336000D03*
X145692500Y-148336000D03*
D35*
X121666000Y-125923000D03*
X121666000Y-125283000D03*
D20*
X136713000Y-156718000D03*
X137353000Y-156718000D03*
D35*
X124333000Y-127447000D03*
X124333000Y-126807000D03*
D24*
X122816678Y-147339089D03*
X122816678Y-148309089D03*
D57*
X128032235Y-156155000D03*
X125476000Y-156155000D03*
X122932235Y-156155000D03*
D58*
X128032235Y-158805000D03*
X122932235Y-158805000D03*
D36*
X134112000Y-137094000D03*
X134112000Y-137734000D03*
D59*
X119809500Y-148463000D03*
X117934500Y-148463000D03*
D50*
X116076000Y-115697000D03*
X117096000Y-115697000D03*
D24*
X145923000Y-128471000D03*
X145923000Y-129441000D03*
D36*
X111760000Y-153924000D03*
X111760000Y-154564000D03*
D30*
X146000000Y-115000000D03*
D31*
X146000000Y-115000000D03*
D35*
X132969000Y-125923000D03*
X132969000Y-125283000D03*
D60*
X114854500Y-148590000D03*
X112729500Y-148590000D03*
D52*
X111886999Y-136651999D03*
X111886999Y-137301999D03*
X111886999Y-137951999D03*
X113786999Y-137951999D03*
X113786999Y-136651999D03*
D36*
X128524000Y-144115000D03*
X128524000Y-144755000D03*
D32*
X135725999Y-117094999D03*
X135725999Y-120394999D03*
X140625999Y-120394999D03*
X140625999Y-117094999D03*
D61*
X141986000Y-159258000D03*
D36*
X127762000Y-144115000D03*
X127762000Y-144755000D03*
D35*
X134112000Y-151069000D03*
X134112000Y-150429000D03*
D36*
X134112000Y-131760000D03*
X134112000Y-132400000D03*
D20*
X115123000Y-126873000D03*
X115763000Y-126873000D03*
D36*
X134112000Y-129855000D03*
X134112000Y-130495000D03*
X134112000Y-120457000D03*
X134112000Y-121097000D03*
D20*
X133284000Y-156718000D03*
X133924000Y-156718000D03*
D32*
X135725999Y-151384999D03*
X135725999Y-154684999D03*
X140625999Y-154684999D03*
X140625999Y-151384999D03*
D36*
X140716000Y-114615000D03*
X140716000Y-115255000D03*
D35*
X131445000Y-125923000D03*
X131445000Y-125283000D03*
D18*
X118430000Y-156464000D03*
X117790000Y-156464000D03*
D45*
X111656000Y-119253000D03*
X112626000Y-119253000D03*
D20*
X113228697Y-139368025D03*
X113868697Y-139368025D03*
D35*
X132207000Y-125923000D03*
X132207000Y-125283000D03*
D32*
X135725999Y-145669999D03*
X135725999Y-148969999D03*
X140625999Y-148969999D03*
X140625999Y-145669999D03*
D30*
X105000000Y-156000000D03*
D31*
X105000000Y-156000000D03*
D36*
X129323000Y-144115000D03*
X129323000Y-144755000D03*
D24*
X129794000Y-147343000D03*
X129794000Y-148313000D03*
D20*
X115123000Y-137922000D03*
X115763000Y-137922000D03*
D18*
X117251000Y-139744527D03*
X116611000Y-139744527D03*
D20*
X116520000Y-114681000D03*
X117160000Y-114681000D03*
X115123000Y-122936000D03*
X115763000Y-122936000D03*
D36*
X132461000Y-150429000D03*
X132461000Y-151069000D03*
D56*
X122875000Y-152394500D03*
X123825000Y-152394500D03*
X124775000Y-152394500D03*
X124775000Y-150119500D03*
X122875000Y-150119500D03*
D36*
X126746000Y-144115000D03*
X126746000Y-144755000D03*
D62*
X113757000Y-150495000D03*
X113757000Y-151765000D03*
X113757000Y-153035000D03*
X113757000Y-154305000D03*
X118907000Y-154305000D03*
X118907000Y-153035000D03*
X118907000Y-151765000D03*
X118907000Y-150495000D03*
D63*
X111478000Y-142875000D03*
X110518000Y-142875000D03*
D36*
X134112000Y-133538000D03*
X134112000Y-134178000D03*
X134112000Y-141285000D03*
X134112000Y-141925000D03*
X125984000Y-144115000D03*
X125984000Y-144755000D03*
X133223000Y-144079000D03*
X133223000Y-144719000D03*
D35*
X123190000Y-125923000D03*
X123190000Y-125283000D03*
D37*
X148589999Y-149971999D03*
D38*
X148589999Y-151241999D03*
D18*
X117287000Y-129794000D03*
X116647000Y-129794000D03*
D20*
X115123000Y-122047000D03*
X115763000Y-122047000D03*
D35*
X129794000Y-125923000D03*
X129794000Y-125283000D03*
D44*
X117898403Y-143744860D03*
X117898403Y-145294860D03*
D37*
X148716999Y-120410999D03*
D38*
X148716999Y-119140999D03*
D32*
X135725999Y-122809999D03*
X135725999Y-126109999D03*
X140625999Y-126109999D03*
X140625999Y-122809999D03*
D61*
X109855000Y-113157000D03*
D36*
X134112000Y-124140000D03*
X134112000Y-124780000D03*
D20*
X115123000Y-134112000D03*
X115763000Y-134112000D03*
D18*
X117251000Y-140589000D03*
X116611000Y-140589000D03*
D64*
X137916500Y-115250000D03*
X137916500Y-114300000D03*
X137916500Y-113350000D03*
X135641500Y-113350000D03*
X135641500Y-115250000D03*
D18*
X117287000Y-135636000D03*
X116647000Y-135636000D03*
D36*
X122428000Y-125918000D03*
X122428000Y-126558000D03*
M02*
