%TF.GenerationSoftware,KiCad,Pcbnew,(7.0.0)*%
%TF.CreationDate,2023-09-29T14:09:18-04:00*%
%TF.ProjectId,_HW_ToslinkToDMX,5f48575f-546f-4736-9c69-6e6b546f444d,rev?*%
%TF.SameCoordinates,Original*%
%TF.FileFunction,Paste,Bot*%
%TF.FilePolarity,Positive*%
%FSLAX46Y46*%
G04 Gerber Fmt 4.6, Leading zero omitted, Abs format (unit mm)*
G04 Created by KiCad (PCBNEW (7.0.0)) date 2023-09-29 14:09:18*
%MOMM*%
%LPD*%
G01*
G04 APERTURE LIST*
G04 Aperture macros list*
%AMRoundRect*
0 Rectangle with rounded corners*
0 $1 Rounding radius*
0 $2 $3 $4 $5 $6 $7 $8 $9 X,Y pos of 4 corners*
0 Add a 4 corners polygon primitive as box body*
4,1,4,$2,$3,$4,$5,$6,$7,$8,$9,$2,$3,0*
0 Add four circle primitives for the rounded corners*
1,1,$1+$1,$2,$3*
1,1,$1+$1,$4,$5*
1,1,$1+$1,$6,$7*
1,1,$1+$1,$8,$9*
0 Add four rect primitives between the rounded corners*
20,1,$1+$1,$2,$3,$4,$5,0*
20,1,$1+$1,$4,$5,$6,$7,0*
20,1,$1+$1,$6,$7,$8,$9,0*
20,1,$1+$1,$8,$9,$2,$3,0*%
G04 Aperture macros list end*
%ADD10RoundRect,0.135000X-0.185000X0.135000X-0.185000X-0.135000X0.185000X-0.135000X0.185000X0.135000X0*%
%ADD11RoundRect,0.150000X-0.150000X0.512500X-0.150000X-0.512500X0.150000X-0.512500X0.150000X0.512500X0*%
%ADD12RoundRect,0.150000X0.587500X0.150000X-0.587500X0.150000X-0.587500X-0.150000X0.587500X-0.150000X0*%
%ADD13RoundRect,0.225000X0.250000X-0.225000X0.250000X0.225000X-0.250000X0.225000X-0.250000X-0.225000X0*%
%ADD14RoundRect,0.079500X-0.100500X0.079500X-0.100500X-0.079500X0.100500X-0.079500X0.100500X0.079500X0*%
%ADD15RoundRect,0.225000X-0.225000X-0.250000X0.225000X-0.250000X0.225000X0.250000X-0.225000X0.250000X0*%
%ADD16RoundRect,0.250000X-0.312500X-0.625000X0.312500X-0.625000X0.312500X0.625000X-0.312500X0.625000X0*%
%ADD17RoundRect,0.250000X-0.650000X1.000000X-0.650000X-1.000000X0.650000X-1.000000X0.650000X1.000000X0*%
%ADD18RoundRect,0.079500X-0.079500X-0.100500X0.079500X-0.100500X0.079500X0.100500X-0.079500X0.100500X0*%
%ADD19RoundRect,0.225000X-0.250000X0.225000X-0.250000X-0.225000X0.250000X-0.225000X0.250000X0.225000X0*%
%ADD20RoundRect,0.250000X-0.450000X0.262500X-0.450000X-0.262500X0.450000X-0.262500X0.450000X0.262500X0*%
%ADD21RoundRect,0.079500X0.079500X0.100500X-0.079500X0.100500X-0.079500X-0.100500X0.079500X-0.100500X0*%
%ADD22RoundRect,0.243750X-0.243750X-0.456250X0.243750X-0.456250X0.243750X0.456250X-0.243750X0.456250X0*%
%ADD23RoundRect,0.250000X-0.475000X0.250000X-0.475000X-0.250000X0.475000X-0.250000X0.475000X0.250000X0*%
%ADD24RoundRect,0.150000X-0.512500X-0.150000X0.512500X-0.150000X0.512500X0.150000X-0.512500X0.150000X0*%
%ADD25RoundRect,0.150000X0.150000X-0.850000X0.150000X0.850000X-0.150000X0.850000X-0.150000X-0.850000X0*%
%ADD26RoundRect,0.250000X0.262500X0.450000X-0.262500X0.450000X-0.262500X-0.450000X0.262500X-0.450000X0*%
%ADD27RoundRect,0.079500X0.100500X-0.079500X0.100500X0.079500X-0.100500X0.079500X-0.100500X-0.079500X0*%
%ADD28R,1.803400X0.355600*%
%ADD29RoundRect,0.243750X0.456250X-0.243750X0.456250X0.243750X-0.456250X0.243750X-0.456250X-0.243750X0*%
%ADD30RoundRect,0.150000X0.512500X0.150000X-0.512500X0.150000X-0.512500X-0.150000X0.512500X-0.150000X0*%
%ADD31RoundRect,0.150000X-0.825000X-0.150000X0.825000X-0.150000X0.825000X0.150000X-0.825000X0.150000X0*%
%ADD32RoundRect,0.150000X-0.587500X-0.150000X0.587500X-0.150000X0.587500X0.150000X-0.587500X0.150000X0*%
%ADD33RoundRect,0.150000X-0.800000X-0.150000X0.800000X-0.150000X0.800000X0.150000X-0.800000X0.150000X0*%
%ADD34RoundRect,0.250000X0.450000X-0.262500X0.450000X0.262500X-0.450000X0.262500X-0.450000X-0.262500X0*%
%ADD35RoundRect,0.150000X0.150000X-0.512500X0.150000X0.512500X-0.150000X0.512500X-0.150000X-0.512500X0*%
G04 APERTURE END LIST*
D10*
X139192000Y-116330000D03*
X139192000Y-117350000D03*
D11*
X128336000Y-137546500D03*
X129286000Y-137546500D03*
X130236000Y-137546500D03*
X130236000Y-139821500D03*
X128336000Y-139821500D03*
D12*
X144828500Y-130114000D03*
X144828500Y-132014000D03*
X142953500Y-131064000D03*
D13*
X136779000Y-138316000D03*
X136779000Y-136766000D03*
D14*
X136652000Y-116876000D03*
X136652000Y-117566000D03*
D15*
X116446000Y-144145000D03*
X117996000Y-144145000D03*
D16*
X110678500Y-130683000D03*
X113603500Y-130683000D03*
D17*
X110109000Y-143034000D03*
X110109000Y-147034000D03*
D18*
X113955000Y-142748000D03*
X114645000Y-142748000D03*
D19*
X140589000Y-155943000D03*
X140589000Y-157493000D03*
D20*
X140716000Y-128373500D03*
X140716000Y-130198500D03*
D21*
X128361000Y-133858000D03*
X127671000Y-133858000D03*
D15*
X112702000Y-144165000D03*
X114252000Y-144165000D03*
D22*
X143207500Y-128397000D03*
X145082500Y-128397000D03*
D15*
X116446000Y-150749000D03*
X117996000Y-150749000D03*
D16*
X110678500Y-132969000D03*
X113603500Y-132969000D03*
D11*
X112715000Y-152786500D03*
X113665000Y-152786500D03*
X114615000Y-152786500D03*
X114615000Y-155061500D03*
X112715000Y-155061500D03*
D13*
X138303000Y-138316000D03*
X138303000Y-136766000D03*
D12*
X145971500Y-147894000D03*
X145971500Y-149794000D03*
X144096500Y-148844000D03*
D15*
X112702000Y-150769000D03*
X114252000Y-150769000D03*
D19*
X132588000Y-141592000D03*
X132588000Y-143142000D03*
D23*
X111506000Y-112461000D03*
X111506000Y-114361000D03*
D18*
X127671000Y-132588000D03*
X128361000Y-132588000D03*
D24*
X110821000Y-120142000D03*
X110821000Y-119192000D03*
X110821000Y-118242000D03*
X113096000Y-118242000D03*
X113096000Y-120142000D03*
D25*
X144272000Y-124801000D03*
X143002000Y-124801000D03*
X141732000Y-124801000D03*
X140462000Y-124801000D03*
X139192000Y-124801000D03*
X137922000Y-124801000D03*
X136652000Y-124801000D03*
X135382000Y-124801000D03*
X135382000Y-119801000D03*
X136652000Y-119801000D03*
X137922000Y-119801000D03*
X139192000Y-119801000D03*
X140462000Y-119801000D03*
X141732000Y-119801000D03*
X143002000Y-119801000D03*
X144272000Y-119801000D03*
D26*
X146200500Y-151638000D03*
X144375500Y-151638000D03*
D27*
X136652000Y-127599000D03*
X136652000Y-126909000D03*
D11*
X112715000Y-146309500D03*
X113665000Y-146309500D03*
X114615000Y-146309500D03*
X114615000Y-148584500D03*
X112715000Y-148584500D03*
D28*
X135115299Y-144589499D03*
X135115299Y-143954499D03*
X135115299Y-143319499D03*
X135115299Y-142684499D03*
X135115299Y-142049499D03*
X135115299Y-141414499D03*
X135115299Y-140779499D03*
X135115299Y-140144499D03*
X140220699Y-140144499D03*
X140220699Y-140779499D03*
X140220699Y-141414499D03*
X140220699Y-142049499D03*
X140220699Y-142684499D03*
X140220699Y-143319499D03*
X140220699Y-143954499D03*
X140220699Y-144589499D03*
D29*
X110617000Y-154734500D03*
X110617000Y-152859500D03*
D30*
X117281500Y-114493000D03*
X117281500Y-115443000D03*
X117281500Y-116393000D03*
X115006500Y-116393000D03*
X115006500Y-114493000D03*
D31*
X135574000Y-153924000D03*
X135574000Y-152654000D03*
X135574000Y-151384000D03*
X135574000Y-150114000D03*
X140524000Y-150114000D03*
X140524000Y-151384000D03*
X140524000Y-152654000D03*
X140524000Y-153924000D03*
D19*
X136652000Y-114033000D03*
X136652000Y-115583000D03*
D20*
X109474000Y-112498500D03*
X109474000Y-114323500D03*
D32*
X144096500Y-146304000D03*
X144096500Y-144404000D03*
X145971500Y-145354000D03*
D11*
X116469000Y-146309500D03*
X117419000Y-146309500D03*
X118369000Y-146309500D03*
X118369000Y-148584500D03*
X116469000Y-148584500D03*
D22*
X143207500Y-133985000D03*
X145082500Y-133985000D03*
D13*
X128016000Y-131204000D03*
X128016000Y-129654000D03*
D33*
X130866000Y-133858000D03*
X130866000Y-132588000D03*
X130866000Y-131318000D03*
X130866000Y-130048000D03*
X137866000Y-130048000D03*
X137866000Y-131318000D03*
X137866000Y-132588000D03*
X137866000Y-133858000D03*
D16*
X110678500Y-137541000D03*
X113603500Y-137541000D03*
D34*
X140716000Y-133627500D03*
X140716000Y-131802500D03*
D19*
X145155015Y-137711138D03*
X145155015Y-139261138D03*
X126746000Y-138544000D03*
X126746000Y-140094000D03*
X140716000Y-135369000D03*
X140716000Y-136919000D03*
D24*
X110821000Y-123825000D03*
X110821000Y-122875000D03*
X110821000Y-121925000D03*
X113096000Y-121925000D03*
X113096000Y-123825000D03*
D16*
X110678500Y-135255000D03*
X113603500Y-135255000D03*
X110678500Y-139827000D03*
X113603500Y-139827000D03*
D15*
X125082000Y-135763000D03*
X126632000Y-135763000D03*
D29*
X143256000Y-139621500D03*
X143256000Y-137746500D03*
D35*
X125099615Y-139878088D03*
X124149615Y-139878088D03*
X123199615Y-139878088D03*
X123199615Y-137603088D03*
X125099615Y-137603088D03*
M02*
