%TF.GenerationSoftware,KiCad,Pcbnew,(7.0.0)*%
%TF.CreationDate,2023-09-29T14:09:18-04:00*%
%TF.ProjectId,_HW_ToslinkToDMX,5f48575f-546f-4736-9c69-6e6b546f444d,rev?*%
%TF.SameCoordinates,Original*%
%TF.FileFunction,Soldermask,Top*%
%TF.FilePolarity,Negative*%
%FSLAX46Y46*%
G04 Gerber Fmt 4.6, Leading zero omitted, Abs format (unit mm)*
G04 Created by KiCad (PCBNEW (7.0.0)) date 2023-09-29 14:09:18*
%MOMM*%
%LPD*%
G01*
G04 APERTURE LIST*
G04 Aperture macros list*
%AMRoundRect*
0 Rectangle with rounded corners*
0 $1 Rounding radius*
0 $2 $3 $4 $5 $6 $7 $8 $9 X,Y pos of 4 corners*
0 Add a 4 corners polygon primitive as box body*
4,1,4,$2,$3,$4,$5,$6,$7,$8,$9,$2,$3,0*
0 Add four circle primitives for the rounded corners*
1,1,$1+$1,$2,$3*
1,1,$1+$1,$4,$5*
1,1,$1+$1,$6,$7*
1,1,$1+$1,$8,$9*
0 Add four rect primitives between the rounded corners*
20,1,$1+$1,$2,$3,$4,$5,0*
20,1,$1+$1,$4,$5,$6,$7,0*
20,1,$1+$1,$6,$7,$8,$9,0*
20,1,$1+$1,$8,$9,$2,$3,0*%
G04 Aperture macros list end*
%ADD10RoundRect,0.135000X-0.185000X0.135000X-0.185000X-0.135000X0.185000X-0.135000X0.185000X0.135000X0*%
%ADD11R,0.900000X0.800000*%
%ADD12RoundRect,0.100000X0.130000X0.100000X-0.130000X0.100000X-0.130000X-0.100000X0.130000X-0.100000X0*%
%ADD13RoundRect,0.250000X-0.262500X-0.450000X0.262500X-0.450000X0.262500X0.450000X-0.262500X0.450000X0*%
%ADD14RoundRect,0.100000X-0.130000X-0.100000X0.130000X-0.100000X0.130000X0.100000X-0.130000X0.100000X0*%
%ADD15C,4.000000*%
%ADD16R,1.600000X1.600000*%
%ADD17C,1.600000*%
%ADD18RoundRect,0.147500X-0.172500X0.147500X-0.172500X-0.147500X0.172500X-0.147500X0.172500X0.147500X0*%
%ADD19R,0.400000X1.350000*%
%ADD20O,0.890000X1.550000*%
%ADD21R,1.200000X1.550000*%
%ADD22O,1.250000X0.950000*%
%ADD23R,1.500000X1.550000*%
%ADD24C,3.600000*%
%ADD25C,5.600000*%
%ADD26R,1.500000X0.900000*%
%ADD27R,1.700000X1.700000*%
%ADD28O,1.700000X1.700000*%
%ADD29RoundRect,0.100000X0.100000X-0.130000X0.100000X0.130000X-0.100000X0.130000X-0.100000X-0.130000X0*%
%ADD30RoundRect,0.100000X-0.100000X0.130000X-0.100000X-0.130000X0.100000X-0.130000X0.100000X0.130000X0*%
%ADD31R,1.000000X1.000000*%
%ADD32O,1.000000X1.000000*%
%ADD33RoundRect,0.075000X-0.075000X0.700000X-0.075000X-0.700000X0.075000X-0.700000X0.075000X0.700000X0*%
%ADD34RoundRect,0.075000X-0.700000X0.075000X-0.700000X-0.075000X0.700000X-0.075000X0.700000X0.075000X0*%
%ADD35C,1.473200*%
%ADD36C,1.574800*%
%ADD37RoundRect,0.140000X-0.140000X-0.170000X0.140000X-0.170000X0.140000X0.170000X-0.140000X0.170000X0*%
%ADD38RoundRect,0.225000X-0.250000X0.225000X-0.250000X-0.225000X0.250000X-0.225000X0.250000X0.225000X0*%
%ADD39RoundRect,0.147500X-0.147500X-0.172500X0.147500X-0.172500X0.147500X0.172500X-0.147500X0.172500X0*%
%ADD40R,2.300000X1.500000*%
%ADD41O,2.300000X1.500000*%
%ADD42R,0.450000X0.400000*%
%ADD43R,0.450000X0.500000*%
%ADD44RoundRect,0.135000X-0.135000X-0.185000X0.135000X-0.185000X0.135000X0.185000X-0.135000X0.185000X0*%
%ADD45RoundRect,0.225000X0.250000X-0.225000X0.250000X0.225000X-0.250000X0.225000X-0.250000X-0.225000X0*%
%ADD46R,0.650000X0.400000*%
%ADD47RoundRect,0.250000X-0.450000X0.262500X-0.450000X-0.262500X0.450000X-0.262500X0.450000X0.262500X0*%
%ADD48RoundRect,0.150000X-0.150000X0.512500X-0.150000X-0.512500X0.150000X-0.512500X0.150000X0.512500X0*%
%ADD49RoundRect,0.243750X-0.243750X-0.456250X0.243750X-0.456250X0.243750X0.456250X-0.243750X0.456250X0*%
%ADD50RoundRect,0.150000X0.150000X-0.512500X0.150000X0.512500X-0.150000X0.512500X-0.150000X-0.512500X0*%
%ADD51C,1.750000*%
%ADD52C,1.524000*%
%ADD53RoundRect,0.243750X0.243750X0.456250X-0.243750X0.456250X-0.243750X-0.456250X0.243750X-0.456250X0*%
%ADD54RoundRect,0.218750X0.218750X0.381250X-0.218750X0.381250X-0.218750X-0.381250X0.218750X-0.381250X0*%
%ADD55C,1.000000*%
%ADD56RoundRect,0.150000X-0.725000X-0.150000X0.725000X-0.150000X0.725000X0.150000X-0.725000X0.150000X0*%
%ADD57RoundRect,0.140000X0.140000X0.170000X-0.140000X0.170000X-0.140000X-0.170000X0.140000X-0.170000X0*%
%ADD58RoundRect,0.150000X0.512500X0.150000X-0.512500X0.150000X-0.512500X-0.150000X0.512500X-0.150000X0*%
G04 APERTURE END LIST*
D10*
X144526000Y-150493000D03*
X144526000Y-151513000D03*
D11*
X127191999Y-125941999D03*
X125791999Y-125941999D03*
X125791999Y-127041999D03*
X127191999Y-127041999D03*
D12*
X117287000Y-137922000D03*
X116647000Y-137922000D03*
X115763000Y-120142000D03*
X115123000Y-120142000D03*
D13*
X143867500Y-146304000D03*
X145692500Y-146304000D03*
D14*
X111689000Y-134142000D03*
X112329000Y-134142000D03*
D15*
X105600331Y-122515000D03*
X105600331Y-147515000D03*
D16*
X107650330Y-130699999D03*
D17*
X107650331Y-132990000D03*
X107650331Y-135280000D03*
X107650331Y-137570000D03*
X107650331Y-139860000D03*
X105670331Y-129555000D03*
X105670331Y-131845000D03*
X105670331Y-134135000D03*
X105670331Y-136425000D03*
X105670331Y-138715000D03*
X103690331Y-130700000D03*
X103690331Y-132990000D03*
X103690331Y-135280000D03*
X103690331Y-137570000D03*
X103690331Y-139860000D03*
D14*
X115123000Y-135636000D03*
X115763000Y-135636000D03*
D18*
X119380000Y-143487272D03*
X119380000Y-144457272D03*
D19*
X111618999Y-156557999D03*
X112268999Y-156557999D03*
X112918999Y-156557999D03*
X113568999Y-156557999D03*
X114218999Y-156557999D03*
D20*
X109418999Y-159257999D03*
D21*
X110018999Y-159257999D03*
D22*
X110418999Y-156557999D03*
D23*
X111918999Y-159257999D03*
X113918999Y-159257999D03*
D22*
X115418999Y-156557999D03*
D21*
X115818999Y-159257999D03*
D20*
X116418999Y-159257999D03*
D24*
X146000000Y-156000000D03*
D25*
X146000000Y-156000000D03*
D14*
X115123000Y-136652000D03*
X115763000Y-136652000D03*
D26*
X135725999Y-134239999D03*
X135725999Y-137539999D03*
X140625999Y-137539999D03*
X140625999Y-134239999D03*
D27*
X119150999Y-122935999D03*
D28*
X121690999Y-122935999D03*
X124230999Y-122935999D03*
X126770999Y-122935999D03*
X129310999Y-122935999D03*
X131850999Y-122935999D03*
D29*
X124333000Y-125923000D03*
X124333000Y-125283000D03*
D30*
X133219593Y-146172318D03*
X133219593Y-146812318D03*
D29*
X123190000Y-144755000D03*
X123190000Y-144115000D03*
D30*
X131194296Y-146179445D03*
X131194296Y-146819445D03*
X134112000Y-143317000D03*
X134112000Y-143957000D03*
D14*
X143952000Y-124460000D03*
X144592000Y-124460000D03*
D26*
X135725999Y-128524999D03*
X135725999Y-131824999D03*
X140625999Y-131824999D03*
X140625999Y-128524999D03*
D14*
X115123000Y-124729000D03*
X115763000Y-124729000D03*
D31*
X137027999Y-159130999D03*
D32*
X135757999Y-159130999D03*
X134487999Y-159130999D03*
X133217999Y-159130999D03*
D33*
X129226000Y-130215000D03*
X128726000Y-130215000D03*
X128226000Y-130215000D03*
X127726000Y-130215000D03*
X127226000Y-130215000D03*
X126726000Y-130215000D03*
X126226000Y-130215000D03*
X125726000Y-130215000D03*
X125226000Y-130215000D03*
X124726000Y-130215000D03*
X124226000Y-130215000D03*
X123726000Y-130215000D03*
X123226000Y-130215000D03*
X122726000Y-130215000D03*
X122226000Y-130215000D03*
X121726000Y-130215000D03*
D34*
X119801000Y-132140000D03*
X119801000Y-132640000D03*
X119801000Y-133140000D03*
X119801000Y-133640000D03*
X119801000Y-134140000D03*
X119801000Y-134640000D03*
X119801000Y-135140000D03*
X119801000Y-135640000D03*
X119801000Y-136140000D03*
X119801000Y-136640000D03*
X119801000Y-137140000D03*
X119801000Y-137640000D03*
X119801000Y-138140000D03*
X119801000Y-138640000D03*
X119801000Y-139140000D03*
X119801000Y-139640000D03*
D33*
X121726000Y-141565000D03*
X122226000Y-141565000D03*
X122726000Y-141565000D03*
X123226000Y-141565000D03*
X123726000Y-141565000D03*
X124226000Y-141565000D03*
X124726000Y-141565000D03*
X125226000Y-141565000D03*
X125726000Y-141565000D03*
X126226000Y-141565000D03*
X126726000Y-141565000D03*
X127226000Y-141565000D03*
X127726000Y-141565000D03*
X128226000Y-141565000D03*
X128726000Y-141565000D03*
X129226000Y-141565000D03*
D34*
X131151000Y-139640000D03*
X131151000Y-139140000D03*
X131151000Y-138640000D03*
X131151000Y-138140000D03*
X131151000Y-137640000D03*
X131151000Y-137140000D03*
X131151000Y-136640000D03*
X131151000Y-136140000D03*
X131151000Y-135640000D03*
X131151000Y-135140000D03*
X131151000Y-134640000D03*
X131151000Y-134140000D03*
X131151000Y-133640000D03*
X131151000Y-133140000D03*
X131151000Y-132640000D03*
X131151000Y-132140000D03*
D35*
X128016000Y-117348000D03*
X125476000Y-117348000D03*
X122936000Y-117348000D03*
D36*
X120276000Y-113148001D03*
X130676000Y-113148001D03*
D29*
X134112000Y-113604000D03*
X134112000Y-112964000D03*
D30*
X132207000Y-144079000D03*
X132207000Y-144719000D03*
D14*
X140015000Y-156718000D03*
X140655000Y-156718000D03*
D30*
X134112000Y-118425000D03*
X134112000Y-119065000D03*
D29*
X120777000Y-125923000D03*
X120777000Y-125283000D03*
D18*
X125476000Y-147343000D03*
X125476000Y-148313000D03*
D30*
X134112000Y-115250000D03*
X134112000Y-115890000D03*
D10*
X128651000Y-147318000D03*
X128651000Y-148338000D03*
D30*
X122174000Y-144115000D03*
X122174000Y-144755000D03*
X132207000Y-146172000D03*
X132207000Y-146812000D03*
D31*
X148716999Y-129031999D03*
D32*
X148716999Y-127761999D03*
X148716999Y-126491999D03*
D37*
X114076000Y-115655000D03*
X115036000Y-115655000D03*
D29*
X130683000Y-125923000D03*
X130683000Y-125283000D03*
D14*
X113284000Y-128285000D03*
X113924000Y-128285000D03*
D38*
X116332000Y-144132000D03*
X116332000Y-145682000D03*
D39*
X111717000Y-135143000D03*
X112687000Y-135143000D03*
D30*
X121285000Y-144115000D03*
X121285000Y-144755000D03*
X125222000Y-144115000D03*
X125222000Y-144755000D03*
X134112000Y-135443000D03*
X134112000Y-136083000D03*
X134112000Y-138745000D03*
X134112000Y-139385000D03*
D18*
X145669000Y-150518000D03*
X145669000Y-151488000D03*
D40*
X148003499Y-140155499D03*
D41*
X148003499Y-137615499D03*
X148003499Y-135075499D03*
X148003499Y-132535499D03*
D14*
X111821000Y-114681000D03*
X112461000Y-114681000D03*
X113721000Y-129189000D03*
X114361000Y-129189000D03*
D30*
X134112000Y-147000000D03*
X134112000Y-147640000D03*
D31*
X118348999Y-158495999D03*
D32*
X119618999Y-158495999D03*
D31*
X148716999Y-122808999D03*
D32*
X148716999Y-124078999D03*
D12*
X117287000Y-131572000D03*
X116647000Y-131572000D03*
X115763000Y-123825000D03*
X115123000Y-123825000D03*
X117287000Y-132461000D03*
X116647000Y-132461000D03*
D14*
X115123000Y-118364000D03*
X115763000Y-118364000D03*
X115123000Y-119253000D03*
X115763000Y-119253000D03*
D31*
X148589999Y-143763999D03*
D32*
X148589999Y-145033999D03*
X148589999Y-146303999D03*
X148589999Y-147573999D03*
D42*
X110549999Y-151237999D03*
X110549999Y-152037999D03*
D43*
X111699999Y-151637999D03*
D12*
X121478000Y-150114000D03*
X120838000Y-150114000D03*
D29*
X123952000Y-144755000D03*
X123952000Y-144115000D03*
D14*
X111633000Y-128285000D03*
X112273000Y-128285000D03*
D12*
X117251000Y-141351000D03*
X116611000Y-141351000D03*
X118303000Y-146939000D03*
X117663000Y-146939000D03*
D14*
X113340000Y-134142000D03*
X113980000Y-134142000D03*
X111664000Y-139369509D03*
X112304000Y-139369509D03*
D12*
X117287000Y-134112000D03*
X116647000Y-134112000D03*
D14*
X115123000Y-125618000D03*
X115763000Y-125618000D03*
D39*
X111633022Y-122862923D03*
X112603022Y-122862923D03*
D14*
X143952000Y-119888000D03*
X144592000Y-119888000D03*
D30*
X131191000Y-144079000D03*
X131191000Y-144719000D03*
D44*
X114044000Y-114554000D03*
X115064000Y-114554000D03*
D39*
X111717000Y-129936000D03*
X112687000Y-129936000D03*
D12*
X119700000Y-146939000D03*
X119060000Y-146939000D03*
D18*
X130212000Y-144168000D03*
X130212000Y-145138000D03*
D12*
X117253481Y-138938000D03*
X116613481Y-138938000D03*
D45*
X116332000Y-148730000D03*
X116332000Y-147180000D03*
D29*
X128524000Y-125923000D03*
X128524000Y-125283000D03*
D18*
X110744000Y-153566000D03*
X110744000Y-154536000D03*
D26*
X135725999Y-139954999D03*
X135725999Y-143254999D03*
X140625999Y-143254999D03*
X140625999Y-139954999D03*
D30*
X120396000Y-144115000D03*
X120396000Y-144755000D03*
D46*
X111886999Y-131444999D03*
X111886999Y-132094999D03*
X111886999Y-132744999D03*
X113786999Y-132744999D03*
X113786999Y-131444999D03*
D14*
X131506000Y-156723500D03*
X132146000Y-156723500D03*
D10*
X144702000Y-128395000D03*
X144702000Y-129415000D03*
D45*
X143256000Y-129299000D03*
X143256000Y-127749000D03*
D47*
X110998000Y-144248500D03*
X110998000Y-146073500D03*
D14*
X119441000Y-156464000D03*
X120081000Y-156464000D03*
D46*
X111825999Y-125587999D03*
X111825999Y-126237999D03*
X111825999Y-126887999D03*
X113725999Y-126887999D03*
X113725999Y-125587999D03*
D29*
X128651000Y-152847000D03*
X128651000Y-152207000D03*
D14*
X143952000Y-121412000D03*
X144592000Y-121412000D03*
X113721000Y-130078000D03*
X114361000Y-130078000D03*
D10*
X123952000Y-147318000D03*
X123952000Y-148338000D03*
D30*
X134112000Y-148905000D03*
X134112000Y-149545000D03*
D10*
X126619000Y-147318000D03*
X126619000Y-148338000D03*
D39*
X111627000Y-124040000D03*
X112597000Y-124040000D03*
D48*
X133411000Y-152792000D03*
X132461000Y-152792000D03*
X131511000Y-152792000D03*
X131511000Y-155067000D03*
X133411000Y-155067000D03*
D49*
X112854500Y-142367000D03*
X114729500Y-142367000D03*
D24*
X105000000Y-115000000D03*
D25*
X105000000Y-115000000D03*
D14*
X143952000Y-122936000D03*
X144592000Y-122936000D03*
D30*
X134112000Y-126172000D03*
X134112000Y-126812000D03*
D50*
X112842000Y-146679500D03*
X113792000Y-146679500D03*
X114742000Y-146679500D03*
X114742000Y-144404500D03*
X112842000Y-144404500D03*
D29*
X126492000Y-152847000D03*
X126492000Y-152207000D03*
D13*
X143867500Y-148336000D03*
X145692500Y-148336000D03*
D29*
X121666000Y-125923000D03*
X121666000Y-125283000D03*
D14*
X136713000Y-156718000D03*
X137353000Y-156718000D03*
D29*
X124333000Y-127447000D03*
X124333000Y-126807000D03*
D18*
X122816678Y-147339089D03*
X122816678Y-148309089D03*
D51*
X128032235Y-156155000D03*
X125476000Y-156155000D03*
X122932235Y-156155000D03*
D52*
X128032235Y-158805000D03*
X122932235Y-158805000D03*
D30*
X134112000Y-137094000D03*
X134112000Y-137734000D03*
D53*
X119809500Y-148463000D03*
X117934500Y-148463000D03*
D44*
X116076000Y-115697000D03*
X117096000Y-115697000D03*
D18*
X145923000Y-128471000D03*
X145923000Y-129441000D03*
D30*
X111760000Y-153924000D03*
X111760000Y-154564000D03*
D24*
X146000000Y-115000000D03*
D25*
X146000000Y-115000000D03*
D29*
X132969000Y-125923000D03*
X132969000Y-125283000D03*
D54*
X114854500Y-148590000D03*
X112729500Y-148590000D03*
D46*
X111886999Y-136651999D03*
X111886999Y-137301999D03*
X111886999Y-137951999D03*
X113786999Y-137951999D03*
X113786999Y-136651999D03*
D30*
X128524000Y-144115000D03*
X128524000Y-144755000D03*
D26*
X135725999Y-117094999D03*
X135725999Y-120394999D03*
X140625999Y-120394999D03*
X140625999Y-117094999D03*
D55*
X141986000Y-159258000D03*
D30*
X127762000Y-144115000D03*
X127762000Y-144755000D03*
D29*
X134112000Y-151069000D03*
X134112000Y-150429000D03*
D30*
X134112000Y-131760000D03*
X134112000Y-132400000D03*
D14*
X115123000Y-126873000D03*
X115763000Y-126873000D03*
D30*
X134112000Y-129855000D03*
X134112000Y-130495000D03*
X134112000Y-120457000D03*
X134112000Y-121097000D03*
D14*
X133284000Y-156718000D03*
X133924000Y-156718000D03*
D26*
X135725999Y-151384999D03*
X135725999Y-154684999D03*
X140625999Y-154684999D03*
X140625999Y-151384999D03*
D30*
X140716000Y-114615000D03*
X140716000Y-115255000D03*
D29*
X131445000Y-125923000D03*
X131445000Y-125283000D03*
D12*
X118430000Y-156464000D03*
X117790000Y-156464000D03*
D39*
X111656000Y-119253000D03*
X112626000Y-119253000D03*
D14*
X113228697Y-139368025D03*
X113868697Y-139368025D03*
D29*
X132207000Y-125923000D03*
X132207000Y-125283000D03*
D26*
X135725999Y-145669999D03*
X135725999Y-148969999D03*
X140625999Y-148969999D03*
X140625999Y-145669999D03*
D24*
X105000000Y-156000000D03*
D25*
X105000000Y-156000000D03*
D30*
X129323000Y-144115000D03*
X129323000Y-144755000D03*
D18*
X129794000Y-147343000D03*
X129794000Y-148313000D03*
D14*
X115123000Y-137922000D03*
X115763000Y-137922000D03*
D12*
X117251000Y-139744527D03*
X116611000Y-139744527D03*
D14*
X116520000Y-114681000D03*
X117160000Y-114681000D03*
X115123000Y-122936000D03*
X115763000Y-122936000D03*
D30*
X132461000Y-150429000D03*
X132461000Y-151069000D03*
D50*
X122875000Y-152394500D03*
X123825000Y-152394500D03*
X124775000Y-152394500D03*
X124775000Y-150119500D03*
X122875000Y-150119500D03*
D30*
X126746000Y-144115000D03*
X126746000Y-144755000D03*
D56*
X113757000Y-150495000D03*
X113757000Y-151765000D03*
X113757000Y-153035000D03*
X113757000Y-154305000D03*
X118907000Y-154305000D03*
X118907000Y-153035000D03*
X118907000Y-151765000D03*
X118907000Y-150495000D03*
D57*
X111478000Y-142875000D03*
X110518000Y-142875000D03*
D30*
X134112000Y-133538000D03*
X134112000Y-134178000D03*
X134112000Y-141285000D03*
X134112000Y-141925000D03*
X125984000Y-144115000D03*
X125984000Y-144755000D03*
X133223000Y-144079000D03*
X133223000Y-144719000D03*
D29*
X123190000Y-125923000D03*
X123190000Y-125283000D03*
D31*
X148589999Y-149971999D03*
D32*
X148589999Y-151241999D03*
D12*
X117287000Y-129794000D03*
X116647000Y-129794000D03*
D14*
X115123000Y-122047000D03*
X115763000Y-122047000D03*
D29*
X129794000Y-125923000D03*
X129794000Y-125283000D03*
D38*
X117898403Y-143744860D03*
X117898403Y-145294860D03*
D31*
X148716999Y-120410999D03*
D32*
X148716999Y-119140999D03*
D26*
X135725999Y-122809999D03*
X135725999Y-126109999D03*
X140625999Y-126109999D03*
X140625999Y-122809999D03*
D55*
X109855000Y-113157000D03*
D30*
X134112000Y-124140000D03*
X134112000Y-124780000D03*
D14*
X115123000Y-134112000D03*
X115763000Y-134112000D03*
D12*
X117251000Y-140589000D03*
X116611000Y-140589000D03*
D58*
X137916500Y-115250000D03*
X137916500Y-114300000D03*
X137916500Y-113350000D03*
X135641500Y-113350000D03*
X135641500Y-115250000D03*
D12*
X117287000Y-135636000D03*
X116647000Y-135636000D03*
D30*
X122428000Y-125918000D03*
X122428000Y-126558000D03*
M02*
